# Blender 5.0.0
# www.blender.org
mtllib projectile.mtl
o Sphere
v 0.000000 0.000000 1.000000
v 0.000000 -0.587785 0.809017
v 0.000000 -0.951057 0.309017
v 0.000000 -0.951057 -0.309017
v 0.000000 -0.587785 -0.809017
v 0.000000 0.000000 -1.000000
v -0.415627 -0.415627 0.809017
v -0.672499 -0.672499 0.309017
v -0.672499 -0.672499 -0.309017
v -0.415627 -0.415627 -0.809017
v -0.587785 0.000000 0.809017
v -0.951057 0.000000 0.309017
v -0.951057 0.000000 -0.309017
v -0.587785 0.000000 -0.809017
v -0.415627 0.415627 0.809017
v -0.672499 0.672499 0.309017
v -0.672499 0.672499 -0.309017
v -0.415627 0.415627 -0.809017
v 0.000000 0.587785 0.809017
v 0.000000 0.951057 0.309017
v 0.000000 0.951057 -0.309017
v 0.000000 0.587785 -0.809017
v 0.415627 0.415627 0.809017
v 0.672499 0.672499 0.309017
v 0.672499 0.672499 -0.309017
v 0.415627 0.415627 -0.809017
v 0.587785 0.000000 0.809017
v 0.951057 0.000000 0.309017
v 0.951057 0.000000 -0.309017
v 0.587785 0.000000 -0.809017
v 0.415627 -0.415627 0.809017
v 0.672499 -0.672499 0.309017
v 0.672499 -0.672499 -0.309017
v 0.415627 -0.415627 -0.809017
vn -0.1270 -0.3065 -0.9434
vn -0.3827 -0.9239 -0.0000
vn -0.1270 -0.3065 0.9434
vn -0.3177 -0.7671 -0.5573
vn -0.3177 -0.7671 0.5573
vn -0.7671 -0.3177 0.5573
vn -0.3065 -0.1270 -0.9434
vn -0.9239 -0.3827 -0.0000
vn -0.3065 -0.1270 0.9434
vn -0.7671 -0.3177 -0.5573
vn -0.7671 0.3177 0.5573
vn -0.3065 0.1270 -0.9434
vn -0.9239 0.3827 -0.0000
vn -0.3065 0.1270 0.9434
vn -0.7671 0.3177 -0.5573
vn -0.3177 0.7671 0.5573
vn -0.1270 0.3065 -0.9434
vn -0.3827 0.9239 -0.0000
vn -0.1270 0.3065 0.9434
vn -0.3177 0.7671 -0.5573
vn 0.3177 0.7671 0.5573
vn 0.1270 0.3065 -0.9434
vn 0.3827 0.9239 -0.0000
vn 0.1270 0.3065 0.9434
vn 0.3177 0.7671 -0.5573
vn 0.7671 0.3177 0.5573
vn 0.3065 0.1270 -0.9434
vn 0.9239 0.3827 -0.0000
vn 0.3065 0.1270 0.9434
vn 0.7671 0.3177 -0.5573
vn 0.7671 -0.3177 0.5573
vn 0.3065 -0.1270 -0.9434
vn 0.9239 -0.3827 -0.0000
vn 0.3065 -0.1270 0.9434
vn 0.7671 -0.3177 -0.5573
vn 0.3177 -0.7671 0.5573
vn 0.1270 -0.3065 -0.9434
vn 0.3827 -0.9239 -0.0000
vn 0.1270 -0.3065 0.9434
vn 0.3177 -0.7671 -0.5573
vt 0.687500 0.000000
vt 0.750000 0.200000
vt 0.625000 0.200000
vt 0.750000 0.600000
vt 0.625000 0.400000
vt 0.750000 0.400000
vt 0.750000 0.800000
vt 0.687500 1.000000
vt 0.625000 0.800000
vt 0.625000 0.600000
vt 0.500000 0.800000
vt 0.500000 0.600000
vt 0.562500 0.000000
vt 0.500000 0.200000
vt 0.500000 0.400000
vt 0.562500 1.000000
vt 0.375000 0.600000
vt 0.437500 0.000000
vt 0.375000 0.200000
vt 0.375000 0.400000
vt 0.437500 1.000000
vt 0.375000 0.800000
vt 0.250000 0.600000
vt 0.312500 0.000000
vt 0.250000 0.200000
vt 0.250000 0.400000
vt 0.312500 1.000000
vt 0.250000 0.800000
vt 0.125000 0.600000
vt 0.187500 0.000000
vt 0.125000 0.200000
vt 0.125000 0.400000
vt 0.187500 1.000000
vt 0.125000 0.800000
vt 0.000000 0.600000
vt 0.062500 0.000000
vt 0.000000 0.200000
vt 0.000000 0.400000
vt 0.062500 1.000000
vt 0.000000 0.800000
vt 1.000000 0.800000
vt 0.875000 0.600000
vt 1.000000 0.600000
vt 0.937500 0.000000
vt 1.000000 0.200000
vt 0.875000 0.200000
vt 0.875000 0.400000
vt 1.000000 0.400000
vt 0.937500 1.000000
vt 0.875000 0.800000
vt 0.812500 0.000000
vt 0.812500 1.000000
s 0
usemtl Material.001
f 6/1/1 5/2/1 10/3/1
f 3/4/2 9/5/2 4/6/2
f 2/7/3 1/8/3 7/9/3
f 4/6/4 10/3/4 5/2/4
f 3/4/5 7/9/5 8/10/5
f 8/10/6 11/11/6 12/12/6
f 6/13/7 10/3/7 14/14/7
f 8/10/8 13/15/8 9/5/8
f 7/9/9 1/16/9 11/11/9
f 9/5/10 14/14/10 10/3/10
f 11/11/11 16/17/11 12/12/11
f 6/18/12 14/14/12 18/19/12
f 12/12/13 17/20/13 13/15/13
f 11/11/14 1/21/14 15/22/14
f 13/15/15 18/19/15 14/14/15
f 15/22/16 20/23/16 16/17/16
f 6/24/17 18/19/17 22/25/17
f 16/17/18 21/26/18 17/20/18
f 15/22/19 1/27/19 19/28/19
f 17/20/20 22/25/20 18/19/20
f 19/28/21 24/29/21 20/23/21
f 6/30/22 22/25/22 26/31/22
f 20/23/23 25/32/23 21/26/23
f 19/28/24 1/33/24 23/34/24
f 21/26/25 26/31/25 22/25/25
f 23/34/26 28/35/26 24/29/26
f 6/36/27 26/31/27 30/37/27
f 24/29/28 29/38/28 25/32/28
f 23/34/29 1/39/29 27/40/29
f 25/32/30 30/37/30 26/31/30
f 27/41/31 32/42/31 28/43/31
f 6/44/32 30/45/32 34/46/32
f 28/43/33 33/47/33 29/48/33
f 27/41/34 1/49/34 31/50/34
f 29/48/35 34/46/35 30/45/35
f 32/42/36 2/7/36 3/4/36
f 6/51/37 34/46/37 5/2/37
f 32/42/38 4/6/38 33/47/38
f 31/50/39 1/52/39 2/7/39
f 33/47/40 5/2/40 34/46/40
f 3/4/2 8/10/2 9/5/2
f 4/6/4 9/5/4 10/3/4
f 3/4/5 2/7/5 7/9/5
f 8/10/6 7/9/6 11/11/6
f 8/10/8 12/12/8 13/15/8
f 9/5/10 13/15/10 14/14/10
f 11/11/11 15/22/11 16/17/11
f 12/12/13 16/17/13 17/20/13
f 13/15/15 17/20/15 18/19/15
f 15/22/16 19/28/16 20/23/16
f 16/17/18 20/23/18 21/26/18
f 17/20/20 21/26/20 22/25/20
f 19/28/21 23/34/21 24/29/21
f 20/23/23 24/29/23 25/32/23
f 21/26/25 25/32/25 26/31/25
f 23/34/26 27/40/26 28/35/26
f 24/29/28 28/35/28 29/38/28
f 25/32/30 29/38/30 30/37/30
f 27/41/31 31/50/31 32/42/31
f 28/43/33 32/42/33 33/47/33
f 29/48/35 33/47/35 34/46/35
f 32/42/36 31/50/36 2/7/36
f 32/42/38 3/4/38 4/6/38
f 33/47/40 4/6/40 5/2/40
