# Blender 4.5.4 LTS
# www.blender.org
mtllib shoulder1.mtl
o Shoulder1
v -1.090849 0.247822 9.222587
v -1.090849 0.247822 9.718228
v -1.090849 -0.247820 9.222587
v -1.090849 -0.247820 9.718228
v -1.586491 0.247822 9.222587
v -1.586491 0.247822 9.718228
v -1.586491 -0.247820 9.222587
v -1.586491 -0.247820 9.718228
v -1.599417 -0.744884 10.549752
v -1.599417 -1.356726 10.549752
v -2.211259 -1.356726 10.549752
v -2.211259 -0.744884 10.549752
v -1.599417 -0.744884 12.096966
v -1.599417 -1.356726 12.096966
v -2.211259 -1.356726 12.096966
v -2.211259 -0.744884 12.096966
v -2.211259 -1.841606 10.549752
v -1.599417 -1.841606 10.549752
v -2.211259 -1.841606 12.096966
v -1.599417 -1.841606 12.096966
v -1.599417 0.689291 10.549752
v -2.211259 0.689291 10.549752
v -1.599417 0.689291 12.096966
v -2.211259 0.689291 12.096966
vn 1.0000 -0.0000 -0.0000
vn -0.7995 -0.0000 -0.6007
vn -1.0000 -0.0000 -0.0000
vn -0.0000 1.0000 -0.0000
vn -0.0000 -0.0000 -1.0000
vn -0.0000 -0.0000 1.0000
vn -0.0000 -0.7674 -0.6412
vn -0.0000 0.8583 0.5131
vn 0.9090 -0.4169 -0.0000
vn -0.0000 -1.0000 -0.0000
vn -0.8712 0.4909 -0.0000
vn 0.8531 -0.0000 0.5218
vt 0.148404 0.132276
vt 0.161509 0.145407
vt 0.148404 0.145374
vt 0.113465 0.132645
vt 0.083265 0.109692
vt 0.099435 0.109634
vt 0.126564 0.145687
vt 0.113465 0.145734
vt 0.099762 0.158852
vt 0.112674 0.145734
vt 0.112674 0.158852
vt 0.217215 0.155599
vt 0.205566 0.165949
vt 0.204257 0.157640
vt 0.086644 0.158852
vt 0.099762 0.145734
vt 0.099762 0.158852
vt 0.099435 0.068774
vt 0.210429 0.110329
vt 0.226425 0.107808
vt 0.169726 0.174541
vt 0.183059 0.154599
vt 0.180527 0.181987
vt 0.161509 0.132309
vt 0.191436 0.109661
vt 0.137339 0.183366
vt 0.153532 0.199560
vt 0.137339 0.199560
vt 0.191436 0.068774
vt 0.204257 0.109693
vt 0.153532 0.145407
vt 0.153532 0.183366
vt 0.175259 0.109621
vt 0.968253 0.030610
vt 0.825632 0.391267
vt 0.825632 0.030610
vt 0.225144 0.099680
vt 0.070450 0.068879
vt 0.083265 0.068832
vt 0.137339 0.212393
vt 0.800010 0.994376
vt 0.984186 0.535964
vt 0.984186 0.994376
vt 0.137515 0.678064
vt 0.389205 0.950079
vt 0.137515 0.949448
vt 0.086644 0.145734
vt 0.070450 0.170073
vt 0.070450 0.145734
vt 0.640784 0.949174
vt 0.389205 0.678877
vt 0.640784 0.677972
vt 0.126564 0.132598
vt 0.218524 0.163907
vt 0.086644 0.145734
vt 0.169726 0.145407
vt 0.204257 0.068806
vt 0.137339 0.145407
vt 0.175259 0.068733
vt 0.968253 0.391267
vt 0.209148 0.102201
vt 0.070450 0.109739
vt 0.153532 0.212393
vt 0.800010 0.535964
vt 0.389205 0.678695
vt 0.086644 0.170073
s 0
usemtl Shoulder1
f 2/1/1 3/2/1 1/3/1
f 8/4/2 11/5/2 12/6/2
f 8/4/3 5/7/3 7/8/3
f 6/9/4 1/10/4 5/11/4
f 7/12/5 1/13/5 3/14/5
f 4/15/6 6/16/6 8/17/6
f 11/5/3 16/18/3 12/6/3
f 7/12/7 10/19/7 11/20/7
f 8/21/8 9/22/8 4/23/8
f 4/24/9 10/25/9 3/2/9
f 13/26/6 15/27/6 14/28/6
f 14/29/1 18/30/1 10/25/1
f 13/26/6 24/31/6 16/32/6
f 9/33/1 14/29/1 10/25/1
f 18/34/10 19/35/10 17/36/10
f 10/19/5 17/37/5 11/20/5
f 11/5/3 19/38/3 15/39/3
f 15/27/6 20/40/6 14/28/6
f 22/41/4 23/42/4 21/43/4
f 9/44/1 23/45/1 13/46/1
f 12/47/5 21/48/5 9/49/5
f 16/50/3 22/51/3 12/52/3
f 2/1/1 4/24/1 3/2/1
f 8/4/11 7/8/11 11/5/11
f 8/4/3 6/53/3 5/7/3
f 6/9/4 2/16/4 1/10/4
f 7/12/5 5/54/5 1/13/5
f 4/15/6 2/55/6 6/16/6
f 11/5/3 15/39/3 16/18/3
f 7/12/7 3/14/7 10/19/7
f 8/21/8 12/56/8 9/22/8
f 4/24/12 9/33/12 10/25/12
f 13/26/6 16/32/6 15/27/6
f 14/29/1 20/57/1 18/30/1
f 13/26/6 23/58/6 24/31/6
f 9/33/1 13/59/1 14/29/1
f 18/34/10 20/60/10 19/35/10
f 10/19/5 18/61/5 17/37/5
f 11/5/3 17/62/3 19/38/3
f 15/27/6 19/63/6 20/40/6
f 22/41/4 24/64/4 23/42/4
f 9/44/1 21/65/1 23/45/1
f 12/47/5 22/66/5 21/48/5
f 16/50/3 24/45/3 22/51/3
