# Blender 4.5.4 LTS
# www.blender.org
mtllib shoulder2.mtl
o Shoulder2
v -1.090849 0.247822 9.222587
v -1.090849 0.247822 9.718228
v -1.090849 -0.247820 9.222587
v -1.090849 -0.247820 9.718228
v -1.586491 0.247822 9.222587
v -1.586491 0.247822 9.718228
v -1.586491 -0.247820 9.222587
v -1.586491 -0.247820 9.718228
v -1.599417 -0.744884 10.549752
v -1.599417 -1.356726 10.549752
v -2.211259 -1.356726 10.549752
v -2.211259 -0.744884 10.549752
v -1.709456 -1.079344 11.574024
v -1.709456 -1.471107 11.574024
v -2.101220 -1.471107 11.574024
v -2.101220 -1.079344 11.574024
v -0.302693 -1.190421 11.752899
v -0.302693 -1.360030 11.752899
v -3.507983 -1.360030 11.752899
v -3.507983 -1.190421 11.752899
v -0.302693 -1.190421 13.058825
v -0.302693 -1.360030 13.058825
v -3.507983 -1.360030 13.058825
v -3.507983 -1.190421 13.058825
v -1.709456 -0.889389 11.691981
v -2.101220 -0.889389 11.691981
v -1.624636 -1.000466 11.870856
v -2.186040 -1.000466 11.870856
v -1.813186 -0.758991 12.017756
v -1.997490 -0.758991 12.017756
v -1.773282 -0.844231 11.967296
v -2.037394 -0.844231 11.967296
v -1.813186 -0.786859 12.064833
v -1.997490 -0.786859 12.064833
v -1.773282 -0.872099 12.014372
v -2.037394 -0.872099 12.014372
v -1.000221 -1.227330 13.151314
v -1.000221 -1.323120 13.151314
v -2.810455 -1.323120 13.151314
v -2.810455 -1.227330 13.151314
vn 1.0000 -0.0000 -0.0000
vn -0.7995 -0.0000 -0.6007
vn -1.0000 -0.0000 -0.0000
vn -0.0000 1.0000 -0.0000
vn -0.0000 -0.0000 -1.0000
vn -0.0000 -0.0000 1.0000
vn -0.0000 -0.7674 -0.6412
vn -0.0000 0.8583 0.5131
vn 0.9090 -0.4169 -0.0000
vn -0.0000 0.9506 0.3104
vn -0.1261 -0.0000 -0.9920
vn 0.9943 -0.0000 0.1068
vn -0.9943 -0.0000 0.1068
vn -0.0000 -0.9938 -0.1110
vn -0.0000 -0.8495 0.5275
vn -0.0000 -0.5275 0.8495
vn 0.1261 -0.0000 -0.9920
vn -0.0000 0.9288 0.3706
vn -0.0000 -1.0000 -0.0000
vn 0.7421 0.6674 0.0626
vn 0.1114 0.9521 -0.2848
vn -0.0000 0.5275 -0.8495
vn -0.9276 0.1971 -0.3174
vn -0.0000 -0.8605 -0.5094
vn -0.0000 -0.5253 0.8509
vn -0.9270 0.3397 0.1592
vn -0.0000 0.9284 -0.3716
vn -0.0000 -0.5094 0.8605
vn -0.9276 0.3215 0.1903
vn -0.0000 0.8605 0.5094
vn 0.9276 0.3215 0.1903
vn 0.1314 -0.0000 0.9913
vn -0.1314 -0.0000 0.9913
vn -0.0000 -0.9288 0.3707
vn -0.8712 0.4909 -0.0000
vn 0.8531 -0.0000 0.5218
vn -0.0000 0.9288 0.3707
vn 0.9270 0.3397 0.1592
vn 0.9276 0.1971 -0.3174
vn -0.1114 0.9521 -0.2848
vn -0.7421 0.6674 0.0626
vt 0.148404 0.132276
vt 0.161509 0.145407
vt 0.148404 0.145374
vt 0.113465 0.132645
vt 0.083265 0.109692
vt 0.099435 0.109634
vt 0.126564 0.145687
vt 0.113465 0.145734
vt 0.099762 0.158852
vt 0.112674 0.145734
vt 0.112674 0.158852
vt 0.217215 0.155599
vt 0.205566 0.165949
vt 0.204257 0.157640
vt 0.086644 0.158852
vt 0.099762 0.145734
vt 0.099762 0.158852
vt 0.210429 0.110329
vt 0.226425 0.107808
vt 0.169726 0.174541
vt 0.183059 0.154599
vt 0.180527 0.181987
vt 0.161509 0.132309
vt 0.191436 0.109661
vt 0.169726 0.145407
vt 0.175259 0.109621
vt 0.991853 1.000000
vt 0.584424 -0.000000
vt 0.991853 0.000000
vt 0.619606 0.997761
vt 0.565124 0.216660
vt 0.589662 -0.001791
vt 0.672329 0.483141
vt 0.684679 0.528231
vt 0.676180 0.538585
vt 0.699000 0.504139
vt 0.685205 0.502522
vt 0.709852 0.541662
vt 0.697234 0.526297
vt 0.709852 0.493800
vt 0.126564 0.132598
vt 0.218524 0.163907
vt 0.086644 0.145734
vt 0.584424 1.000000
vt 0.582036 0.781171
s 0
usemtl Shoulder2
f 2/1/1 3/2/1 1/3/1
f 8/4/2 11/5/2 12/6/2
f 8/4/3 5/7/3 7/8/3
f 6/9/4 1/10/4 5/11/4
f 7/12/5 1/13/5 3/14/5
f 4/15/6 6/16/6 8/17/6
f 7/12/7 10/18/7 11/19/7
f 8/20/8 9/21/8 4/22/8
f 4/23/9 10/24/9 3/2/9
f 12/25/10 13/21/10 9/21/10
f 15/5/11 20/6/11 16/6/11
f 10/24/12 13/26/12 14/24/12
f 11/5/13 16/6/13 12/6/13
f 10/18/14 15/19/14 11/19/14
f 20/27/4 21/28/4 17/29/4
f 14/18/15 19/19/15 15/19/15
f 17/21/16 28/25/16 20/25/16
f 13/26/17 18/24/17 14/24/17
f 24/30/18 37/31/18 21/32/18
f 17/26/1 22/24/1 18/24/1
f 19/5/3 24/6/3 20/6/3
f 18/18/19 23/19/19 19/19/19
f 25/26/20 31/26/20 27/26/20
f 13/26/21 27/26/21 17/26/21
f 16/25/22 25/21/22 13/21/22
f 16/6/23 28/6/23 26/6/23
f 31/33/24 36/34/24 32/35/24
f 27/21/25 32/25/25 28/25/25
f 26/6/26 32/6/26 30/6/26
f 26/25/27 29/21/27 25/21/27
f 33/36/28 36/34/28 35/37/28
f 30/38/29 36/34/29 34/39/29
f 30/38/30 33/36/30 29/40/30
f 29/40/31 35/37/31 31/33/31
f 37/21/6 39/19/6 38/18/6
f 21/26/32 38/24/32 22/24/32
f 23/5/33 40/6/33 24/6/33
f 23/19/34 38/18/34 39/19/34
f 2/1/1 4/23/1 3/2/1
f 8/4/35 7/8/35 11/5/35
f 8/4/3 6/41/3 5/7/3
f 6/9/4 2/16/4 1/10/4
f 7/12/5 5/42/5 1/13/5
f 4/15/6 2/43/6 6/16/6
f 7/12/7 3/14/7 10/18/7
f 8/20/8 12/25/8 9/21/8
f 4/23/36 9/26/36 10/24/36
f 12/25/10 16/25/10 13/21/10
f 15/5/11 19/5/11 20/6/11
f 10/24/12 9/26/12 13/26/12
f 11/5/13 15/5/13 16/6/13
f 10/18/14 14/18/14 15/19/14
f 20/27/4 24/44/4 21/28/4
f 14/18/15 18/18/15 19/19/15
f 17/21/16 27/21/16 28/25/16
f 13/26/17 17/26/17 18/24/17
f 24/30/37 40/45/37 37/31/37
f 17/26/1 21/26/1 22/24/1
f 19/5/3 23/5/3 24/6/3
f 18/18/19 22/18/19 23/19/19
f 25/26/38 29/26/38 31/26/38
f 13/26/39 25/26/39 27/26/39
f 16/25/22 26/25/22 25/21/22
f 16/6/40 20/6/40 28/6/40
f 31/33/24 35/37/24 36/34/24
f 27/21/25 31/21/25 32/25/25
f 26/6/41 28/6/41 32/6/41
f 26/25/27 30/25/27 29/21/27
f 33/36/28 34/39/28 36/34/28
f 30/38/29 32/35/29 36/34/29
f 30/38/30 34/39/30 33/36/30
f 29/40/31 33/36/31 35/37/31
f 37/21/6 40/6/6 39/19/6
f 21/26/32 37/26/32 38/24/32
f 23/5/33 39/5/33 40/6/33
f 23/19/34 22/18/34 38/18/34
