# Blender 4.5.4 LTS
# www.blender.org
mtllib shoulder3.mtl
o Shoulder3
v -1.090849 0.247822 9.222587
v -1.090849 0.247822 9.718228
v -1.090849 -0.247820 9.222587
v -1.090849 -0.247820 9.718228
v -1.586491 0.247822 9.222587
v -1.586491 0.247822 9.718228
v -1.586491 -0.247820 9.222587
v -1.586491 -0.247820 9.718228
v -1.599417 -0.744884 10.549752
v -1.599417 -1.049243 10.549752
v -2.211259 -1.049243 10.549752
v -2.211259 -0.744884 10.549752
v -1.599417 3.375967 11.595467
v -2.211259 3.375967 11.595467
v -2.211259 3.087797 11.337519
v -1.599417 3.087797 11.337519
v -2.211259 -0.744884 11.337519
v -1.599417 -0.744884 11.337519
v -2.211259 -0.744884 11.595467
v -2.211259 -1.049243 11.595467
v -1.599417 -1.049243 11.595467
v -1.599417 -0.744884 11.595467
v -0.671754 3.773377 9.919086
v -1.283596 3.773377 9.919086
v -0.671754 3.773377 8.708595
v -1.283596 3.773377 8.708595
v 0.555721 3.925398 10.270500
v -2.511071 3.925398 10.270500
v 0.555721 3.925398 5.834192
v -2.511071 3.925398 5.834192
vn 1.0000 -0.0000 -0.0000
vn -0.7995 -0.0000 -0.6007
vn -1.0000 -0.0000 -0.0000
vn -0.0000 1.0000 -0.0000
vn -0.0000 -0.0000 -1.0000
vn -0.0000 -0.0000 1.0000
vn -0.0000 -0.8560 -0.5169
vn -0.0000 0.8583 0.5131
vn 0.8443 -0.5358 -0.0000
vn -0.5943 0.8042 -0.0000
vn -0.0000 -1.0000 -0.0000
vn -0.0000 -0.9986 -0.0528
vn -0.0000 0.9730 0.2307
vn -0.0000 -0.9676 -0.2523
vn 0.8527 -0.3484 0.3893
vn 0.1229 -0.9924 -0.0000
vn -0.1229 -0.9924 -0.0000
vn -0.0000 -0.9178 0.3970
vn -0.7887 0.6148 -0.0000
vn 0.8531 -0.0000 0.5218
vn -0.8527 0.3484 -0.3893
vn 0.5943 -0.8042 -0.0000
vt 0.148404 0.132276
vt 0.161509 0.145407
vt 0.148404 0.145374
vt 0.113465 0.132645
vt 0.083265 0.109692
vt 0.099435 0.109634
vt 0.126564 0.145687
vt 0.113465 0.145734
vt 0.099762 0.158852
vt 0.112674 0.145734
vt 0.112674 0.158852
vt 0.217215 0.155599
vt 0.205566 0.165949
vt 0.204257 0.157640
vt 0.086644 0.158852
vt 0.099762 0.145734
vt 0.099762 0.158852
vt 0.210429 0.110329
vt 0.226425 0.107808
vt 0.169726 0.174541
vt 0.183059 0.154599
vt 0.180527 0.181987
vt 0.161509 0.132309
vt 0.191436 0.109661
vt 0.169726 0.145407
vt 0.175259 0.109621
vt 0.126564 0.132598
vt 0.218524 0.163907
vt 0.086644 0.145734
s 0
usemtl Shoulder3
f 2/1/1 3/2/1 1/3/1
f 8/4/2 11/5/2 12/6/2
f 8/4/3 5/7/3 7/8/3
f 6/9/4 1/10/4 5/11/4
f 7/12/5 1/13/5 3/14/5
f 4/15/6 6/16/6 8/17/6
f 7/12/7 10/18/7 11/19/7
f 8/20/8 9/21/8 4/22/8
f 4/23/9 10/24/9 3/2/9
f 19/6/3 15/6/3 17/6/3
f 17/25/5 16/21/5 18/21/5
f 22/26/1 16/26/1 13/26/1
f 22/21/6 14/6/6 19/6/6
f 15/6/10 24/6/10 26/6/10
f 9/26/1 18/26/1 21/24/1
f 12/25/4 18/21/4 9/21/4
f 10/18/11 20/19/11 11/19/11
f 22/21/6 20/19/6 21/18/6
f 11/5/3 19/6/3 17/6/3
f 26/25/12 29/21/12 25/21/12
f 13/21/13 24/6/13 14/6/13
f 16/21/14 26/25/14 25/21/14
f 16/26/15 23/26/15 13/26/15
f 30/25/4 27/21/4 29/21/4
f 25/26/16 27/26/16 23/26/16
f 26/6/17 28/6/17 30/6/17
f 24/6/18 27/21/18 28/6/18
f 2/1/1 4/23/1 3/2/1
f 8/4/19 7/8/19 11/5/19
f 8/4/3 6/27/3 5/7/3
f 6/9/4 2/16/4 1/10/4
f 7/12/5 5/28/5 1/13/5
f 4/15/6 2/29/6 6/16/6
f 7/12/7 3/14/7 10/18/7
f 8/20/8 12/25/8 9/21/8
f 4/23/20 9/26/20 10/24/20
f 19/6/3 14/6/3 15/6/3
f 17/25/5 15/25/5 16/21/5
f 22/26/1 18/26/1 16/26/1
f 22/21/6 13/21/6 14/6/6
f 15/6/21 14/6/21 24/6/21
f 21/24/1 10/24/1 9/26/1
f 18/26/1 22/26/1 21/24/1
f 12/25/4 17/25/4 18/21/4
f 10/18/11 21/18/11 20/19/11
f 22/21/6 19/6/6 20/19/6
f 17/6/3 12/6/3 11/5/3
f 11/5/3 20/5/3 19/6/3
f 26/25/12 30/25/12 29/21/12
f 13/21/13 23/21/13 24/6/13
f 16/21/14 15/25/14 26/25/14
f 16/26/22 25/26/22 23/26/22
f 30/25/4 28/25/4 27/21/4
f 25/26/16 29/26/16 27/26/16
f 26/6/17 24/6/17 28/6/17
f 24/6/18 23/21/18 27/21/18
