# Blender 4.5.4 LTS
# www.blender.org
mtllib weapon3.mtl
o ArmWeapon3
v 3.538130 3.559766 6.607861
v 3.538130 3.559766 7.952453
v 3.538130 2.907305 6.607861
v 3.538130 2.907305 7.952453
v 2.885668 3.559766 6.607861
v 2.885668 3.559766 7.952453
v 2.885668 2.907305 6.607861
v 2.885668 2.907305 7.952453
v 3.538130 2.907305 5.425212
v 3.538130 3.559766 5.425212
v 2.885668 2.907305 5.425212
v 2.885668 3.559766 5.425212
v 3.447973 3.750965 6.444443
v 2.975825 3.750965 6.444443
v 3.447973 3.750965 5.588630
v 2.975825 3.750965 5.588630
v 2.885668 -0.146525 6.607861
v 3.538130 -0.146525 6.607861
v 2.885668 -0.146525 5.425212
v 3.538130 -0.146525 5.425212
v 3.024362 -0.914467 6.356465
v 3.399436 -0.914467 6.356465
v 3.024362 -0.914467 5.676608
v 3.399436 -0.914467 5.676608
v 3.695404 3.717040 8.039703
v 3.695404 2.750031 8.039703
v 2.728394 2.750031 8.039703
v 2.728394 3.717040 8.039703
v 3.695404 3.717040 9.031263
v 3.695404 2.750031 9.031263
v 2.728394 2.750031 9.031263
v 2.728394 3.717040 9.031263
v 3.546163 2.531100 8.192733
v 2.877635 2.531100 8.192733
v 3.546163 2.531100 8.878234
v 2.877635 2.531100 8.878234
v 2.962319 7.668904 8.279568
v 3.461478 7.668904 8.279568
v 2.962319 7.668904 8.791399
v 3.461478 7.668904 8.791399
v 3.064399 7.914999 8.384238
v 3.359399 7.914999 8.384238
v 3.064399 7.914999 8.686728
v 3.359399 7.914999 8.686728
vn 1.0000 -0.0000 -0.0000
vn -0.0000 -1.0000 -0.0000
vn -1.0000 -0.0000 -0.0000
vn -0.0000 1.0000 -0.0000
vn -0.0000 -0.0000 -1.0000
vn -0.0000 0.4851 -0.8744
vn -0.0000 0.6497 -0.7602
vn 0.9045 0.4265 -0.0000
vn -0.0000 0.6497 0.7602
vn -0.9045 0.4265 -0.0000
vn 0.9841 -0.1777 -0.0000
vn -0.0000 -0.0000 1.0000
vn -0.0000 -0.3111 -0.9504
vn -0.9841 -0.1777 -0.0000
vn -0.0000 -0.3111 0.9504
vn -0.0000 -0.5729 -0.8196
vn -0.0000 -0.4851 -0.8744
vn -0.4851 -0.0000 -0.8744
vn 0.4851 -0.0000 -0.8744
vn 0.9983 0.0591 -0.0000
vn 0.8263 -0.5633 -0.0000
vn -0.8263 -0.5633 -0.0000
vn -0.0000 -0.5729 0.8196
vn 0.9237 0.3831 -0.0000
vn -0.0000 0.0606 0.9982
vn -0.0000 0.0606 -0.9982
vn -0.9983 0.0591 -0.0000
vn -0.0000 0.3914 0.9202
vn -0.9237 0.3831 -0.0000
vn -0.0000 0.3914 -0.9202
vt 0.037842 0.147710
vt 0.072142 0.131130
vt 0.072142 0.147710
vt 0.071130 0.152771
vt 0.087775 0.187071
vt 0.071130 0.187071
vt 0.102312 0.055969
vt 0.136612 0.039390
vt 0.136612 0.055969
vt 0.087775 0.152771
vt 0.104419 0.187071
vt 0.054486 0.174360
vt 0.037842 0.252251
vt 0.037842 0.174360
vt 0.246050 0.145600
vt 0.266706 0.141551
vt 0.262694 0.145600
vt 0.054486 0.157718
vt 0.102312 0.147710
vt 0.166781 0.055969
vt 0.037842 0.157718
vt 0.052186 0.152771
vt 0.123674 0.636315
vt 0.111630 0.658146
vt 0.111630 0.636315
vt 0.076311 0.152771
vt 0.143085 0.152771
vt 0.148081 0.167115
vt 0.143085 0.169415
vt 0.162612 0.034329
vt 0.166781 0.039390
vt 0.072142 0.053531
vt 0.095898 0.034329
vt 0.102312 0.053531
vt 0.366775 0.538746
vt 0.207105 0.949439
vt 0.207105 0.538746
vt 0.026755 0.936533
vt 0.186425 0.525840
vt 0.186425 0.936533
vt 0.054486 0.250037
vt 0.071130 0.172167
vt 0.071130 0.250037
vt 0.127090 0.690452
vt 0.117522 0.707795
vt 0.117522 0.690452
vt 0.054486 0.252251
vt 0.041380 0.271730
vt 0.166781 0.133569
vt 0.143025 0.152771
vt 0.136612 0.133569
vt 0.054486 0.172167
vt 0.067592 0.152771
vt 0.266706 0.166215
vt 0.245845 0.171734
vt 0.242038 0.166215
vt 0.262694 0.162241
vt 0.246050 0.162241
vt 0.242038 0.141551
vt 0.242038 0.039798
vt 0.217370 0.064456
vt 0.217370 0.039798
vt 0.940020 0.174572
vt 0.789655 0.028501
vt 0.940020 0.028501
vt 0.939485 0.174090
vt 0.789120 0.028019
vt 0.939485 0.028019
vt 0.991071 0.383809
vt 0.878783 0.974918
vt 0.842952 0.383809
vt 0.104419 0.170258
vt 0.121473 0.152771
vt 0.121473 0.170258
vt 0.192075 0.039556
vt 0.213466 0.034329
vt 0.217370 0.039556
vt 0.192075 0.166329
vt 0.170685 0.171557
vt 0.166781 0.166329
vt 0.238231 0.034329
vt 0.211251 0.165074
vt 0.200864 0.171556
vt 0.198194 0.165074
vt 0.242038 0.064456
vt 0.223337 0.165402
vt 0.260739 0.040651
vt 0.694834 0.838379
vt 0.807122 0.247271
vt 0.842952 0.838379
vt 0.148081 0.160487
vt 0.155607 0.152771
vt 0.155607 0.160487
vt 0.233467 0.171755
vt 0.225941 0.171755
vt 0.172900 0.040812
vt 0.183286 0.034329
vt 0.185957 0.040812
vt 0.248006 0.040651
vt 0.258135 0.034329
vt 0.037842 0.131130
vt 0.102312 0.039390
vt 0.104419 0.152771
vt 0.102312 0.131130
vt 0.040142 0.152771
vt 0.123674 0.658146
vt 0.098143 0.152771
vt 0.148081 0.155071
vt 0.140781 0.034329
vt 0.078555 0.034329
vt 0.366775 0.949439
vt 0.026755 0.525840
vt 0.127090 0.707795
vt 0.050948 0.271730
vt 0.160368 0.152771
vt 0.058024 0.152771
vt 0.262899 0.171734
vt 0.789655 0.174572
vt 0.789120 0.174090
vt 0.955239 0.974918
vt 0.195979 0.034329
vt 0.188172 0.171557
vt 0.221177 0.034329
vt 0.208581 0.171556
vt 0.236071 0.165402
vt 0.730665 0.247271
vt 0.148081 0.152771
vt 0.175570 0.034329
vt 0.250610 0.034329
s 0
usemtl Weapon3
f 2/1/1 3/2/1 1/3/1
f 4/4/2 7/5/2 3/6/2
f 8/7/3 5/8/3 7/9/3
f 6/10/4 1/11/4 5/5/4
f 9/12/5 19/13/5 11/14/5
f 6/15/6 25/16/6 2/17/6
f 11/14/5 10/18/5 9/12/5
f 3/2/1 10/19/1 1/3/1
f 5/8/3 11/20/3 7/9/3
f 12/21/7 15/22/7 10/18/7
f 13/23/4 16/24/4 14/25/4
f 10/19/8 13/26/8 1/3/8
f 1/27/9 14/28/9 5/29/9
f 5/8/10 16/30/10 12/31/10
f 18/32/11 24/33/11 20/34/11
f 11/35/3 17/36/3 7/37/3
f 3/38/1 20/39/1 9/40/1
f 7/41/12 18/42/12 3/43/12
f 21/44/2 24/45/2 22/46/2
f 20/47/13 23/48/13 19/13/13
f 19/49/14 21/50/14 17/51/14
f 17/52/15 22/53/15 18/42/15
f 26/54/16 34/55/16 27/56/16
f 4/57/17 27/56/17 8/58/17
f 8/58/18 28/59/18 6/15/18
f 2/17/19 26/54/19 4/57/19
f 30/60/12 32/61/12 31/62/12
f 27/63/3 32/64/3 28/65/3
f 25/66/1 30/67/1 26/68/1
f 25/69/20 40/70/20 29/71/20
f 33/72/2 36/73/2 34/74/2
f 30/75/21 33/76/21 26/77/21
f 27/78/22 36/79/22 31/80/22
f 31/62/23 35/81/23 30/60/23
f 38/82/24 44/83/24 40/84/24
f 29/85/25 39/86/25 32/61/25
f 28/59/26 38/87/26 25/16/26
f 32/88/27 37/89/27 28/90/27
f 41/91/4 44/92/4 42/93/4
f 39/86/28 44/94/28 43/95/28
f 39/96/29 41/97/29 37/98/29
f 37/99/30 42/100/30 38/87/30
f 2/1/1 4/101/1 3/2/1
f 4/4/2 8/10/2 7/5/2
f 8/7/3 6/102/3 5/8/3
f 6/10/4 2/103/4 1/11/4
f 9/12/5 20/47/5 19/13/5
f 6/15/6 28/59/6 25/16/6
f 11/14/5 12/21/5 10/18/5
f 3/2/1 9/104/1 10/19/1
f 5/8/3 12/31/3 11/20/3
f 12/21/7 16/105/7 15/22/7
f 13/23/4 15/106/4 16/24/4
f 10/19/8 15/107/8 13/26/8
f 1/27/9 13/108/9 14/28/9
f 5/8/10 14/109/10 16/30/10
f 18/32/11 22/110/11 24/33/11
f 11/35/3 19/111/3 17/36/3
f 3/38/1 18/112/1 20/39/1
f 7/41/12 17/52/12 18/42/12
f 21/44/2 23/113/2 24/45/2
f 20/47/13 24/114/13 23/48/13
f 19/49/14 23/115/14 21/50/14
f 17/52/15 21/116/15 22/53/15
f 26/54/16 33/117/16 34/55/16
f 4/57/17 26/54/17 27/56/17
f 8/58/18 27/56/18 28/59/18
f 2/17/19 25/16/19 26/54/19
f 30/60/12 29/85/12 32/61/12
f 27/63/3 31/118/3 32/64/3
f 25/66/1 29/119/1 30/67/1
f 25/69/20 38/120/20 40/70/20
f 33/72/2 35/103/2 36/73/2
f 30/75/21 35/121/21 33/76/21
f 27/78/22 34/122/22 36/79/22
f 31/62/23 36/123/23 35/81/23
f 38/82/24 42/124/24 44/83/24
f 29/85/25 40/125/25 39/86/25
f 28/59/26 37/99/26 38/87/26
f 32/88/27 39/126/27 37/89/27
f 41/91/4 43/127/4 44/92/4
f 39/86/28 40/125/28 44/94/28
f 39/96/29 43/128/29 41/97/29
f 37/99/30 41/129/30 42/100/30
