# Blender 4.5.4 LTS
# www.blender.org
mtllib weapon1.mtl
o ArmWeapon1
v 3.559088 3.539393 6.633782
v 3.559088 3.539393 7.870701
v 3.559088 2.855847 6.633782
v 3.559088 2.855847 7.870701
v 2.875542 3.539393 6.633782
v 2.875542 3.539393 7.870701
v 2.875542 2.855847 6.633782
v 2.875542 2.855847 7.870701
v 3.559088 3.539393 8.940441
v 3.559088 2.855847 8.940441
v 2.875542 2.855847 8.940441
v 2.875542 3.539393 8.940441
v 3.476739 1.469370 7.999577
v 2.957892 1.469370 7.999577
v 3.476739 1.469370 8.811565
v 2.957892 1.469370 8.811565
v 2.875542 7.315396 7.870701
v 3.559088 7.315396 7.870701
v 2.875542 7.315396 8.940441
v 3.559088 7.315396 8.940441
v 3.105297 7.357260 8.296992
v 3.329334 7.357260 8.296992
v 3.105297 7.357260 8.514151
v 3.329334 7.357260 8.514151
v 3.105297 8.174069 8.296992
v 3.329334 8.174069 8.296992
v 3.105297 8.174069 8.514151
v 3.329334 8.174069 8.514151
v 3.559088 5.451152 7.870701
v 3.559088 4.345358 7.870701
v 2.875542 5.451152 7.870701
v 2.875542 4.345358 7.870701
v 3.559088 5.451152 7.498769
v 3.559088 4.345358 7.498769
v 2.875542 5.451152 7.498769
v 2.875542 4.345358 7.498769
v 3.559088 5.442357 7.337660
v 3.559088 4.354154 7.141205
v 2.875542 5.442357 7.337660
v 2.875542 4.354154 7.141205
v 3.559088 5.510767 6.925279
v 3.559088 4.462981 6.571833
v 2.875542 5.510767 6.925279
v 2.875542 4.462981 6.571833
v 3.559088 5.639742 6.542934
v 3.559088 4.591956 6.189488
v 2.875542 5.639742 6.542934
v 2.875542 4.591956 6.189488
vn 1.0000 -0.0000 -0.0000
vn -0.0000 -1.0000 -0.0000
vn -1.0000 -0.0000 -0.0000
vn -0.0000 1.0000 -0.0000
vn -0.0000 -0.0000 -1.0000
vn -0.0000 -0.0000 1.0000
vn 0.9982 -0.0593 -0.0000
vn -0.0000 -0.0926 0.9957
vn -0.0000 -0.0926 -0.9957
vn -0.9982 -0.0593 -0.0000
vn -0.1793 0.9838 -0.0000
vn -0.0000 0.9952 -0.0977
vn 0.1793 0.9838 -0.0000
vn -0.0000 0.9952 0.0977
vn -0.0000 0.9985 -0.0545
vn -0.0000 -0.9997 -0.0246
vn -0.0000 -0.9475 -0.3196
vn -0.0000 -0.9822 -0.1877
vn -0.0000 0.9865 0.1637
vn -0.0000 0.3196 -0.9475
vn -0.0000 0.9475 0.3196
vt 0.163396 0.795576
vt 0.123415 0.835557
vt 0.123415 0.795576
vt 0.163396 0.835557
vt 0.123415 0.875538
vt 0.163396 0.875538
vt 0.123415 0.915519
vt 0.163396 0.915519
vt 0.123415 0.955499
vt 0.083434 0.915519
vt 0.083434 0.875538
vt 0.140908 0.143455
vt 0.140908 0.194168
vt 0.191622 0.143455
vt 0.140908 0.042028
vt 0.140908 0.092741
vt 0.191622 0.194168
vt 0.140908 0.244882
vt 0.260700 0.368949
vt 0.506199 0.368949
vt 0.920082 0.606443
vt 0.219417 0.770740
vt 0.122093 0.872054
vt 0.026388 0.771965
vt 0.123694 0.872059
vt 0.122893 0.871164
vt 0.122894 0.872920
vt 0.026388 0.973354
vt 0.219299 0.972044
vt 0.146646 0.846360
vt 0.114735 0.851223
vt 0.109560 0.843385
vt 0.055251 0.944152
vt 0.145695 0.901213
vt 0.181126 0.944152
vt 0.177075 0.810147
vt 0.085584 0.808848
vt 0.094631 0.897696
vt 0.112150 0.880166
vt 0.121823 0.861532
vt 0.121523 0.869992
vt 0.133392 0.883183
vt 0.139695 0.853328
vt 0.125555 0.868668
vt 0.127109 0.871190
vt 0.129670 0.862735
vt 0.123893 0.867999
vt 0.126507 0.865572
vt 0.123967 0.864678
vt 0.163396 0.955499
vt 0.081766 0.606443
vt 0.081766 0.368949
vt 0.920082 0.368949
s 0
usemtl Weapon1
f 2/1/1 3/2/1 1/3/1
f 4/4/2 7/5/2 3/2/2
f 8/6/3 5/7/3 7/5/3
f 6/8/4 1/9/4 5/7/4
f 7/5/5 1/10/5 3/11/5
f 8/12/3 12/13/3 6/13/3
f 10/14/6 12/13/6 11/12/6
f 2/15/1 10/16/1 4/16/1
f 12/13/3 17/13/3 31/13/3
f 4/16/7 15/16/7 13/16/7
f 13/16/2 16/12/2 14/12/2
f 11/12/8 15/14/8 10/14/8
f 4/16/9 14/12/9 8/12/9
f 8/12/10 16/12/10 11/12/10
f 19/13/11 21/13/11 17/13/11
f 9/17/6 19/13/6 12/13/6
f 6/13/5 30/18/5 2/18/5
f 30/19/1 29/20/1 20/21/1
f 22/22/1 28/23/1 24/24/1
f 17/13/12 22/18/12 18/18/12
f 20/15/13 22/15/13 24/15/13
f 20/17/14 23/13/14 19/13/14
f 25/25/4 28/23/4 26/26/4
f 24/24/6 27/27/6 23/28/6
f 23/28/3 25/25/3 21/29/3
f 21/29/5 26/26/5 22/22/5
f 33/30/15 39/31/15 35/32/15
f 32/33/2 34/34/2 30/35/2
f 31/13/5 18/18/5 29/18/5
f 29/36/4 35/32/4 31/37/4
f 31/37/3 36/38/3 32/33/3
f 30/35/1 33/30/1 29/36/1
f 40/39/3 43/40/3 44/41/3
f 36/38/3 39/31/3 40/39/3
f 36/38/16 38/42/16 34/34/16
f 34/34/1 37/43/1 33/30/1
f 44/41/17 46/44/17 42/45/17
f 40/39/18 42/45/18 38/42/18
f 38/42/1 41/46/1 37/43/1
f 37/43/19 43/40/19 39/31/19
f 48/47/20 45/48/20 46/44/20
f 42/45/1 45/48/1 41/46/1
f 41/46/21 47/49/21 43/40/21
f 44/41/3 47/49/3 48/47/3
f 2/1/1 4/4/1 3/2/1
f 4/4/2 8/6/2 7/5/2
f 8/6/3 6/8/3 5/7/3
f 6/8/4 2/50/4 1/9/4
f 7/5/5 5/7/5 1/10/5
f 8/12/3 11/12/3 12/13/3
f 10/14/6 9/17/6 12/13/6
f 2/15/1 9/15/1 10/16/1
f 32/13/3 6/13/3 12/13/3
f 12/13/3 19/13/3 17/13/3
f 31/13/3 32/13/3 12/13/3
f 4/16/7 10/16/7 15/16/7
f 13/16/2 15/16/2 16/12/2
f 11/12/8 16/12/8 15/14/8
f 4/16/9 13/16/9 14/12/9
f 8/12/10 14/12/10 16/12/10
f 19/13/11 23/13/11 21/13/11
f 9/17/6 20/17/6 19/13/6
f 6/13/5 32/13/5 30/18/5
f 20/21/1 9/51/1 2/52/1
f 20/21/1 2/52/1 30/19/1
f 29/20/1 18/53/1 20/21/1
f 22/22/1 26/26/1 28/23/1
f 17/13/12 21/13/12 22/18/12
f 20/15/13 18/15/13 22/15/13
f 20/17/14 24/17/14 23/13/14
f 25/25/4 27/27/4 28/23/4
f 24/24/6 28/23/6 27/27/6
f 23/28/3 27/27/3 25/25/3
f 21/29/5 25/25/5 26/26/5
f 33/30/15 37/43/15 39/31/15
f 32/33/2 36/38/2 34/34/2
f 31/13/5 17/13/5 18/18/5
f 29/36/4 33/30/4 35/32/4
f 31/37/3 35/32/3 36/38/3
f 30/35/1 34/34/1 33/30/1
f 40/39/3 39/31/3 43/40/3
f 36/38/3 35/32/3 39/31/3
f 36/38/16 40/39/16 38/42/16
f 34/34/1 38/42/1 37/43/1
f 44/41/17 48/47/17 46/44/17
f 40/39/18 44/41/18 42/45/18
f 38/42/1 42/45/1 41/46/1
f 37/43/19 41/46/19 43/40/19
f 48/47/20 47/49/20 45/48/20
f 42/45/1 46/44/1 45/48/1
f 41/46/21 45/48/21 47/49/21
f 44/41/3 43/40/3 47/49/3
