# Blender 5.0.0
# www.blender.org
mtllib weapon2-2.mtl
o ArmWeapon2
v 2.891191 2.918068 12.425704
v 2.891191 5.848751 11.127548
v 2.891191 2.661386 11.846226
v 2.891191 5.592069 10.548070
v 3.205714 2.661386 11.846226
v 3.205714 2.918068 12.425704
v 3.205714 5.848751 11.127548
v 3.205714 5.592069 10.548070
v 3.205714 5.018950 11.495111
v 3.205714 3.747869 12.058141
v 3.205714 4.762268 10.915633
v 3.205714 3.491187 11.478662
v 2.891191 5.018950 11.495111
v 2.891191 3.747869 12.058141
v 2.891191 4.762268 10.915633
v 2.891191 3.491187 11.478662
v 3.205714 2.661386 11.846226
v 3.205714 2.918068 12.425704
v 3.205714 5.848751 11.127548
v 3.205714 5.592069 10.548070
v 3.205714 5.018950 11.495111
v 3.205714 3.747869 12.058141
v 3.205714 4.762268 10.915633
v 3.205714 3.491187 11.478662
v 4.137202 3.491187 11.478662
v 4.137202 2.661386 11.846226
v 4.137202 2.918068 12.425704
v 4.137202 5.592069 10.548070
v 4.137202 5.848751 11.127548
v 4.137202 4.762268 10.915633
v 4.137202 5.018950 11.495111
v 4.137202 3.747869 12.058141
v 3.205714 2.774682 9.861099
v 3.205714 1.944881 10.228662
v 3.205714 4.875564 8.930507
v 3.205714 4.045763 9.298069
v 4.137202 2.774682 9.861099
v 4.137202 1.944881 10.228662
v 4.137202 4.875564 8.930507
v 4.137202 4.045763 9.298069
v 3.205714 6.217005 14.199811
v 3.205714 7.046806 13.832248
v 3.205714 4.945924 14.762840
v 3.205714 4.116123 15.130403
v 4.137202 6.217005 14.199811
v 4.137202 7.046806 13.832248
v 4.137202 4.945924 14.762840
v 4.137202 4.116123 15.130403
v 3.485161 6.502274 14.171557
v 3.485161 6.834194 14.024531
v 3.485161 4.733313 14.955124
v 3.485161 4.401392 15.102149
v 3.857756 6.502274 14.171557
v 3.857756 6.834194 14.024531
v 3.857756 4.733313 14.955124
v 3.857756 4.401392 15.102149
v 3.485161 6.701764 14.621922
v 3.485161 7.033685 14.474896
v 3.485161 4.932803 15.405489
v 3.485161 4.600883 15.552514
v 3.857756 6.701764 14.621922
v 3.857756 7.033685 14.474896
v 3.857756 4.932803 15.405489
v 3.857756 4.600883 15.552514
v 4.188197 3.491187 11.478662
v 4.188197 2.661386 11.846226
v 4.188197 2.918068 12.425704
v 4.188197 5.592069 10.548070
v 4.188197 5.848751 11.127548
v 4.188197 4.762268 10.915633
v 4.188197 5.018950 11.495111
v 4.188197 3.747869 12.058141
v 4.774060 3.491187 11.478662
v 4.774060 3.053599 11.757791
v 4.774060 3.247110 12.194656
v 4.774060 5.263026 10.779118
v 4.774060 5.456537 11.215984
v 4.774060 4.762268 10.915633
v 4.774060 5.018950 11.495111
v 4.774060 3.747869 12.058141
v 5.110172 3.908040 11.483150
v 5.110172 3.709247 11.609957
v 5.110172 3.797158 11.808424
v 5.110172 4.712979 11.165350
v 5.110172 4.800890 11.363817
v 5.110172 4.485487 11.227368
v 5.110172 4.602097 11.490623
v 5.110172 4.024650 11.746406
v 3.530200 4.709318 10.975271
v 3.530200 4.939202 11.494253
v 3.530200 3.800819 11.998503
v 3.530200 3.570935 11.479522
vn -0.0000 -0.9143 0.4050
vn -0.0000 -0.4050 -0.9143
vn -1.0000 -0.0000 -0.0000
vn -0.0000 0.4050 0.9143
vn -0.0000 0.9143 -0.4050
vn 0.2182 0.8923 -0.3952
vn 1.0000 -0.0000 -0.0000
vn -0.0000 0.6708 0.7417
vn -0.0000 0.0986 0.9951
vn 0.3056 0.3856 0.8706
vn -0.3056 0.3856 0.8706
vn -0.0000 0.2630 0.9648
vn 0.1320 -0.4015 -0.9063
vn 0.5585 0.7585 -0.3360
vn 0.5613 -0.4451 -0.6977
vn 0.8909 0.4152 -0.1839
vn 0.5613 -0.2177 -0.7985
vn 0.1320 0.4015 0.9063
vn 0.5585 -0.7585 0.3360
vn -0.0000 -0.2630 -0.9648
vn -0.4575 -0.3601 -0.8130
vn 0.5613 0.2177 0.7985
vn 0.5613 0.4451 0.6977
vn 0.8909 -0.4152 0.1839
vn -0.4575 0.3601 0.8130
vn 0.1014 -0.4029 -0.9096
vn 0.1014 0.4029 0.9096
vn 0.2182 -0.8923 0.3952
vn -0.0000 -0.5378 -0.8431
vn -0.0000 0.5378 0.8431
vn 0.5585 -0.7584 0.3360
vt 0.093521 0.072253
vt 0.094432 0.083580
vt 0.093521 0.083580
vt 0.172064 0.138991
vt 0.166444 0.155212
vt 0.166444 0.138991
vt 0.020564 0.152674
vt 0.031892 0.136453
vt 0.031892 0.152674
vt 0.166275 0.081701
vt 0.160654 0.097922
vt 0.160654 0.081701
vt 0.150053 0.170902
vt 0.144433 0.182230
vt 0.144433 0.170902
vt 0.155674 0.170902
vt 0.150053 0.182230
vt 0.054794 0.179402
vt 0.048972 0.168665
vt 0.054794 0.168074
vt 0.166444 0.114143
vt 0.031892 0.177522
vt 0.020564 0.177522
vt 0.160654 0.056853
vt 0.172064 0.097922
vt 0.172064 0.114143
vt 0.020564 0.193743
vt 0.166275 0.040632
vt 0.166275 0.056853
vt 0.097368 0.155090
vt 0.112809 0.160142
vt 0.112477 0.160991
vt 0.128211 0.104832
vt 0.144433 0.093504
vt 0.144433 0.104832
vt 0.128211 0.093504
vt 0.111990 0.104832
vt 0.111990 0.093504
vt 0.111990 0.083580
vt 0.095344 0.072253
vt 0.111990 0.072253
vt 0.076875 0.083580
vt 0.060229 0.072253
vt 0.076875 0.072253
vt 0.020564 0.072253
vt 0.037210 0.040632
vt 0.037210 0.072253
vt 0.614565 0.860305
vt 0.934869 0.958574
vt 0.614565 0.958574
vt 0.294261 0.860305
vt 0.294261 0.958574
vt 0.037210 0.083580
vt 0.020564 0.083580
vt 0.128211 0.136453
vt 0.096777 0.161301
vt 0.080556 0.177948
vt 0.080556 0.161301
vt 0.064334 0.177948
vt 0.064334 0.161301
vt 0.031892 0.168074
vt 0.048113 0.136453
vt 0.048113 0.168074
vt 0.093521 0.040632
vt 0.076875 0.040632
vt 0.064334 0.136453
vt 0.064334 0.168074
vt 0.111990 0.040632
vt 0.111990 0.136453
vt 0.129810 0.177639
vt 0.124944 0.165970
vt 0.129810 0.160991
vt 0.113589 0.177639
vt 0.118455 0.165970
vt 0.118455 0.172629
vt 0.076875 0.136453
vt 0.413493 0.031941
vt 0.961580 0.204498
vt 0.413493 0.204498
vt 0.285411 0.845803
vt 0.607465 0.964926
vt 0.285392 0.964851
vt 0.095344 0.136453
vt 0.095344 0.083580
vt 0.607102 0.846119
vt 0.929156 0.965243
vt 0.607083 0.965168
vt 0.414468 0.219168
vt 0.962556 0.391725
vt 0.414468 0.391725
vt 0.094183 0.928178
vt 0.087524 0.936982
vt 0.087524 0.928178
vt 0.107500 0.936982
vt 0.113988 0.928178
vt 0.113988 0.936982
vt 0.097368 0.160991
vt 0.108723 0.165970
vt 0.102234 0.165970
vt 0.097368 0.177639
vt 0.108723 0.172629
vt 0.113589 0.177639
vt 0.102234 0.172629
vt 0.113589 0.160991
vt 0.124944 0.172629
vt 0.067468 0.935146
vt 0.073957 0.928486
vt 0.073957 0.935146
vt 0.073957 0.935146
vt 0.080445 0.928486
vt 0.080445 0.935146
vt 0.130593 0.928417
vt 0.123934 0.937221
vt 0.123934 0.928417
vt 0.120477 0.928178
vt 0.113988 0.936982
vt 0.113988 0.928178
vt 0.054491 0.937290
vt 0.060980 0.928486
vt 0.060980 0.937290
vt 0.100841 0.928178
vt 0.094183 0.936982
vt 0.107500 0.928178
vt 0.100841 0.936982
vt 0.067468 0.928486
vt 0.060980 0.937290
vt 0.060980 0.928486
vt 0.113141 0.143203
vt 0.125488 0.149608
vt 0.116950 0.152957
vt 0.159540 0.153133
vt 0.147194 0.159524
vt 0.144433 0.147226
vt 0.038121 0.083580
vt 0.128582 0.160978
vt 0.143358 0.154222
vt 0.143690 0.155071
vt 0.094432 0.072253
vt 0.060229 0.083580
vt 0.059317 0.072253
vt 0.159872 0.152284
vt 0.144764 0.146377
vt 0.127919 0.136453
vt 0.112809 0.142354
vt 0.985417 0.715574
vt 0.802950 0.544542
vt 0.985417 0.520542
vt 0.155727 0.162884
vt 0.155995 0.169375
vt 0.040432 0.184025
vt 0.034222 0.172241
vt 0.038101 0.172241
vt 0.139545 0.144471
vt 0.139813 0.137980
vt 0.143690 0.136453
vt 0.341774 0.501931
vt 0.436197 0.725999
vt 0.341774 0.725999
vt 0.097699 0.154241
vt 0.110047 0.147836
vt 0.620482 0.520543
vt 0.802950 0.691575
vt 0.620482 0.715574
vt 0.247358 0.501931
vt 0.131011 0.147831
vt 0.042129 0.184025
vt 0.046642 0.179859
vt 0.047275 0.184025
vt 0.505267 0.510037
vt 0.594770 0.706360
vt 0.505267 0.706360
vt 0.033589 0.168074
vt 0.038735 0.168074
vt 0.192752 0.664861
vt 0.192752 0.563069
vt 0.116688 0.159470
vt 0.112809 0.160991
vt 0.101508 0.144488
vt 0.101247 0.137975
vt 0.048972 0.168074
vt 0.042762 0.179859
vt 0.040432 0.168074
vt 0.436197 0.501931
vt 0.490635 0.664861
vt 0.133545 0.160978
vt 0.143690 0.183232
vt 0.133545 0.183232
vt 0.160654 0.137694
vt 0.160654 0.115440
vt 0.172069 0.058150
vt 0.172069 0.080404
vt 0.060616 0.178811
vt 0.094432 0.072253
vt 0.172064 0.155212
vt 0.020564 0.136453
vt 0.166275 0.097922
vt 0.155674 0.182230
vt 0.048972 0.178811
vt 0.166444 0.097922
vt 0.031892 0.193743
vt 0.160654 0.040632
vt 0.020564 0.040632
vt 0.934869 0.860304
vt 0.144433 0.136453
vt 0.096777 0.177948
vt 0.031892 0.136453
vt 0.060229 0.040632
vt 0.048113 0.136453
vt 0.095344 0.040632
vt 0.093521 0.136453
vt 0.961580 0.031941
vt 0.607484 0.845878
vt 0.111990 0.136453
vt 0.929175 0.846195
vt 0.962556 0.219168
vt 0.073957 0.928486
vt 0.130593 0.937221
vt 0.120477 0.936982
vt 0.054491 0.928486
vt 0.067468 0.937290
vt 0.128250 0.137302
vt 0.038121 0.072253
vt 0.128250 0.160129
vt 0.059317 0.083580
vt 0.159872 0.170902
vt 0.031892 0.184025
vt 0.247358 0.725999
vt 0.594770 0.510037
vt 0.097368 0.136453
vt 0.490635 0.563069
vt 0.143690 0.160978
vt 0.060616 0.168665
s 0
usemtl Weapon2
f 30/1/1 71/2/1 31/3/1
f 15/4/2 8/5/2 11/6/2
f 16/7/3 1/8/3 14/9/3
f 9/10/4 2/11/4 13/12/4
f 5/13/1 1/14/1 3/15/1
f 4/16/5 7/17/5 8/13/5
f 9/18/6 89/19/6 11/20/6
f 12/21/2 15/4/2 11/6/2
f 16/7/3 13/22/3 15/23/3
f 14/24/4 9/10/4 13/12/4
f 12/21/2 3/25/2 16/26/2
f 13/22/3 4/27/3 15/23/3
f 14/24/4 6/28/4 10/29/4
f 31/30/4 69/31/4 29/32/4
f 17/33/3 22/34/3 24/35/3
f 19/36/3 23/37/3 21/38/3
f 22/39/5 25/40/5 24/41/5
f 19/42/5 28/43/5 20/44/5
f 17/45/1 38/46/1 26/47/1
f 29/48/7 45/49/7 31/50/7
f 32/51/7 48/50/7 27/52/7
f 23/44/1 31/3/1 21/42/1
f 17/45/1 27/53/1 18/54/1
f 24/35/3 34/55/3 17/33/3
f 33/56/2 38/57/2 34/58/2
f 35/58/2 40/59/2 36/60/2
f 30/61/7 39/62/7 28/63/7
f 23/44/1 40/64/1 30/1/1
f 28/43/5 35/65/5 20/44/5
f 26/63/7 37/66/7 25/67/7
f 25/40/5 33/68/5 24/41/5
f 20/33/3 36/69/3 23/37/3
f 43/70/8 55/71/8 47/72/8
f 44/73/9 56/74/9 52/75/9
f 31/3/1 41/76/1 21/42/1
f 19/77/5 46/78/5 29/79/5
f 18/80/3 43/81/3 22/82/3
f 22/39/5 47/83/5 32/84/5
f 21/85/3 42/86/3 19/87/3
f 27/88/1 44/89/1 18/90/1
f 56/91/1 60/92/1 52/93/1
f 52/94/3 59/95/3 51/96/3
f 45/97/10 54/98/10 53/99/10
f 41/100/11 50/101/11 42/102/11
f 41/100/9 53/99/9 49/103/9
f 42/102/8 54/98/8 46/104/8
f 47/72/10 56/74/10 48/104/10
f 43/70/11 52/75/11 51/105/11
f 60/106/4 63/107/4 59/108/4
f 57/109/4 62/110/4 58/111/4
f 51/112/5 63/113/5 55/114/5
f 54/115/7 61/116/7 53/117/7
f 49/118/3 58/119/3 50/120/3
f 53/121/1 57/122/1 49/91/1
f 50/123/5 62/124/5 54/121/5
f 55/125/7 64/126/7 56/127/7
f 72/128/12 75/129/12 80/130/12
f 65/131/13 74/132/13 66/133/13
f 26/47/1 67/134/1 27/53/1
f 28/135/2 70/136/2 30/137/2
f 32/84/5 65/138/5 25/40/5
f 29/139/5 68/140/5 28/43/5
f 25/141/2 66/133/2 26/142/2
f 27/143/4 72/128/4 32/144/4
f 69/145/14 76/146/14 68/147/14
f 73/148/15 82/149/15 74/132/15
f 76/150/16 85/151/16 84/152/16
f 78/153/17 84/154/17 86/155/17
f 65/156/4 78/157/4 70/158/4
f 71/159/18 77/160/18 69/31/18
f 66/161/19 75/162/19 67/163/19
f 71/158/2 80/164/2 72/156/2
f 70/136/20 76/165/20 78/153/20
f 88/166/7 82/167/7 81/168/7
f 81/169/3 87/170/3 86/171/3
f 84/152/7 87/172/7 86/173/7
f 80/164/21 87/174/21 88/175/21
f 80/130/22 83/176/22 88/177/22
f 79/178/23 85/179/23 77/160/23
f 74/180/24 83/181/24 75/182/24
f 73/183/25 86/184/25 78/157/25
f 91/185/7 89/186/7 90/187/7
f 12/21/26 89/188/26 92/189/26
f 9/10/27 91/190/27 90/191/27
f 12/20/28 91/192/28 10/18/28
f 30/1/1 70/193/1 71/2/1
f 15/4/2 4/194/2 8/5/2
f 16/7/3 3/195/3 1/8/3
f 9/10/4 7/196/4 2/11/4
f 5/13/1 6/17/1 1/14/1
f 4/16/5 2/197/5 7/17/5
f 9/18/6 90/198/6 89/19/6
f 12/21/2 16/26/2 15/4/2
f 16/7/3 14/9/3 13/22/3
f 14/24/4 10/29/4 9/10/4
f 12/21/2 5/199/2 3/25/2
f 13/22/3 2/200/3 4/27/3
f 14/24/4 1/201/4 6/28/4
f 31/30/4 71/159/4 69/31/4
f 17/33/3 18/36/3 22/34/3
f 19/36/3 20/33/3 23/37/3
f 22/39/5 32/84/5 25/40/5
f 19/42/5 29/139/5 28/43/5
f 17/45/1 34/202/1 38/46/1
f 29/48/7 46/203/7 45/49/7
f 32/51/7 47/48/7 48/50/7
f 23/44/1 30/1/1 31/3/1
f 17/45/1 26/47/1 27/53/1
f 24/35/3 33/204/3 34/55/3
f 33/56/2 37/205/2 38/57/2
f 35/58/2 39/57/2 40/59/2
f 30/61/7 40/206/7 39/62/7
f 23/44/1 36/65/1 40/64/1
f 28/43/5 39/207/5 35/65/5
f 26/63/7 38/208/7 37/66/7
f 25/40/5 37/209/5 33/68/5
f 20/33/3 35/55/3 36/69/3
f 43/70/8 51/105/8 55/71/8
f 44/73/9 48/104/9 56/74/9
f 31/3/1 45/210/1 41/76/1
f 19/77/5 42/211/5 46/78/5
f 18/80/3 44/212/3 43/81/3
f 22/39/5 43/213/5 47/83/5
f 21/85/3 41/214/3 42/86/3
f 27/88/1 48/215/1 44/89/1
f 56/91/1 64/122/1 60/92/1
f 52/94/3 60/123/3 59/95/3
f 45/97/10 46/104/10 54/98/10
f 41/100/11 49/103/11 50/101/11
f 41/100/9 45/97/9 53/99/9
f 42/102/8 50/101/8 54/98/8
f 47/72/10 55/71/10 56/74/10
f 43/70/11 44/73/11 52/75/11
f 60/106/4 64/125/4 63/107/4
f 57/109/4 61/216/4 62/110/4
f 51/112/5 59/217/5 63/113/5
f 54/115/7 62/218/7 61/116/7
f 49/118/3 57/219/3 58/119/3
f 53/121/1 61/124/1 57/122/1
f 50/123/5 58/94/5 62/124/5
f 55/125/7 63/220/7 64/126/7
f 72/128/18 67/221/18 75/129/18
f 65/131/29 73/148/29 74/132/29
f 26/47/1 66/222/1 67/134/1
f 28/135/2 68/223/2 70/136/2
f 32/84/5 72/2/5 65/138/5
f 29/139/5 69/224/5 68/140/5
f 25/141/2 65/131/2 66/133/2
f 27/143/4 67/221/4 72/128/4
f 69/145/14 77/162/14 76/146/14
f 73/148/15 81/225/15 82/149/15
f 76/150/16 77/226/16 85/151/16
f 78/153/17 76/165/17 84/154/17
f 65/156/4 73/183/4 78/157/4
f 71/159/30 79/178/30 77/160/30
f 66/161/31 74/146/31 75/162/31
f 71/158/2 79/227/2 80/164/2
f 70/136/13 68/223/13 76/165/13
f 88/166/7 83/181/7 82/167/7
f 81/169/3 88/228/3 87/170/3
f 84/152/7 85/151/7 87/172/7
f 80/164/21 79/227/21 87/174/21
f 80/130/22 75/129/22 83/176/22
f 79/178/23 87/229/23 85/179/23
f 74/180/24 82/167/24 83/181/24
f 73/183/25 81/230/25 86/184/25
f 91/185/7 92/231/7 89/186/7
f 12/21/26 11/6/26 89/188/26
f 9/10/27 10/29/27 91/190/27
f 12/20/28 92/232/28 91/192/28
