# Blender 5.0.0
# www.blender.org
mtllib arm1-2.mtl
o MechArm1
v 3.912361 1.930451 10.060444
v 3.912361 0.863338 10.533126
v 3.912361 1.457770 8.993332
v 3.912361 0.390657 9.466013
v 2.489875 1.930451 10.060444
v 2.489875 0.863338 10.533126
v 2.489875 1.457770 8.993332
v 2.489875 0.390657 9.466013
v 3.477621 1.651089 9.252840
v 3.477621 1.868162 9.742897
v 2.941639 1.651089 9.252840
v 2.941639 1.868162 9.742897
v 3.477621 2.454145 8.897123
v 3.477621 2.671217 9.387180
v 2.941639 2.454145 8.897123
v 2.941639 2.671217 9.387180
v 3.744053 2.470768 8.598359
v 3.744053 2.903651 9.575624
v 2.675207 2.470768 8.598359
v 2.675207 2.903651 9.575624
v 3.744053 3.338068 8.214187
v 3.744053 3.770950 9.191452
v 2.675207 3.338068 8.214187
v 2.675207 3.770950 9.191452
v 2.799380 2.400242 8.167040
v 3.619880 2.400242 8.167040
v 2.799380 3.066025 7.872129
v 3.619880 3.066025 7.872129
v 3.544664 3.228039 10.124032
v 2.874596 3.228039 10.124032
v 3.544664 3.959126 9.800195
v 2.874596 3.959126 9.800195
v 3.510226 3.725141 11.144807
v 2.909034 3.725141 11.144807
v 3.510226 4.381079 10.854257
v 2.909034 4.381079 10.854257
v 3.595946 3.660570 11.251600
v 2.823315 3.660570 11.251600
v 3.595946 4.503559 10.878195
v 2.823315 4.503559 10.878195
v 3.595946 4.015400 12.052656
v 2.823315 4.015400 12.052656
v 3.595946 4.858389 11.679252
v 2.823315 4.858389 11.679252
v -3.912361 1.930451 10.060444
v -3.912361 0.863338 10.533126
v -3.912361 1.457770 8.993332
v -3.912361 0.390657 9.466013
v -2.489875 1.930451 10.060444
v -2.489875 0.863338 10.533126
v -2.489875 1.457770 8.993332
v -2.489875 0.390657 9.466013
v -3.477621 1.651089 9.252840
v -3.477621 1.868162 9.742897
v -2.941639 1.651089 9.252840
v -2.941639 1.868162 9.742897
v -3.477621 2.454145 8.897123
v -3.477621 2.671217 9.387180
v -2.941639 2.454145 8.897123
v -2.941639 2.671217 9.387180
v -3.744053 2.470768 8.598359
v -3.744053 2.903651 9.575624
v -2.675207 2.470768 8.598359
v -2.675207 2.903651 9.575624
v -3.744053 3.338068 8.214187
v -3.744053 3.770950 9.191452
v -2.675207 3.338068 8.214187
v -2.675207 3.770950 9.191452
v -2.799380 2.400242 8.167040
v -3.619880 2.400242 8.167040
v -2.799380 3.066025 7.872129
v -3.619880 3.066025 7.872129
v -3.544664 3.228039 10.124032
v -2.874596 3.228039 10.124032
v -3.544664 3.959126 9.800195
v -2.874596 3.959126 9.800195
v -3.510226 3.725141 11.144807
v -2.909034 3.725141 11.144807
v -3.510226 4.381079 10.854257
v -2.909034 4.381079 10.854257
v -3.595946 3.660570 11.251600
v -2.823315 3.660570 11.251600
v -3.595946 4.503559 10.878195
v -2.823315 4.503559 10.878195
v -3.595946 4.015400 12.052656
v -2.823315 4.015400 12.052656
v -3.595946 4.858389 11.679252
v -2.823315 4.858389 11.679252
vn 1.0000 -0.0000 -0.0000
vn -0.0000 -0.4050 -0.9143
vn -1.0000 -0.0000 -0.0000
vn -0.0000 0.4050 0.9143
vn -0.0000 0.8019 -0.5974
vn -0.0000 -0.9143 0.4050
vn 0.1626 0.9021 -0.3996
vn -0.1567 0.9030 -0.4000
vn -0.0000 0.9813 -0.1925
vn -0.4552 -0.8141 0.3606
vn 0.4552 -0.8141 0.3606
vn -0.0000 -0.6298 0.7768
vn -0.0000 -0.9985 -0.0556
vn -0.0000 0.9143 -0.4050
vn -0.0000 0.9554 -0.2953
vn -0.0000 0.7827 -0.6225
vn -0.0000 -0.9869 0.1614
vn 0.9595 -0.1141 -0.2576
vn -0.9595 -0.1141 -0.2576
vn -0.9995 0.0123 0.0277
vn -0.0000 -0.8607 0.5091
vn -0.9538 0.1217 0.2748
vn 0.9538 0.1217 0.2748
vn -0.0000 0.1918 -0.9814
vn -0.0000 0.9284 -0.3716
vn 0.9995 0.0123 0.0277
vn -0.0000 -0.8991 0.4378
vn 0.6405 -0.3110 -0.7022
vn -0.0000 -0.8557 -0.5174
vn -0.6405 -0.3110 -0.7022
vn -0.1626 0.9021 -0.3996
vn 0.1567 0.9030 -0.4000
vn -0.1566 0.9030 -0.4000
vn 0.1566 0.9030 -0.4000
vt 0.235703 0.078674
vt 0.213516 0.100860
vt 0.213516 0.078674
vt 0.235703 0.100860
vt 0.213516 0.123047
vt 0.235703 0.123047
vt 0.213516 0.145233
vt 0.235703 0.145233
vt 0.213516 0.167420
vt 0.257889 0.123047
vt 0.924873 0.051738
vt 0.898028 0.078175
vt 0.872257 0.051749
vt 0.872114 0.104803
vt 0.899078 0.078201
vt 0.924873 0.104605
vt 0.898579 0.078750
vt 0.898573 0.077627
vt 0.191330 0.145233
vt 0.191330 0.123047
vt 0.967730 0.097872
vt 0.955697 0.067599
vt 0.967730 0.051738
vt 0.939463 0.066214
vt 0.953140 0.085387
vt 0.936906 0.084001
vt 0.924873 0.053729
vt 0.924873 0.099863
vt 0.955462 0.116183
vt 0.897314 0.077329
vt 0.955462 0.075224
vt 0.895268 0.046601
vt 0.953181 0.040976
vt 0.944757 0.080172
vt 0.924002 0.111234
vt 0.922877 0.080172
vt 0.953181 0.150430
vt 0.897314 0.114077
vt 0.235703 0.167420
vt 0.257889 0.145233
vt 0.943633 0.111234
vt 0.895268 0.144805
s 0
usemtl Mech1
f 2/1/1 3/2/1 1/3/1
f 4/4/2 7/5/2 3/2/2
f 8/6/3 5/7/3 7/5/3
f 6/8/4 1/9/4 5/7/4
f 3/2/5 11/5/5 9/2/5
f 4/10/6 6/8/6 8/6/6
f 10/11/4 16/12/4 12/13/4
f 3/2/7 10/3/7 1/3/7
f 5/7/8 11/5/8 7/5/8
f 1/9/9 12/7/9 5/7/9
f 16/7/10 19/5/10 15/5/10
f 11/14/2 13/15/2 9/16/2
f 12/13/3 15/17/3 11/14/3
f 9/16/1 14/18/1 10/11/1
f 17/2/1 22/3/1 18/3/1
f 13/2/11 18/3/11 14/3/11
f 14/9/12 20/7/12 16/7/12
f 15/5/13 17/2/13 13/2/13
f 23/5/14 22/19/14 21/20/14
f 22/19/15 32/7/15 31/19/15
f 21/21/16 27/22/16 23/23/16
f 20/7/3 23/5/3 19/5/3
f 25/24/2 28/25/2 26/26/2
f 19/27/17 26/26/17 17/28/17
f 17/28/18 28/25/18 21/21/18
f 23/23/19 25/24/19 19/27/19
f 30/29/20 36/30/20 32/31/20
f 18/9/21 30/7/21 20/7/21
f 20/7/22 32/7/22 24/7/22
f 22/3/23 29/3/23 18/3/23
f 36/7/24 39/19/24 35/19/24
f 32/31/25 35/32/25 31/33/25
f 31/34/26 33/35/26 29/36/26
f 29/37/27 34/38/27 30/29/27
f 39/3/1 41/3/1 37/3/1
f 33/3/28 39/3/28 37/3/28
f 33/9/29 38/7/29 34/7/29
f 34/7/30 40/7/30 36/7/30
f 41/9/4 44/7/4 42/7/4
f 37/9/6 42/7/6 38/7/6
f 38/7/3 44/7/3 40/7/3
f 40/7/14 43/19/14 39/19/14
f 47/2/3 46/1/3 45/3/3
f 51/5/2 48/4/2 47/2/2
f 49/7/1 52/6/1 51/5/1
f 45/9/4 50/8/4 49/7/4
f 47/2/5 55/5/5 51/5/5
f 50/8/6 48/10/6 52/6/6
f 60/12/4 54/11/4 56/13/4
f 45/3/31 53/2/31 47/2/31
f 55/5/32 49/7/32 51/5/32
f 56/7/9 45/9/9 49/7/9
f 63/5/11 60/7/11 59/5/11
f 57/15/2 55/14/2 53/16/2
f 59/17/1 56/13/1 55/14/1
f 58/18/3 53/16/3 54/11/3
f 66/3/3 61/2/3 62/3/3
f 62/3/10 57/2/10 58/3/10
f 64/7/12 58/9/12 60/7/12
f 61/2/13 59/5/13 57/2/13
f 66/19/14 67/5/14 65/20/14
f 75/19/15 68/7/15 66/19/15
f 71/22/16 65/21/16 67/23/16
f 67/5/1 64/7/1 63/5/1
f 72/25/2 69/24/2 70/26/2
f 70/26/17 63/27/17 61/28/17
f 72/25/19 61/28/19 65/21/19
f 63/27/18 71/22/18 67/23/18
f 80/30/26 74/29/26 76/31/26
f 74/7/21 62/9/21 64/7/21
f 76/7/23 64/7/23 68/7/23
f 73/3/22 66/3/22 62/3/22
f 83/19/24 80/7/24 79/19/24
f 79/32/25 76/31/25 75/33/25
f 77/35/20 75/34/20 73/36/20
f 78/38/27 73/37/27 74/29/27
f 85/3/3 83/3/3 81/3/3
f 81/3/30 79/3/30 77/3/30
f 82/7/29 77/9/29 78/7/29
f 84/7/28 78/7/28 80/7/28
f 88/7/4 85/9/4 86/7/4
f 86/7/6 81/9/6 82/7/6
f 88/7/1 82/7/1 84/7/1
f 87/19/14 84/7/14 83/19/14
f 2/1/1 4/4/1 3/2/1
f 4/4/2 8/6/2 7/5/2
f 8/6/3 6/8/3 5/7/3
f 6/8/4 2/39/4 1/9/4
f 3/2/5 7/5/5 11/5/5
f 4/10/6 2/40/6 6/8/6
f 10/11/4 14/18/4 16/12/4
f 3/2/7 9/2/7 10/3/7
f 5/7/33 12/7/33 11/5/33
f 1/9/9 10/9/9 12/7/9
f 16/7/10 20/7/10 19/5/10
f 11/14/2 15/17/2 13/15/2
f 12/13/3 16/12/3 15/17/3
f 9/16/1 13/15/1 14/18/1
f 17/2/1 21/2/1 22/3/1
f 13/2/11 17/2/11 18/3/11
f 14/9/12 18/9/12 20/7/12
f 15/5/13 19/5/13 17/2/13
f 23/5/14 24/7/14 22/19/14
f 22/19/15 24/7/15 32/7/15
f 21/21/16 28/25/16 27/22/16
f 20/7/3 24/7/3 23/5/3
f 25/24/2 27/22/2 28/25/2
f 19/27/17 25/24/17 26/26/17
f 17/28/18 26/26/18 28/25/18
f 23/23/19 27/22/19 25/24/19
f 30/29/20 34/38/20 36/30/20
f 18/9/21 29/9/21 30/7/21
f 20/7/22 30/7/22 32/7/22
f 22/3/23 31/3/23 29/3/23
f 36/7/24 40/7/24 39/19/24
f 32/31/25 36/30/25 35/32/25
f 31/34/26 35/41/26 33/35/26
f 29/37/27 33/42/27 34/38/27
f 39/3/1 43/3/1 41/3/1
f 33/3/28 35/3/28 39/3/28
f 33/9/29 37/9/29 38/7/29
f 34/7/30 38/7/30 40/7/30
f 41/9/4 43/9/4 44/7/4
f 37/9/6 41/9/6 42/7/6
f 38/7/3 42/7/3 44/7/3
f 40/7/14 44/7/14 43/19/14
f 47/2/3 48/4/3 46/1/3
f 51/5/2 52/6/2 48/4/2
f 49/7/1 50/8/1 52/6/1
f 45/9/4 46/39/4 50/8/4
f 47/2/5 53/2/5 55/5/5
f 50/8/6 46/40/6 48/10/6
f 60/12/4 58/18/4 54/11/4
f 45/3/31 54/3/31 53/2/31
f 55/5/34 56/7/34 49/7/34
f 56/7/9 54/9/9 45/9/9
f 63/5/11 64/7/11 60/7/11
f 57/15/2 59/17/2 55/14/2
f 59/17/1 60/12/1 56/13/1
f 58/18/3 57/15/3 53/16/3
f 66/3/3 65/2/3 61/2/3
f 62/3/10 61/2/10 57/2/10
f 64/7/12 62/9/12 58/9/12
f 61/2/13 63/5/13 59/5/13
f 66/19/14 68/7/14 67/5/14
f 75/19/15 76/7/15 68/7/15
f 71/22/16 72/25/16 65/21/16
f 67/5/1 68/7/1 64/7/1
f 72/25/2 71/22/2 69/24/2
f 70/26/17 69/24/17 63/27/17
f 72/25/19 70/26/19 61/28/19
f 63/27/18 69/24/18 71/22/18
f 80/30/26 78/38/26 74/29/26
f 74/7/21 73/9/21 62/9/21
f 76/7/23 74/7/23 64/7/23
f 73/3/22 75/3/22 66/3/22
f 83/19/24 84/7/24 80/7/24
f 79/32/25 80/30/25 76/31/25
f 77/35/20 79/41/20 75/34/20
f 78/38/27 77/42/27 73/37/27
f 85/3/3 87/3/3 83/3/3
f 81/3/30 83/3/30 79/3/30
f 82/7/29 81/9/29 77/9/29
f 84/7/28 82/7/28 78/7/28
f 88/7/4 87/9/4 85/9/4
f 86/7/6 85/9/6 81/9/6
f 88/7/1 86/7/1 82/7/1
f 87/19/14 88/7/14 84/7/14
