# Blender 5.0.0
# www.blender.org
mtllib arm2-2.mtl
o MechArm2
v 3.596944 1.902398 9.997112
v 3.356468 0.822351 10.475521
v 3.596944 1.485824 9.056664
v 3.356468 0.405777 9.535074
v 2.489875 1.909760 10.013732
v 2.489875 0.654342 10.569824
v 2.489875 1.478462 9.040044
v 2.489875 0.223043 9.596136
v 3.360648 1.636265 9.247446
v 3.360648 1.862195 9.757500
v 2.802795 1.636265 9.247446
v 2.802795 1.862195 9.757500
v 3.379331 2.812353 8.738454
v 3.379331 3.029426 9.228512
v 3.039930 2.812353 8.738454
v 3.039930 3.029426 9.228512
v 3.548044 2.783303 8.459921
v 3.548044 3.216186 9.437185
v 2.871216 2.783303 8.459921
v 2.871216 3.216186 9.437185
v 3.548044 3.332506 8.216650
v 3.548044 3.765388 9.193914
v 2.871216 3.332506 8.216650
v 2.871216 3.765388 9.193914
v 3.156660 2.307111 7.752423
v 3.262600 2.307111 7.752423
v 3.156660 2.393074 7.714346
v 3.262600 2.393074 7.714346
v 3.421785 3.515595 9.996658
v 2.997476 3.515595 9.996658
v 3.421785 3.978543 9.791594
v 2.997476 3.978543 9.791594
v 3.399977 3.998916 11.023537
v 3.019283 3.998916 11.023537
v 3.399977 4.414277 10.839552
v 3.019283 4.414277 10.839552
v 3.566838 3.968647 11.115136
v 2.852423 3.968647 11.115136
v 3.566838 4.502455 10.878684
v 2.852423 4.502455 10.878684
v 3.566838 4.323477 11.916193
v 2.852423 4.323477 11.916193
v 3.566838 4.857285 11.679741
v 2.852423 4.857285 11.679741
v 2.707017 0.683913 10.536843
v 2.707017 0.267339 9.596395
v 2.634356 -0.127853 10.122830
v 2.562536 -0.140070 10.128242
v 2.562536 0.016272 10.481194
v 2.634356 0.028488 10.475782
v -3.596944 1.902398 9.997112
v -3.356468 0.822351 10.475521
v -3.596944 1.485824 9.056664
v -3.356468 0.405777 9.535074
v -2.489875 1.909760 10.013732
v -2.489875 0.654342 10.569824
v -2.489875 1.478462 9.040044
v -2.489875 0.223043 9.596136
v -3.360648 1.636265 9.247446
v -3.360648 1.862195 9.757500
v -2.802795 1.636265 9.247446
v -2.802795 1.862195 9.757500
v -3.379331 2.812353 8.738454
v -3.379331 3.029426 9.228512
v -3.039930 2.812353 8.738454
v -3.039930 3.029426 9.228512
v -3.548044 2.783303 8.459921
v -3.548044 3.216186 9.437185
v -2.871216 2.783303 8.459921
v -2.871216 3.216186 9.437185
v -3.548044 3.332506 8.216650
v -3.548044 3.765388 9.193914
v -2.871216 3.332506 8.216650
v -2.871216 3.765388 9.193914
v -3.156660 2.307111 7.752423
v -3.262600 2.307111 7.752423
v -3.156660 2.393074 7.714346
v -3.262600 2.393074 7.714346
v -3.421785 3.515595 9.996658
v -2.997476 3.515595 9.996658
v -3.421785 3.978543 9.791594
v -2.997476 3.978543 9.791594
v -3.399977 3.998916 11.023537
v -3.019283 3.998916 11.023537
v -3.399977 4.414277 10.839552
v -3.019283 4.414277 10.839552
v -3.566838 3.968647 11.115136
v -2.852423 3.968647 11.115136
v -3.566838 4.502455 10.878684
v -2.852423 4.502455 10.878684
v -3.566838 4.323477 11.916193
v -2.852423 4.323477 11.916193
v -3.566838 4.857285 11.679741
v -2.852423 4.857285 11.679741
v -2.707017 0.683913 10.536843
v -2.707017 0.267339 9.596395
v -2.634356 -0.127853 10.122830
v -2.562536 -0.140070 10.128242
v -2.562536 0.016272 10.481194
v -2.634356 0.028488 10.475782
vn 0.9799 -0.1824 0.0808
vn 0.0210 -0.4049 -0.9141
vn -1.0000 -0.0000 -0.0000
vn 0.0220 0.4008 0.9159
vn -0.0000 0.7852 -0.6192
vn -0.9913 -0.1203 0.0533
vn -0.0000 0.4128 0.9108
vn 0.2472 0.8859 -0.3924
vn -0.1892 0.8978 -0.3977
vn 0.0039 0.9840 -0.1779
vn -0.4552 -0.8141 0.3606
vn -0.0000 -0.3972 -0.9177
vn -0.9833 0.1664 -0.0737
vn 0.9999 -0.0133 0.0059
vn 1.0000 -0.0000 -0.0000
vn 0.4552 -0.8141 0.3606
vn -0.0000 -0.7451 0.6669
vn -0.0000 -0.9946 0.1037
vn -0.0000 0.9143 -0.4050
vn -0.0000 0.9419 -0.3359
vn -0.0000 0.4715 -0.8819
vn -0.0000 -0.4050 -0.9143
vn -0.0000 -0.8296 0.5584
vn 0.9468 -0.1303 -0.2943
vn -0.9468 -0.1303 -0.2943
vn -0.9998 0.0078 0.0176
vn -0.0000 -0.8817 0.4718
vn -0.9807 0.0792 0.1789
vn 0.9807 0.0792 0.1789
vn -0.0000 0.4056 -0.9140
vn -0.0000 0.9234 -0.3839
vn 0.9998 0.0078 0.0176
vn -0.0000 -0.9048 0.4259
vn 0.3938 -0.3723 -0.8404
vn -0.0000 -0.9495 -0.3138
vn -0.3938 -0.3723 -0.8404
vn -0.0000 0.4050 0.9143
vn -0.0000 -0.9143 0.4050
vn 0.1829 -0.8989 0.3982
vn 0.2270 -0.8904 0.3944
vn 0.9921 -0.1147 0.0508
vn 0.1638 -0.1095 0.9804
vn 0.0959 -0.8161 -0.5700
vn -0.9799 -0.1824 0.0808
vn -0.0031 -0.4170 -0.9089
vn -0.0950 0.3444 0.9340
vn -0.0039 0.7930 -0.6092
vn 0.9913 -0.1203 0.0533
vn -0.2472 0.8859 -0.3924
vn 0.1892 0.8978 -0.3977
vn -0.0039 0.9840 -0.1779
vn 0.9833 0.1664 -0.0737
vn -0.9999 -0.0133 0.0059
vn -0.1829 -0.8989 0.3982
vn -0.2270 -0.8904 0.3944
vn -0.9921 -0.1147 0.0508
vn -0.1638 -0.1095 0.9804
vn -0.1638 -0.7997 -0.5777
vn 0.0164 -0.4080 -0.9128
vn 0.1991 -0.9755 -0.0935
vn 0.0164 0.4049 0.9142
vn 0.1991 -0.5863 0.7853
vn 0.0039 0.7930 -0.6092
vn -0.0000 0.9862 -0.1655
vn 0.0959 -0.1262 0.9874
vn 0.1638 -0.7997 -0.5777
vn -0.0164 -0.4080 -0.9128
vn -0.0834 -0.4036 -0.9111
vn -0.0164 0.4049 0.9142
vn -0.0959 -0.1262 0.9874
vn -0.0959 -0.8161 -0.5700
vt 0.235703 0.078674
vt 0.213516 0.100860
vt 0.213516 0.078674
vt 0.235703 0.100860
vt 0.235703 0.123047
vt 0.213516 0.123047
vt 0.213516 0.145233
vt 0.235703 0.145233
vt 0.235703 0.167420
vt 0.213516 0.167420
vt 0.948793 0.102894
vt 0.948793 0.125081
vt 0.924873 0.051738
vt 0.898028 0.078175
vt 0.872257 0.051749
vt 0.924873 0.104605
vt 0.898579 0.078750
vt 0.899078 0.078201
vt 0.872114 0.104803
vt 0.898573 0.077627
vt 0.191330 0.145233
vt 0.191330 0.123047
vt 0.967730 0.051738
vt 0.953140 0.085387
vt 0.955697 0.067599
vt 0.939463 0.066214
vt 0.936906 0.084001
vt 0.924873 0.053729
vt 0.924873 0.099863
vt 0.967730 0.097872
vt 0.955462 0.116183
vt 0.897314 0.077329
vt 0.955462 0.075224
vt 0.895268 0.046601
vt 0.953181 0.040976
vt 0.944757 0.080172
vt 0.924002 0.111234
vt 0.922877 0.080172
vt 0.953181 0.150430
vt 0.897314 0.114077
vt 0.953145 0.102894
vt 0.240054 0.123047
vt 0.257889 0.145233
vt 0.240054 0.145233
vt 0.953145 0.125081
vt 0.948793 0.129433
vt 0.948793 0.098543
vt 0.235703 0.118695
vt 0.235703 0.149585
vt 0.943633 0.111234
vt 0.895268 0.144805
vt 0.257889 0.123047
s 0
usemtl Mech2
f 2/1/1 3/2/1 1/3/1
f 4/4/2 8/5/2 7/6/2
f 8/5/3 5/7/3 7/6/3
f 6/8/4 2/9/4 1/10/4
f 3/2/5 11/6/5 9/2/5
f 8/11/6 49/12/6 6/12/6
f 10/13/7 16/14/7 12/15/7
f 1/3/8 9/2/8 10/3/8
f 7/6/9 12/7/9 11/6/9
f 1/10/10 12/7/10 5/7/10
f 16/7/11 19/6/11 15/6/11
f 9/16/12 15/17/12 13/18/12
f 11/19/13 16/14/13 15/17/13
f 9/16/14 14/20/14 10/13/14
f 17/2/15 22/3/15 18/3/15
f 13/2/16 18/3/16 14/3/16
f 14/10/17 20/7/17 16/7/17
f 15/6/18 17/2/18 13/2/18
f 23/6/19 22/21/19 21/22/19
f 24/7/20 31/21/20 22/21/20
f 23/23/21 28/24/21 27/25/21
f 20/7/3 23/6/3 19/6/3
f 25/26/22 28/24/22 26/27/22
f 19/28/23 26/27/23 17/29/23
f 17/29/24 28/24/24 21/30/24
f 19/28/25 27/25/25 25/26/25
f 30/31/26 36/32/26 32/33/26
f 18/10/27 30/7/27 20/7/27
f 20/7/28 32/7/28 24/7/28
f 22/3/29 29/3/29 18/3/29
f 35/21/30 40/7/30 39/21/30
f 32/33/31 35/34/31 31/35/31
f 31/36/32 33/37/32 29/38/32
f 29/39/33 34/40/33 30/31/33
f 39/3/15 41/3/15 37/3/15
f 35/3/34 37/3/34 33/3/34
f 33/10/35 38/7/35 34/7/35
f 34/7/36 40/7/36 36/7/36
f 41/10/37 44/7/37 42/7/37
f 37/10/38 42/7/38 38/7/38
f 38/7/3 44/7/3 40/7/3
f 40/7/19 43/21/19 39/21/19
f 47/41/39 49/12/39 48/11/39
f 46/42/40 2/43/40 45/44/40
f 46/41/41 50/45/41 47/41/41
f 6/12/42 50/46/42 45/46/42
f 8/11/43 47/47/43 48/11/43
f 53/2/44 52/1/44 51/3/44
f 57/6/45 96/48/45 54/4/45
f 55/7/15 58/5/15 57/6/15
f 51/10/46 95/49/46 56/8/46
f 53/2/47 61/6/47 57/6/47
f 99/12/48 58/11/48 56/12/48
f 66/14/7 60/13/7 62/15/7
f 51/3/49 59/2/49 53/2/49
f 61/6/50 55/7/50 57/6/50
f 62/7/51 51/10/51 55/7/51
f 69/6/16 66/7/16 65/6/16
f 59/16/12 65/17/12 61/19/12
f 65/17/52 62/15/52 61/19/52
f 64/20/53 59/16/53 60/13/53
f 72/3/3 67/2/3 68/3/3
f 64/3/11 67/2/11 63/2/11
f 70/7/17 64/10/17 66/7/17
f 67/2/18 65/6/18 63/2/18
f 72/21/19 73/6/19 71/22/19
f 72/21/20 82/7/20 74/7/20
f 77/25/21 71/30/21 73/23/21
f 73/6/15 70/7/15 69/6/15
f 78/24/22 75/26/22 76/27/22
f 76/27/23 69/28/23 67/29/23
f 78/24/25 67/29/25 71/30/25
f 69/28/24 77/25/24 73/23/24
f 86/32/32 80/31/32 82/33/32
f 70/7/27 79/10/27 68/10/27
f 82/7/29 70/7/29 74/7/29
f 79/3/28 72/3/28 68/3/28
f 85/21/30 90/7/30 86/7/30
f 85/34/31 82/33/31 81/35/31
f 83/37/26 81/36/26 79/38/26
f 84/40/33 79/39/33 80/31/33
f 91/3/3 89/3/3 87/3/3
f 87/3/36 85/3/36 83/3/36
f 88/7/35 83/10/35 84/7/35
f 90/7/34 84/7/34 86/7/34
f 94/7/37 91/10/37 92/7/37
f 92/7/38 87/10/38 88/7/38
f 94/7/15 88/7/15 90/7/15
f 93/21/19 90/7/19 89/21/19
f 99/12/54 97/41/54 98/11/54
f 52/43/55 96/42/55 95/44/55
f 97/41/56 95/45/56 96/41/56
f 100/46/57 56/12/57 95/46/57
f 58/11/58 97/47/58 96/47/58
f 2/1/1 4/4/1 3/2/1
f 7/6/59 3/2/59 4/4/59
f 4/4/60 46/48/60 8/5/60
f 8/5/3 6/8/3 5/7/3
f 1/10/61 5/7/61 6/8/61
f 6/8/62 45/49/62 2/9/62
f 3/2/63 7/6/63 11/6/63
f 8/11/6 48/11/6 49/12/6
f 10/13/7 14/20/7 16/14/7
f 1/3/8 3/2/8 9/2/8
f 7/6/9 5/7/9 12/7/9
f 1/10/64 10/10/64 12/7/64
f 16/7/11 20/7/11 19/6/11
f 9/16/12 11/19/12 15/17/12
f 11/19/13 12/15/13 16/14/13
f 9/16/14 13/18/14 14/20/14
f 17/2/15 21/2/15 22/3/15
f 13/2/16 17/2/16 18/3/16
f 14/10/17 18/10/17 20/7/17
f 15/6/18 19/6/18 17/2/18
f 23/6/19 24/7/19 22/21/19
f 24/7/20 32/7/20 31/21/20
f 23/23/21 21/30/21 28/24/21
f 20/7/3 24/7/3 23/6/3
f 25/26/22 27/25/22 28/24/22
f 19/28/23 25/26/23 26/27/23
f 17/29/24 26/27/24 28/24/24
f 19/28/25 23/23/25 27/25/25
f 30/31/26 34/40/26 36/32/26
f 18/10/27 29/10/27 30/7/27
f 20/7/28 30/7/28 32/7/28
f 22/3/29 31/3/29 29/3/29
f 35/21/30 36/7/30 40/7/30
f 32/33/31 36/32/31 35/34/31
f 31/36/32 35/50/32 33/37/32
f 29/39/33 33/51/33 34/40/33
f 39/3/15 43/3/15 41/3/15
f 35/3/34 39/3/34 37/3/34
f 33/10/35 37/10/35 38/7/35
f 34/7/36 38/7/36 40/7/36
f 41/10/37 43/10/37 44/7/37
f 37/10/38 41/10/38 42/7/38
f 38/7/3 42/7/3 44/7/3
f 40/7/19 44/7/19 43/21/19
f 47/41/39 50/45/39 49/12/39
f 46/42/40 4/52/40 2/43/40
f 46/41/41 45/45/41 50/45/41
f 6/12/65 49/12/65 50/46/65
f 8/11/66 46/47/66 47/47/66
f 53/2/44 54/4/44 52/1/44
f 54/4/67 53/2/67 57/6/67
f 57/6/68 58/5/68 96/48/68
f 55/7/15 56/8/15 58/5/15
f 56/8/69 55/7/69 51/10/69
f 51/10/37 52/9/37 95/49/37
f 53/2/5 59/2/5 61/6/5
f 99/12/48 98/11/48 58/11/48
f 66/14/7 64/20/7 60/13/7
f 51/3/49 60/3/49 59/2/49
f 61/6/50 62/7/50 55/7/50
f 62/7/64 60/10/64 51/10/64
f 69/6/16 70/7/16 66/7/16
f 59/16/12 63/18/12 65/17/12
f 65/17/52 66/14/52 62/15/52
f 64/20/53 63/18/53 59/16/53
f 72/3/3 71/2/3 67/2/3
f 64/3/11 68/3/11 67/2/11
f 70/7/17 68/10/17 64/10/17
f 67/2/18 69/6/18 65/6/18
f 72/21/19 74/7/19 73/6/19
f 72/21/20 81/21/20 82/7/20
f 77/25/21 78/24/21 71/30/21
f 73/6/15 74/7/15 70/7/15
f 78/24/22 77/25/22 75/26/22
f 76/27/23 75/26/23 69/28/23
f 78/24/25 76/27/25 67/29/25
f 69/28/24 75/26/24 77/25/24
f 86/32/32 84/40/32 80/31/32
f 70/7/27 80/7/27 79/10/27
f 82/7/29 80/7/29 70/7/29
f 79/3/28 81/3/28 72/3/28
f 85/21/30 89/21/30 90/7/30
f 85/34/31 86/32/31 82/33/31
f 83/37/26 85/50/26 81/36/26
f 84/40/33 83/51/33 79/39/33
f 91/3/3 93/3/3 89/3/3
f 87/3/36 89/3/36 85/3/36
f 88/7/35 87/10/35 83/10/35
f 90/7/34 88/7/34 84/7/34
f 94/7/37 93/10/37 91/10/37
f 92/7/38 91/10/38 87/10/38
f 94/7/15 92/7/15 88/7/15
f 93/21/19 94/7/19 90/7/19
f 99/12/54 100/45/54 97/41/54
f 52/43/55 54/52/55 96/42/55
f 97/41/56 100/45/56 95/45/56
f 100/46/70 99/12/70 56/12/70
f 58/11/71 98/11/71 97/47/71
