# Blender 4.5.4 LTS
# www.blender.org
mtllib arm3.mtl
o MechArm3
v 3.912361 0.987229 8.831419
v 3.912361 0.987229 9.998534
v 3.912361 -0.179886 8.831419
v 3.912361 -0.179886 9.998534
v 2.489875 0.987229 8.831419
v 2.489875 0.987229 9.998534
v 2.489875 -0.179886 8.831419
v 2.489875 -0.179886 9.998534
v 3.701282 -0.087981 8.759765
v 3.701282 0.895323 8.759765
v 2.717978 -0.087981 8.759765
v 2.717978 0.895323 8.759765
v 3.701282 -0.087981 7.882646
v 3.701282 0.895323 7.882646
v 2.717978 -0.087981 7.882646
v 2.717978 0.895323 7.882646
v 3.744053 -0.130753 7.746448
v 3.744053 0.938095 7.746448
v 2.675207 -0.130753 7.746448
v 2.675207 0.938095 7.746448
v 3.744053 -0.130753 6.797871
v 3.744053 0.938095 6.797871
v 2.675207 -0.130753 6.797871
v 2.675207 0.938095 6.797871
v 2.799380 -0.553678 7.636247
v 3.619880 -0.553678 7.636247
v 2.799380 -0.553678 6.908072
v 3.619880 -0.553678 6.908072
v 3.584780 1.349594 7.719830
v 2.834480 1.349594 7.719830
v 3.584780 1.349594 6.824489
v 2.834480 1.349594 6.824489
v 3.721993 2.620090 7.883567
v 2.697267 2.620090 7.883567
v 3.721993 2.620090 6.660751
v 2.697267 2.620090 6.660751
v 3.642202 2.700141 7.788352
v 2.777058 2.700141 7.788352
v 3.642202 2.700141 6.755967
v 2.777058 2.700141 6.755967
v 3.642202 3.681172 7.788352
v 2.777058 3.681172 7.788352
v 3.642202 3.681172 6.755967
v 2.777058 3.681172 6.755967
v 3.950049 -0.179886 8.831419
v 3.950049 0.987229 8.831419
v 3.950049 0.987229 9.998534
v 3.950049 -0.179886 9.998534
v 2.457933 0.987228 10.681817
v 2.457933 -0.179887 10.681817
v 2.518862 0.987228 10.681817
v 2.518862 -0.179887 10.681817
v 4.071465 0.163409 9.174714
v 4.071465 0.643934 9.174714
v 4.071465 0.643934 9.655239
v 4.071465 0.163409 9.655239
v 2.948596 -0.498712 7.503821
v 3.470665 -0.498712 7.503821
v 2.948596 -0.498712 7.040498
v 3.470665 -0.498712 7.040498
v -3.912361 0.987229 8.831419
v -3.912361 0.987229 9.998534
v -3.912361 -0.179886 8.831419
v -3.912361 -0.179886 9.998534
v -2.489875 0.987229 8.831419
v -2.489875 0.987229 9.998534
v -2.489875 -0.179886 8.831419
v -2.489875 -0.179886 9.998534
v -3.701282 -0.087981 8.759765
v -3.701282 0.895323 8.759765
v -2.717978 -0.087981 8.759765
v -2.717978 0.895323 8.759765
v -3.701282 -0.087981 7.882646
v -3.701282 0.895323 7.882646
v -2.717978 -0.087981 7.882646
v -2.717978 0.895323 7.882646
v -3.744053 -0.130753 7.746448
v -3.744053 0.938095 7.746448
v -2.675207 -0.130753 7.746448
v -2.675207 0.938095 7.746448
v -3.744053 -0.130753 6.797871
v -3.744053 0.938095 6.797871
v -2.675207 -0.130753 6.797871
v -2.675207 0.938095 6.797871
v -2.799380 -0.553678 7.636247
v -3.619880 -0.553678 7.636247
v -2.799380 -0.553678 6.908072
v -3.619880 -0.553678 6.908072
v -3.584780 1.349594 7.719830
v -2.834480 1.349594 7.719830
v -3.584780 1.349594 6.824489
v -2.834480 1.349594 6.824489
v -3.721993 2.620090 7.883567
v -2.697267 2.620090 7.883567
v -3.721993 2.620090 6.660751
v -2.697267 2.620090 6.660751
v -3.642202 2.700141 7.788352
v -2.777058 2.700141 7.788352
v -3.642202 2.700141 6.755967
v -2.777058 2.700141 6.755967
v -3.642202 3.681172 7.788352
v -2.777058 3.681172 7.788352
v -3.642202 3.681172 6.755967
v -2.777058 3.681172 6.755967
v -3.950049 -0.179886 8.831419
v -3.950049 0.987229 8.831419
v -3.950049 0.987229 9.998534
v -3.950049 -0.179886 9.998534
v -2.457933 0.987228 10.681817
v -2.457933 -0.179887 10.681817
v -2.518862 0.987228 10.681817
v -2.518862 -0.179887 10.681817
v -4.071465 0.163409 9.174714
v -4.071465 0.643934 9.174714
v -4.071465 0.643934 9.655239
v -4.071465 0.163409 9.655239
v -2.948596 -0.498712 7.503821
v -3.470665 -0.498712 7.503821
v -2.948596 -0.498712 7.040498
v -3.470665 -0.498712 7.040498
vn -0.0000 1.0000 -0.0000
vn -0.0000 -1.0000 -0.0000
vn -1.0000 -0.0000 -0.0000
vn -0.0000 -0.6149 -0.7886
vn -0.0000 -0.0000 1.0000
vn 0.3215 -0.0000 -0.9469
vn -0.2997 -0.0000 -0.9540
vn -0.0000 0.6149 -0.7886
vn -0.9541 -0.0000 0.2996
vn 1.0000 -0.0000 -0.0000
vn 0.9541 -0.0000 0.2996
vn -0.0000 0.9541 0.2996
vn -0.0000 -0.9541 0.2996
vn -0.0000 -0.0000 -1.0000
vn -0.0000 0.0646 -0.9979
vn -0.0000 -0.2521 -0.9677
vn -0.3457 -0.9384 -0.0000
vn -0.0000 -0.2521 0.9677
vn 0.9595 -0.2817 -0.0000
vn -0.9595 -0.2817 -0.0000
vn -0.9942 -0.1074 -0.0000
vn -0.0000 0.0646 0.9979
vn -0.9326 0.3610 -0.0000
vn 0.9326 0.3610 -0.0000
vn -0.0000 0.7654 -0.6435
vn -0.0000 -0.1278 -0.9918
vn 0.9942 -0.1074 -0.0000
vn -0.0000 -0.1278 0.9918
vn 0.7083 0.7060 -0.0000
vn -0.0000 0.7654 0.6435
vn -0.7083 0.7060 -0.0000
vn 0.9428 -0.3334 -0.0000
vn -0.4252 -0.0000 -0.9051
vn 0.4308 -0.0000 0.9024
vn 0.9428 0.3334 -0.0000
vn 0.9428 -0.0000 0.3334
vn 0.9428 -0.0000 -0.3334
vn -0.0000 -0.9236 -0.3834
vn 0.3457 -0.9384 -0.0000
vn -0.0000 -0.9236 0.3834
vn -0.3215 -0.0000 -0.9469
vn 0.2997 -0.0000 -0.9540
vn -0.9428 -0.3334 -0.0000
vn 0.4252 -0.0000 -0.9051
vn -0.4308 -0.0000 0.9024
vn -0.9428 0.3334 -0.0000
vn -0.9428 -0.0000 0.3334
vn -0.9428 -0.0000 -0.3334
vn 0.3214 -0.0000 -0.9469
vn -0.3214 -0.0000 -0.9469
vt 0.235703 0.167420
vt 0.213516 0.167420
vt 0.235703 0.100860
vt 0.213516 0.123047
vt 0.213516 0.100860
vt 0.235703 0.123047
vt 0.213516 0.145233
vt 0.235703 0.145233
vt 0.257889 0.123047
vt 0.924873 0.051738
vt 0.898028 0.078175
vt 0.872257 0.051749
vt 0.213516 0.078674
vt 0.872114 0.104803
vt 0.899078 0.078201
vt 0.924873 0.104605
vt 0.898579 0.078750
vt 0.898573 0.077627
vt 0.191330 0.145233
vt 0.191330 0.123047
vt 0.863205 0.119843
vt 0.885391 0.119843
vt 0.967730 0.097872
vt 0.955697 0.067599
vt 0.967730 0.051738
vt 0.936906 0.084001
vt 0.953140 0.085387
vt 0.924873 0.053729
vt 0.924873 0.099863
vt 0.939463 0.066214
vt 0.162493 0.094755
vt 0.104346 0.133609
vt 0.104346 0.096860
vt 0.885391 0.142029
vt 0.885391 0.053283
vt 0.882736 0.115937
vt 0.904922 0.115937
vt 0.102299 0.066133
vt 0.160212 0.060507
vt 0.151788 0.099703
vt 0.131033 0.130766
vt 0.129908 0.099703
vt 0.160212 0.169962
vt 0.162493 0.135714
vt 0.904922 0.049377
vt 0.904922 0.138123
vt 0.915172 0.093593
vt 0.915172 0.115780
vt 0.892986 0.071407
vt 0.892986 0.137966
vt 0.892986 0.049220
vt 0.235703 0.078674
vt 0.257889 0.145233
vt 0.150664 0.130766
vt 0.102299 0.164336
s 0
usemtl Mech3
f 2/1/1 46/2/1 1/2/1
f 4/3/2 7/4/2 3/5/2
f 8/6/3 5/7/3 7/4/3
f 6/8/1 1/2/1 5/7/1
f 3/5/4 11/4/4 9/5/4
f 4/9/5 6/8/5 8/6/5
f 10/10/1 16/11/1 12/12/1
f 3/5/6 10/13/6 1/13/6
f 5/7/7 11/4/7 7/4/7
f 1/2/8 12/7/8 5/7/8
f 16/7/9 19/4/9 15/4/9
f 11/14/2 13/15/2 9/16/2
f 12/12/3 15/17/3 11/14/3
f 9/16/10 14/18/10 10/10/10
f 17/5/10 22/13/10 18/13/10
f 13/5/11 18/13/11 14/13/11
f 14/2/12 20/7/12 16/7/12
f 15/4/13 17/5/13 13/5/13
f 23/4/14 22/19/14 21/20/14
f 22/21/15 32/22/15 31/21/15
f 21/23/16 27/24/16 23/25/16
f 20/7/3 23/4/3 19/4/3
f 26/26/17 60/27/17 28/27/17
f 19/28/18 26/26/18 17/29/18
f 17/29/19 28/27/19 21/23/19
f 23/25/20 25/30/20 19/28/20
f 32/31/21 34/32/21 36/33/21
f 18/34/22 30/22/22 20/22/22
f 20/22/23 32/22/23 24/22/23
f 22/35/24 29/35/24 18/35/24
f 35/36/25 40/37/25 39/36/25
f 32/31/26 35/38/26 31/39/26
f 31/40/27 33/41/27 29/42/27
f 29/43/28 34/32/28 30/44/28
f 39/13/10 41/13/10 37/13/10
f 33/45/29 39/45/29 37/45/29
f 33/46/30 38/37/30 34/37/30
f 34/37/31 40/37/31 36/37/31
f 41/2/1 44/7/1 42/7/1
f 37/2/5 42/7/5 38/7/5
f 38/7/3 44/7/3 40/7/3
f 40/7/14 43/19/14 39/19/14
f 45/5/32 56/3/32 48/3/32
f 4/47/33 49/48/33 2/48/33
f 1/13/14 45/5/14 3/5/14
f 3/5/2 48/3/2 4/3/2
f 50/47/5 51/48/5 49/48/5
f 4/49/2 52/49/2 50/49/2
f 2/50/1 51/50/1 47/50/1
f 47/51/34 52/49/34 48/49/34
f 55/52/10 53/5/10 54/13/10
f 47/1/35 54/2/35 46/2/35
f 48/3/36 55/52/36 47/52/36
f 46/13/37 53/5/37 45/5/37
f 57/30/2 60/27/2 58/26/2
f 25/30/38 58/26/38 26/26/38
f 25/30/39 59/24/39 57/30/39
f 28/27/40 59/24/40 27/24/40
f 106/2/1 62/1/1 61/2/1
f 67/4/2 64/3/2 63/5/2
f 65/7/10 68/6/10 67/4/10
f 61/2/1 66/8/1 65/7/1
f 63/5/4 71/4/4 67/4/4
f 66/8/5 64/9/5 68/6/5
f 76/11/1 70/10/1 72/12/1
f 70/13/41 63/5/41 61/13/41
f 71/4/42 65/7/42 67/4/42
f 72/7/8 61/2/8 65/7/8
f 79/4/11 76/7/11 75/4/11
f 73/15/2 71/14/2 69/16/2
f 75/17/10 72/12/10 71/14/10
f 74/18/3 69/16/3 70/10/3
f 82/13/3 77/5/3 78/13/3
f 78/13/9 73/5/9 74/13/9
f 80/7/12 74/2/12 76/7/12
f 77/5/13 75/4/13 73/5/13
f 82/19/14 83/4/14 81/20/14
f 82/21/15 92/22/15 84/22/15
f 87/24/16 81/23/16 83/25/16
f 83/4/10 80/7/10 79/4/10
f 120/27/39 86/26/39 88/27/39
f 86/26/18 79/28/18 77/29/18
f 88/27/20 77/29/20 81/23/20
f 79/28/19 87/24/19 83/25/19
f 92/31/27 94/32/27 90/44/27
f 90/22/22 78/34/22 80/22/22
f 92/22/24 80/22/24 84/22/24
f 89/35/23 82/35/23 78/35/23
f 95/36/25 100/37/25 96/37/25
f 95/38/26 92/31/26 91/39/26
f 93/41/21 91/40/21 89/42/21
f 94/32/28 89/43/28 90/44/28
f 101/13/3 99/13/3 97/13/3
f 93/45/31 99/45/31 95/45/31
f 98/37/30 93/46/30 94/37/30
f 100/37/29 94/37/29 96/37/29
f 104/7/1 101/2/1 102/7/1
f 102/7/5 97/2/5 98/7/5
f 104/7/10 98/7/10 100/7/10
f 103/19/14 100/7/14 99/19/14
f 116/3/43 105/5/43 108/3/43
f 109/48/44 64/47/44 62/48/44
f 105/5/14 61/13/14 63/5/14
f 108/3/2 63/5/2 64/3/2
f 111/48/5 110/47/5 109/48/5
f 64/49/2 112/49/2 108/49/2
f 111/50/1 62/50/1 107/50/1
f 112/49/45 107/51/45 108/49/45
f 113/5/3 115/52/3 114/13/3
f 114/2/46 107/1/46 106/2/46
f 115/52/47 108/3/47 107/52/47
f 113/5/48 106/13/48 105/5/48
f 120/27/2 117/30/2 118/26/2
f 118/26/38 85/30/38 86/26/38
f 85/30/17 119/24/17 87/24/17
f 119/24/40 88/27/40 87/24/40
f 2/1/1 47/1/1 46/2/1
f 4/3/2 8/6/2 7/4/2
f 8/6/3 6/8/3 5/7/3
f 6/8/1 2/1/1 1/2/1
f 3/5/4 7/4/4 11/4/4
f 4/9/5 2/53/5 6/8/5
f 10/10/1 14/18/1 16/11/1
f 3/5/49 9/5/49 10/13/49
f 5/7/7 12/7/7 11/4/7
f 1/2/8 10/2/8 12/7/8
f 16/7/9 20/7/9 19/4/9
f 11/14/2 15/17/2 13/15/2
f 12/12/3 16/11/3 15/17/3
f 9/16/10 13/15/10 14/18/10
f 17/5/10 21/5/10 22/13/10
f 13/5/11 17/5/11 18/13/11
f 14/2/12 18/2/12 20/7/12
f 15/4/13 19/4/13 17/5/13
f 23/4/14 24/7/14 22/19/14
f 22/21/15 24/22/15 32/22/15
f 21/23/16 28/27/16 27/24/16
f 20/7/3 24/7/3 23/4/3
f 26/26/17 58/26/17 60/27/17
f 19/28/18 25/30/18 26/26/18
f 17/29/19 26/26/19 28/27/19
f 23/25/20 27/24/20 25/30/20
f 32/31/21 30/44/21 34/32/21
f 18/34/22 29/34/22 30/22/22
f 20/22/23 30/22/23 32/22/23
f 22/35/24 31/35/24 29/35/24
f 35/36/25 36/37/25 40/37/25
f 32/31/26 36/33/26 35/38/26
f 31/40/27 35/54/27 33/41/27
f 29/43/28 33/55/28 34/32/28
f 39/13/10 43/13/10 41/13/10
f 33/45/29 35/45/29 39/45/29
f 33/46/30 37/46/30 38/37/30
f 34/37/31 38/37/31 40/37/31
f 41/2/1 43/2/1 44/7/1
f 37/2/5 41/2/5 42/7/5
f 38/7/3 42/7/3 44/7/3
f 40/7/14 44/7/14 43/19/14
f 45/5/32 53/5/32 56/3/32
f 4/47/33 50/47/33 49/48/33
f 1/13/14 46/13/14 45/5/14
f 3/5/2 45/5/2 48/3/2
f 50/47/5 52/47/5 51/48/5
f 4/49/2 48/49/2 52/49/2
f 2/50/1 49/50/1 51/50/1
f 47/51/34 51/51/34 52/49/34
f 55/52/10 56/3/10 53/5/10
f 47/1/35 55/1/35 54/2/35
f 48/3/36 56/3/36 55/52/36
f 46/13/37 54/13/37 53/5/37
f 57/30/2 59/24/2 60/27/2
f 25/30/38 57/30/38 58/26/38
f 25/30/39 27/24/39 59/24/39
f 28/27/40 60/27/40 59/24/40
f 106/2/1 107/1/1 62/1/1
f 67/4/2 68/6/2 64/3/2
f 65/7/10 66/8/10 68/6/10
f 61/2/1 62/1/1 66/8/1
f 63/5/4 69/5/4 71/4/4
f 66/8/5 62/53/5 64/9/5
f 76/11/1 74/18/1 70/10/1
f 70/13/50 69/5/50 63/5/50
f 71/4/42 72/7/42 65/7/42
f 72/7/8 70/2/8 61/2/8
f 79/4/11 80/7/11 76/7/11
f 73/15/2 75/17/2 71/14/2
f 75/17/10 76/11/10 72/12/10
f 74/18/3 73/15/3 69/16/3
f 82/13/3 81/5/3 77/5/3
f 78/13/9 77/5/9 73/5/9
f 80/7/12 78/2/12 74/2/12
f 77/5/13 79/4/13 75/4/13
f 82/19/14 84/7/14 83/4/14
f 82/21/15 91/21/15 92/22/15
f 87/24/16 88/27/16 81/23/16
f 83/4/10 84/7/10 80/7/10
f 120/27/39 118/26/39 86/26/39
f 86/26/18 85/30/18 79/28/18
f 88/27/20 86/26/20 77/29/20
f 79/28/19 85/30/19 87/24/19
f 92/31/27 96/33/27 94/32/27
f 90/22/22 89/34/22 78/34/22
f 92/22/24 90/22/24 80/22/24
f 89/35/23 91/35/23 82/35/23
f 95/36/25 99/36/25 100/37/25
f 95/38/26 96/33/26 92/31/26
f 93/41/21 95/54/21 91/40/21
f 94/32/28 93/55/28 89/43/28
f 101/13/3 103/13/3 99/13/3
f 93/45/31 97/45/31 99/45/31
f 98/37/30 97/46/30 93/46/30
f 100/37/29 98/37/29 94/37/29
f 104/7/1 103/2/1 101/2/1
f 102/7/5 101/2/5 97/2/5
f 104/7/10 102/7/10 98/7/10
f 103/19/14 104/7/14 100/7/14
f 116/3/43 113/5/43 105/5/43
f 109/48/44 110/47/44 64/47/44
f 105/5/14 106/13/14 61/13/14
f 108/3/2 105/5/2 63/5/2
f 111/48/5 112/47/5 110/47/5
f 64/49/2 110/49/2 112/49/2
f 111/50/1 109/50/1 62/50/1
f 112/49/45 111/51/45 107/51/45
f 113/5/3 116/3/3 115/52/3
f 114/2/46 115/1/46 107/1/46
f 115/52/47 116/3/47 108/3/47
f 113/5/48 114/13/48 106/13/48
f 120/27/2 119/24/2 117/30/2
f 118/26/38 117/30/38 85/30/38
f 85/30/17 117/30/17 119/24/17
f 119/24/40 120/27/40 88/27/40
