# Blender 4.5.4 LTS
# www.blender.org
mtllib body3.mtl
o MechBody3
v 1.825582 1.053625 5.779499
v 1.804068 1.053625 6.688447
v 1.825582 -0.250218 5.779499
v 1.804068 -0.250218 6.688447
v -1.825582 1.053625 5.779499
v -1.804068 1.053625 6.688447
v -1.825582 -0.250218 5.779499
v -1.804068 -0.250218 6.688447
v -1.274592 -1.116343 8.501856
v -1.274592 -1.116343 9.858148
v 1.274592 -1.116343 8.501856
v 1.274592 -1.116343 9.858148
v -0.810886 2.376898 8.673099
v -0.810886 2.376898 9.535962
v 0.810886 2.376898 9.535962
v 0.810886 2.376898 8.673099
v -2.232710 -0.174770 9.995903
v -2.232710 0.978177 9.995903
v 2.232710 -0.174770 9.995903
v 2.232710 0.978177 9.995903
v 2.232710 0.978177 7.660637
v 2.232710 -0.174770 7.660637
v -2.232710 0.978177 7.660637
v -2.232710 -0.174770 7.660637
v -1.431967 -0.115755 7.416200
v -1.431967 0.919162 7.416200
v 1.431967 -0.115755 7.416200
v 1.431967 0.919162 7.416200
v 0.492411 0.842028 10.050459
v 0.492411 -0.038621 10.050459
v -0.492411 -0.038621 10.050459
v -0.492411 0.842028 10.050459
v 0.492411 0.842028 10.270955
v 0.492411 -0.038621 10.270955
v -0.492411 -0.038621 10.270955
v -0.492411 0.842028 10.270955
v 2.256973 0.809706 9.009492
v 2.256973 0.809706 9.732268
v 2.256973 -0.006299 9.732268
v 2.256973 -0.006299 9.009492
v 2.374503 0.897157 8.932032
v 2.374503 0.897157 9.809729
v 2.374503 -0.093750 9.809729
v 2.374503 -0.093750 8.932032
v 2.506206 0.817538 9.002554
v 2.506206 0.817538 9.739206
v 2.506206 -0.014132 9.739206
v 2.506206 -0.014132 9.002554
v -1.825582 1.053625 5.779499
v -1.804068 1.053625 6.688447
v -1.825582 -0.250218 5.779499
v -1.804068 -0.250218 6.688447
v 1.825582 1.053625 5.779499
v 1.804068 1.053625 6.688447
v 1.825582 -0.250218 5.779499
v 1.804068 -0.250218 6.688447
v 1.274592 -1.116343 8.501856
v 1.274592 -1.116343 9.858148
v -1.274592 -1.116343 8.501856
v -1.274592 -1.116343 9.858148
v 0.810886 2.376898 8.673099
v 0.810886 2.376898 9.535962
v -0.810886 2.376898 9.535962
v -0.810886 2.376898 8.673099
v 2.232710 -0.174770 9.995903
v 2.232710 0.978177 9.995903
v -2.232710 -0.174770 9.995903
v -2.232710 0.978177 9.995903
v -2.232710 0.978177 7.660637
v -2.232710 -0.174770 7.660637
v 2.232710 0.978177 7.660637
v 2.232710 -0.174770 7.660637
v 1.431967 -0.115755 7.416200
v 1.431967 0.919162 7.416200
v -1.431967 -0.115755 7.416200
v -1.431967 0.919162 7.416200
v -0.492411 0.842028 10.050459
v -0.492411 -0.038621 10.050459
v 0.492411 -0.038621 10.050459
v 0.492411 0.842028 10.050459
v -0.492411 0.842028 10.270955
v -0.492411 -0.038621 10.270955
v 0.492411 -0.038621 10.270955
v 0.492411 0.842028 10.270955
v -2.256973 0.809706 9.009492
v -2.256973 0.809706 9.732268
v -2.256973 -0.006299 9.732268
v -2.256973 -0.006299 9.009492
v -2.374503 0.897157 8.932032
v -2.374503 0.897157 9.809729
v -2.374503 -0.093750 9.809729
v -2.374503 -0.093750 8.932032
v -2.506206 0.817538 9.002554
v -2.506206 0.817538 9.739206
v -2.506206 -0.014132 9.739206
v -2.506206 -0.014132 9.002554
vn 0.9997 -0.0000 0.0237
vn -0.0000 -1.0000 -0.0000
vn -0.9997 -0.0000 0.0237
vn -0.0000 1.0000 -0.0000
vn -0.0000 -0.0000 -1.0000
vn -0.0000 0.5864 -0.8101
vn 0.7013 0.7129 -0.0000
vn -0.7013 0.7129 -0.0000
vn 0.7009 -0.7132 -0.0000
vn -0.0000 -0.6662 -0.7457
vn -0.0000 0.9721 -0.2347
vn -0.7009 -0.7132 -0.0000
vn -0.0000 -0.9721 -0.2347
vn 0.2920 -0.0000 -0.9564
vn -1.0000 -0.0000 -0.0000
vn 0.9958 -0.0000 0.0916
vn -0.2920 -0.0000 -0.9564
vn -0.0000 0.3124 0.9500
vn -0.0000 -0.1448 0.9895
vn -0.8904 -0.0000 0.4552
vn -0.0000 -0.9834 0.1817
vn -0.0000 0.9834 0.1817
vn 0.8904 -0.0000 0.4552
vn 0.0313 -0.0000 0.9995
vn -0.0313 -0.0000 0.9995
vn -0.0000 0.3720 0.9283
vn -0.0000 -0.3720 0.9283
vn -0.0000 -0.0000 1.0000
vn 1.0000 -0.0000 -0.0000
vn -0.5970 -0.8023 -0.0000
vn 0.9898 -0.1426 -0.0000
vn 0.9898 0.1426 -0.0000
vn 0.9998 -0.0000 -0.0180
vn 0.4720 -0.0000 -0.8816
vn -0.5970 0.8023 -0.0000
vn -0.5503 -0.0000 -0.8350
vn -0.5503 -0.0000 0.8350
vn 0.4720 -0.0000 0.8816
vn 0.5173 -0.8558 -0.0000
vn 0.5173 0.8558 -0.0000
vn -0.9958 -0.0000 0.0916
vn 0.5970 -0.8023 -0.0000
vn -0.9898 -0.1426 -0.0000
vn -0.9898 0.1426 -0.0000
vn -0.9998 -0.0000 -0.0180
vn -0.4721 -0.0000 -0.8816
vn 0.5970 0.8023 -0.0000
vn 0.5503 -0.0000 -0.8350
vn 0.5503 -0.0000 0.8350
vn -0.4720 -0.0000 0.8816
vn -0.5173 -0.8558 -0.0000
vn -0.5173 0.8558 -0.0000
vn 0.4721 -0.0000 -0.8816
vn -0.9898 0.1425 -0.0000
vn -0.4721 -0.0000 0.8816
vt 0.093459 0.116814
vt 0.108029 0.126963
vt 0.093459 0.126963
vt 0.125786 0.075107
vt 0.135942 0.034548
vt 0.135942 0.075347
vt 0.078890 0.116989
vt 0.093459 0.127100
vt 0.078890 0.127100
vt 0.071080 0.075107
vt 0.077036 0.034548
vt 0.077036 0.075347
vt 0.088838 0.075347
vt 0.088838 0.034548
vt 0.065393 0.079897
vt 0.046099 0.045886
vt 0.065393 0.029998
vt 0.078890 0.092780
vt 0.092521 0.108410
vt 0.082903 0.108410
vt 0.104921 0.095527
vt 0.117650 0.079897
vt 0.130820 0.095527
vt 0.088838 0.079897
vt 0.105420 0.069190
vt 0.114932 0.079897
vt 0.114932 0.029998
vt 0.105420 0.040705
vt 0.841077 0.092652
vt 0.838941 0.051701
vt 0.841077 0.060649
vt 0.090265 0.040705
vt 0.088838 0.029998
vt 0.891218 0.092652
vt 0.888480 0.051701
vt 0.891218 0.060649
vt 0.849378 0.051701
vt 0.850445 0.060649
vt 0.130820 0.108410
vt 0.078890 0.079897
vt 0.081847 0.090898
vt 0.849378 0.101600
vt 0.838941 0.101600
vt 0.055452 0.129795
vt 0.040445 0.095785
vt 0.055452 0.079897
vt 0.046099 0.064009
vt 0.040445 0.045886
vt 0.068265 0.129795
vt 0.078890 0.090603
vt 0.078890 0.119089
vt 0.091957 0.108410
vt 0.093459 0.116989
vt 0.117670 0.038946
vt 0.125786 0.034788
vt 0.067529 0.038946
vt 0.071080 0.034788
vt 0.106527 0.108410
vt 0.108029 0.116814
vt 0.066688 0.110348
vt 0.908598 0.123609
vt 0.907153 0.112604
vt 0.908598 0.112604
vt 0.068265 0.079897
vt 0.056901 0.099344
vt 0.056901 0.110348
vt 0.066688 0.099344
vt 0.108029 0.108410
vt 0.117816 0.119415
vt 0.108029 0.119415
vt 0.906832 0.112604
vt 0.904368 0.101600
vt 0.906832 0.101600
vt 0.909278 0.111440
vt 0.909278 0.101600
vt 0.909175 0.139954
vt 0.906717 0.130113
vt 0.909175 0.130113
vt 0.906717 0.139065
vt 0.905404 0.130113
vt 0.906717 0.130989
vt 0.089904 0.081779
vt 0.081847 0.081779
vt 0.089904 0.090898
vt 0.104921 0.092780
vt 0.104921 0.079897
vt 0.905682 0.112604
vt 0.907153 0.120391
vt 0.905682 0.121574
vt 0.908598 0.113624
vt 0.909575 0.122339
vt 0.908598 0.121640
vt 0.904368 0.112888
vt 0.904368 0.120275
vt 0.903932 0.140244
vt 0.902619 0.130113
vt 0.903932 0.131175
vt 0.118499 0.109300
vt 0.126710 0.118593
vt 0.118499 0.118593
vt 0.902619 0.141125
vt 0.901147 0.131080
vt 0.905404 0.139920
vt 0.903932 0.130910
vt 0.901147 0.130113
vt 0.892047 0.131003
vt 0.891364 0.130113
vt 0.850445 0.092652
vt 0.108081 0.079897
vt 0.090265 0.069190
vt 0.888480 0.101600
vt 0.104921 0.108410
vt 0.040445 0.113907
vt 0.040445 0.064009
vt 0.080392 0.108410
vt 0.117670 0.070949
vt 0.067529 0.070949
vt 0.094962 0.108410
vt 0.907153 0.123609
vt 0.117816 0.108410
vt 0.904368 0.112604
vt 0.906832 0.111440
vt 0.906717 0.139954
vt 0.907153 0.112863
vt 0.909575 0.112604
vt 0.126710 0.109300
vt 0.901147 0.140323
vt 0.903932 0.139142
vt 0.900258 0.131003
s 0
usemtl Mech3
f 2/1/1 3/2/1 1/3/1
f 4/4/2 7/5/2 3/6/2
f 8/7/3 5/8/3 7/9/3
f 6/10/4 1/11/4 5/12/4
f 7/13/5 1/11/5 3/14/5
f 23/15/6 16/16/6 21/17/6
f 20/18/7 16/19/7 15/20/7
f 18/21/8 13/22/8 23/23/8
f 19/24/9 11/25/9 22/26/9
f 24/27/10 11/25/10 9/28/10
f 26/29/11 21/30/11 28/31/11
f 11/25/2 10/32/2 9/28/2
f 17/33/12 9/28/12 10/32/12
f 27/34/13 24/35/13 25/36/13
f 28/31/14 22/37/14 27/38/14
f 24/39/15 18/21/15 23/23/15
f 19/40/16 38/41/16 20/18/16
f 26/29/17 24/42/17 23/43/17
f 20/44/18 14/45/18 18/46/18
f 13/47/4 15/48/4 16/16/4
f 19/49/19 10/50/19 12/51/19
f 8/7/20 26/52/20 6/53/20
f 4/4/21 25/54/21 8/55/21
f 6/10/22 28/56/22 2/57/22
f 2/1/23 27/58/23 4/59/23
f 20/44/24 30/60/24 19/49/24
f 32/61/4 33/62/4 29/63/4
f 17/64/25 32/65/25 18/46/25
f 18/46/26 29/66/26 20/44/26
f 19/49/27 31/67/27 17/64/27
f 36/68/28 34/69/28 33/70/28
f 30/71/2 35/72/2 31/73/2
f 31/74/15 36/73/15 32/75/15
f 29/76/29 34/77/29 30/78/29
f 40/79/30 43/80/30 39/81/30
f 19/40/31 40/82/31 39/83/31
f 20/18/32 37/84/32 21/85/32
f 21/85/33 40/82/33 22/86/33
f 41/87/34 48/88/34 44/89/34
f 38/90/35 41/91/35 37/92/35
f 37/93/36 44/89/36 40/94/36
f 39/95/37 42/96/37 38/97/37
f 45/98/29 47/99/29 48/100/29
f 43/101/38 46/102/38 42/96/38
f 44/103/39 47/104/39 43/80/39
f 42/105/40 45/106/40 41/107/40
f 51/2/3 50/1/3 49/3/3
f 55/5/2 52/4/2 51/6/2
f 53/8/1 56/7/1 55/9/1
f 49/11/4 54/10/4 53/12/4
f 49/11/5 55/13/5 51/14/5
f 64/16/6 71/15/6 69/17/6
f 68/18/8 64/19/8 69/85/8
f 61/22/7 66/21/7 71/23/7
f 59/25/12 67/24/12 70/26/12
f 57/28/10 70/26/10 72/27/10
f 69/30/11 74/29/11 76/31/11
f 58/32/2 59/25/2 57/28/2
f 65/33/9 57/28/9 72/27/9
f 72/35/13 75/34/13 73/36/13
f 70/37/17 76/31/17 75/38/17
f 66/21/29 72/39/29 71/23/29
f 68/18/41 87/83/41 67/40/41
f 71/43/14 73/108/14 74/29/14
f 62/45/18 68/44/18 66/46/18
f 63/48/4 61/47/4 64/16/4
f 60/51/19 65/64/19 67/49/19
f 74/52/23 56/7/23 54/53/23
f 73/54/21 52/4/21 56/55/21
f 76/56/22 54/10/22 50/57/22
f 75/58/20 50/1/20 52/59/20
f 78/60/25 68/44/25 67/49/25
f 81/62/4 80/61/4 77/63/4
f 80/65/24 65/64/24 66/46/24
f 68/44/26 80/65/26 66/46/26
f 65/64/27 78/60/27 67/49/27
f 82/69/28 84/68/28 81/70/28
f 83/72/2 78/71/2 79/73/2
f 84/73/29 79/74/29 80/75/29
f 82/77/15 77/76/15 78/78/15
f 91/80/42 88/79/42 87/81/42
f 67/40/43 88/82/43 70/86/43
f 85/84/44 68/18/44 69/85/44
f 88/82/45 69/85/45 70/86/45
f 96/88/46 89/87/46 92/89/46
f 89/91/47 86/90/47 85/92/47
f 92/89/48 85/93/48 88/94/48
f 90/96/49 87/95/49 86/97/49
f 95/99/15 93/98/15 96/100/15
f 94/102/50 91/101/50 90/96/50
f 95/104/51 92/103/51 91/80/51
f 93/106/52 90/105/52 89/107/52
f 2/1/1 4/59/1 3/2/1
f 4/4/2 8/55/2 7/5/2
f 8/7/3 6/53/3 5/8/3
f 6/10/4 2/57/4 1/11/4
f 7/13/5 5/12/5 1/11/5
f 23/15/6 13/47/6 16/16/6
f 20/18/7 21/85/7 16/19/7
f 18/21/8 14/109/8 13/22/8
f 19/24/9 12/110/9 11/25/9
f 24/27/10 22/26/10 11/25/10
f 26/29/11 23/43/11 21/30/11
f 11/25/2 12/110/2 10/32/2
f 17/33/12 24/27/12 9/28/12
f 27/34/13 22/111/13 24/35/13
f 28/31/14 21/30/14 22/37/14
f 24/39/15 17/112/15 18/21/15
f 19/40/16 39/83/16 38/41/16
f 26/29/17 25/108/17 24/42/17
f 20/44/18 15/113/18 14/45/18
f 13/47/4 14/114/4 15/48/4
f 19/49/19 17/64/19 10/50/19
f 8/7/20 25/115/20 26/52/20
f 4/4/21 27/116/21 25/54/21
f 6/10/22 26/117/22 28/56/22
f 2/1/23 28/118/23 27/58/23
f 20/44/24 29/66/24 30/60/24
f 32/61/4 36/119/4 33/62/4
f 17/64/25 31/67/25 32/65/25
f 18/46/26 32/65/26 29/66/26
f 19/49/27 30/60/27 31/67/27
f 36/68/28 35/120/28 34/69/28
f 30/71/2 34/121/2 35/72/2
f 31/74/15 35/122/15 36/73/15
f 29/76/29 33/123/29 34/77/29
f 40/79/30 44/103/30 43/80/30
f 19/40/31 22/86/31 40/82/31
f 20/18/32 38/41/32 37/84/32
f 21/85/33 37/84/33 40/82/33
f 41/87/53 45/124/53 48/88/53
f 38/90/35 42/125/35 41/91/35
f 37/93/36 41/87/36 44/89/36
f 39/95/37 43/101/37 42/96/37
f 45/98/29 46/126/29 47/99/29
f 43/101/38 47/127/38 46/102/38
f 44/103/39 48/128/39 47/104/39
f 42/105/40 46/129/40 45/106/40
f 51/2/3 52/59/3 50/1/3
f 55/5/2 56/55/2 52/4/2
f 53/8/1 54/53/1 56/7/1
f 49/11/4 50/57/4 54/10/4
f 49/11/5 53/12/5 55/13/5
f 64/16/6 61/47/6 71/15/6
f 68/18/8 63/20/8 64/19/8
f 61/22/7 62/109/7 66/21/7
f 59/25/12 60/110/12 67/24/12
f 57/28/10 59/25/10 70/26/10
f 69/30/11 71/43/11 74/29/11
f 58/32/2 60/110/2 59/25/2
f 65/33/9 58/32/9 57/28/9
f 72/35/13 70/111/13 75/34/13
f 70/37/17 69/30/17 76/31/17
f 66/21/29 65/112/29 72/39/29
f 68/18/41 86/41/41 87/83/41
f 71/43/14 72/42/14 73/108/14
f 62/45/18 63/113/18 68/44/18
f 63/48/4 62/114/4 61/47/4
f 60/51/19 58/50/19 65/64/19
f 74/52/23 73/115/23 56/7/23
f 73/54/21 75/116/21 52/4/21
f 76/56/22 74/117/22 54/10/22
f 75/58/20 76/118/20 50/1/20
f 78/60/25 77/66/25 68/44/25
f 81/62/4 84/119/4 80/61/4
f 80/65/24 79/67/24 65/64/24
f 68/44/26 77/66/26 80/65/26
f 65/64/27 79/67/27 78/60/27
f 82/69/28 83/120/28 84/68/28
f 83/72/2 82/121/2 78/71/2
f 84/73/29 83/122/29 79/74/29
f 82/77/15 81/123/15 77/76/15
f 91/80/42 92/103/42 88/79/42
f 67/40/43 87/83/43 88/82/43
f 85/84/54 86/41/54 68/18/54
f 88/82/45 85/84/45 69/85/45
f 96/88/46 93/124/46 89/87/46
f 89/91/47 90/125/47 86/90/47
f 92/89/48 89/87/48 85/93/48
f 90/96/49 91/101/49 87/95/49
f 95/99/15 94/126/15 93/98/15
f 94/102/55 95/127/55 91/101/55
f 95/104/51 96/128/51 92/103/51
f 93/106/52 94/129/52 90/105/52
