# Blender 4.5.4 LTS
# www.blender.org
mtllib body1.mtl
o MechBody1
v 1.684012 1.044590 5.778282
v 1.684012 1.044590 6.934101
v 1.684012 -0.241183 5.778282
v 1.684012 -0.241183 6.934101
v -1.684012 1.044590 5.778282
v -1.684012 1.044590 6.934101
v -1.684012 -0.241183 5.778282
v -1.684012 -0.241183 6.934101
v 2.242774 1.608976 7.534996
v 2.242774 -0.805569 7.534996
v -2.242774 -0.805569 7.534996
v -2.242774 1.608976 7.534996
v 2.242774 1.608976 9.899388
v 2.242774 -0.805569 9.899388
v -2.242774 -0.805569 9.899388
v -2.242774 1.608976 9.899388
v 2.242774 -0.805569 8.927511
v 2.242774 1.608976 8.927512
v 2.242774 0.927398 9.899388
v 2.242774 -0.122631 9.899388
v 2.242774 0.927398 8.927511
v 2.242774 -0.122631 8.927511
v 2.524073 0.927398 9.899388
v 2.524073 -0.122631 9.899388
v 2.524073 -0.122631 8.927511
v 2.524073 0.927398 8.927511
v 0.344348 0.270707 10.020146
v 0.344348 0.099865 10.020146
v 0.000000 0.099865 10.020146
v 0.000000 0.703882 10.020146
v 0.344348 0.703882 10.020146
v 0.344348 0.533380 10.020146
v 0.344348 0.270707 10.238606
v 0.344348 0.099865 10.238606
v 0.000000 0.099865 10.238606
v 0.000000 0.703882 10.238606
v 0.344348 0.703882 10.238606
v 0.344348 0.533380 10.238606
v -1.684012 1.044590 5.778282
v -1.684012 1.044590 6.934101
v -1.684012 -0.241183 5.778282
v -1.684012 -0.241183 6.934101
v 1.684012 1.044590 5.778282
v 1.684012 1.044590 6.934101
v 1.684012 -0.241183 5.778282
v 1.684012 -0.241183 6.934101
v -2.242774 1.608976 7.534996
v -2.242774 -0.805569 7.534996
v 2.242774 -0.805569 7.534996
v 2.242774 1.608976 7.534996
v -2.242774 1.608976 9.899388
v -2.242774 -0.805569 9.899388
v 2.242774 -0.805569 9.899388
v 2.242774 1.608976 9.899388
v -2.242774 -0.805569 8.927511
v -2.242774 1.608976 8.927512
v -2.242774 0.927398 9.899388
v -2.242774 -0.122631 9.899388
v -2.242774 0.927398 8.927511
v -2.242774 -0.122631 8.927511
v -2.524073 0.927398 9.899388
v -2.524073 -0.122631 9.899388
v -2.524073 -0.122631 8.927511
v -2.524073 0.927398 8.927511
v -0.344348 0.270707 10.020146
v -0.344348 0.099865 10.020146
v -0.344348 0.703882 10.020146
v -0.344348 0.533380 10.020146
v -0.344348 0.270707 10.238606
v -0.344348 0.099865 10.238606
v -0.344348 0.703882 10.238606
v -0.344348 0.533380 10.238606
vn 1.0000 -0.0000 -0.0000
vn -0.0000 -1.0000 -0.0000
vn -1.0000 -0.0000 -0.0000
vn -0.0000 1.0000 -0.0000
vn -0.0000 -0.0000 -1.0000
vn -0.0000 0.7289 -0.6846
vn -0.0000 -0.7289 -0.6846
vn -0.7323 -0.0000 -0.6810
vn 0.7323 -0.0000 -0.6810
vn -0.0538 -0.0000 0.9986
vn -0.0000 -0.0000 1.0000
vn 0.0635 -0.0000 0.9980
vn -0.0000 0.1322 0.9912
vn -0.0000 -0.1322 0.9912
vn 0.0538 -0.0000 0.9986
vn -0.0635 -0.0000 0.9980
vt 0.059322 0.028337
vt 0.042240 0.045418
vt 0.042240 0.028337
vt 0.059322 0.045418
vt 0.042240 0.062500
vt 0.059322 0.062500
vt 0.042240 0.079582
vt 0.059322 0.079582
vt 0.042240 0.096664
vt 0.919193 0.072266
vt 0.902112 0.089347
vt 0.902112 0.072266
vt 0.059322 0.096664
vt 0.059322 0.032607
vt 0.059322 0.036877
vt 0.987149 0.486529
vt 0.840745 0.208784
vt 0.918765 0.208784
vt 0.912838 0.061904
vt 0.912838 0.066174
vt 0.929919 0.100338
vt 0.929919 0.104608
vt 0.931873 0.090936
vt 0.931873 0.086666
vt 0.076404 0.071041
vt 0.076404 0.075311
vt 0.914791 0.095207
vt 0.914791 0.112289
vt 0.914791 0.061043
vt 0.914791 0.078125
vt 0.914791 0.043962
vt 0.914791 0.048232
vt 0.914791 0.052502
vt 0.840745 0.486529
vt 0.919193 0.089347
vt 0.987149 0.208784
vt 0.076404 0.062500
vt 0.076404 0.079582
s 0
usemtl Mech1
f 2/1/1 3/2/1 1/3/1
f 4/4/2 7/5/2 3/2/2
f 8/6/3 5/7/3 7/5/3
f 6/8/4 1/9/4 5/7/4
f 7/10/5 1/11/5 3/12/5
f 6/8/6 9/13/6 2/13/6
f 11/6/3 16/8/3 12/8/3
f 4/4/7 11/6/7 8/6/7
f 8/6/8 12/8/8 6/8/8
f 2/1/9 10/4/9 4/4/9
f 16/8/10 29/6/10 30/8/10
f 9/1/1 21/14/1 22/15/1
f 12/16/4 13/17/4 18/18/4
f 10/4/2 17/4/2 15/6/2
f 25/15/1 23/14/1 24/15/1
f 22/15/1 14/4/1 17/4/1
f 21/19/5 25/20/5 22/20/5
f 19/14/1 18/1/1 13/1/1
f 19/19/4 26/19/4 21/19/4
f 22/20/2 24/20/2 20/20/2
f 20/21/11 23/22/11 19/22/11
f 32/23/1 33/24/1 27/24/1
f 20/25/12 32/26/12 27/25/12
f 20/15/12 28/4/12 14/4/12
f 13/13/13 30/8/13 31/13/13
f 14/4/14 29/6/14 15/6/14
f 19/14/12 31/1/12 32/14/12
f 33/25/11 38/26/11 36/8/11
f 30/27/4 37/28/4 31/28/4
f 28/29/2 35/30/2 29/30/2
f 31/31/1 38/32/1 32/32/1
f 29/6/3 36/8/3 30/8/3
f 27/33/1 34/29/1 28/29/1
f 41/2/3 40/1/3 39/3/3
f 45/5/2 42/4/2 41/2/2
f 43/7/1 46/6/1 45/5/1
f 39/9/4 44/8/4 43/7/4
f 39/11/5 45/10/5 41/12/5
f 47/13/6 44/8/6 40/13/6
f 54/8/1 49/6/1 50/8/1
f 49/6/7 42/4/7 46/6/7
f 50/8/9 46/6/9 44/8/9
f 42/4/8 47/1/8 40/1/8
f 54/8/15 29/6/15 53/6/15
f 60/15/3 59/14/3 47/1/3
f 56/18/4 54/34/4 50/16/4
f 53/6/2 55/4/2 48/4/2
f 61/14/3 63/15/3 62/15/3
f 52/4/3 60/15/3 55/4/3
f 63/20/5 59/19/5 60/20/5
f 57/14/3 56/1/3 59/14/3
f 64/19/4 57/19/4 59/19/4
f 62/20/2 60/20/2 58/20/2
f 57/22/11 62/21/11 58/21/11
f 69/24/3 68/23/3 65/24/3
f 58/25/16 68/26/16 57/26/16
f 66/4/16 58/15/16 52/4/16
f 51/13/13 30/8/13 54/8/13
f 29/6/14 52/4/14 53/6/14
f 57/14/16 67/1/16 51/1/16
f 36/8/11 72/26/11 69/25/11
f 71/28/4 30/27/4 67/28/4
f 35/30/2 66/29/2 29/30/2
f 72/32/3 67/31/3 68/32/3
f 70/29/3 65/33/3 66/29/3
f 2/1/1 4/4/1 3/2/1
f 4/4/2 8/6/2 7/5/2
f 8/6/3 6/8/3 5/7/3
f 6/8/4 2/13/4 1/9/4
f 7/10/5 5/35/5 1/11/5
f 6/8/6 12/8/6 9/13/6
f 11/6/3 15/6/3 16/8/3
f 4/4/7 10/4/7 11/6/7
f 8/6/8 11/6/8 12/8/8
f 2/1/9 9/1/9 10/4/9
f 16/8/10 15/6/10 29/6/10
f 17/4/1 10/4/1 9/1/1
f 9/1/1 18/1/1 21/14/1
f 22/15/1 17/4/1 9/1/1
f 18/18/4 9/36/4 12/16/4
f 12/16/4 16/34/4 13/17/4
f 15/6/2 11/6/2 10/4/2
f 17/4/2 14/4/2 15/6/2
f 25/15/1 26/14/1 23/14/1
f 22/15/1 20/15/1 14/4/1
f 21/19/5 26/19/5 25/20/5
f 19/14/1 21/14/1 18/1/1
f 19/19/4 23/19/4 26/19/4
f 22/20/2 25/20/2 24/20/2
f 20/21/11 24/21/11 23/22/11
f 32/23/1 38/23/1 33/24/1
f 20/25/12 19/26/12 32/26/12
f 20/15/12 27/15/12 28/4/12
f 13/13/13 16/8/13 30/8/13
f 14/4/14 28/4/14 29/6/14
f 19/14/12 13/1/12 31/1/12
f 36/8/11 35/6/11 34/37/11
f 36/8/11 34/37/11 33/25/11
f 38/26/11 37/38/11 36/8/11
f 30/27/4 36/27/4 37/28/4
f 28/29/2 34/29/2 35/30/2
f 31/31/1 37/31/1 38/32/1
f 29/6/3 35/6/3 36/8/3
f 27/33/1 33/33/1 34/29/1
f 41/2/3 42/4/3 40/1/3
f 45/5/2 46/6/2 42/4/2
f 43/7/1 44/8/1 46/6/1
f 39/9/4 40/13/4 44/8/4
f 39/11/5 43/35/5 45/10/5
f 47/13/6 50/8/6 44/8/6
f 54/8/1 53/6/1 49/6/1
f 49/6/7 48/4/7 42/4/7
f 50/8/9 49/6/9 46/6/9
f 42/4/8 48/4/8 47/1/8
f 54/8/15 30/8/15 29/6/15
f 47/1/3 48/4/3 55/4/3
f 47/1/3 55/4/3 60/15/3
f 59/14/3 56/1/3 47/1/3
f 50/16/4 47/36/4 56/18/4
f 56/18/4 51/17/4 54/34/4
f 48/4/2 49/6/2 53/6/2
f 53/6/2 52/4/2 55/4/2
f 61/14/3 64/14/3 63/15/3
f 52/4/3 58/15/3 60/15/3
f 63/20/5 64/19/5 59/19/5
f 57/14/3 51/1/3 56/1/3
f 64/19/4 61/19/4 57/19/4
f 62/20/2 63/20/2 60/20/2
f 57/22/11 61/22/11 62/21/11
f 69/24/3 72/23/3 68/23/3
f 58/25/16 65/25/16 68/26/16
f 66/4/16 65/15/16 58/15/16
f 51/13/13 67/13/13 30/8/13
f 29/6/14 66/4/14 52/4/14
f 57/14/16 68/14/16 67/1/16
f 70/37/11 35/6/11 36/8/11
f 36/8/11 71/38/11 72/26/11
f 69/25/11 70/37/11 36/8/11
f 71/28/4 36/27/4 30/27/4
f 35/30/2 70/29/2 66/29/2
f 72/32/3 71/31/3 67/31/3
f 70/29/3 69/33/3 65/33/3
