# Blender 4.5.4 LTS
# www.blender.org
mtllib body2.mtl
o MechBody2
v 1.060351 1.053625 5.779499
v 1.047855 1.053625 6.688447
v 1.060351 -0.250218 5.779499
v 1.047855 -0.250218 6.688447
v -1.060351 1.053625 5.779499
v -1.047855 1.053625 6.688447
v -1.060351 -0.250218 5.779499
v -1.047855 -0.250218 6.688447
v 0.884046 0.836890 7.180377
v 0.884046 -0.033484 7.180377
v -0.884046 0.836890 7.180377
v -0.884046 -0.033484 7.180377
v 1.510767 1.145405 7.997721
v 1.510767 -0.341998 7.997721
v -1.510767 1.145405 7.997721
v -1.510767 -0.341998 7.997721
v 1.510930 1.040534 8.659799
v 1.510930 -0.237127 8.659799
v -1.510930 1.040534 8.659799
v -1.510930 -0.237127 8.659799
v 2.066521 1.221975 8.995687
v 2.066521 -0.418568 8.995687
v -2.066521 -0.418568 8.995687
v -2.066521 1.221975 8.995687
v 2.066521 1.221975 9.899236
v 2.066521 -0.418568 9.899236
v -2.066521 -0.418568 9.899236
v -2.066521 1.221975 9.899236
v 2.221485 0.716661 9.207084
v 2.221485 0.086745 9.207084
v 2.221485 0.716661 9.783376
v 2.221485 0.086745 9.783376
v 2.527974 0.716661 9.159315
v 2.527974 0.086745 9.159315
v 2.527974 0.716661 9.735607
v 2.527974 0.086745 9.735607
v 0.253773 0.647845 9.987641
v 0.253773 0.155561 9.987641
v -0.253773 0.155561 9.987641
v -0.253773 0.647845 9.987641
v 0.253773 0.647845 10.239703
v 0.253773 0.155561 10.239703
v -0.253773 0.155561 10.239703
v -0.253773 0.647845 10.239703
v -1.060351 1.053625 5.779499
v -1.047855 1.053625 6.688447
v -1.060351 -0.250218 5.779499
v -1.047855 -0.250218 6.688447
v 1.060351 1.053625 5.779499
v 1.047855 1.053625 6.688447
v 1.060351 -0.250218 5.779499
v 1.047855 -0.250218 6.688447
v -0.884046 0.836890 7.180377
v -0.884046 -0.033484 7.180377
v 0.884046 0.836890 7.180377
v 0.884046 -0.033484 7.180377
v -1.510767 1.145405 7.997721
v -1.510767 -0.341998 7.997721
v 1.510767 1.145405 7.997721
v 1.510767 -0.341998 7.997721
v -1.510930 1.040534 8.659799
v -1.510930 -0.237127 8.659799
v 1.510930 1.040534 8.659799
v 1.510930 -0.237127 8.659799
v -2.066521 1.221975 8.995687
v -2.066521 -0.418568 8.995687
v 2.066521 -0.418568 8.995687
v 2.066521 1.221975 8.995687
v -2.066521 1.221975 9.899236
v -2.066521 -0.418568 9.899236
v 2.066521 -0.418568 9.899236
v 2.066521 1.221975 9.899236
v -2.221485 0.716661 9.207084
v -2.221485 0.086745 9.207084
v -2.221485 0.716661 9.783376
v -2.221485 0.086745 9.783376
v -2.527974 0.716661 9.159315
v -2.527974 0.086745 9.159315
v -2.527974 0.716661 9.735607
v -2.527974 0.086745 9.735607
v -0.253773 0.647845 9.987641
v -0.253773 0.155561 9.987641
v 0.253773 0.155561 9.987641
v 0.253773 0.647845 9.987641
v -0.253773 0.647845 10.239703
v -0.253773 0.155561 10.239703
v 0.253773 0.155561 10.239703
v 0.253773 0.647845 10.239703
vn 0.9999 -0.0000 0.0137
vn -0.0000 -1.0000 -0.0000
vn -0.9999 -0.0000 0.0137
vn -0.0000 1.0000 -0.0000
vn -0.0000 -0.0000 -1.0000
vn 0.9488 -0.0000 0.3159
vn -0.0000 0.9356 -0.3531
vn -0.0000 0.9151 0.4032
vn -0.0000 -0.9151 0.4032
vn -0.9488 -0.0000 0.3159
vn -1.0000 -0.0000 -0.0002
vn -0.0000 -0.9356 -0.3531
vn -0.7936 -0.0000 -0.6085
vn 0.7936 -0.0000 -0.6085
vn -0.0000 0.8798 -0.4753
vn 1.0000 -0.0000 -0.0002
vn -0.0000 0.9877 0.1564
vn -0.0000 -0.9877 0.1564
vn -1.0000 -0.0000 -0.0000
vn -0.0000 -0.8798 -0.4753
vn -0.5174 -0.0000 -0.8558
vn 0.5174 -0.0000 -0.8558
vn -0.0487 -0.0000 0.9988
vn 0.5988 -0.0000 0.8009
vn 0.9561 -0.2932 -0.0000
vn 0.8065 -0.0000 -0.5912
vn 0.9561 0.2932 -0.0000
vn 1.0000 -0.0000 -0.0000
vn 0.1540 -0.0000 0.9881
vn -0.1540 -0.0000 -0.9881
vn 0.0487 -0.0000 0.9988
vn -0.0000 0.1522 0.9884
vn -0.0000 -0.1522 0.9884
vn -0.0000 -0.0000 1.0000
vn -0.5988 -0.0000 0.8009
vn -0.9561 -0.2932 -0.0000
vn -0.8065 -0.0000 -0.5912
vn -0.9561 0.2932 -0.0000
vn -0.1540 -0.0000 0.9881
vn 0.1540 -0.0000 -0.9881
vt 0.059322 0.028337
vt 0.042240 0.045418
vt 0.042240 0.028337
vt 0.059322 0.045418
vt 0.042240 0.062500
vt 0.059322 0.062500
vt 0.042240 0.079582
vt 0.059322 0.079582
vt 0.042240 0.096664
vt 0.919193 0.072266
vt 0.902112 0.089347
vt 0.902112 0.072266
vt 0.927486 0.070329
vt 0.927486 0.087410
vt 0.910753 0.118954
vt 0.910753 0.136036
vt 0.927486 0.121574
vt 0.927486 0.138656
vt 0.927486 0.104492
vt 0.910753 0.084791
vt 0.910753 0.101873
vt 0.910753 0.067709
vt 0.059322 0.096664
vt 0.908292 0.067565
vt 0.908292 0.118811
vt 0.908292 0.050484
vt 0.936733 0.105965
vt 0.936733 0.054719
vt 0.936733 0.088883
vt 0.936733 0.071801
vt 0.919193 0.089347
s 0
usemtl Mech2
f 2/1/1 3/2/1 1/3/1
f 4/4/2 7/5/2 3/2/2
f 8/6/3 5/7/3 7/5/3
f 6/8/4 1/9/4 5/7/4
f 7/10/5 1/11/5 3/12/5
f 2/13/6 10/14/6 4/14/6
f 11/15/7 13/16/7 9/16/7
f 6/17/8 9/18/8 2/18/8
f 4/14/9 12/19/9 8/19/9
f 8/19/10 11/17/10 6/17/10
f 16/6/11 19/8/11 15/8/11
f 10/20/12 16/21/12 12/21/12
f 12/21/13 15/15/13 11/15/13
f 9/22/14 14/20/14 10/20/14
f 19/8/15 21/23/15 17/23/15
f 13/1/16 18/4/16 14/4/16
f 15/8/17 17/23/17 13/23/17
f 14/4/18 20/6/18 16/6/18
f 23/6/19 28/8/19 24/8/19
f 18/4/20 23/6/20 20/6/20
f 20/6/21 24/8/21 19/8/21
f 17/1/22 22/4/22 18/4/22
f 27/6/23 40/8/23 28/8/23
f 26/24/24 31/25/24 25/25/24
f 24/8/4 25/23/4 21/23/4
f 22/4/2 27/6/2 23/6/2
f 30/24/2 36/24/2 32/24/2
f 26/24/25 30/24/25 32/24/25
f 21/26/26 30/24/26 22/24/26
f 25/25/27 29/25/27 21/25/27
f 33/1/28 36/4/28 34/4/28
f 32/24/29 35/25/29 31/25/29
f 29/25/4 35/25/4 33/25/4
f 29/26/30 34/24/30 30/24/30
f 37/27/28 42/28/28 38/28/28
f 25/23/31 38/4/31 26/4/31
f 28/8/32 37/23/32 25/23/32
f 26/4/33 39/6/33 27/6/33
f 44/8/34 42/4/34 41/23/34
f 40/29/4 41/27/4 37/27/4
f 38/28/2 43/30/2 39/30/2
f 39/30/19 44/29/19 40/29/19
f 47/2/3 46/1/3 45/3/3
f 51/5/2 48/4/2 47/2/2
f 49/7/1 52/6/1 51/5/1
f 45/9/4 50/8/4 49/7/4
f 45/11/5 51/10/5 47/12/5
f 54/14/10 46/13/10 48/14/10
f 57/16/7 55/15/7 53/16/7
f 53/18/8 50/17/8 46/18/8
f 56/19/9 48/14/9 52/19/9
f 55/17/6 52/19/6 50/17/6
f 63/8/16 60/6/16 59/8/16
f 60/21/12 54/20/12 56/21/12
f 59/15/14 56/21/14 55/15/14
f 58/20/13 53/22/13 54/20/13
f 65/23/15 63/8/15 61/23/15
f 62/4/11 57/1/11 58/4/11
f 61/23/17 59/8/17 57/23/17
f 64/6/18 58/4/18 60/6/18
f 72/8/28 67/6/28 68/8/28
f 67/6/20 62/4/20 64/6/20
f 68/8/22 64/6/22 63/8/22
f 62/4/21 65/1/21 61/1/21
f 72/8/31 83/6/31 71/6/31
f 75/25/35 70/24/35 69/25/35
f 69/23/4 68/8/4 65/23/4
f 71/6/2 66/4/2 67/6/2
f 80/24/2 74/24/2 76/24/2
f 70/24/36 74/24/36 66/24/36
f 74/24/37 65/26/37 66/24/37
f 73/25/38 69/25/38 65/25/38
f 80/4/19 77/1/19 78/4/19
f 79/25/39 76/24/39 75/25/39
f 73/25/4 79/25/4 75/25/4
f 78/24/40 73/26/40 74/24/40
f 86/28/19 81/27/19 82/28/19
f 70/4/23 81/23/23 69/23/23
f 81/23/32 72/8/32 69/23/32
f 83/6/33 70/4/33 71/6/33
f 86/4/34 88/8/34 85/23/34
f 85/27/4 84/29/4 81/27/4
f 87/30/2 82/28/2 83/30/2
f 88/29/28 83/30/28 84/29/28
f 2/1/1 4/4/1 3/2/1
f 4/4/2 8/6/2 7/5/2
f 8/6/3 6/8/3 5/7/3
f 6/8/4 2/23/4 1/9/4
f 7/10/5 5/31/5 1/11/5
f 2/13/6 9/13/6 10/14/6
f 11/15/7 15/15/7 13/16/7
f 6/17/8 11/17/8 9/18/8
f 4/14/9 10/14/9 12/19/9
f 8/19/10 12/19/10 11/17/10
f 16/6/11 20/6/11 19/8/11
f 10/20/12 14/20/12 16/21/12
f 12/21/13 16/21/13 15/15/13
f 9/22/14 13/22/14 14/20/14
f 19/8/15 24/8/15 21/23/15
f 13/1/16 17/1/16 18/4/16
f 15/8/17 19/8/17 17/23/17
f 14/4/18 18/4/18 20/6/18
f 23/6/19 27/6/19 28/8/19
f 18/4/20 22/4/20 23/6/20
f 20/6/21 23/6/21 24/8/21
f 17/1/22 21/1/22 22/4/22
f 27/6/23 39/6/23 40/8/23
f 26/24/24 32/24/24 31/25/24
f 24/8/4 28/8/4 25/23/4
f 22/4/2 26/4/2 27/6/2
f 30/24/2 34/24/2 36/24/2
f 26/24/25 22/24/25 30/24/25
f 21/26/26 29/26/26 30/24/26
f 25/25/27 31/25/27 29/25/27
f 33/1/28 35/1/28 36/4/28
f 32/24/29 36/24/29 35/25/29
f 29/25/4 31/25/4 35/25/4
f 29/26/30 33/26/30 34/24/30
f 37/27/28 41/27/28 42/28/28
f 25/23/31 37/23/31 38/4/31
f 28/8/32 40/8/32 37/23/32
f 26/4/33 38/4/33 39/6/33
f 44/8/34 43/6/34 42/4/34
f 40/29/4 44/29/4 41/27/4
f 38/28/2 42/28/2 43/30/2
f 39/30/19 43/30/19 44/29/19
f 47/2/3 48/4/3 46/1/3
f 51/5/2 52/6/2 48/4/2
f 49/7/1 50/8/1 52/6/1
f 45/9/4 46/23/4 50/8/4
f 45/11/5 49/31/5 51/10/5
f 54/14/10 53/13/10 46/13/10
f 57/16/7 59/15/7 55/15/7
f 53/18/8 55/17/8 50/17/8
f 56/19/9 54/14/9 48/14/9
f 55/17/6 56/19/6 52/19/6
f 63/8/16 64/6/16 60/6/16
f 60/21/12 58/20/12 54/20/12
f 59/15/14 60/21/14 56/21/14
f 58/20/13 57/22/13 53/22/13
f 65/23/15 68/8/15 63/8/15
f 62/4/11 61/1/11 57/1/11
f 61/23/17 63/8/17 59/8/17
f 64/6/18 62/4/18 58/4/18
f 72/8/28 71/6/28 67/6/28
f 67/6/20 66/4/20 62/4/20
f 68/8/22 67/6/22 64/6/22
f 62/4/21 66/4/21 65/1/21
f 72/8/31 84/8/31 83/6/31
f 75/25/35 76/24/35 70/24/35
f 69/23/4 72/8/4 68/8/4
f 71/6/2 70/4/2 66/4/2
f 80/24/2 78/24/2 74/24/2
f 70/24/36 76/24/36 74/24/36
f 74/24/37 73/26/37 65/26/37
f 73/25/38 75/25/38 69/25/38
f 80/4/19 79/1/19 77/1/19
f 79/25/39 80/24/39 76/24/39
f 73/25/4 77/25/4 79/25/4
f 78/24/40 77/26/40 73/26/40
f 86/28/19 85/27/19 81/27/19
f 70/4/23 82/4/23 81/23/23
f 81/23/32 84/8/32 72/8/32
f 83/6/33 82/4/33 70/4/33
f 86/4/34 87/6/34 88/8/34
f 85/27/4 88/29/4 84/29/4
f 87/30/2 86/28/2 82/28/2
f 88/29/28 87/30/28 83/30/28
