# Blender 5.0.0
# www.blender.org
mtllib editor.mtl
o Cube
v -2.000000 -2.000000 2.000000
v -2.000000 -2.000000 -2.000000
v -2.000000 2.000000 2.000000
v -2.000000 2.000000 -2.000000
v 2.000000 -2.000000 2.000000
v 2.000000 -2.000000 -2.000000
v 2.000000 2.000000 2.000000
v 2.000000 2.000000 -2.000000
v 7.000000 -2.000000 -2.000000
v 7.000000 2.000000 -2.000000
v -7.000000 -2.000000 2.000000
v -7.000000 -2.000000 -2.000000
v 7.000000 2.000000 2.000000
v -7.000000 2.000000 2.000000
v -7.000000 2.000000 -2.000000
v 7.000000 -2.000000 2.000000
v 2.000000 -2.000000 -7.000000
v 2.000000 2.000000 -7.000000
v -2.000000 -2.000000 -7.000000
v -2.000000 2.000000 7.000000
v 2.000000 2.000000 7.000000
v -2.000000 -2.000000 7.000000
v -2.000000 2.000000 -7.000000
v 2.000000 -2.000000 7.000000
v -2.000000 -7.000000 -2.000000
v 2.000000 -7.000000 -2.000000
v -2.000000 -7.000000 2.000000
v 2.000000 7.000000 -2.000000
v 2.000000 7.000000 2.000000
v -2.000000 7.000000 2.000000
v -2.000000 7.000000 -2.000000
v 2.000000 -7.000000 2.000000
vn -0.0000 1.0000 -0.0000
vn -0.0000 -0.0000 1.0000
vn -0.0000 -1.0000 -0.0000
vn -0.0000 -0.0000 -1.0000
vn 1.0000 -0.0000 -0.0000
vn -1.0000 -0.0000 -0.0000
vt 0.625000 0.750000
vt 0.625000 1.000000
vt 0.625000 0.500000
vt 0.375000 0.500000
vt 0.375000 1.000000
vt 0.375000 0.750000
vt 0.625000 0.000000
vt 0.375000 0.250000
vt 0.375000 0.000000
vt 0.125000 0.750000
vt 0.125000 0.500000
vt 0.875000 0.500000
vt 0.875000 0.750000
vt 0.625000 0.250000
s 0
usemtl Material
f 3/1/1 21/2/1 7/2/1
f 7/2/2 30/1/2 3/1/2
f 1/3/3 12/4/3 2/4/3
f 8/5/1 23/6/1 4/6/1
f 4/6/1 14/1/1 3/1/1
f 4/6/4 28/5/4 8/5/4
f 13/7/5 9/8/5 10/9/5
f 11/3/6 15/6/6 12/4/6
f 2/4/4 15/6/4 4/6/4
f 8/10/4 9/11/4 6/11/4
f 5/12/2 13/13/2 7/13/2
f 3/1/2 11/3/2 1/3/2
f 6/8/3 16/14/3 5/14/3
f 7/2/1 10/5/1 8/5/1
f 24/12/2 20/1/2 22/3/2
f 19/4/4 18/10/4 17/11/4
f 4/6/6 19/4/6 2/4/6
f 6/11/5 18/10/5 8/10/5
f 7/13/5 24/12/5 5/12/5
f 1/3/6 20/1/6 3/1/6
f 2/4/3 17/8/3 6/8/3
f 5/14/3 22/3/3 1/3/3
f 30/1/1 28/5/1 31/6/1
f 32/14/3 25/4/3 26/8/3
f 3/1/6 31/6/6 4/6/6
f 2/4/6 27/3/6 1/3/6
f 5/14/5 26/8/5 6/8/5
f 8/5/5 29/2/5 7/2/5
f 6/8/4 25/4/4 2/4/4
f 1/3/2 32/14/2 5/14/2
f 3/1/1 20/1/1 21/2/1
f 7/2/2 29/2/2 30/1/2
f 1/3/3 11/3/3 12/4/3
f 8/5/1 18/5/1 23/6/1
f 4/6/1 15/6/1 14/1/1
f 4/6/4 31/6/4 28/5/4
f 13/7/5 16/14/5 9/8/5
f 11/3/6 14/1/6 15/6/6
f 2/4/4 12/4/4 15/6/4
f 8/10/4 10/10/4 9/11/4
f 5/12/2 16/12/2 13/13/2
f 3/1/2 14/1/2 11/3/2
f 6/8/3 9/8/3 16/14/3
f 7/2/1 13/2/1 10/5/1
f 24/12/2 21/13/2 20/1/2
f 19/4/4 23/6/4 18/10/4
f 4/6/6 23/6/6 19/4/6
f 6/11/5 17/11/5 18/10/5
f 7/13/5 21/13/5 24/12/5
f 1/3/6 22/3/6 20/1/6
f 2/4/3 19/4/3 17/8/3
f 5/14/3 24/14/3 22/3/3
f 30/1/1 29/2/1 28/5/1
f 32/14/3 27/3/3 25/4/3
f 3/1/6 30/1/6 31/6/6
f 2/4/6 25/4/6 27/3/6
f 5/14/5 32/14/5 26/8/5
f 8/5/5 28/5/5 29/2/5
f 6/8/4 26/8/4 25/4/4
f 1/3/2 27/3/2 32/14/2
