# Blender 4.5.4 LTS
# www.blender.org
mtllib head1.mtl
o MechHead1
v 0.764993 1.130743 10.139186
v -0.764993 1.130743 10.139186
v 0.533274 -0.415986 10.277197
v -0.533274 -0.415986 10.277197
v 0.000000 1.634776 10.126437
v 0.764993 1.160931 11.332726
v -0.764993 1.160931 11.332726
v 0.533274 -0.604472 11.363637
v -0.533274 -0.604472 11.363637
v 0.000000 1.664963 11.319978
v -0.000000 -1.530930 11.705935
v 0.764993 1.150714 10.928758
v -0.764993 1.150714 10.928758
v 0.000000 1.654746 10.916009
v 0.764993 1.138848 10.459641
v -0.764993 1.138848 10.459641
v 0.000000 1.642881 10.446893
v 0.000000 1.368908 10.481960
v 0.000000 1.379350 10.894836
v 0.673280 0.935745 10.906056
v -0.673280 0.935745 10.906056
v 0.673280 0.925303 10.493180
v -0.673280 0.925303 10.493180
vn 0.0271 -0.0663 -0.9974
vn -0.0000 0.0192 0.9998
vn 0.5503 0.8347 -0.0211
vn -0.9890 -0.1478 0.0037
vn 0.9915 -0.1301 0.0033
vn -0.5471 -0.5485 -0.6323
vn -0.5503 0.8347 -0.0211
vn -0.0670 0.0765 -0.9948
vn 0.9194 0.3933 -0.0099
vn -0.0670 0.1267 0.9897
vn -0.9194 0.3933 -0.0099
vn 0.0670 0.0765 -0.9948
vn 0.0670 0.1267 0.9897
vn -0.0382 -0.0831 -0.9958
vn -0.0000 -0.0889 -0.9960
vn -0.0047 0.0181 0.9998
vn 0.0047 0.0181 0.9998
vn -0.0000 0.3466 0.9380
vn -0.9912 -0.1305 -0.0226
vn -1.0000 -0.0000 -0.0000
vn 0.9883 -0.1504 -0.0261
vn 1.0000 -0.0000 -0.0000
vn -0.0000 -0.9853 -0.1709
vn 0.8483 -0.5217 -0.0905
vt 0.011707 0.765636
vt 0.367199 0.410145
vt 0.189453 0.410145
vt 0.367199 0.765636
vt 0.011707 0.410145
vt 0.189453 0.765636
vt 0.639013 0.810855
vt 0.452110 0.906584
vt 0.452110 0.810855
vt 0.825916 0.810855
vt 0.639013 0.906584
vt 0.825916 0.906584
s 0
usemtl Mech1
f 3/1/1 2/2/1 5/3/1
f 10/3/2 9/4/2 8/1/2
f 5/3/3 15/5/3 1/5/3
f 4/4/4 7/2/4 16/2/4
f 15/5/5 6/5/5 8/1/5
f 3/1/6 11/6/6 9/4/6
f 5/3/7 16/2/7 17/3/7
f 18/7/3 20/8/3 22/9/3
f 14/3/3 6/5/3 12/5/3
f 13/2/7 10/3/7 14/3/7
f 13/2/8 19/3/8 21/2/8
f 13/2/9 23/2/9 16/2/9
f 23/10/7 19/11/7 18/7/7
f 16/2/10 18/3/10 17/3/10
f 12/5/11 22/5/11 20/5/11
f 12/5/12 19/3/12 14/3/12
f 15/5/13 18/3/13 22/5/13
f 5/3/14 1/5/14 3/1/14
f 3/1/15 4/4/15 2/2/15
f 8/1/16 6/5/16 10/3/16
f 10/3/17 7/2/17 9/4/17
f 9/4/18 11/6/18 8/1/18
f 5/3/3 17/3/3 15/5/3
f 16/2/4 2/2/4 4/4/4
f 4/4/19 9/4/19 7/2/19
f 7/2/20 13/2/20 16/2/20
f 8/1/21 3/1/21 1/5/21
f 15/5/22 12/5/22 6/5/22
f 8/1/5 1/5/5 15/5/5
f 9/4/23 4/4/23 3/1/23
f 3/1/24 8/1/24 11/6/24
f 5/3/7 2/2/7 16/2/7
f 18/7/3 19/11/3 20/8/3
f 14/3/3 10/3/3 6/5/3
f 13/2/7 7/2/7 10/3/7
f 13/2/8 14/3/8 19/3/8
f 13/2/9 21/2/9 23/2/9
f 23/10/7 21/12/7 19/11/7
f 16/2/10 23/2/10 18/3/10
f 12/5/11 15/5/11 22/5/11
f 12/5/12 20/5/12 19/3/12
f 15/5/13 17/3/13 18/3/13
