# Blender 4.5.4 LTS
# www.blender.org
mtllib head2.mtl
o MechHead2
v 0.919258 1.068948 10.142680
v -0.919258 1.068948 10.142680
v 0.640812 -0.257131 10.261003
v -0.640812 -0.257131 10.261003
v 0.000000 1.635433 10.131750
v 0.919258 1.094829 11.165954
v -0.919258 1.094829 11.165954
v 0.640812 -0.418728 11.211638
v -0.640812 -0.418728 11.211638
v 0.000000 1.526958 11.528850
v -0.000000 -1.213020 10.686022
v 0.919258 1.354760 10.819614
v -0.919258 1.354760 10.819614
v 0.919258 1.075897 10.417419
v -0.919258 1.075897 10.417419
v 0.000000 1.374534 10.733447
vn 0.0249 -0.0597 -0.9979
vn -0.0000 -0.1609 0.9870
vn -0.9787 -0.2050 0.0052
vn 0.9835 -0.1808 0.0046
vn -0.5988 0.0460 -0.7995
vn 0.3612 0.9158 -0.1755
vn -0.0390 0.7992 0.5998
vn 0.0709 0.8197 -0.5684
vn 0.5247 0.8510 -0.0215
vn -0.3612 0.9158 -0.1755
vn 0.0390 0.7992 0.5998
vn -0.0709 0.8197 -0.5684
vn -0.3988 0.8414 0.3648
vn -0.0380 -0.0809 -0.9960
vn -0.0000 -0.0889 -0.9960
vn 0.3520 -0.0365 0.9353
vn -0.3520 -0.0365 0.9353
vn -0.0000 -0.5519 0.8339
vn -0.9787 -0.2051 0.0052
vn -0.9829 -0.1817 -0.0309
vn -1.0000 -0.0000 -0.0000
vn 0.9774 -0.2084 -0.0354
vn 1.0000 -0.0000 -0.0000
vn -0.0000 -0.9859 -0.1676
vn 0.8055 -0.5842 -0.0993
vn 0.3988 0.8414 0.3648
vn -0.5247 0.8510 -0.0215
vt 0.109294 0.184650
vt 0.389786 0.525783
vt 0.173535 0.611014
vt 0.148426 0.036759
vt 0.217408 0.162956
vt 0.130005 0.179395
vt 0.197855 0.243903
vt 0.263486 0.337760
vt 0.211535 0.338010
vt 0.269359 0.143848
vt 0.217408 0.143599
vt 0.217408 0.036759
vt 0.001641 0.096260
vt 0.057404 0.036759
vt 0.092026 0.095976
vt 0.703391 0.983723
vt 0.451638 0.897706
vt 0.704230 0.762400
vt 0.451754 0.794551
vt 0.439464 0.678759
vt 0.704908 0.583468
vt 0.432626 0.609483
vt 0.955788 0.899616
vt 0.956454 0.796464
vt 0.969621 0.680769
vt 0.000000 0.456370
vt 0.381012 0.233037
vt 0.092026 0.082000
vt 0.217408 0.058419
vt 0.184943 0.230921
vt 0.192467 0.338101
vt 0.263486 0.230921
vt 0.239951 0.356207
vt 0.283039 0.049741
vt 0.288427 0.143940
vt 0.240943 0.162046
vt 0.089199 0.111853
vt 0.004468 0.080384
vt 0.976985 0.611546
s 0
usemtl Mech2
f 3/1/1 2/2/1 5/3/1
f 10/4/2 9/5/2 8/6/2
f 4/7/3 7/8/3 15/9/3
f 14/10/4 6/11/4 8/12/4
f 3/13/5 11/14/5 9/15/5
f 10/16/6 6/17/6 16/18/6
f 12/19/7 16/18/7 6/17/7
f 14/20/8 16/18/8 12/19/8
f 5/21/9 14/20/9 1/22/9
f 10/16/10 16/18/10 7/23/10
f 13/24/11 7/23/11 16/18/11
f 15/25/12 13/24/12 16/18/12
f 5/21/13 15/25/13 16/18/13
f 5/3/14 1/26/14 3/1/14
f 3/1/15 4/27/15 2/2/15
f 8/6/16 6/28/16 10/4/16
f 10/4/17 7/29/17 9/5/17
f 9/5/18 11/30/18 8/6/18
f 15/9/19 2/31/19 4/7/19
f 4/7/20 9/32/20 7/8/20
f 7/8/21 13/33/21 15/9/21
f 8/12/22 3/34/22 1/35/22
f 14/10/23 12/36/23 6/11/23
f 8/12/4 1/35/4 14/10/4
f 9/15/24 4/37/24 3/13/24
f 3/13/25 8/38/25 11/14/25
f 5/21/26 16/18/26 14/20/26
f 5/21/27 2/39/27 15/25/27
