# Blender 4.5.4 LTS
# www.blender.org
mtllib head3.mtl
o MechHead3
v 0.834278 1.314915 10.139186
v -0.834278 1.314915 10.139186
v 0.718857 -0.415986 10.277197
v -0.718857 -0.415986 10.277197
v 0.000000 1.634776 10.126437
v 0.834278 1.345103 11.332726
v -0.834278 1.345103 11.332726
v 0.718857 -0.604472 11.363637
v -0.718857 -0.604472 11.363637
v 0.000000 1.664963 11.319978
v 0.325980 -1.113919 10.682815
v 0.834278 1.334886 10.928758
v -0.834278 1.334886 10.928758
v 0.000000 2.130181 10.795148
v 0.834278 1.323020 10.459641
v -0.834278 1.323020 10.459641
v 0.000000 2.126703 10.567754
v 0.000000 1.368908 10.481960
v 0.000000 1.379350 10.894836
v 0.673280 0.935745 10.906056
v -0.673280 0.935745 10.906056
v 0.673280 0.925303 10.493180
v -0.673280 0.925303 10.493180
v -0.325980 -1.113919 10.682815
v 0.325980 -1.122188 11.182774
v -0.325980 -1.122188 11.182774
v 0.227431 0.195114 11.597683
v 0.326255 0.753651 11.587903
v 0.000000 0.913116 11.583870
v -0.326255 0.753651 11.587903
v -0.227431 0.195114 11.597683
v -1.162837 0.882524 10.376585
v -0.866984 -0.056702 10.460390
v -1.162837 0.900855 11.101343
v -0.866984 -0.171157 11.120113
v -1.162837 0.887446 10.571177
v -1.162837 0.894651 10.856040
v 0.866984 -0.056702 10.460390
v 1.162837 0.882524 10.376585
v 0.866984 -0.171157 11.120113
v 1.162837 0.900855 11.101343
v 1.162837 0.887446 10.571177
v 1.162837 0.894651 10.856040
vn 0.0113 -0.0694 -0.9975
vn -0.1119 0.3291 0.9376
vn 0.3582 0.9333 -0.0236
vn -0.3852 -0.2017 -0.9005
vn 0.8586 -0.0974 -0.5033
vn -0.0000 -0.5025 -0.8646
vn -0.4798 0.5859 -0.6531
vn 0.5503 0.8347 -0.0211
vn -0.5190 0.6397 0.5670
vn -0.0427 0.0396 -0.9983
vn 0.9272 0.3745 -0.0095
vn -0.5503 0.8347 -0.0211
vn -0.0204 -0.1125 0.9934
vn -0.9272 0.3745 -0.0095
vn 0.0333 -0.1315 -0.9908
vn 0.0306 0.0717 0.9970
vn -0.0000 -0.9999 -0.0165
vn 0.8440 -0.5284 -0.0917
vn -0.7982 -0.6023 -0.0100
vn -0.0000 -0.3298 0.9440
vn -0.0000 0.0175 0.9998
vn -0.0000 -0.2809 0.9597
vn 0.1323 0.2947 0.9464
vn -0.4611 -0.0132 0.8873
vn 0.3645 -0.0482 0.9300
vn -0.9540 -0.2998 0.0076
vn -0.8001 0.5997 -0.0152
vn -0.8872 -0.0452 0.4592
vn -0.9334 -0.3536 -0.0613
vn 0.9640 -0.2659 0.0067
vn 0.8001 0.5997 -0.0152
vn 0.4654 -0.1131 0.8779
vn 0.9334 -0.3536 -0.0613
vn -0.0149 -0.0785 -0.9968
vn -0.0000 -0.0795 -0.9968
vn -0.1323 0.2947 0.9464
vn 0.4798 0.5859 -0.6531
vn -0.8586 -0.0974 -0.5033
vn 0.3852 -0.2017 -0.9005
vn -0.3582 0.9333 -0.0236
vn 0.5190 0.6397 0.5670
vn -0.0333 -0.1315 -0.9908
vn -0.0306 0.0717 0.9970
vn 0.0427 0.0396 -0.9983
vn 0.0204 -0.1125 0.9934
vn 0.7982 -0.6023 -0.0100
vn -0.8440 -0.5284 -0.0917
vn -0.0000 0.0253 0.9997
vn 0.1119 0.3291 0.9376
vn -0.3645 -0.0482 0.9300
vn 0.4611 -0.0132 0.8873
vn -0.9627 -0.2665 -0.0462
vn -0.4654 -0.1131 0.8779
vn 0.9511 -0.3043 -0.0528
vn 1.0000 -0.0000 -0.0000
vn 0.8872 -0.0452 0.4591
vn 0.9334 -0.3535 -0.0613
vt 0.011707 0.765636
vt 0.367199 0.410145
vt 0.189453 0.410145
vt 0.011707 0.410145
vt 0.367199 0.765636
vt 0.703466 0.830373
vt 0.428806 0.971050
vt 0.428806 0.830373
vt 0.978126 0.830373
vt 0.703466 0.971050
vt 0.941532 0.131725
vt 0.941532 0.049900
vt 0.859707 0.049900
vt 0.859707 0.131725
vt 0.978126 0.971051
s 0
usemtl Mech3
f 3/1/1 2/2/1 5/3/1
f 7/2/2 29/3/2 10/3/2
f 5/3/3 15/4/3 1/4/3
f 2/2/4 33/5/4 32/2/4
f 1/4/5 38/1/5 3/1/5
f 3/1/6 24/5/6 4/5/6
f 5/3/7 16/2/7 17/3/7
f 18/6/8 20/7/8 22/8/8
f 12/4/3 10/3/3 6/4/3
f 13/2/9 10/3/9 14/3/9
f 13/2/10 19/3/10 21/2/10
f 16/2/11 21/2/11 23/2/11
f 23/9/12 19/10/12 18/6/12
f 16/2/13 18/3/13 17/3/13
f 15/4/14 20/4/14 12/4/14
f 12/4/15 19/3/15 14/3/15
f 15/4/16 18/3/16 22/4/16
f 11/1/17 26/5/17 24/5/17
f 8/1/18 11/1/18 3/1/18
f 9/5/19 24/5/19 26/5/19
f 9/5/20 25/1/20 8/1/20
f 28/4/21 30/2/21 31/5/21
f 8/1/22 31/5/22 9/5/22
f 6/4/23 29/3/23 28/4/23
f 9/5/24 30/2/24 7/2/24
f 8/1/25 28/4/25 27/1/25
f 33/11/26 34/12/26 37/12/26
f 16/2/27 32/2/27 36/2/27
f 13/2/27 36/2/27 37/2/27
f 7/2/28 35/5/28 9/5/28
f 4/5/29 35/5/29 33/5/29
f 13/2/27 34/2/27 7/2/27
f 42/13/30 41/13/30 40/14/30
f 15/4/31 39/4/31 1/4/31
f 12/4/31 41/4/31 43/4/31
f 6/4/32 40/1/32 41/4/32
f 3/1/33 40/1/33 8/1/33
f 12/4/31 42/4/31 15/4/31
f 5/3/34 1/4/34 3/1/34
f 3/1/35 4/5/35 2/2/35
f 7/2/36 30/2/36 29/3/36
f 5/3/37 17/3/37 15/4/37
f 2/2/38 4/5/38 33/5/38
f 1/4/39 39/4/39 38/1/39
f 3/1/6 11/1/6 24/5/6
f 5/3/40 2/2/40 16/2/40
f 18/6/8 19/10/8 20/7/8
f 12/4/41 14/3/41 10/3/41
f 13/2/40 7/2/40 10/3/40
f 13/2/42 14/3/42 19/3/42
f 16/2/11 13/2/11 21/2/11
f 23/9/12 21/15/12 19/10/12
f 16/2/43 23/2/43 18/3/43
f 15/4/14 22/4/14 20/4/14
f 12/4/44 20/4/44 19/3/44
f 15/4/45 17/3/45 18/3/45
f 11/1/17 25/1/17 26/5/17
f 8/1/46 25/1/46 11/1/46
f 9/5/47 4/5/47 24/5/47
f 9/5/20 26/5/20 25/1/20
f 31/5/21 27/1/21 28/4/21
f 28/4/48 29/3/48 30/2/48
f 8/1/22 27/1/22 31/5/22
f 6/4/49 10/3/49 29/3/49
f 9/5/50 31/5/50 30/2/50
f 8/1/51 6/4/51 28/4/51
f 36/12/26 32/12/26 33/11/26
f 33/11/52 35/11/52 34/12/52
f 37/12/26 36/12/26 33/11/26
f 16/2/27 2/2/27 32/2/27
f 13/2/27 16/2/27 36/2/27
f 7/2/53 34/2/53 35/5/53
f 4/5/29 9/5/29 35/5/29
f 13/2/27 37/2/27 34/2/27
f 40/14/54 38/14/54 39/13/54
f 42/13/55 43/13/55 41/13/55
f 40/14/30 39/13/30 42/13/30
f 15/4/31 42/4/31 39/4/31
f 12/4/31 6/4/31 41/4/31
f 6/4/56 8/1/56 40/1/56
f 3/1/57 38/1/57 40/1/57
f 12/4/31 43/4/31 42/4/31
