# Blender 5.0.0
# www.blender.org
mtllib legs1-2.mtl
o MechLegs1
v 1.168872 -2.655199 2.183602
v 1.168872 -3.038437 1.271540
v 1.168872 -0.811359 1.408842
v 1.168872 -1.194596 0.496780
v 2.339267 -2.655199 2.183602
v 2.339267 -3.038437 1.271540
v 2.339267 -0.811359 1.408842
v 2.339267 -1.194596 0.496780
v 1.168872 0.081816 0.549757
v 1.168872 -0.128647 0.048881
v 2.339267 0.081816 0.549757
v 2.339267 -0.128647 0.048881
v 1.168872 -2.889524 2.126944
v 1.168872 -3.217364 1.346724
v 2.339267 -2.889524 2.126944
v 2.339267 -3.217364 1.346724
v 1.168872 -2.296110 2.032717
v 2.339267 -2.296110 2.032717
v 1.168872 0.217307 3.118617
v 2.339267 0.217307 3.118617
v 1.168872 -1.267445 3.742492
v 2.339267 -1.267445 3.742492
v 1.168872 0.510032 3.524384
v 2.339267 0.510032 3.524384
v 1.168872 -1.182490 4.235561
v 2.339267 -1.182490 4.235561
v 1.168872 0.606418 3.991004
v 2.339267 0.606418 3.991004
v 1.168872 -0.916656 4.630982
v 2.339267 -0.916656 4.630982
v 1.168872 1.118795 5.452118
v 2.339267 1.118795 5.452118
v 1.168872 -0.404279 6.092095
v 2.339267 -0.404279 6.092095
v 1.168872 0.770220 4.547580
v 1.168872 -0.752855 5.187558
v 0.774893 -0.404279 6.092095
v 0.774893 1.118795 5.452118
v 0.774893 0.770220 4.547580
v 0.774893 -0.752855 5.187558
v 0.523979 -0.020326 5.762960
v 0.523979 0.630321 5.489565
v 0.523979 0.386266 4.876716
v 0.523979 -0.264381 5.150110
v -0.000000 -0.215404 5.992480
v -0.000000 0.922229 5.514460
v -0.000000 0.581344 4.647196
v -0.000000 -0.556289 5.125216
v 0.506629 0.165710 6.205704
v 0.506629 0.816357 5.932309
v -0.000000 -0.082114 6.309693
v -0.000000 1.055518 5.831673
v -1.168872 -2.655199 2.183602
v -1.168872 -3.038437 1.271540
v -1.168872 -0.811359 1.408842
v -1.168872 -1.194596 0.496780
v -2.339267 -2.655199 2.183602
v -2.339267 -3.038437 1.271540
v -2.339267 -0.811359 1.408842
v -2.339267 -1.194596 0.496780
v -1.168872 0.081816 0.549757
v -1.168872 -0.128647 0.048881
v -2.339267 0.081816 0.549757
v -2.339267 -0.128647 0.048881
v -1.168872 -2.889524 2.126944
v -1.168872 -3.217364 1.346724
v -2.339267 -2.889524 2.126944
v -2.339267 -3.217364 1.346724
v -1.168872 -2.296110 2.032717
v -2.339267 -2.296110 2.032717
v -1.168872 0.217307 3.118617
v -2.339267 0.217307 3.118617
v -1.168872 -1.267445 3.742492
v -2.339267 -1.267445 3.742492
v -1.168872 0.510032 3.524384
v -2.339267 0.510032 3.524384
v -1.168872 -1.182490 4.235561
v -2.339267 -1.182490 4.235561
v -1.168872 0.606418 3.991004
v -2.339267 0.606418 3.991004
v -1.168872 -0.916656 4.630982
v -2.339267 -0.916656 4.630982
v -1.168872 1.118795 5.452118
v -2.339267 1.118795 5.452118
v -1.168872 -0.404279 6.092095
v -2.339267 -0.404279 6.092095
v -1.168872 0.770220 4.547580
v -1.168872 -0.752855 5.187558
v -0.774893 -0.404279 6.092095
v -0.774893 1.118795 5.452118
v -0.774893 0.770220 4.547580
v -0.774893 -0.752855 5.187558
v -0.523979 -0.020326 5.762960
v -0.523979 0.630321 5.489565
v -0.523979 0.386266 4.876716
v -0.523979 -0.264381 5.150110
v -0.506629 0.165710 6.205704
v -0.506629 0.816357 5.932309
vn -0.0000 0.3874 0.9219
vn -0.0000 -0.3874 -0.9219
vn 1.0000 -0.0000 -0.0000
vn -1.0000 -0.0000 -0.0000
vn -0.0000 0.9219 -0.3874
vn -0.0000 0.6932 0.7207
vn -0.0000 -0.9219 0.3874
vn -0.0000 -0.2350 0.9720
vn -0.0000 -0.8569 0.5155
vn -0.0000 0.8569 -0.5155
vn -0.0000 0.8110 -0.5851
vn -0.0000 -0.9855 0.1698
vn 0.0404 -0.9324 0.3593
vn -0.0000 0.9793 -0.2023
vn -0.0000 -0.8299 0.5579
vn -0.0000 0.9437 -0.3309
vn -0.8812 -0.4392 0.1749
vn -0.0000 0.9331 -0.3596
vn -0.0000 -0.9331 0.3596
vn 0.4472 -0.8310 0.3309
vn -0.5248 0.3297 0.7848
vn -0.5248 -0.3297 -0.7848
vn -0.8812 0.4392 -0.1749
vn 0.2513 -0.3750 -0.8923
vn 0.4472 0.8310 -0.3309
vn 0.4471 0.8308 -0.3316
vn 0.4597 -0.8121 0.3593
vn 0.9993 0.0140 0.0333
vn 0.0003 -0.3874 -0.9219
vn -0.0253 -0.9434 0.3308
vn 0.0674 0.9571 -0.2817
vn 0.8849 -0.4347 0.1675
vn -0.4472 -0.8310 0.3309
vn 0.5248 0.3297 0.7848
vn 0.5248 -0.3297 -0.7848
vn 0.8849 0.4347 -0.1675
vn -0.2513 -0.3750 -0.8923
vn -0.4472 0.8310 -0.3309
vn -0.4471 0.8308 -0.3316
vn -0.4597 -0.8121 0.3593
vn -0.9993 0.0140 0.0333
vn -0.0003 -0.3874 -0.9219
vn -0.0000 -0.9593 0.2823
vn -0.0000 -0.9437 0.3309
vn -0.8849 -0.4347 0.1675
vn 0.4520 -0.8302 0.3263
vn -0.8849 0.4347 -0.1675
vn 0.4520 0.8302 -0.3263
vn 0.4558 0.8206 -0.3448
vn 0.4686 -0.8144 0.3422
vn 0.8812 -0.4392 0.1749
vn -0.4520 -0.8302 0.3263
vn 0.8812 0.4392 -0.1749
vn -0.4520 0.8302 -0.3263
vn -0.4558 0.8206 -0.3448
vn -0.4686 -0.8144 0.3422
vt 0.915594 0.088529
vt 0.902019 0.092285
vt 0.902019 0.088529
vt 0.035904 0.064019
vt 0.022329 0.064019
vt 0.902019 0.061378
vt 0.902019 0.071198
vt 0.888443 0.074953
vt 0.035904 0.050443
vt 0.022329 0.050443
vt 0.888443 0.102105
vt 0.049480 0.064019
vt 0.035904 0.077594
vt 0.063055 0.064019
vt 0.035904 0.023292
vt 0.049480 0.023292
vt 0.049480 0.036867
vt 0.035904 0.036867
vt 0.049480 0.050443
vt 0.063055 0.050443
vt 0.906902 0.087402
vt 0.906902 0.097222
vt 0.063055 0.054199
vt 0.049480 0.054199
vt 0.049480 0.033112
vt 0.906902 0.056495
vt 0.906902 0.066315
vt 0.920477 0.097222
vt 0.920477 0.087402
vt 0.914970 0.111725
vt 0.887759 0.085100
vt 0.915083 0.084370
vt 0.951892 0.098224
vt 0.985077 0.144691
vt 0.951973 0.137044
vt 0.874827 0.016213
vt 0.874827 0.113434
vt 0.915083 0.014504
vt 0.921540 0.083391
vt 0.915083 0.111725
vt 0.915083 0.042838
vt 0.887759 0.043568
vt 0.951892 0.026590
vt 0.951892 0.099207
vt 0.985101 0.081583
vt 0.952052 0.035021
vt 0.985133 0.042766
vt 0.985386 0.014504
vt 0.934163 0.111725
vt 0.915424 0.132106
vt 0.934163 0.139988
vt 0.867481 0.043568
vt 0.922047 0.063057
vt 0.948802 0.114030
vt 0.922047 0.100328
vt 0.914970 0.014504
vt 0.921540 0.041859
vt 0.915594 0.092285
vt 0.888443 0.061378
vt 0.902019 0.074953
vt 0.888443 0.088529
vt 0.902019 0.102105
vt 0.049480 0.077594
vt 0.985077 0.089854
vt 0.951892 0.089853
vt 0.951892 0.014774
vt 0.915083 0.111861
vt 0.867481 0.085100
vt 0.948802 0.048864
s 0
usemtl Mech1
f 5/1/1 17/2/1 1/3/1
f 4/4/2 12/5/2 8/5/2
f 7/6/3 18/7/3 6/8/3
f 2/9/2 8/5/2 6/10/2
f 1/3/4 17/2/4 4/11/4
f 6/10/2 14/9/2 2/9/2
f 9/12/5 12/13/5 10/4/5
f 7/14/6 9/12/6 3/12/6
f 4/4/4 9/12/4 10/4/4
f 8/15/3 11/16/3 7/16/3
f 15/17/7 14/9/7 16/18/7
f 1/19/8 15/20/8 5/20/8
f 2/9/4 13/19/4 1/19/4
f 6/18/3 15/17/3 16/18/3
f 21/21/4 23/22/4 19/22/4
f 18/23/9 21/24/9 17/24/9
f 3/12/10 20/14/10 7/14/10
f 3/12/4 21/24/4 19/12/4
f 7/16/3 22/25/3 18/25/3
f 24/26/3 30/27/3 26/27/3
f 20/26/3 26/27/3 22/27/3
f 19/22/11 24/28/11 20/28/11
f 22/29/12 25/21/12 21/21/12
f 30/23/13 33/24/13 36/24/13
f 23/22/14 28/28/14 24/28/14
f 26/29/15 29/21/15 25/21/15
f 25/21/4 27/22/4 23/22/4
f 34/23/1 31/12/1 33/24/1
f 29/24/4 35/12/4 27/12/4
f 30/25/3 32/16/3 34/25/3
f 27/12/16 31/12/16 32/14/16
f 40/30/17 41/31/17 44/32/17
f 36/24/2 39/12/2 35/12/2
f 35/12/18 38/12/18 31/12/18
f 33/24/19 40/24/19 36/24/19
f 31/12/1 37/24/1 33/24/1
f 41/33/20 48/34/20 44/35/20
f 38/36/21 41/31/21 37/37/21
f 40/38/22 43/39/22 39/40/22
f 38/36/23 43/41/23 42/42/23
f 43/39/24 48/43/24 47/44/24
f 43/45/25 46/46/25 42/47/25
f 46/46/26 50/48/26 42/47/26
f 49/49/27 45/50/27 41/51/27
f 50/52/28 41/31/28 42/42/28
f 49/53/29 52/54/29 50/55/29
f 69/2/1 57/1/1 53/3/1
f 64/5/2 56/4/2 60/5/2
f 58/8/4 70/7/4 59/6/4
f 60/5/2 54/9/2 58/10/2
f 56/11/3 69/2/3 53/3/3
f 66/9/2 58/10/2 54/9/2
f 64/13/5 61/12/5 62/4/5
f 61/12/6 59/14/6 55/12/6
f 56/4/3 61/12/3 55/12/3
f 63/16/4 60/15/4 59/16/4
f 66/9/7 67/17/7 68/18/7
f 67/20/8 53/19/8 57/20/8
f 65/19/3 54/9/3 53/19/3
f 58/18/4 67/17/4 57/17/4
f 75/22/3 73/21/3 71/22/3
f 73/24/9 70/23/9 69/24/9
f 72/14/10 55/12/10 59/14/10
f 55/12/3 73/24/3 69/24/3
f 74/25/4 59/16/4 70/25/4
f 82/27/4 76/26/4 78/27/4
f 78/27/4 72/26/4 74/27/4
f 76/28/11 71/22/11 72/28/11
f 77/21/12 74/29/12 73/21/12
f 88/24/30 86/23/30 82/23/30
f 80/28/14 75/22/14 76/28/14
f 81/21/15 78/29/15 77/21/15
f 79/22/3 77/21/3 75/22/3
f 83/12/1 86/23/1 85/24/1
f 87/12/3 81/24/3 79/12/3
f 82/25/4 84/16/4 80/16/4
f 84/14/31 87/12/31 79/12/31
f 92/30/32 93/31/32 89/37/32
f 91/12/2 88/24/2 87/12/2
f 90/12/18 87/12/18 83/12/18
f 92/24/19 85/24/19 88/24/19
f 89/24/1 83/12/1 85/24/1
f 48/34/33 93/33/33 96/35/33
f 93/31/34 90/36/34 89/37/34
f 95/39/35 92/38/35 91/40/35
f 90/36/36 95/41/36 91/56/36
f 95/39/37 48/43/37 96/57/37
f 46/46/38 95/45/38 94/47/38
f 98/48/39 46/46/39 94/47/39
f 45/50/40 97/49/40 93/51/40
f 93/31/41 98/52/41 94/42/41
f 52/54/42 97/53/42 98/55/42
f 5/1/1 18/58/1 17/2/1
f 4/4/2 10/4/2 12/5/2
f 6/8/3 8/59/3 7/6/3
f 18/7/3 5/60/3 6/8/3
f 2/9/2 4/4/2 8/5/2
f 4/11/4 2/61/4 1/3/4
f 17/2/4 3/62/4 4/11/4
f 6/10/2 16/10/2 14/9/2
f 9/12/5 11/63/5 12/13/5
f 7/14/6 11/14/6 9/12/6
f 4/4/4 3/12/4 9/12/4
f 8/15/3 12/15/3 11/16/3
f 15/17/7 13/19/7 14/9/7
f 1/19/8 13/19/8 15/20/8
f 2/9/4 14/9/4 13/19/4
f 6/18/3 5/17/3 15/17/3
f 21/21/4 25/21/4 23/22/4
f 18/23/9 22/23/9 21/24/9
f 3/12/10 19/12/10 20/14/10
f 3/12/4 17/24/4 21/24/4
f 7/16/3 20/16/3 22/25/3
f 24/26/3 28/26/3 30/27/3
f 20/26/3 24/26/3 26/27/3
f 19/22/11 23/22/11 24/28/11
f 22/29/12 26/29/12 25/21/12
f 36/24/43 29/24/43 30/23/43
f 30/23/44 34/23/44 33/24/44
f 23/22/14 27/22/14 28/28/14
f 26/29/15 30/29/15 29/21/15
f 25/21/4 29/21/4 27/22/4
f 34/23/1 32/14/1 31/12/1
f 29/24/4 36/24/4 35/12/4
f 30/25/3 28/16/3 32/16/3
f 32/14/16 28/14/16 27/12/16
f 27/12/4 35/12/4 31/12/4
f 40/30/45 37/37/45 41/31/45
f 36/24/2 40/24/2 39/12/2
f 35/12/18 39/12/18 38/12/18
f 33/24/19 37/24/19 40/24/19
f 31/12/1 38/12/1 37/24/1
f 41/33/46 45/64/46 48/34/46
f 38/36/21 42/42/21 41/31/21
f 40/38/22 44/57/22 43/39/22
f 38/36/47 39/56/47 43/41/47
f 43/39/24 44/57/24 48/43/24
f 43/45/48 47/65/48 46/46/48
f 46/46/49 52/66/49 50/48/49
f 49/49/50 51/67/50 45/50/50
f 50/52/28 49/68/28 41/31/28
f 49/53/29 51/69/29 52/54/29
f 69/2/1 70/58/1 57/1/1
f 64/5/2 62/4/2 56/4/2
f 59/6/4 60/59/4 58/8/4
f 58/8/4 57/60/4 70/7/4
f 60/5/2 56/4/2 54/9/2
f 53/3/3 54/61/3 56/11/3
f 56/11/3 55/62/3 69/2/3
f 66/9/2 68/10/2 58/10/2
f 64/13/5 63/63/5 61/12/5
f 61/12/6 63/14/6 59/14/6
f 56/4/3 62/4/3 61/12/3
f 63/16/4 64/15/4 60/15/4
f 66/9/7 65/19/7 67/17/7
f 67/20/8 65/19/8 53/19/8
f 65/19/3 66/9/3 54/9/3
f 58/18/4 68/18/4 67/17/4
f 75/22/3 77/21/3 73/21/3
f 73/24/9 74/23/9 70/23/9
f 72/14/10 71/12/10 55/12/10
f 55/12/3 71/12/3 73/24/3
f 74/25/4 72/16/4 59/16/4
f 82/27/4 80/26/4 76/26/4
f 78/27/4 76/26/4 72/26/4
f 76/28/11 75/22/11 71/22/11
f 77/21/12 78/29/12 74/29/12
f 82/23/43 81/24/43 88/24/43
f 88/24/19 85/24/19 86/23/19
f 80/28/14 79/22/14 75/22/14
f 81/21/15 82/29/15 78/29/15
f 79/22/3 81/21/3 77/21/3
f 83/12/1 84/14/1 86/23/1
f 87/12/3 88/24/3 81/24/3
f 82/25/4 86/25/4 84/16/4
f 79/12/16 80/14/16 84/14/16
f 84/14/18 83/12/18 87/12/18
f 92/30/51 96/32/51 93/31/51
f 91/12/2 92/24/2 88/24/2
f 90/12/18 91/12/18 87/12/18
f 92/24/19 89/24/19 85/24/19
f 89/24/1 90/12/1 83/12/1
f 48/34/52 45/64/52 93/33/52
f 93/31/34 94/42/34 90/36/34
f 95/39/35 96/57/35 92/38/35
f 90/36/53 94/42/53 95/41/53
f 95/39/37 47/44/37 48/43/37
f 46/46/54 47/65/54 95/45/54
f 98/48/55 52/66/55 46/46/55
f 45/50/56 51/67/56 97/49/56
f 93/31/41 97/68/41 98/52/41
f 52/54/42 51/69/42 97/53/42
