# Blender 5.0.0
# www.blender.org
mtllib legs2-2.mtl
o MechLegs2
v 1.204085 -2.453061 2.098666
v 1.204085 -2.836299 1.186604
v 1.324778 -1.011441 1.492914
v 1.204085 -1.194597 0.496780
v 2.099711 -2.453061 2.098666
v 2.099711 -2.836299 1.186604
v 1.979018 -1.011441 1.492914
v 2.099711 -1.194597 0.496780
v 1.204085 -0.008600 0.334578
v 1.204085 -0.128647 0.048881
v 2.099711 -0.008600 0.334578
v 2.099711 -0.128647 0.048881
v 1.530618 -2.908835 2.398385
v 1.357667 -3.069843 2.015206
v 1.773178 -2.908835 2.398385
v 1.946129 -3.069843 2.015206
v 1.324778 -2.096027 1.948645
v 1.979018 -2.096027 1.948645
v 1.283974 0.084867 3.174266
v 2.019822 0.084867 3.174266
v 1.283974 -1.135006 3.686843
v 2.019822 -1.135006 3.686843
v 1.283974 0.359060 3.587820
v 2.019822 0.359060 3.587820
v 1.283974 -1.031518 4.172125
v 2.019822 -1.031518 4.172125
v 1.283974 0.470561 4.048090
v 2.019822 0.470561 4.048090
v 1.283974 -0.780799 4.573896
v 2.019822 -0.780799 4.573896
v 1.204085 1.118795 5.452118
v 1.922890 0.713528 5.299063
v 1.204085 -0.404279 6.092095
v 1.922890 -0.229966 5.695508
v 1.204085 0.770220 4.547580
v 1.204085 -0.752855 5.187558
v 0.846604 -0.404279 6.092095
v 0.846604 1.118795 5.452118
v 0.846604 0.770220 4.547580
v 0.846604 -0.752855 5.187558
v 0.468034 -0.047604 5.698040
v 0.468034 0.603043 5.424645
v 0.468034 0.413545 4.941636
v 0.468034 -0.237103 5.215030
v -0.000000 -0.253935 5.900781
v -0.000000 0.883698 5.422761
v -0.000000 0.619874 4.738894
v -0.000000 -0.517758 5.216915
v 0.404302 0.165710 6.205704
v 0.404302 0.816357 5.932309
v -0.000000 -0.082114 6.309693
v -0.000000 1.055518 5.831673
v -1.204085 -2.453061 2.098666
v -1.204085 -2.836299 1.186604
v -1.324778 -1.011441 1.492914
v -1.204085 -1.194597 0.496780
v -2.099711 -2.453061 2.098666
v -2.099711 -2.836299 1.186604
v -1.979018 -1.011441 1.492914
v -2.099711 -1.194597 0.496780
v -1.204085 -0.008600 0.334578
v -1.204085 -0.128647 0.048881
v -2.099711 -0.008600 0.334578
v -2.099711 -0.128647 0.048881
v -1.530618 -2.908835 2.398385
v -1.357667 -3.069843 2.015206
v -1.773178 -2.908835 2.398385
v -1.946129 -3.069843 2.015206
v -1.324778 -2.096027 1.948645
v -1.979018 -2.096027 1.948645
v -1.283974 0.084867 3.174266
v -2.019822 0.084867 3.174266
v -1.283974 -1.135006 3.686843
v -2.019822 -1.135006 3.686843
v -1.283974 0.359060 3.587820
v -2.019822 0.359060 3.587820
v -1.283974 -1.031518 4.172125
v -2.019822 -1.031518 4.172125
v -1.283974 0.470561 4.048090
v -2.019822 0.470561 4.048090
v -1.283974 -0.780799 4.573896
v -2.019822 -0.780799 4.573896
v -1.204085 1.118795 5.452118
v -1.922890 0.713528 5.299063
v -1.204085 -0.404279 6.092095
v -1.922890 -0.229966 5.695508
v -1.204085 0.770220 4.547580
v -1.204085 -0.752855 5.187558
v -0.846604 -0.404279 6.092095
v -0.846604 1.118795 5.452118
v -0.846604 0.770220 4.547580
v -0.846604 -0.752855 5.187558
v -0.468034 -0.047604 5.698040
v -0.468034 0.603043 5.424645
v -0.468034 0.413545 4.941636
v -0.468034 -0.237103 5.215030
v -0.404302 0.165710 6.205704
v -0.404302 0.816357 5.932309
vn -0.0000 0.3874 0.9219
vn -0.0000 -0.3874 -0.9219
vn 0.9970 0.0709 -0.0298
vn -0.9876 0.1234 0.0970
vn -0.0000 -0.9625 -0.2713
vn -0.0000 0.9219 -0.3874
vn -0.0000 0.7560 0.6545
vn -1.0000 -0.0000 -0.0000
vn 0.9930 0.0161 0.1174
vn -0.0000 -0.9219 0.3874
vn -0.0000 0.5494 0.8355
vn -0.8289 -0.2725 0.4886
vn 0.9614 -0.2538 0.1067
vn -0.0000 -0.8751 0.4839
vn -0.0000 0.8377 -0.5462
vn -0.9998 -0.0080 -0.0190
vn 0.9998 -0.0080 -0.0190
vn 1.0000 -0.0000 -0.0000
vn -0.0000 0.8335 -0.5526
vn -0.0000 -0.9780 0.2086
vn 0.2320 -0.9076 0.3498
vn -0.0000 0.9719 -0.2354
vn -0.0000 -0.8484 0.5294
vn 0.3831 0.3578 0.8516
vn -0.9905 -0.0532 -0.1265
vn 0.9970 0.0300 0.0714
vn 0.3967 0.8418 -0.3661
vn -0.7788 -0.5839 0.2291
vn -0.0000 0.9331 -0.3596
vn -0.0000 -0.9331 0.3596
vn 0.4884 -0.8123 0.3187
vn -0.5111 0.3330 0.7924
vn -0.5111 -0.3330 -0.7924
vn -0.7788 0.5839 -0.2291
vn 0.2228 -0.3776 -0.8987
vn 0.4884 0.8123 -0.3187
vn 0.4940 0.8220 -0.2834
vn 0.5072 -0.7700 0.3872
vn 0.9934 0.0445 0.1060
vn 0.0003 -0.3874 -0.9219
vn -0.9926 0.0469 0.1116
vn 0.8416 0.4247 0.3336
vn -0.9930 0.0161 0.1174
vn 0.9614 -0.2538 0.1066
vn -0.9614 -0.2538 0.1067
vn -0.3029 -0.8448 0.4411
vn -0.3831 0.3578 0.8516
vn 0.9905 -0.0532 -0.1265
vn -0.9970 0.0300 0.0714
vn -0.4754 0.7859 -0.3954
vn 0.7817 -0.5819 0.2243
vn -0.4884 -0.8123 0.3187
vn 0.5111 0.3330 0.7924
vn 0.5111 -0.3330 -0.7924
vn 0.7817 0.5819 -0.2243
vn -0.2228 -0.3776 -0.8987
vn -0.4884 0.8123 -0.3187
vn -0.4940 0.8220 -0.2834
vn -0.5072 -0.7700 0.3872
vn -0.9934 0.0445 0.1060
vn -0.0003 -0.3874 -0.9219
vn 0.9926 0.0469 0.1116
vn -0.9614 -0.2538 0.1066
vn 0.8289 -0.2725 0.4886
vn -0.0000 -0.9990 0.0455
vn 0.4290 -0.7956 0.4278
vn -0.0000 0.9817 -0.1907
vn 0.7813 0.5824 -0.2244
vn -0.7817 -0.5819 0.2243
vn 0.4934 -0.8115 0.3131
vn -0.7817 0.5819 -0.2243
vn 0.4934 0.8115 -0.3131
vn 0.5401 0.7759 -0.3260
vn 0.5536 -0.7678 0.3226
vn -0.9547 0.2743 -0.1153
vn -0.3909 -0.8589 0.3310
vn -0.4100 0.8511 -0.3280
vn 0.7788 -0.5839 0.2291
vn -0.4934 -0.8115 0.3131
vn 0.7788 0.5839 -0.2291
vn -0.4934 0.8115 -0.3131
vn -0.5401 0.7759 -0.3260
vn -0.5536 -0.7678 0.3226
vt 0.093941 0.111746
vt 0.084888 0.116249
vt 0.083465 0.111746
vt 0.072999 0.099580
vt 0.083465 0.086052
vt 0.083465 0.099580
vt 0.035117 0.082293
vt 0.053326 0.082368
vt 0.053355 0.093926
vt 0.072999 0.120414
vt 0.083465 0.120414
vt 0.066194 0.074478
vt 0.084416 0.074471
vt 0.087008 0.086052
vt 0.864999 0.112886
vt 0.874329 0.104990
vt 0.875411 0.112886
vt 0.860962 0.127444
vt 0.864587 0.116972
vt 0.864587 0.127445
vt 0.045221 0.093926
vt 0.036019 0.110769
vt 0.037569 0.093926
vt 0.100525 0.082427
vt 0.100524 0.086052
vt 0.032543 0.093926
vt 0.019022 0.090306
vt 0.869497 0.100127
vt 0.867488 0.104990
vt 0.901969 0.117946
vt 0.908636 0.111582
vt 0.912444 0.117946
vt 0.884697 0.080679
vt 0.878354 0.084366
vt 0.878272 0.079493
vt 0.871830 0.088569
vt 0.878190 0.092164
vt 0.871858 0.100127
vt 0.891676 0.057571
vt 0.908228 0.051868
vt 0.907144 0.057571
vt 0.103669 0.086614
vt 0.109823 0.063027
vt 0.111256 0.086080
vt 0.062566 0.138749
vt 0.072206 0.116219
vt 0.070197 0.139293
vt 0.073173 0.051370
vt 0.088641 0.051370
vt 0.046301 0.059247
vt 0.048866 0.082293
vt 0.848245 0.059753
vt 0.864977 0.054291
vt 0.865873 0.059753
vt 0.849341 0.065448
vt 0.864805 0.065448
vt 0.882126 0.121807
vt 0.891086 0.116714
vt 0.890709 0.122419
vt 0.919793 0.069827
vt 0.928046 0.063527
vt 0.928326 0.069227
vt 0.100525 0.052479
vt 0.109027 0.033747
vt 0.109787 0.045059
vt 0.882503 0.116102
vt 0.891503 0.111273
vt 0.919513 0.064127
vt 0.927562 0.058080
vt 0.890595 0.051868
vt 0.907346 0.046398
vt 0.036019 0.097996
vt 0.027691 0.113148
vt 0.027691 0.093937
vt 0.072976 0.040197
vt 0.089850 0.033456
vt 0.088843 0.040197
vt 0.046473 0.048090
vt 0.033673 0.033456
vt 0.045633 0.033456
vt 0.064416 0.104460
vt 0.064759 0.086350
vt 0.072999 0.090483
vt 0.903892 0.101362
vt 0.877763 0.084608
vt 0.887581 0.084148
vt 0.097603 0.105381
vt 0.093426 0.086052
vt 0.097603 0.086052
vt 0.063939 0.097651
vt 0.060589 0.086052
vt 0.113933 0.044768
vt 0.023509 0.093926
vt 0.930020 0.088191
vt 0.949946 0.111080
vt 0.930074 0.107405
vt 0.903892 0.041258
vt 0.920202 0.084608
vt 0.903892 0.102438
vt 0.887581 0.058013
vt 0.903892 0.040183
vt 0.930020 0.058013
vt 0.920202 0.058472
vt 0.874709 0.093757
vt 0.874709 0.048060
vt 0.949969 0.079794
vt 0.930172 0.056793
vt 0.950022 0.060581
vt 0.947792 0.040183
vt 0.884193 0.103677
vt 0.874709 0.118775
vt 0.884193 0.124196
vt 0.949946 0.083936
vt 0.962397 0.110072
vt 0.962397 0.083936
vt 0.882927 0.051325
vt 0.914300 0.126224
vt 0.882927 0.106089
vt 0.070663 0.074471
vt 0.884695 0.092253
vt 0.100525 0.037851
vt 0.030610 0.048090
vt 0.885552 0.102438
vt 0.922231 0.040183
vt 0.092540 0.116249
vt 0.072999 0.086052
vt 0.066191 0.086052
vt 0.860962 0.116970
vt 0.046495 0.110769
vt 0.019031 0.093926
vt 0.872317 0.100127
vt 0.905798 0.111582
vt 0.878272 0.087201
vt 0.101289 0.063627
vt 0.063622 0.115607
vt 0.030837 0.059247
vt 0.849114 0.054291
vt 0.109058 0.051879
vt 0.882919 0.110661
vt 0.919028 0.058680
vt 0.891479 0.046398
vt 0.036019 0.109897
vt 0.070537 0.033456
vt 0.072999 0.105072
vt 0.093426 0.105381
vt 0.059769 0.097353
vt 0.113172 0.033456
vt 0.023509 0.113138
vt 0.949946 0.083936
vt 0.930020 0.083936
vt 0.930020 0.040375
vt 0.876341 0.102438
vt 0.949946 0.110072
vt 0.914300 0.030470
s 0
usemtl Mech2
f 5/1/1 17/2/1 1/3/1
f 4/4/2 12/5/2 8/6/2
f 7/7/3 5/8/3 6/9/3
f 2/10/2 8/6/2 6/11/2
f 1/12/4 3/13/4 4/14/4
f 6/15/5 14/16/5 2/17/5
f 9/18/6 12/19/6 10/20/6
f 7/21/7 9/22/7 3/23/7
f 4/14/8 9/24/8 10/25/8
f 8/26/9 11/27/9 7/7/9
f 15/28/10 14/16/10 16/29/10
f 1/30/11 15/31/11 5/32/11
f 1/33/12 14/34/12 13/35/12
f 5/36/13 16/37/13 6/38/13
f 21/39/8 23/40/8 19/41/8
f 18/42/14 21/43/14 17/44/14
f 3/45/15 20/46/15 7/47/15
f 3/13/16 21/48/16 19/49/16
f 7/7/17 22/50/17 18/51/17
f 24/52/18 30/53/18 26/54/18
f 20/55/18 26/54/18 22/56/18
f 19/57/19 24/58/19 20/59/19
f 22/60/20 25/61/20 21/62/20
f 30/63/21 33/64/21 36/65/21
f 23/66/22 28/67/22 24/58/22
f 26/68/23 29/69/23 25/61/23
f 25/70/8 27/71/8 23/40/8
f 34/72/24 31/73/24 33/74/24
f 29/75/25 35/76/25 27/77/25
f 30/78/26 32/79/26 34/80/26
f 27/81/27 31/82/27 32/83/27
f 40/84/28 41/85/28 44/86/28
f 36/87/2 39/88/2 35/89/2
f 35/90/29 38/91/29 31/82/29
f 33/64/30 40/92/30 36/65/30
f 31/73/1 37/93/1 33/74/1
f 41/94/31 48/95/31 44/96/31
f 38/97/32 41/98/32 37/99/32
f 40/84/33 43/100/33 39/101/33
f 38/97/34 43/102/34 42/103/34
f 43/100/35 48/104/35 47/105/35
f 43/106/36 46/107/36 42/108/36
f 46/107/37 50/109/37 42/108/37
f 49/110/38 45/111/38 41/112/38
f 50/113/39 41/114/39 42/115/39
f 49/116/40 52/117/40 50/118/40
f 69/2/1 57/1/1 53/3/1
f 64/5/2 56/4/2 60/6/2
f 58/9/41 70/51/41 59/7/41
f 60/6/2 54/10/2 58/11/2
f 56/14/42 69/119/42 53/12/42
f 66/16/5 58/15/5 54/17/5
f 64/19/6 61/18/6 62/20/6
f 61/22/7 59/21/7 55/23/7
f 56/14/9 61/24/9 55/13/9
f 63/27/43 60/26/43 59/7/43
f 66/16/10 67/28/10 68/29/10
f 67/31/11 53/30/11 57/32/11
f 53/33/44 66/34/44 54/120/44
f 68/37/45 57/36/45 58/38/45
f 75/40/18 73/39/18 71/41/18
f 73/43/14 70/42/14 69/44/14
f 72/46/15 55/45/15 59/47/15
f 55/13/17 73/48/17 69/119/17
f 74/50/16 59/7/16 70/51/16
f 82/53/8 76/52/8 78/54/8
f 78/54/8 72/55/8 74/56/8
f 76/58/19 71/57/19 72/59/19
f 77/61/20 74/60/20 73/62/20
f 88/65/46 86/121/46 82/63/46
f 80/67/22 75/66/22 76/58/22
f 81/69/23 78/68/23 77/61/23
f 79/71/18 77/70/18 75/40/18
f 83/73/47 86/72/47 85/74/47
f 87/76/48 81/75/48 79/77/48
f 82/78/49 84/79/49 80/122/49
f 84/83/50 87/90/50 79/81/50
f 92/84/51 93/85/51 89/123/51
f 91/88/2 88/87/2 87/89/2
f 90/91/29 87/90/29 83/82/29
f 92/92/30 85/64/30 88/65/30
f 89/93/1 83/73/1 85/74/1
f 48/95/52 93/94/52 96/96/52
f 93/98/53 90/97/53 89/99/53
f 95/100/54 92/84/54 91/101/54
f 90/97/55 95/102/55 91/124/55
f 95/100/56 48/104/56 96/86/56
f 46/107/57 95/106/57 94/108/57
f 98/109/58 46/107/58 94/108/58
f 45/111/59 97/110/59 93/112/59
f 93/114/60 98/113/60 94/115/60
f 52/117/61 97/116/61 98/118/61
f 5/1/1 18/125/1 17/2/1
f 4/4/2 10/126/2 12/5/2
f 6/9/62 8/26/62 7/7/62
f 7/7/1 18/51/1 5/8/1
f 2/10/2 4/4/2 8/6/2
f 4/14/8 2/127/8 1/12/8
f 1/12/1 17/119/1 3/13/1
f 6/15/5 16/29/5 14/16/5
f 9/18/6 11/128/6 12/19/6
f 7/21/7 11/129/7 9/22/7
f 4/14/43 3/13/43 9/24/43
f 8/26/18 12/130/18 11/27/18
f 15/28/10 13/131/10 14/16/10
f 1/30/11 13/132/11 15/31/11
f 1/33/63 2/120/63 14/34/63
f 5/36/64 15/133/64 16/37/64
f 21/39/8 25/70/8 23/40/8
f 18/42/14 22/134/14 21/43/14
f 3/45/15 19/135/15 20/46/15
f 3/13/16 17/119/16 21/48/16
f 7/7/17 20/136/17 22/50/17
f 24/52/18 28/137/18 30/53/18
f 20/55/18 24/52/18 26/54/18
f 19/57/19 23/66/19 24/58/19
f 22/60/20 26/68/20 25/61/20
f 36/65/65 29/138/65 30/63/65
f 30/63/66 34/121/66 33/64/66
f 23/66/22 27/139/22 28/67/22
f 26/68/23 30/140/23 29/69/23
f 25/70/8 29/141/8 27/71/8
f 34/72/24 32/142/24 31/73/24
f 29/75/25 36/143/25 35/76/25
f 30/78/26 28/122/26 32/79/26
f 32/83/67 28/144/67 27/81/67
f 27/81/68 35/90/68 31/82/68
f 40/84/69 37/123/69 41/85/69
f 36/87/2 40/145/2 39/88/2
f 35/90/29 39/146/29 38/91/29
f 33/64/30 37/147/30 40/92/30
f 31/73/1 38/148/1 37/93/1
f 41/94/70 45/149/70 48/95/70
f 38/97/32 42/103/32 41/98/32
f 40/84/33 44/86/33 43/100/33
f 38/97/71 39/124/71 43/102/71
f 43/100/35 44/86/35 48/104/35
f 43/106/72 47/150/72 46/107/72
f 46/107/73 52/151/73 50/109/73
f 49/110/74 51/152/74 45/111/74
f 50/113/39 49/153/39 41/114/39
f 49/116/40 51/154/40 52/117/40
f 69/2/1 70/125/1 57/1/1
f 64/5/2 62/126/2 56/4/2
f 59/7/41 60/26/41 58/9/41
f 58/9/75 57/8/75 70/51/75
f 60/6/2 56/4/2 54/10/2
f 53/12/18 54/127/18 56/14/18
f 56/14/62 55/13/62 69/119/62
f 66/16/5 68/29/5 58/15/5
f 64/19/6 63/128/6 61/18/6
f 61/22/7 63/129/7 59/21/7
f 56/14/18 62/25/18 61/24/18
f 63/27/8 64/130/8 60/26/8
f 66/16/10 65/131/10 67/28/10
f 67/31/11 65/132/11 53/30/11
f 53/33/64 65/35/64 66/34/64
f 68/37/12 67/133/12 57/36/12
f 75/40/18 77/70/18 73/39/18
f 73/43/14 74/134/14 70/42/14
f 72/46/15 71/135/15 55/45/15
f 55/13/17 71/49/17 73/48/17
f 74/50/16 72/136/16 59/7/16
f 82/53/8 80/137/8 76/52/8
f 78/54/8 76/52/8 72/55/8
f 76/58/19 75/66/19 71/57/19
f 77/61/20 78/68/20 74/60/20
f 82/63/65 81/138/65 88/65/65
f 88/65/76 85/64/76 86/121/76
f 80/67/22 79/139/22 75/66/22
f 81/69/23 82/140/23 78/68/23
f 79/71/18 81/141/18 77/70/18
f 83/73/47 84/142/47 86/72/47
f 87/76/48 88/143/48 81/75/48
f 82/78/49 86/80/49 84/79/49
f 79/81/67 80/144/67 84/83/67
f 84/83/77 83/82/77 87/90/77
f 92/84/78 96/86/78 93/85/78
f 91/88/2 92/145/2 88/87/2
f 90/91/29 91/146/29 87/90/29
f 92/92/30 89/147/30 85/64/30
f 89/93/1 90/148/1 83/73/1
f 48/95/79 45/149/79 93/94/79
f 93/98/53 94/103/53 90/97/53
f 95/100/54 96/86/54 92/84/54
f 90/97/80 94/103/80 95/102/80
f 95/100/56 47/105/56 48/104/56
f 46/107/81 47/150/81 95/106/81
f 98/109/82 52/151/82 46/107/82
f 45/111/83 51/152/83 97/110/83
f 93/114/60 97/153/60 98/113/60
f 52/117/61 51/154/61 97/116/61
