# Blender 4.5.4 LTS
# www.blender.org
mtllib legs2.mtl
o MechLegs2
v 1.204085 -0.780742 1.030726
v 1.204085 -0.780742 0.041419
v 1.324778 0.782972 1.030726
v 1.204085 1.000000 0.041419
v 2.099711 -0.780742 1.030726
v 2.099711 -0.780742 0.041419
v 1.979018 0.782972 1.030726
v 2.099711 1.000000 0.041419
v 1.204085 2.156228 0.351313
v 1.204085 2.156228 0.041419
v 2.099711 2.156228 0.351313
v 2.099711 2.156228 0.041419
v 1.530618 -1.317035 1.130485
v 1.357667 -1.317035 0.714854
v 1.773178 -1.317035 1.130485
v 1.946129 -1.317035 0.714854
v 1.324778 -0.393471 1.030726
v 1.979018 -0.393471 1.030726
v 1.283974 1.142359 3.005486
v 2.019822 1.142359 3.005486
v 1.283974 -0.180829 3.005486
v 2.019822 -0.180829 3.005486
v 1.283974 1.234940 3.492967
v 2.019822 1.234940 3.492967
v 1.283974 -0.273410 3.492967
v 2.019822 -0.273410 3.492967
v 1.283974 1.159435 3.960492
v 2.019822 1.159435 3.960492
v 1.283974 -0.197905 3.960492
v 2.019822 -0.197905 3.960492
v 1.204085 1.213163 5.506006
v 1.922890 0.898830 5.207910
v 1.204085 -0.438904 5.506006
v 1.922890 -0.124571 5.207910
v 1.204085 1.242205 4.537064
v 1.204085 -0.409863 4.537064
v 0.846604 -0.438904 5.506006
v 0.846604 1.213163 5.506006
v 0.846604 1.242205 4.537064
v 0.846604 -0.409863 4.537064
v 0.468034 0.042571 5.280887
v 0.468034 0.748323 5.280887
v 0.468034 0.760729 4.762183
v 0.468034 0.054977 4.762183
v 0.000000 -0.226187 5.387870
v 0.000000 1.007795 5.387870
v 0.000000 1.029487 4.655200
v 0.000000 -0.204495 4.655200
v 0.404302 0.042571 5.831546
v 0.404302 0.748323 5.831546
v 0.000000 -0.226187 5.831414
v 0.000000 1.007795 5.831414
v -1.204085 -0.780742 1.030726
v -1.204085 -0.780742 0.041419
v -1.324778 0.782972 1.030726
v -1.204085 1.000000 0.041419
v -2.099711 -0.780742 1.030726
v -2.099711 -0.780742 0.041419
v -1.979018 0.782972 1.030726
v -2.099711 1.000000 0.041419
v -1.204085 2.156228 0.351313
v -1.204085 2.156228 0.041419
v -2.099711 2.156228 0.351313
v -2.099711 2.156228 0.041419
v -1.530618 -1.317035 1.130485
v -1.357667 -1.317035 0.714854
v -1.773178 -1.317035 1.130485
v -1.946129 -1.317035 0.714854
v -1.324778 -0.393471 1.030726
v -1.979018 -0.393471 1.030726
v -1.283974 1.142359 3.005486
v -2.019822 1.142359 3.005486
v -1.283974 -0.180829 3.005486
v -2.019822 -0.180829 3.005486
v -1.283974 1.234940 3.492967
v -2.019822 1.234940 3.492967
v -1.283974 -0.273410 3.492967
v -2.019822 -0.273410 3.492967
v -1.283974 1.159435 3.960492
v -2.019822 1.159435 3.960492
v -1.283974 -0.197905 3.960492
v -2.019822 -0.197905 3.960492
v -1.204085 1.213163 5.506006
v -1.922890 0.898830 5.207910
v -1.204085 -0.438904 5.506006
v -1.922890 -0.124571 5.207910
v -1.204085 1.242205 4.537064
v -1.204085 -0.409863 4.537064
v -0.846604 -0.438904 5.506006
v -0.846604 1.213163 5.506006
v -0.846604 1.242205 4.537064
v -0.846604 -0.409863 4.537064
v -0.468034 0.042571 5.280887
v -0.468034 0.748323 5.280887
v -0.468034 0.760729 4.762183
v -0.468034 0.054977 4.762183
v -0.404302 0.042571 5.831546
v -0.404302 0.748323 5.831546
vn -0.0000 -0.0000 1.0000
vn -0.0000 -0.0000 -1.0000
vn 0.9970 0.0770 -0.0000
vn -0.9876 0.0762 0.1372
vn -0.0000 -0.7823 -0.6230
vn -0.0000 1.0000 -0.0000
vn -0.0000 0.4434 0.8963
vn -1.0000 -0.0000 -0.0000
vn 0.9930 -0.0307 0.1144
vn -0.0000 -1.0000 -0.0000
vn -0.0000 0.1829 0.9831
vn -0.8289 -0.4405 0.3449
vn 0.9614 -0.2753 -0.0000
vn -0.0000 -0.9943 0.1071
vn -0.0000 0.9838 -0.1790
vn -0.9998 -0.0000 -0.0207
vn 0.9998 -0.0000 -0.0207
vn 1.0000 -0.0000 -0.0000
vn -0.0000 0.9824 -0.1866
vn -0.0000 -0.9824 -0.1866
vn 0.2320 -0.9723 -0.0291
vn -0.0000 0.9872 0.1594
vn -0.0000 -0.9872 0.1594
vn 0.3831 -0.0000 0.9237
vn -0.9905 -0.0000 -0.1372
vn 0.9970 -0.0000 0.0775
vn 0.3967 0.9179 -0.0114
vn -0.7788 -0.6270 -0.0150
vn -0.0000 0.9996 0.0300
vn -0.0000 -0.9996 -0.0300
vn 0.4884 -0.8724 -0.0209
vn -0.5111 -0.0000 0.8595
vn -0.5111 -0.0000 -0.8595
vn -0.7788 0.6270 0.0150
vn 0.2228 -0.0000 -0.9749
vn 0.4884 0.8724 0.0209
vn 0.4940 0.8676 0.0572
vn -0.5072 0.8598 -0.0587
vn -0.9934 -0.0000 -0.1150
vn 0.0003 -0.0000 -1.0000
vn -0.9926 -0.0000 0.1211
vn 0.8416 0.2623 0.4721
vn -0.9930 -0.0307 0.1144
vn -0.9614 -0.2753 -0.0000
vn -0.3029 -0.9497 0.0794
vn -0.3831 -0.0000 0.9237
vn 0.9905 -0.0000 -0.1372
vn -0.9970 -0.0000 0.0775
vn -0.4754 0.8777 -0.0601
vn 0.7817 -0.6234 -0.0187
vn -0.4884 -0.8724 -0.0209
vn 0.5111 -0.0000 0.8595
vn 0.5111 -0.0000 -0.8595
vn 0.7817 0.6234 0.0187
vn -0.2228 -0.0000 -0.9749
vn -0.4884 0.8724 0.0209
vn -0.4940 0.8676 0.0572
vn 0.5072 0.8598 -0.0587
vn 0.9934 -0.0000 -0.1150
vn -0.0003 -0.0000 -1.0000
vn 0.9926 -0.0000 0.1211
vn 0.8289 -0.4405 0.3449
vn -0.0000 -0.9386 -0.3450
vn 0.4290 -0.8992 0.0862
vn -0.0000 0.9789 0.2045
vn 0.7813 0.6239 0.0187
vn -0.7817 -0.6234 -0.0187
vn 0.4934 -0.8694 -0.0257
vn -0.7817 0.6234 0.0187
vn 0.4934 0.8694 0.0257
vn 0.5401 0.8416 -0.0000
vn -0.5536 0.8328 -0.0000
vn -0.9547 0.2975 -0.0000
vn -0.3909 -0.9200 -0.0276
vn -0.4100 0.9117 0.0273
vn 0.7788 -0.6270 -0.0150
vn -0.4934 -0.8694 -0.0257
vn 0.7788 0.6270 0.0150
vn -0.4934 0.8694 0.0257
vn -0.5401 0.8416 -0.0000
vn 0.5536 0.8328 -0.0000
vt 0.093941 0.111746
vt 0.084888 0.116249
vt 0.083465 0.111746
vt 0.072999 0.099580
vt 0.083465 0.086052
vt 0.083465 0.099580
vt 0.035117 0.082293
vt 0.053326 0.082368
vt 0.053355 0.093926
vt 0.072999 0.120414
vt 0.083465 0.120414
vt 0.066194 0.074478
vt 0.084416 0.074471
vt 0.087008 0.086052
vt 0.864999 0.112886
vt 0.874329 0.104990
vt 0.875411 0.112886
vt 0.860962 0.127444
vt 0.864587 0.116972
vt 0.864587 0.127445
vt 0.045221 0.093926
vt 0.036019 0.110769
vt 0.037569 0.093926
vt 0.100525 0.082427
vt 0.100524 0.086052
vt 0.032543 0.093926
vt 0.019022 0.090306
vt 0.869497 0.100127
vt 0.867488 0.104990
vt 0.901969 0.117946
vt 0.908636 0.111582
vt 0.912444 0.117946
vt 0.884697 0.080679
vt 0.878354 0.084366
vt 0.878272 0.079493
vt 0.871830 0.088569
vt 0.878190 0.092164
vt 0.871858 0.100127
vt 0.891676 0.057571
vt 0.908228 0.051868
vt 0.907144 0.057571
vt 0.103669 0.086614
vt 0.109823 0.063027
vt 0.111256 0.086080
vt 0.062566 0.138749
vt 0.072206 0.116219
vt 0.070197 0.139293
vt 0.073173 0.051370
vt 0.088641 0.051370
vt 0.046301 0.059247
vt 0.048866 0.082293
vt 0.848245 0.059753
vt 0.864977 0.054291
vt 0.865873 0.059753
vt 0.849341 0.065448
vt 0.864805 0.065448
vt 0.882126 0.121807
vt 0.891086 0.116714
vt 0.890709 0.122419
vt 0.919793 0.069827
vt 0.928046 0.063527
vt 0.928326 0.069227
vt 0.100525 0.052479
vt 0.109027 0.033747
vt 0.109787 0.045059
vt 0.882503 0.116102
vt 0.891503 0.111273
vt 0.919513 0.064127
vt 0.927562 0.058080
vt 0.890595 0.051868
vt 0.907346 0.046398
vt 0.036019 0.097996
vt 0.027691 0.113148
vt 0.027691 0.093937
vt 0.072976 0.040197
vt 0.089850 0.033456
vt 0.088843 0.040197
vt 0.046473 0.048090
vt 0.033673 0.033456
vt 0.045633 0.033456
vt 0.064416 0.104460
vt 0.064759 0.086350
vt 0.072999 0.090483
vt 0.903892 0.101362
vt 0.877763 0.084608
vt 0.887581 0.084148
vt 0.097603 0.105381
vt 0.093426 0.086052
vt 0.097603 0.086052
vt 0.063939 0.097651
vt 0.060589 0.086052
vt 0.113933 0.044768
vt 0.023509 0.093926
vt 0.930020 0.088191
vt 0.949946 0.111080
vt 0.930074 0.107405
vt 0.903892 0.041258
vt 0.920202 0.084608
vt 0.903892 0.102438
vt 0.887581 0.058013
vt 0.903892 0.040183
vt 0.930020 0.058013
vt 0.920202 0.058472
vt 0.874709 0.093757
vt 0.874709 0.048060
vt 0.949969 0.079794
vt 0.930172 0.056793
vt 0.950022 0.060581
vt 0.947792 0.040183
vt 0.874709 0.118775
vt 0.884193 0.103677
vt 0.884193 0.124196
vt 0.962397 0.110072
vt 0.949946 0.083936
vt 0.962397 0.083936
vt 0.105249 0.097906
vt 0.100525 0.086614
vt 0.105249 0.089649
vt 0.070663 0.074471
vt 0.884695 0.092253
vt 0.100525 0.037851
vt 0.030610 0.048090
vt 0.885552 0.102438
vt 0.922231 0.040183
vt 0.092540 0.116249
vt 0.072999 0.086052
vt 0.066191 0.086052
vt 0.860962 0.116970
vt 0.046495 0.110769
vt 0.019031 0.093926
vt 0.872317 0.100127
vt 0.905798 0.111582
vt 0.878272 0.087201
vt 0.101289 0.063627
vt 0.063622 0.115607
vt 0.030837 0.059247
vt 0.849114 0.054291
vt 0.109058 0.051879
vt 0.882919 0.110661
vt 0.919028 0.058680
vt 0.891479 0.046398
vt 0.036019 0.109897
vt 0.070537 0.033456
vt 0.072999 0.105072
vt 0.093426 0.105381
vt 0.059769 0.097353
vt 0.113172 0.033456
vt 0.023509 0.113138
vt 0.949946 0.083936
vt 0.930020 0.083936
vt 0.930020 0.040375
vt 0.876341 0.102438
vt 0.949946 0.110072
vt 0.100525 0.101051
s 0
usemtl Mech2
f 5/1/1 17/2/1 1/3/1
f 4/4/2 12/5/2 8/6/2
f 7/7/3 5/8/3 6/9/3
f 2/10/2 8/6/2 6/11/2
f 1/12/4 3/13/4 4/14/4
f 6/15/5 14/16/5 2/17/5
f 9/18/6 12/19/6 10/20/6
f 7/21/7 9/22/7 3/23/7
f 4/14/8 9/24/8 10/25/8
f 8/26/9 11/27/9 7/7/9
f 15/28/10 14/16/10 16/29/10
f 1/30/11 15/31/11 5/32/11
f 1/33/12 14/34/12 13/35/12
f 5/36/13 16/37/13 6/38/13
f 21/39/8 23/40/8 19/41/8
f 18/42/14 21/43/14 17/44/14
f 3/45/15 20/46/15 7/47/15
f 3/13/16 21/48/16 19/49/16
f 7/7/17 22/50/17 18/51/17
f 24/52/18 30/53/18 26/54/18
f 20/55/18 26/54/18 22/56/18
f 19/57/19 24/58/19 20/59/19
f 22/60/20 25/61/20 21/62/20
f 30/63/21 33/64/21 36/65/21
f 23/66/22 28/67/22 24/58/22
f 26/68/23 29/69/23 25/61/23
f 25/70/8 27/71/8 23/40/8
f 34/72/24 31/73/24 33/74/24
f 29/75/25 35/76/25 27/77/25
f 30/78/26 32/79/26 34/80/26
f 27/81/27 31/82/27 32/83/27
f 40/84/28 41/85/28 44/86/28
f 36/87/2 39/88/2 35/89/2
f 35/90/29 38/91/29 31/82/29
f 33/64/30 40/92/30 36/65/30
f 31/73/1 37/93/1 33/74/1
f 41/94/31 48/95/31 44/96/31
f 38/97/32 41/98/32 37/99/32
f 40/84/33 43/100/33 39/101/33
f 38/97/34 43/102/34 42/103/34
f 43/100/35 48/104/35 47/105/35
f 43/106/36 46/107/36 42/108/36
f 46/107/37 50/109/37 42/108/37
f 45/110/38 49/111/38 41/112/38
f 41/113/39 50/114/39 42/115/39
f 49/116/40 52/117/40 50/118/40
f 69/2/1 57/1/1 53/3/1
f 64/5/2 56/4/2 60/6/2
f 58/9/41 70/51/41 59/7/41
f 60/6/2 54/10/2 58/11/2
f 56/14/42 69/119/42 53/12/42
f 66/16/5 58/15/5 54/17/5
f 64/19/6 61/18/6 62/20/6
f 61/22/7 59/21/7 55/23/7
f 56/14/9 61/24/9 55/13/9
f 63/27/43 60/26/43 59/7/43
f 66/16/10 67/28/10 68/29/10
f 67/31/11 53/30/11 57/32/11
f 53/33/13 66/34/13 54/120/13
f 68/37/44 57/36/44 58/38/44
f 75/40/18 73/39/18 71/41/18
f 73/43/14 70/42/14 69/44/14
f 72/46/15 55/45/15 59/47/15
f 55/13/17 73/48/17 69/119/17
f 74/50/16 59/7/16 70/51/16
f 82/53/8 76/52/8 78/54/8
f 78/54/8 72/55/8 74/56/8
f 76/58/19 71/57/19 72/59/19
f 77/61/20 74/60/20 73/62/20
f 88/65/45 86/121/45 82/63/45
f 80/67/22 75/66/22 76/58/22
f 81/69/23 78/68/23 77/61/23
f 79/71/18 77/70/18 75/40/18
f 83/73/46 86/72/46 85/74/46
f 87/76/47 81/75/47 79/77/47
f 82/78/48 84/79/48 80/122/48
f 84/83/49 87/90/49 79/81/49
f 92/84/50 93/85/50 89/123/50
f 91/88/2 88/87/2 87/89/2
f 90/91/29 87/90/29 83/82/29
f 92/92/30 85/64/30 88/65/30
f 89/93/1 83/73/1 85/74/1
f 48/95/51 93/94/51 96/96/51
f 93/98/52 90/97/52 89/99/52
f 95/100/53 92/84/53 91/101/53
f 90/97/54 95/102/54 91/124/54
f 95/100/55 48/104/55 96/86/55
f 46/107/56 95/106/56 94/108/56
f 98/109/57 46/107/57 94/108/57
f 97/111/58 45/110/58 93/112/58
f 98/114/59 93/113/59 94/115/59
f 52/117/60 97/116/60 98/118/60
f 5/1/1 18/125/1 17/2/1
f 4/4/2 10/126/2 12/5/2
f 6/9/61 8/26/61 7/7/61
f 7/7/1 18/51/1 5/8/1
f 2/10/2 4/4/2 8/6/2
f 4/14/8 2/127/8 1/12/8
f 1/12/1 17/119/1 3/13/1
f 6/15/5 16/29/5 14/16/5
f 9/18/6 11/128/6 12/19/6
f 7/21/7 11/129/7 9/22/7
f 4/14/43 3/13/43 9/24/43
f 8/26/18 12/130/18 11/27/18
f 15/28/10 13/131/10 14/16/10
f 1/30/11 13/132/11 15/31/11
f 1/33/44 2/120/44 14/34/44
f 5/36/62 15/133/62 16/37/62
f 21/39/8 25/70/8 23/40/8
f 18/42/14 22/134/14 21/43/14
f 3/45/15 19/135/15 20/46/15
f 3/13/16 17/119/16 21/48/16
f 7/7/17 20/136/17 22/50/17
f 24/52/18 28/137/18 30/53/18
f 20/55/18 24/52/18 26/54/18
f 19/57/19 23/66/19 24/58/19
f 22/60/20 26/68/20 25/61/20
f 36/65/63 29/138/63 30/63/63
f 30/63/64 34/121/64 33/64/64
f 23/66/22 27/139/22 28/67/22
f 26/68/23 30/140/23 29/69/23
f 25/70/8 29/141/8 27/71/8
f 34/72/24 32/142/24 31/73/24
f 29/75/25 36/143/25 35/76/25
f 30/78/26 28/122/26 32/79/26
f 32/83/65 28/144/65 27/81/65
f 27/81/66 35/90/66 31/82/66
f 40/84/67 37/123/67 41/85/67
f 36/87/2 40/145/2 39/88/2
f 35/90/29 39/146/29 38/91/29
f 33/64/30 37/147/30 40/92/30
f 31/73/1 38/148/1 37/93/1
f 41/94/68 45/149/68 48/95/68
f 38/97/32 42/103/32 41/98/32
f 40/84/33 44/86/33 43/100/33
f 38/97/69 39/124/69 43/102/69
f 43/100/35 44/86/35 48/104/35
f 43/106/70 47/150/70 46/107/70
f 46/107/71 52/151/71 50/109/71
f 45/110/72 51/152/72 49/111/72
f 41/113/39 49/153/39 50/114/39
f 49/116/40 51/154/40 52/117/40
f 69/2/1 70/125/1 57/1/1
f 64/5/2 62/126/2 56/4/2
f 59/7/41 60/26/41 58/9/41
f 58/9/73 57/8/73 70/51/73
f 60/6/2 56/4/2 54/10/2
f 53/12/18 54/127/18 56/14/18
f 56/14/61 55/13/61 69/119/61
f 66/16/5 68/29/5 58/15/5
f 64/19/6 63/128/6 61/18/6
f 61/22/7 63/129/7 59/21/7
f 56/14/18 62/25/18 61/24/18
f 63/27/8 64/130/8 60/26/8
f 66/16/10 65/131/10 67/28/10
f 67/31/11 65/132/11 53/30/11
f 53/33/62 65/35/62 66/34/62
f 68/37/12 67/133/12 57/36/12
f 75/40/18 77/70/18 73/39/18
f 73/43/14 74/134/14 70/42/14
f 72/46/15 71/135/15 55/45/15
f 55/13/17 71/49/17 73/48/17
f 74/50/16 72/136/16 59/7/16
f 82/53/8 80/137/8 76/52/8
f 78/54/8 76/52/8 72/55/8
f 76/58/19 75/66/19 71/57/19
f 77/61/20 78/68/20 74/60/20
f 82/63/63 81/138/63 88/65/63
f 88/65/74 85/64/74 86/121/74
f 80/67/22 79/139/22 75/66/22
f 81/69/23 82/140/23 78/68/23
f 79/71/18 81/141/18 77/70/18
f 83/73/46 84/142/46 86/72/46
f 87/76/47 88/143/47 81/75/47
f 82/78/48 86/80/48 84/79/48
f 79/81/65 80/144/65 84/83/65
f 84/83/75 83/82/75 87/90/75
f 92/84/76 96/86/76 93/85/76
f 91/88/2 92/145/2 88/87/2
f 90/91/29 91/146/29 87/90/29
f 92/92/30 89/147/30 85/64/30
f 89/93/1 90/148/1 83/73/1
f 48/95/77 45/149/77 93/94/77
f 93/98/52 94/103/52 90/97/52
f 95/100/53 96/86/53 92/84/53
f 90/97/78 94/103/78 95/102/78
f 95/100/55 47/105/55 48/104/55
f 46/107/79 47/150/79 95/106/79
f 98/109/80 52/151/80 46/107/80
f 97/111/81 51/152/81 45/110/81
f 98/114/59 97/153/59 93/113/59
f 52/117/60 51/154/60 97/116/60
