# Blender 4.5.4 LTS
# www.blender.org
mtllib legs3.mtl
o MechLegs3
v 0.969512 -1.127292 1.030726
v 0.969512 -1.127292 0.041419
v 0.969512 1.290941 1.030726
v 0.969512 1.290941 0.041419
v 2.538627 -1.127292 1.030726
v 2.538627 -1.127292 0.041419
v 2.538627 1.290941 1.030726
v 2.538627 1.290941 0.041419
v 1.153635 2.841062 0.584717
v 1.153635 2.841062 0.041419
v 2.354504 2.841062 0.584717
v 2.354504 2.841062 0.041419
v 1.272949 -1.718500 0.327551
v 1.272949 -1.718500 0.041419
v 2.235191 -1.718500 0.327551
v 2.235191 -1.718500 0.041419
v 0.969512 -0.868208 1.030726
v 2.538627 -0.868208 1.030726
v 1.168872 1.286015 3.005486
v 2.339267 1.286015 3.005486
v 1.168872 -0.324484 3.005486
v 2.339267 -0.324484 3.005486
v 1.168872 1.398698 3.492967
v 2.339267 1.398698 3.492967
v 1.168872 -0.437168 3.492967
v 2.339267 -0.437168 3.492967
v 1.168872 1.306799 3.960492
v 2.339267 1.306799 3.960492
v 1.168872 -0.345268 3.960492
v 2.339267 -0.345268 3.960492
v 1.168872 1.409608 5.585279
v 2.763497 1.409608 5.506006
v 1.168872 -0.635349 5.585279
v 2.763497 -0.635349 5.506006
v 1.168872 1.242205 4.197339
v 1.168872 -0.409863 4.197339
v 0.856754 -0.438904 5.506006
v 0.856754 1.213163 5.506006
v 0.856754 1.242205 4.537064
v 0.856754 -0.409863 4.537064
v 0.724539 0.042571 5.351305
v 0.724539 0.748323 5.351305
v 0.724539 0.760729 4.691765
v 0.724539 0.054977 4.691765
v 0.000000 -0.226187 5.487335
v 0.000000 1.007795 5.487335
v 0.000000 1.029487 4.555735
v 0.000000 -0.204495 4.555735
v 0.953068 -0.049202 5.817955
v 0.953068 0.843777 5.817955
v 0.000000 -0.173678 5.831361
v 0.000000 0.951605 5.831361
v 2.339267 -0.593521 1.147946
v 1.168872 -0.593521 1.147946
v 1.168872 1.218331 1.147946
v 2.339267 1.218331 1.147946
v 2.439267 1.286015 3.005486
v 2.439267 -0.324484 3.005486
v 2.439267 1.398698 3.492967
v 2.439267 -0.437168 3.492967
v 2.439267 1.306799 3.960492
v 2.439267 -0.345268 3.960492
v 1.068872 -0.324484 3.005486
v 1.068872 1.286015 3.005486
v 1.068872 -0.437168 3.492967
v 1.068872 1.398698 3.492967
v 1.068872 -0.345268 3.960492
v 1.068872 1.306799 3.960492
v -0.969512 -1.127292 1.030726
v -0.969512 -1.127292 0.041419
v -0.969512 1.290941 1.030726
v -0.969512 1.290941 0.041419
v -2.538627 -1.127292 1.030726
v -2.538627 -1.127292 0.041419
v -2.538627 1.290941 1.030726
v -2.538627 1.290941 0.041419
v -1.153635 2.841062 0.584717
v -1.153635 2.841062 0.041419
v -2.354504 2.841062 0.584717
v -2.354504 2.841062 0.041419
v -1.272949 -1.718500 0.327551
v -1.272949 -1.718500 0.041419
v -2.235191 -1.718500 0.327551
v -2.235191 -1.718500 0.041419
v -0.969512 -0.868208 1.030726
v -2.538627 -0.868208 1.030726
v -1.168872 1.286015 3.005486
v -2.339267 1.286015 3.005486
v -1.168872 -0.324484 3.005486
v -2.339267 -0.324484 3.005486
v -1.168872 1.398698 3.492967
v -2.339267 1.398698 3.492967
v -1.168872 -0.437168 3.492967
v -2.339267 -0.437168 3.492967
v -1.168872 1.306799 3.960492
v -2.339267 1.306799 3.960492
v -1.168872 -0.345268 3.960492
v -2.339267 -0.345268 3.960492
v -1.168872 1.409608 5.585279
v -2.763497 1.409608 5.506006
v -1.168872 -0.635349 5.585279
v -2.763497 -0.635349 5.506006
v -1.168872 1.242205 4.197339
v -1.168872 -0.409863 4.197339
v -0.856754 -0.438904 5.506006
v -0.856754 1.213163 5.506006
v -0.856754 1.242205 4.537064
v -0.856754 -0.409863 4.537064
v -0.724539 0.042571 5.351305
v -0.724539 0.748323 5.351305
v -0.724539 0.760729 4.691765
v -0.724539 0.054977 4.691765
v -0.953068 -0.049202 5.817955
v -0.953068 0.843777 5.817955
v -2.339267 -0.593521 1.147946
v -1.168872 -0.593521 1.147946
v -1.168872 1.218331 1.147946
v -2.339267 1.218331 1.147946
v -2.439267 1.286015 3.005486
v -2.439267 -0.324484 3.005486
v -2.439267 1.398698 3.492967
v -2.439267 -0.437168 3.492967
v -2.439267 1.306799 3.960492
v -2.439267 -0.345268 3.960492
v -1.068872 -0.324484 3.005486
v -1.068872 1.286015 3.005486
v -1.068872 -0.437168 3.492967
v -1.068872 1.398698 3.492967
v -1.068872 -0.345268 3.960492
v -1.068872 1.306799 3.960492
vn -0.0000 -0.0000 1.0000
vn -0.0000 -0.0000 -1.0000
vn 1.0000 -0.0000 -0.0000
vn -1.0000 -0.0000 -0.0000
vn -0.0000 1.0000 -0.0000
vn -0.0000 0.2765 0.9610
vn -0.9930 0.1180 -0.0000
vn 0.9930 0.1180 -0.0000
vn -0.0000 -1.0000 -0.0000
vn -0.0000 -0.7654 0.6435
vn -0.8897 -0.4566 -0.0000
vn 0.8897 -0.4566 -0.0000
vn -0.0000 -0.9812 0.1929
vn -0.0000 -0.9897 0.1433
vn -0.0000 0.9993 -0.0364
vn -0.0000 0.9812 0.1929
vn -0.0000 0.9743 -0.2252
vn -0.0000 -0.9743 -0.2252
vn 0.0220 -0.9868 -0.1603
vn 0.0497 -0.0000 0.9988
vn 0.9643 -0.0000 -0.2647
vn -0.0031 0.9980 -0.0631
vn -0.9623 -0.2720 -0.0051
vn -0.7364 -0.0000 -0.6766
vn -0.5371 0.8431 0.0253
vn -0.1719 -0.9724 -0.1580
vn -0.2462 -0.0000 0.9692
vn 0.3400 -0.9402 -0.0177
vn -0.7602 -0.0000 0.6497
vn -0.7602 -0.0000 -0.6497
vn -0.9623 0.2720 0.0051
vn 0.1845 -0.0000 -0.9828
vn 0.3400 0.9402 0.0177
vn 0.1054 0.9629 -0.2486
vn -0.1220 0.9609 0.2487
vn -0.8981 -0.0000 0.4398
vn -0.0141 -0.0000 -0.9999
vn 0.5069 -0.0000 0.8620
vn -0.5069 -0.0000 0.8620
vn -0.0000 0.8501 0.5266
vn -0.0000 -0.3925 0.9198
vn -0.0160 -0.9819 -0.1887
vn -0.0497 -0.0000 0.9988
vn -0.9643 -0.0000 -0.2647
vn 0.3024 0.9196 0.2508
vn 0.9636 -0.2672 -0.0080
vn 0.7364 -0.0000 -0.6766
vn 0.1292 0.9845 -0.1187
vn 0.1719 -0.9724 -0.1580
vn 0.2462 -0.0000 0.9692
vn -0.3400 -0.9402 -0.0177
vn 0.7602 -0.0000 0.6497
vn 0.7602 -0.0000 -0.6497
vn 0.9636 0.2672 0.0080
vn -0.1845 -0.0000 -0.9828
vn -0.3400 0.9402 0.0177
vn -0.3582 0.9214 0.1505
vn 0.3674 0.9194 -0.1403
vn 0.8981 -0.0000 0.4398
vn 0.0141 -0.0000 -0.9999
vn -0.0000 -0.9648 -0.2631
vn -0.0091 -0.9832 -0.1821
vn -0.0000 0.9978 -0.0664
vn -0.9636 -0.2672 -0.0080
vn -0.1292 0.9845 -0.1187
vn -0.5279 -0.8489 -0.0254
vn 0.3441 -0.9387 -0.0219
vn -0.9636 0.2672 0.0080
vn 0.3441 0.9387 0.0219
vn 0.3582 0.9214 0.1505
vn -0.3674 0.9194 -0.1403
vn 0.0080 -0.9870 -0.1604
vn 0.0060 0.9928 -0.1197
vn 0.9623 -0.2720 -0.0051
vn 0.5371 0.8431 0.0253
vn 0.5279 -0.8489 -0.0254
vn -0.3441 -0.9387 -0.0219
vn 0.9623 0.2720 0.0051
vn -0.3441 0.9387 0.0219
vn -0.1054 0.9629 -0.2486
vn 0.1220 0.9609 0.2487
vt 0.915594 0.088529
vt 0.902019 0.092285
vt 0.902019 0.088529
vt 0.035904 0.064019
vt 0.022329 0.064019
vt 0.902019 0.061378
vt 0.902019 0.071198
vt 0.888443 0.074953
vt 0.035904 0.050443
vt 0.022329 0.050443
vt 0.888443 0.102105
vt 0.049480 0.064019
vt 0.035904 0.077594
vt 0.063055 0.064019
vt 0.035904 0.023292
vt 0.049480 0.023292
vt 0.049480 0.036867
vt 0.035904 0.036867
vt 0.049480 0.050443
vt 0.063055 0.050443
vt 0.906902 0.087402
vt 0.063055 0.054199
vt 0.049480 0.054199
vt 0.049480 0.023292
vt 0.049480 0.033112
vt 0.920477 0.097222
vt 0.906902 0.097222
vt 0.920477 0.087402
vt 0.914970 0.111725
vt 0.887759 0.085100
vt 0.915083 0.084370
vt 0.951892 0.098224
vt 0.985077 0.144691
vt 0.951973 0.137044
vt 0.874827 0.016213
vt 0.874827 0.113434
vt 0.915083 0.014504
vt 0.921540 0.083391
vt 0.915083 0.111725
vt 0.915083 0.042838
vt 0.887759 0.043568
vt 0.951892 0.026590
vt 0.951892 0.099207
vt 0.985101 0.081583
vt 0.952052 0.035021
vt 0.985133 0.042766
vt 0.951892 0.014774
vt 0.985386 0.014504
vt 0.934163 0.139988
vt 0.915083 0.111861
vt 0.934163 0.111725
vt 0.867481 0.085100
vt 0.867481 0.043568
vt 0.906902 0.056495
vt 0.906902 0.066315
vt 0.914970 0.014504
vt 0.921540 0.041859
vt 0.915424 0.132106
vt 0.915594 0.092285
vt 0.888443 0.061378
vt 0.902019 0.074953
vt 0.888443 0.088529
vt 0.902019 0.102105
vt 0.049480 0.077594
vt 0.985077 0.089854
vt 0.951892 0.089853
s 0
usemtl Mech3
f 5/1/1 17/2/1 1/3/1
f 4/4/2 12/5/2 8/5/2
f 7/6/3 18/7/3 6/8/3
f 2/9/2 8/5/2 6/10/2
f 1/3/4 17/2/4 4/11/4
f 6/10/2 14/9/2 2/9/2
f 9/12/5 12/13/5 10/4/5
f 7/14/6 9/12/6 3/12/6
f 4/4/7 9/12/7 10/4/7
f 8/15/8 11/16/8 7/16/8
f 15/17/9 14/9/9 16/18/9
f 1/19/10 15/20/10 5/20/10
f 2/9/11 13/19/11 1/19/11
f 6/18/12 15/17/12 16/18/12
f 29/21/13 65/21/13 25/21/13
f 53/22/14 21/23/14 54/23/14
f 55/12/15 20/14/15 56/14/15
f 55/12/4 21/23/4 19/12/4
f 56/24/3 22/25/3 53/25/3
f 30/25/1 61/16/1 28/16/1
f 28/26/16 59/26/16 24/26/16
f 19/27/17 24/26/17 20/26/17
f 22/28/18 25/21/18 21/21/18
f 30/22/19 33/23/19 36/23/19
f 23/27/16 28/26/16 24/26/16
f 26/28/13 29/21/13 25/21/13
f 23/27/16 68/27/16 27/27/16
f 34/22/20 31/12/20 33/23/20
f 29/23/4 35/12/4 27/12/4
f 30/25/21 32/16/21 34/25/21
f 27/12/22 31/12/22 32/14/22
f 40/29/23 41/30/23 44/31/23
f 36/23/24 39/12/24 35/12/24
f 31/12/25 39/12/25 38/12/25
f 33/23/26 40/23/26 36/23/26
f 31/12/27 37/23/27 33/23/27
f 41/32/28 48/33/28 44/34/28
f 38/35/29 41/30/29 37/36/29
f 40/37/30 43/38/30 39/39/30
f 38/35/31 43/40/31 42/41/31
f 43/38/32 48/42/32 47/43/32
f 43/44/33 46/45/33 42/46/33
f 42/46/34 52/47/34 50/48/34
f 41/49/35 51/50/35 49/51/35
f 42/41/36 49/52/36 50/53/36
f 49/23/37 52/12/37 50/12/37
f 7/16/38 53/25/38 18/25/38
f 3/12/39 54/23/39 55/12/39
f 3/12/40 56/14/40 7/14/40
f 18/22/41 54/23/41 17/23/41
f 59/54/3 62/55/3 60/55/3
f 57/54/3 60/55/3 58/55/3
f 24/26/17 57/26/17 20/26/17
f 26/28/13 62/28/13 30/28/13
f 22/28/18 60/28/18 26/28/18
f 20/16/2 58/25/2 22/25/2
f 63/21/4 66/27/4 64/27/4
f 65/21/4 68/27/4 66/27/4
f 21/23/2 64/12/2 19/12/2
f 25/21/18 63/21/18 21/21/18
f 27/12/1 67/23/1 29/23/1
f 19/27/17 66/27/17 23/27/17
f 85/2/1 73/1/1 69/3/1
f 80/5/2 72/4/2 76/5/2
f 74/8/4 86/7/4 75/6/4
f 76/5/2 70/9/2 74/10/2
f 72/11/3 85/2/3 69/3/3
f 82/9/2 74/10/2 70/9/2
f 80/13/5 77/12/5 78/4/5
f 77/12/6 75/14/6 71/12/6
f 72/4/8 77/12/8 71/12/8
f 79/16/7 76/15/7 75/16/7
f 82/9/9 83/17/9 84/18/9
f 83/20/10 69/19/10 73/20/10
f 81/19/12 70/9/12 69/19/12
f 74/18/11 83/17/11 73/17/11
f 127/21/13 97/21/13 93/21/13
f 89/23/14 115/22/14 116/23/14
f 88/14/15 117/12/15 118/14/15
f 117/12/3 89/23/3 116/23/3
f 90/25/4 118/24/4 115/25/4
f 123/16/1 98/25/1 96/16/1
f 121/26/16 96/26/16 92/26/16
f 92/26/17 87/27/17 88/26/17
f 93/21/18 90/28/18 89/21/18
f 104/23/42 102/22/42 98/22/42
f 96/26/16 91/27/16 92/26/16
f 97/21/13 94/28/13 93/21/13
f 130/27/16 91/27/16 95/27/16
f 99/12/43 102/22/43 101/23/43
f 103/12/3 97/23/3 95/12/3
f 98/25/44 100/16/44 96/16/44
f 100/14/45 103/12/45 95/12/45
f 108/29/46 109/30/46 105/36/46
f 107/12/47 104/23/47 103/12/47
f 99/12/48 107/12/48 103/12/48
f 108/23/49 101/23/49 104/23/49
f 105/23/50 99/12/50 101/23/50
f 48/33/51 109/32/51 112/34/51
f 109/30/52 106/35/52 105/36/52
f 111/38/53 108/37/53 107/39/53
f 106/35/54 111/40/54 107/56/54
f 111/38/55 48/42/55 112/57/55
f 46/45/56 111/44/56 110/46/56
f 110/46/57 52/47/57 46/45/57
f 109/49/58 51/50/58 45/58/58
f 110/41/59 113/52/59 109/30/59
f 52/12/60 113/23/60 114/12/60
f 115/25/39 75/16/39 86/25/39
f 71/12/38 116/23/38 85/23/38
f 118/14/40 71/12/40 75/14/40
f 116/23/41 86/22/41 85/23/41
f 124/55/4 121/54/4 122/55/4
f 122/55/4 119/54/4 120/55/4
f 119/26/17 92/26/17 88/26/17
f 124/28/13 94/28/13 98/28/13
f 122/28/18 90/28/18 94/28/18
f 120/25/2 88/16/2 90/25/2
f 128/27/3 125/21/3 126/27/3
f 130/27/3 127/21/3 128/27/3
f 126/12/2 89/23/2 87/12/2
f 125/21/18 93/21/18 89/21/18
f 129/23/1 95/12/1 97/23/1
f 128/27/17 87/27/17 91/27/17
f 5/1/1 18/59/1 17/2/1
f 4/4/2 10/4/2 12/5/2
f 6/8/3 8/60/3 7/6/3
f 18/7/3 5/61/3 6/8/3
f 2/9/2 4/4/2 8/5/2
f 4/11/4 2/62/4 1/3/4
f 17/2/4 3/63/4 4/11/4
f 6/10/2 16/10/2 14/9/2
f 9/12/5 11/64/5 12/13/5
f 7/14/6 11/14/6 9/12/6
f 4/4/7 3/12/7 9/12/7
f 8/15/8 12/15/8 11/16/8
f 15/17/9 13/19/9 14/9/9
f 1/19/10 13/19/10 15/20/10
f 2/9/11 14/9/11 13/19/11
f 6/18/12 5/17/12 15/17/12
f 29/21/13 67/21/13 65/21/13
f 53/22/14 22/22/14 21/23/14
f 55/12/15 19/12/15 20/14/15
f 55/12/4 54/23/4 21/23/4
f 56/24/3 20/16/3 22/25/3
f 30/25/1 62/25/1 61/16/1
f 28/26/16 61/26/16 59/26/16
f 19/27/17 23/27/17 24/26/17
f 22/28/18 26/28/18 25/21/18
f 36/23/61 29/23/61 30/22/61
f 30/22/62 34/22/62 33/23/62
f 23/27/16 27/27/16 28/26/16
f 26/28/13 30/28/13 29/21/13
f 23/27/16 66/27/16 68/27/16
f 34/22/20 32/14/20 31/12/20
f 29/23/4 36/23/4 35/12/4
f 30/25/21 28/16/21 32/16/21
f 32/14/63 28/14/63 27/12/63
f 27/12/4 35/12/4 31/12/4
f 40/29/64 37/36/64 41/30/64
f 36/23/24 40/23/24 39/12/24
f 31/12/65 35/12/65 39/12/65
f 33/23/66 37/23/66 40/23/66
f 31/12/27 38/12/27 37/23/27
f 41/32/67 45/65/67 48/33/67
f 38/35/29 42/41/29 41/30/29
f 40/37/30 44/57/30 43/38/30
f 38/35/68 39/56/68 43/40/68
f 43/38/32 44/57/32 48/42/32
f 43/44/69 47/66/69 46/45/69
f 42/46/70 46/45/70 52/47/70
f 41/49/71 45/58/71 51/50/71
f 42/41/36 41/30/36 49/52/36
f 49/23/37 51/23/37 52/12/37
f 7/16/38 56/24/38 53/25/38
f 3/12/39 17/23/39 54/23/39
f 3/12/40 55/12/40 56/14/40
f 18/22/41 53/22/41 54/23/41
f 59/54/3 61/54/3 62/55/3
f 57/54/3 59/54/3 60/55/3
f 24/26/17 59/26/17 57/26/17
f 26/28/13 60/28/13 62/28/13
f 22/28/18 58/28/18 60/28/18
f 20/16/2 57/16/2 58/25/2
f 63/21/4 65/21/4 66/27/4
f 65/21/4 67/21/4 68/27/4
f 21/23/2 63/23/2 64/12/2
f 25/21/18 65/21/18 63/21/18
f 27/12/1 68/12/1 67/23/1
f 19/27/17 64/27/17 66/27/17
f 85/2/1 86/59/1 73/1/1
f 80/5/2 78/4/2 72/4/2
f 75/6/4 76/60/4 74/8/4
f 74/8/4 73/61/4 86/7/4
f 76/5/2 72/4/2 70/9/2
f 69/3/3 70/62/3 72/11/3
f 72/11/3 71/63/3 85/2/3
f 82/9/2 84/10/2 74/10/2
f 80/13/5 79/64/5 77/12/5
f 77/12/6 79/14/6 75/14/6
f 72/4/8 78/4/8 77/12/8
f 79/16/7 80/15/7 76/15/7
f 82/9/9 81/19/9 83/17/9
f 83/20/10 81/19/10 69/19/10
f 81/19/12 82/9/12 70/9/12
f 74/18/11 84/18/11 83/17/11
f 127/21/13 129/21/13 97/21/13
f 89/23/14 90/22/14 115/22/14
f 88/14/15 87/12/15 117/12/15
f 117/12/3 87/12/3 89/23/3
f 90/25/4 88/16/4 118/24/4
f 123/16/1 124/25/1 98/25/1
f 121/26/16 123/26/16 96/26/16
f 92/26/17 91/27/17 87/27/17
f 93/21/18 94/28/18 90/28/18
f 98/22/61 97/23/61 104/23/61
f 104/23/72 101/23/72 102/22/72
f 96/26/16 95/27/16 91/27/16
f 97/21/13 98/28/13 94/28/13
f 130/27/16 128/27/16 91/27/16
f 99/12/43 100/14/43 102/22/43
f 103/12/3 104/23/3 97/23/3
f 98/25/44 102/25/44 100/16/44
f 95/12/63 96/14/63 100/14/63
f 100/14/73 99/12/73 103/12/73
f 108/29/74 112/31/74 109/30/74
f 107/12/47 108/23/47 104/23/47
f 99/12/75 106/12/75 107/12/75
f 108/23/76 105/23/76 101/23/76
f 105/23/50 106/12/50 99/12/50
f 48/33/77 45/65/77 109/32/77
f 109/30/52 110/41/52 106/35/52
f 111/38/53 112/57/53 108/37/53
f 106/35/78 110/41/78 111/40/78
f 111/38/55 47/43/55 48/42/55
f 46/45/79 47/66/79 111/44/79
f 110/46/80 114/48/80 52/47/80
f 109/49/81 113/51/81 51/50/81
f 110/41/59 114/53/59 113/52/59
f 52/12/60 51/23/60 113/23/60
f 115/25/39 118/24/39 75/16/39
f 71/12/38 117/12/38 116/23/38
f 118/14/40 117/12/40 71/12/40
f 116/23/41 115/22/41 86/22/41
f 124/55/4 123/54/4 121/54/4
f 122/55/4 121/54/4 119/54/4
f 119/26/17 121/26/17 92/26/17
f 124/28/13 122/28/13 94/28/13
f 122/28/18 120/28/18 90/28/18
f 120/25/2 119/16/2 88/16/2
f 128/27/3 127/21/3 125/21/3
f 130/27/3 129/21/3 127/21/3
f 126/12/2 125/23/2 89/23/2
f 125/21/18 127/21/18 93/21/18
f 129/23/1 130/12/1 95/12/1
f 128/27/17 126/27/17 87/27/17
