# Blender 4.5.3 LTS
# www.blender.org
mtllib enemy3.mtl
o Body
v -0.500000 -0.500000 0.707107
v -0.707107 -0.707107 0.000000
v -0.500000 -0.500000 -0.707107
v -0.707107 0.000000 0.707107
v -1.000000 0.000000 0.000000
v -0.707107 0.000000 -0.707107
v -0.500000 0.500000 0.707107
v -0.707107 0.707107 0.000000
v -0.500000 0.500000 -0.707107
v 0.000000 0.707107 0.707107
v 0.000000 1.000000 0.000000
v 0.000000 0.707107 -0.707107
v 0.500000 0.500000 0.707107
v 0.707107 0.707107 0.000000
v 0.500000 0.500000 -0.707107
v 0.000000 0.000000 -1.000000
v 0.707107 0.000000 0.707107
v 1.000000 0.000000 0.000000
v 0.707107 0.000000 -0.707107
v 0.500000 -0.500000 0.707107
v 0.707107 -0.707107 0.000000
v 0.500000 -0.500000 -0.707107
v 0.000000 -0.707107 0.707107
v 0.000000 -1.000000 0.000000
v 0.000000 -0.707107 -0.707107
v -1.589017 -0.200000 0.983492
v 1.589017 -0.200000 0.983492
v -1.574699 0.200000 0.974036
v 1.574699 0.200000 0.974036
v -1.810187 0.000000 0.964579
v 1.810187 0.000000 0.964579
v -0.250000 0.603553 -0.707107
v -0.353553 0.853553 0.000000
v 0.250000 0.603553 -0.707107
v 0.353553 0.853553 0.000000
v 0.000000 0.853553 -0.523513
v 0.301777 0.728553 -0.523513
v -0.301777 0.728553 -0.523513
v 0.002199 1.542370 -0.710747
v -0.123515 1.543503 -0.697769
v 0.127913 1.543503 -0.697769
v 0.002199 1.616012 -0.592469
v 0.153950 1.606360 -0.605447
v -0.149551 1.606360 -0.605447
vn -0.3574 -0.8629 -0.3574
vn -0.1566 -0.3780 -0.9125
vn -0.3574 -0.8629 0.3574
vn -0.8629 -0.3574 -0.3574
vn -0.3780 -0.1566 -0.9125
vn -0.8629 -0.3574 0.3574
vn -0.8629 0.3574 -0.3574
vn -0.3780 0.1566 -0.9125
vn -0.8629 0.3574 0.3574
vn -0.1566 0.3780 -0.9125
vn -0.3574 0.8629 0.3574
vn 0.1566 0.3780 -0.9125
vn 0.3574 0.8629 0.3574
vn 0.8629 0.3574 -0.3574
vn 0.3780 0.1566 -0.9125
vn 0.8629 0.3574 0.3574
vn 0.8629 -0.3574 0.3574
vn 0.8629 -0.3574 -0.3574
vn -0.0000 -0.0000 1.0000
vn 0.3780 -0.1566 -0.9125
vn 0.1566 -0.3780 -0.9125
vn 0.3574 -0.8629 0.3574
vn 0.3574 -0.8629 -0.3574
vn 0.5602 -0.6818 0.4705
vn 0.5670 0.6721 0.4763
vn 0.0620 -0.0258 -0.9977
vn -0.8594 0.0187 -0.5109
vn -0.0620 -0.0258 -0.9977
vn -0.5602 -0.6818 0.4705
vn 0.8594 0.0187 -0.5109
vn -0.5670 0.6721 0.4763
vn 0.3705 0.8945 -0.2502
vn 0.7032 0.4796 -0.5248
vn -0.3705 0.8945 -0.2502
vn -0.6305 0.7386 -0.2387
vn -0.0414 0.1000 0.9941
vn -0.1027 -0.0041 -0.9947
vn 0.0043 0.8260 -0.5636
vn -0.0469 0.8480 -0.5280
vn 0.9297 0.1242 -0.3468
vn -0.9282 0.1284 -0.3492
vn 0.0043 0.0105 -0.9999
vn 0.0905 0.0894 0.9919
vn 0.3574 0.8629 -0.3574
vn -0.3081 0.7437 -0.5933
vn -0.3574 0.8629 -0.3574
vn -0.0905 0.0900 0.9918
vn -0.0044 0.0105 -0.9999
vn 0.0469 0.8480 -0.5280
vn -0.0043 0.8260 -0.5636
vn 0.1027 -0.0046 -0.9947
vn 0.0413 0.0998 0.9942
vt 0.304803 0.237363
vt 0.256894 0.141544
vt 0.304803 0.141544
vt 0.280848 0.045725
vt 0.256894 0.333181
vt 0.256894 0.237363
vt 0.208984 0.141544
vt 0.232939 0.045725
vt 0.208984 0.237363
vt 0.161075 0.165498
vt 0.161075 0.141544
vt 0.185030 0.045725
vt 0.208984 0.333181
vt 0.161075 0.237363
vt 0.137120 0.045725
vt 0.137120 0.141544
vt 0.113166 0.141544
vt 0.970703 0.986328
vt 0.845703 0.736328
vt 0.908203 0.736328
vt 0.089211 0.045725
vt 0.089211 0.141544
vt 0.065256 0.141544
vt 0.845703 0.986328
vt 0.720703 0.736328
vt 0.783203 0.736328
vt 0.065256 0.237363
vt 0.017347 0.141544
vt 0.041301 0.045725
vt 0.065256 0.333181
vt 0.017347 0.237363
vt 0.400622 0.333181
vt 0.352713 0.237363
vt 0.400622 0.237363
vt 0.352713 0.141544
vt 0.400622 0.141544
vt 0.352713 0.333181
vt 0.161075 0.333181
vt 0.376667 0.045725
vt 0.328758 0.045725
vt 0.017347 0.045725
vt 0.089211 0.237363
vt 0.113166 0.237363
vt 0.137120 0.237363
vt 0.626069 0.068484
vt 0.585038 0.276229
vt 0.543273 0.034350
vt 0.777454 0.283893
vt 0.743566 0.054409
vt 0.778057 0.054740
vt 0.812548 0.054409
vt 0.778056 0.034350
vt 0.819690 0.037018
vt 0.952820 0.278169
vt 0.899458 0.050780
vt 0.926292 0.034350
vt 0.846043 0.278370
vt 0.899458 0.050737
vt 0.899458 0.310958
vt 0.846043 0.312303
vt 0.668306 0.276229
vt 0.626672 0.278520
vt 0.304803 0.333181
vt 0.970703 0.736328
vt 0.720703 0.986328
vt 0.017347 0.333181
vt 0.113166 0.333181
vt 0.708864 0.312303
vt 0.736422 0.037018
vt 0.899458 0.310843
vt 0.872598 0.034350
vt 0.708864 0.034350
s 0
usemtl Material
f 24/1/1 3/2/1 25/3/1
f 16/4/2 25/3/2 3/2/2
f 24/1/3 1/5/3 2/6/3
f 2/6/4 6/7/4 3/2/4
f 16/8/5 3/2/5 6/7/5
f 1/5/6 5/9/6 2/6/6
f 6/7/7 8/10/7 9/11/7
f 16/12/8 6/7/8 9/11/8
f 4/13/9 8/14/9 5/9/9
f 16/15/10 32/16/10 12/17/10
f 7/18/11 11/19/11 33/20/11
f 16/21/12 34/22/12 15/23/12
f 10/24/13 14/25/13 35/26/13
f 14/27/14 19/28/14 15/23/14
f 16/29/15 15/23/15 19/28/15
f 13/30/16 18/31/16 14/27/16
f 17/32/17 21/33/17 18/34/17
f 18/34/18 22/35/18 19/36/18
f 20/37/19 13/30/19 7/38/19
f 16/39/20 19/36/20 22/35/20
f 16/40/21 22/35/21 25/3/21
f 20/37/22 24/1/22 21/33/22
f 21/33/23 25/3/23 22/35/23
f 28/41/24 30/41/24 5/41/24
f 26/41/25 5/41/25 30/41/25
f 30/41/26 28/41/26 26/41/26
f 26/41/27 28/41/27 5/41/27
f 27/41/28 29/41/28 31/41/28
f 29/41/29 18/41/29 31/41/29
f 27/41/30 18/41/30 29/41/30
f 27/41/31 31/41/31 18/41/31
f 35/42/32 36/41/32 11/43/32
f 14/27/33 34/22/33 37/41/33
f 33/44/34 36/41/34 38/41/34
f 9/11/35 33/44/35 38/41/35
f 36/45/36 44/46/36 38/47/36
f 12/48/37 40/49/37 39/50/37
f 41/51/38 42/52/38 43/53/38
f 40/49/39 42/52/39 39/50/39
f 37/54/40 41/55/40 43/56/40
f 38/57/41 40/58/41 32/59/41
f 12/48/42 41/51/42 34/60/42
f 36/45/43 43/61/43 42/62/43
f 24/1/1 2/6/1 3/2/1
f 24/1/3 23/63/3 1/5/3
f 2/6/4 5/9/4 6/7/4
f 1/5/6 4/13/6 5/9/6
f 6/7/7 5/9/7 8/10/7
f 4/13/9 7/38/9 8/14/9
f 16/15/10 9/11/10 32/16/10
f 33/20/11 8/64/11 7/18/11
f 7/18/11 10/24/11 11/19/11
f 16/21/12 12/17/12 34/22/12
f 35/26/13 11/19/13 10/24/13
f 10/24/13 13/65/13 14/25/13
f 14/27/14 18/31/14 19/28/14
f 13/30/16 17/66/16 18/31/16
f 17/32/17 20/37/17 21/33/17
f 18/34/18 21/33/18 22/35/18
f 7/38/19 4/13/19 1/5/19
f 1/5/19 23/63/19 20/37/19
f 20/37/19 17/66/19 13/30/19
f 13/30/19 10/67/19 7/38/19
f 7/38/19 1/5/19 20/37/19
f 20/37/22 23/63/22 24/1/22
f 21/33/23 24/1/23 25/3/23
f 35/42/32 37/41/32 36/41/32
f 37/41/32 35/42/32 14/27/32
f 14/27/44 15/23/44 34/22/44
f 33/44/34 11/43/34 36/41/34
f 38/41/45 32/16/45 9/11/45
f 9/11/46 8/14/46 33/44/46
f 36/45/47 42/62/47 44/46/47
f 12/48/48 32/68/48 40/49/48
f 41/51/49 39/50/49 42/52/49
f 40/49/50 44/69/50 42/52/50
f 37/54/40 34/70/40 41/55/40
f 38/57/41 44/71/41 40/58/41
f 12/48/51 39/50/51 41/51/51
f 36/45/52 37/72/52 43/61/52
o Blades
v 1.622241 -1.000000 0.982605
v 2.120704 -0.866025 0.943420
v 2.485603 -0.500000 0.914734
v 2.619166 -0.000000 0.904235
v 2.485603 0.500000 0.914734
v 2.120704 0.866025 0.943420
v 1.622241 1.000000 0.982605
v 1.123779 0.866025 1.021791
v 0.758880 0.500000 1.050477
v 0.625317 0.000000 1.060976
v 0.758880 -0.500000 1.050477
v 1.123779 -0.866025 1.021791
v -1.622241 -1.000000 0.982605
v -2.120704 -0.866025 0.943420
v -2.485603 -0.500000 0.914734
v -2.619166 -0.000000 0.904235
v -2.485603 0.500000 0.914734
v -2.120704 0.866025 0.943420
v -1.622241 1.000000 0.982605
v -1.123779 0.866025 1.021791
v -0.758880 0.500000 1.050477
v -0.625317 0.000000 1.060976
v -0.758880 -0.500000 1.050477
v -1.123779 -0.866025 1.021791
vn 0.0784 -0.0000 0.9969
vn -0.0784 -0.0000 0.9969
vt 0.505339 0.694600
vt 0.436780 0.438733
vt 0.692647 0.507292
vt 0.584505 0.399150
vt 0.397197 0.586458
vt 0.653064 0.655017
vt 0.692647 0.586458
vt 0.584505 0.694600
vt 0.436780 0.655017
vt 0.397197 0.507292
vt 0.505339 0.399150
vt 0.653064 0.438733
s 0
usemtl Material
f 49/73/53 53/74/53 45/75/53
f 67/76/54 63/77/54 59/78/54
f 45/75/53 46/79/53 47/78/53
f 47/78/53 48/80/53 49/73/53
f 49/73/53 50/81/53 51/77/53
f 51/77/53 52/82/53 53/74/53
f 53/74/53 54/83/53 55/76/53
f 55/76/53 56/84/53 45/75/53
f 45/75/53 47/78/53 49/73/53
f 49/73/53 51/77/53 53/74/53
f 53/74/53 55/76/53 45/75/53
f 59/78/54 58/79/54 57/75/54
f 57/75/54 68/84/54 67/76/54
f 67/76/54 66/83/54 65/74/54
f 65/74/54 64/82/54 63/77/54
f 63/77/54 62/81/54 61/73/54
f 61/73/54 60/80/54 59/78/54
f 59/78/54 57/75/54 67/76/54
f 67/76/54 65/74/54 63/77/54
f 63/77/54 61/73/54 59/78/54
