# Blender 4.5.3 LTS
# www.blender.org
mtllib enemy2.mtl
o Cube
v -2.027996 -2.794881 1.599360
v -2.027996 -2.794881 0.912232
v -2.027996 2.872229 1.599360
v -2.027996 2.872229 0.912232
v 2.027996 -2.794881 1.599360
v 2.027996 -2.794881 0.912232
v 2.027996 2.872229 1.599360
v 2.027996 2.872229 0.912232
v -1.715194 -2.435341 2.325547
v -1.715194 2.512689 2.325547
v 1.715194 -2.435341 2.325547
v 1.715194 2.512689 2.325547
v -0.000000 2.872229 1.599360
v -0.000000 2.512689 2.325547
v -0.000000 2.643533 2.243203
v -0.000000 2.841620 1.800603
v 0.341980 2.742576 2.021904
v -0.341980 2.742576 2.021904
v -0.356268 2.841620 1.800603
v 0.356268 2.841620 1.800603
v 0.327691 2.643533 2.243203
v -0.327691 2.643533 2.243203
v -0.000000 6.094876 3.256609
v -0.000000 5.995832 3.477910
v -0.341980 5.995832 3.477910
v -0.000000 5.896789 3.699210
v 0.341980 5.995832 3.477910
v -0.356268 6.094876 3.256609
v 0.356268 6.094876 3.256609
v 0.327691 5.896789 3.699210
v -0.327691 5.896789 3.699210
v -0.000000 2.872229 0.912232
v -0.000000 -2.794881 0.912232
v 1.013998 -2.794881 0.912232
v -1.013998 -2.794881 0.912232
v 1.013998 2.872229 0.912232
v -1.013998 2.872229 0.912232
v 2.027996 -2.794881 0.013471
v 2.027996 2.872229 0.013471
v 1.013998 -2.794881 0.013471
v -1.013998 2.872229 0.013471
v -2.027996 2.872229 0.013471
v -2.027996 -2.794881 0.013471
v -1.013998 -2.794881 0.013471
v 1.013998 2.872229 0.013471
v 2.027996 3.519347 0.462852
v 1.013998 3.519347 0.462852
v -1.013998 3.519347 0.462852
v -2.027996 3.519347 0.462852
v -2.027996 -3.441999 0.462852
v -1.013998 -3.441999 0.462852
v 1.013998 -3.441999 0.462852
v 2.027996 -3.441999 0.462852
vn -0.0000 -0.8962 0.4437
vn -0.0000 1.0000 -0.0000
vn 1.0000 -0.0000 -0.0000
vn -0.0000 0.5704 0.8214
vn -1.0000 -0.0000 -0.0000
vn -0.0000 -1.0000 -0.0000
vn -0.0000 -0.0000 1.0000
vn 0.9184 -0.0000 0.3956
vn -0.9184 -0.0000 0.3956
vn -0.0000 0.5326 0.8463
vn -0.0000 0.4085 -0.9128
vn 0.9983 -0.0240 0.0537
vn -0.0000 0.9886 0.1504
vn -0.4000 0.6900 -0.6033
vn -0.9983 -0.0240 0.0537
vn -0.0000 -0.4085 0.9128
vn -0.0000 0.9128 0.4085
vn 0.0614 0.9096 0.4110
vn -0.0000 -0.0000 -1.0000
vn -0.0000 0.5704 -0.8214
vn -0.0000 -0.5704 0.8214
vn -0.0000 -0.5704 -0.8214
vn -0.0614 0.9096 0.4110
vn -0.0000 0.8962 0.4437
vn 0.4000 0.6900 -0.6033
vt 0.099609 0.092986
vt 0.099609 0.113281
vt 0.099609 0.148798
vt 0.079314 0.148798
vt 0.079314 0.143724
vt 0.099609 0.072690
vt 0.079314 0.092986
vt 0.079314 0.072690
vt 0.025200 0.323629
vt 0.047971 0.383197
vt 0.025200 0.383197
vt 0.079314 0.133577
vt 0.079314 0.113281
vt 0.079314 0.108207
vt 0.079314 0.103134
vt 0.119905 0.113281
vt 0.104683 0.133577
vt 0.099609 0.133577
vt 0.099609 0.143724
vt 0.055315 0.414410
vt 0.055315 0.446060
vt 0.099609 0.138650
vt 0.055315 0.382761
vt 0.099609 0.153872
vt 0.079314 0.138650
vt 0.070617 0.973408
vt 0.070617 0.844745
vt 0.500960 0.909077
vt 0.093511 0.434347
vt 0.070741 0.323629
vt 0.093511 0.323629
vt 0.093511 0.545065
vt 0.070741 0.434347
vt 0.047971 0.442764
vt 0.025200 0.442764
vt 0.047971 0.502331
vt 0.070617 0.716082
vt 0.500960 0.780414
vt 0.545064 0.973408
vt 0.545064 0.844745
vt 0.975407 0.909077
vt 0.025200 0.561898
vt 0.047971 0.561898
vt 0.545064 0.716082
vt 0.975407 0.780414
vt 0.070741 0.442764
vt 0.047971 0.323629
vt 0.070741 0.561898
vt 0.079314 0.153872
vt 0.079314 0.098060
vt 0.119905 0.133577
vt 0.456856 0.973408
vt 0.026513 0.909077
vt 0.456856 0.844745
vt 0.070741 0.545065
vt 0.025200 0.502331
vt 0.026513 0.780414
vt 0.456856 0.716082
vt 0.931303 0.973408
vt 0.931303 0.844745
vt 0.931303 0.716082
vt 0.070741 0.383197
vt 0.070741 0.502331
s 0
usemtl Material
f 5/1/1 9/2/1 1/2/1
f 13/3/2 36/4/2 32/5/2
f 7/6/3 6/7/3 8/8/3
f 36/9/4 46/10/4 47/11/4
f 1/2/5 4/12/5 2/13/5
f 5/1/6 35/14/6 33/15/6
f 11/16/7 14/17/7 10/18/7
f 7/6/8 11/1/8 5/1/8
f 1/2/9 10/18/9 3/18/9
f 21/3/10 15/19/10 14/3/10
f 16/20/11 29/21/11 20/21/11
f 21/21/12 27/21/12 30/21/12
f 13/22/13 19/22/13 16/19/13
f 13/19/13 16/19/13 20/3/13
f 10/18/14 19/22/14 13/22/14
f 18/23/15 28/23/15 19/23/15
f 15/19/10 22/22/10 14/19/10
f 21/21/16 26/20/16 15/20/16
f 23/20/17 27/21/17 29/21/17
f 23/20/17 25/23/17 24/20/17
f 24/20/17 30/21/17 27/21/17
f 24/20/17 31/23/17 26/20/17
f 15/20/16 31/23/16 22/23/16
f 17/21/12 29/21/12 27/21/12
f 22/23/15 25/23/15 18/23/15
f 19/23/11 23/20/11 16/20/11
f 20/3/18 17/3/18 12/24/18
f 33/15/19 37/25/19 32/5/19
f 36/26/5 45/27/5 52/28/5
f 38/29/19 45/30/19 39/31/19
f 44/32/19 42/33/19 41/29/19
f 47/11/20 39/34/20 45/35/20
f 50/36/21 35/35/21 2/34/21
f 4/27/5 42/37/5 50/38/5
f 35/39/3 44/40/3 48/41/3
f 44/42/22 50/36/22 43/43/22
f 6/40/3 38/44/3 46/45/3
f 49/10/20 41/46/20 42/34/20
f 37/30/4 49/10/4 4/47/4
f 53/36/22 40/48/22 38/43/22
f 34/46/21 53/36/21 6/34/21
f 5/1/1 11/1/1 9/2/1
f 37/25/2 4/12/2 3/18/2
f 13/3/2 7/24/2 8/49/2
f 37/25/2 3/18/2 13/3/2
f 32/5/2 37/25/2 13/3/2
f 13/3/2 8/49/2 36/4/2
f 7/6/3 5/1/3 6/7/3
f 36/9/4 8/47/4 46/10/4
f 1/2/5 3/18/5 4/12/5
f 34/50/6 6/7/6 5/1/6
f 5/1/6 1/2/6 2/13/6
f 5/1/6 2/13/6 35/14/6
f 33/15/6 34/50/6 5/1/6
f 10/18/7 9/2/7 11/16/7
f 11/16/7 12/51/7 14/17/7
f 7/6/8 12/6/8 11/1/8
f 1/2/9 9/2/9 10/18/9
f 16/20/11 23/20/11 29/21/11
f 21/21/12 17/21/12 27/21/12
f 10/18/10 14/22/10 22/22/10
f 10/18/23 22/22/23 18/22/23
f 13/22/24 3/18/24 10/18/24
f 10/18/23 18/22/23 19/22/23
f 18/23/15 25/23/15 28/23/15
f 21/21/16 30/21/16 26/20/16
f 23/20/17 24/20/17 27/21/17
f 23/20/17 28/23/17 25/23/17
f 24/20/17 26/20/17 30/21/17
f 24/20/17 25/23/17 31/23/17
f 15/20/16 26/20/16 31/23/16
f 17/21/12 20/21/12 29/21/12
f 22/23/15 31/23/15 25/23/15
f 19/23/11 28/23/11 23/20/11
f 21/3/10 14/3/10 12/24/10
f 12/24/24 7/24/24 13/3/24
f 12/24/25 13/3/25 20/3/25
f 17/3/18 21/3/18 12/24/18
f 32/5/19 36/4/19 34/50/19
f 33/15/19 35/14/19 37/25/19
f 32/5/19 34/50/19 33/15/19
f 52/28/5 34/52/5 36/26/5
f 36/26/5 47/53/5 45/27/5
f 45/27/5 40/54/5 52/28/5
f 38/29/19 40/33/19 45/30/19
f 44/32/19 43/55/19 42/33/19
f 47/11/20 46/10/20 39/34/20
f 50/36/21 51/56/21 35/35/21
f 50/38/5 2/54/5 4/27/5
f 4/27/5 49/57/5 42/37/5
f 42/37/5 43/58/5 50/38/5
f 48/41/3 37/59/3 35/39/3
f 35/39/3 51/28/3 44/40/3
f 44/40/3 41/60/3 48/41/3
f 44/42/22 51/56/22 50/36/22
f 46/45/3 8/60/3 6/40/3
f 6/40/3 53/38/3 38/44/3
f 38/44/3 39/61/3 46/45/3
f 49/10/20 48/62/20 41/46/20
f 37/30/4 48/62/4 49/10/4
f 53/36/22 52/63/22 40/48/22
f 34/46/21 52/63/21 53/36/21
