# Blender 4.5.3 LTS
# www.blender.org
mtllib enemy5.mtl
o Circle
v 0.000000 -1.000000 0.000000
v 0.707107 -0.707107 0.000000
v 1.000000 0.000000 0.000000
v 0.707107 0.707107 0.000000
v 0.000000 1.000000 0.000000
v -0.707107 0.707107 0.000000
v -1.000000 0.000000 0.000000
v -0.707107 -0.707107 0.000000
v 0.000000 -0.109577 0.058173
v 0.077483 -0.077483 0.058173
v 0.109577 0.000000 0.058173
v 0.077483 0.077483 0.058173
v 0.000000 0.109577 0.058173
v -0.077483 0.077483 0.058173
v -0.109577 0.000000 0.058173
v -0.077483 -0.077483 0.058173
v 0.000000 -0.109577 0.370933
v 0.077483 -0.077483 0.370933
v 0.109577 0.000000 0.370933
v 0.077483 0.077483 0.370933
v 0.000000 0.109577 0.370933
v -0.077483 0.077483 0.370933
v -0.109577 0.000000 0.370933
v -0.077483 -0.077483 0.370933
v 0.526611 0.665001 0.333703
v 0.526611 0.665001 1.386925
v 0.526611 -1.008095 0.333703
v 0.526611 -1.008095 1.386925
v -0.526611 0.665001 0.333703
v -0.526611 0.665001 1.386925
v -0.526611 -1.008095 0.333703
v -0.526611 -1.008095 1.386925
v -0.526611 -0.353687 1.386925
v -0.526611 0.083243 1.386925
v -0.526611 0.665001 1.249012
v -0.526611 -1.008095 1.249012
v -0.526611 -0.353687 1.249012
v -0.526611 0.083243 1.249012
v -0.751968 -0.353687 1.386925
v -0.751968 0.083243 1.386925
v -0.751968 0.083243 1.249012
v -0.751968 -0.353687 1.249012
v -0.886562 -0.496915 1.509746
v -0.886562 0.234230 1.509746
v -1.039518 -0.496915 1.421436
v -1.039518 0.234230 1.421436
v -1.039518 -0.496915 1.244818
v -1.039518 0.234230 1.244818
v -0.886562 -0.496915 1.156509
v -0.886562 0.234230 1.156509
v -0.733606 -0.496915 1.244818
v -0.733606 0.234230 1.244818
v -0.733606 -0.496915 1.421436
v -0.733606 0.234230 1.421436
vn 0.0652 0.0270 -0.9975
vn 0.0270 -0.0652 -0.9975
vn -0.0652 -0.0270 -0.9975
vn -0.0270 0.0652 -0.9975
vn 0.0270 0.0652 -0.9975
vn 0.0652 -0.0270 -0.9975
vn -0.0270 -0.0652 -0.9975
vn -0.0652 0.0270 -0.9975
vn 0.3827 0.9239 -0.0000
vn 0.9239 -0.3827 -0.0000
vn -0.3827 -0.9239 -0.0000
vn -0.9239 0.3827 -0.0000
vn 0.9239 0.3827 -0.0000
vn 0.3827 -0.9239 -0.0000
vn -0.9239 -0.3827 -0.0000
vn -0.3827 0.9239 -0.0000
vn 1.0000 -0.0000 -0.0000
vn -0.0000 -1.0000 -0.0000
vn -1.0000 -0.0000 -0.0000
vn -0.0000 1.0000 -0.0000
vn -0.0000 -0.0000 -1.0000
vn -0.0000 -0.0000 1.0000
vn -0.5000 -0.0000 0.8660
vn -0.5000 -0.0000 -0.8660
vn 0.5000 -0.0000 -0.8660
vn 0.5000 -0.0000 0.8660
vt 0.050728 0.058541
vt 0.837022 0.131566
vt 0.882243 0.114518
vt 0.863213 0.156793
vt 0.862811 0.069770
vt 0.879419 0.114436
vt 0.837246 0.095087
vt 0.923761 0.094939
vt 0.879487 0.111422
vt 0.898438 0.069770
vt 0.899022 0.156174
vt 0.882281 0.111702
vt 0.923983 0.130639
vt 0.881030 0.115093
vt 0.878841 0.112862
vt 0.880936 0.110970
vt 0.882772 0.113169
vt 0.214369 0.058541
vt 0.148912 0.123997
vt 0.148912 0.058541
vt 0.214369 0.123997
vt 0.196546 0.189453
vt 0.148912 0.189453
vt 0.196546 0.215055
vt 0.196546 0.232149
vt 0.148912 0.254909
vt 0.967851 0.900575
vt 0.590091 0.950041
vt 0.590091 0.572281
vt 0.083456 0.254909
vt 0.083456 0.189453
vt 0.279825 0.189453
vt 0.214369 0.254909
vt 0.214369 0.232149
vt 0.214369 0.215055
vt 0.196546 0.254909
vt 0.214369 0.189453
vt 0.312553 0.320366
vt 0.268916 0.189453
vt 0.312553 0.189453
vt 0.268916 0.320366
vt 0.225278 0.189453
vt 0.225278 0.320366
vt 0.181641 0.189453
vt 0.181641 0.320366
vt 0.138003 0.189453
vt 0.223606 0.861701
vt 0.142916 0.721942
vt 0.304296 0.721942
vt 0.138003 0.320366
vt 0.094365 0.189453
vt 0.094365 0.320366
vt 0.050728 0.189453
vt 0.301516 0.155416
vt 0.247097 0.061159
vt 0.192678 0.155416
vt 0.967851 0.572281
vt 0.967851 0.950041
vt 0.279825 0.254909
vt 0.304296 0.815114
vt 0.142916 0.815114
vt 0.223606 0.675355
vt 0.050728 0.320366
vt 0.247097 0.186835
vt 0.301516 0.092578
vt 0.192678 0.092578
s 0
usemtl Material
f 7/1/1 16/1/1 8/1/1
f 5/1/2 14/1/2 6/1/2
f 3/1/3 12/1/3 4/1/3
f 1/1/4 10/1/4 2/1/4
f 8/1/5 9/1/5 1/1/5
f 6/1/6 15/1/6 7/1/6
f 4/1/7 13/1/7 5/1/7
f 2/1/8 11/1/8 3/1/8
f 16/2/9 17/3/9 9/4/9
f 14/5/10 23/6/10 15/7/10
f 12/8/11 21/9/11 13/10/11
f 10/11/12 19/12/12 11/13/12
f 15/7/13 24/14/13 16/2/13
f 13/10/14 22/15/14 14/5/14
f 11/13/15 20/16/15 12/8/15
f 9/4/16 18/17/16 10/11/16
f 26/18/17 27/19/17 25/20/17
f 28/21/18 36/22/18 31/23/18
f 37/24/19 38/25/19 29/26/19
f 35/27/20 26/28/20 25/29/20
f 31/23/21 25/30/21 27/31/21
f 28/32/22 30/33/22 34/34/22
f 41/25/19 39/35/19 40/34/19
f 38/25/19 30/33/19 35/36/19
f 33/35/18 42/24/18 37/24/18
f 37/24/19 32/37/19 33/35/19
f 38/25/20 40/34/20 34/34/20
f 34/34/22 39/35/22 33/35/22
f 37/24/21 41/25/21 38/25/21
f 44/38/23 45/39/23 43/40/23
f 46/41/19 47/42/19 45/39/19
f 48/43/24 49/44/24 47/42/24
f 50/45/25 51/46/25 49/44/25
f 44/47/20 52/48/20 48/49/20
f 52/50/17 53/51/17 51/46/17
f 54/52/26 43/53/26 53/51/26
f 45/54/18 49/55/18 53/56/18
f 7/1/1 15/1/1 16/1/1
f 5/1/2 13/1/2 14/1/2
f 3/1/3 11/1/3 12/1/3
f 1/1/4 9/1/4 10/1/4
f 8/1/5 16/1/5 9/1/5
f 6/1/6 14/1/6 15/1/6
f 4/1/7 12/1/7 13/1/7
f 2/1/8 10/1/8 11/1/8
f 16/2/9 24/14/9 17/3/9
f 14/5/10 22/15/10 23/6/10
f 12/8/11 20/16/11 21/9/11
f 10/11/12 18/17/12 19/12/12
f 15/7/13 23/6/13 24/14/13
f 13/10/14 21/9/14 22/15/14
f 11/13/15 19/12/15 20/16/15
f 9/4/16 17/3/16 18/17/16
f 26/18/17 28/21/17 27/19/17
f 31/23/18 27/19/18 28/21/18
f 28/21/18 32/37/18 36/22/18
f 29/26/19 31/23/19 36/22/19
f 29/26/19 36/22/19 37/24/19
f 38/25/19 35/36/19 29/26/19
f 25/29/20 29/57/20 35/27/20
f 35/27/20 30/58/20 26/28/20
f 31/23/21 29/26/21 25/30/21
f 33/35/22 32/37/22 28/32/22
f 28/32/22 26/59/22 30/33/22
f 34/34/22 33/35/22 28/32/22
f 41/25/19 42/24/19 39/35/19
f 38/25/19 34/34/19 30/33/19
f 33/35/18 39/35/18 42/24/18
f 37/24/19 36/22/19 32/37/19
f 38/25/20 41/25/20 40/34/20
f 34/34/22 40/34/22 39/35/22
f 37/24/21 42/24/21 41/25/21
f 44/38/23 46/41/23 45/39/23
f 46/41/19 48/43/19 47/42/19
f 48/43/24 50/45/24 49/44/24
f 50/45/25 52/50/25 51/46/25
f 48/49/20 46/60/20 44/47/20
f 44/47/20 54/61/20 52/48/20
f 52/48/20 50/62/20 48/49/20
f 52/50/17 54/52/17 53/51/17
f 54/52/26 44/63/26 43/53/26
f 53/56/18 43/64/18 45/54/18
f 45/54/18 47/65/18 49/55/18
f 49/55/18 51/66/18 53/56/18
