# Blender 4.5.4 LTS
# www.blender.org
mtllib terrain.mtl
o Plane
v 209.444153 209.444153 0.000000
v -209.444153 209.444153 0.000000
v 209.444153 -209.444153 0.000000
v -209.444153 -209.444153 0.000000
v 209.444153 0.000000 0.000000
v 0.000000 209.444153 0.000000
v -209.444153 0.000000 0.000000
v 0.000000 -209.444153 0.000000
v 0.000000 0.000000 0.000000
v 209.444153 104.722076 0.000000
v -104.722076 209.444153 0.000000
v -209.444153 -104.722076 0.000000
v 104.722076 -209.444153 0.000000
v 209.444153 -104.722076 0.000000
v 104.722076 209.444153 0.000000
v -209.444153 104.722076 0.000000
v -104.722076 -209.444153 0.000000
v 0.000000 -104.722076 0.000000
v 0.000000 104.722076 0.000000
v 104.722076 0.000000 0.000000
v -104.722076 0.000000 0.000000
v -104.722076 104.722076 0.000000
v 104.722076 104.722076 0.000000
v 104.722076 -104.722076 0.000000
v -104.722076 -104.722076 0.000000
v 209.444153 157.083115 0.000000
v -157.083115 209.444153 0.000000
v -209.444153 -157.083115 0.000000
v 157.083115 -209.444153 0.000000
v 209.444153 -52.361038 0.000000
v 52.361038 209.444153 0.000000
v -209.444153 52.361038 0.000000
v -52.361038 -209.444153 0.000000
v 0.000000 -157.083115 0.000000
v 0.000000 52.361038 0.000000
v 157.083115 0.000000 0.000000
v -52.361038 0.000000 0.000000
v 209.444153 52.361038 0.000000
v -52.361038 209.444153 0.000000
v -209.444153 -52.361038 0.000000
v 52.361038 -209.444153 0.000000
v 209.444153 -157.083115 0.000000
v 157.083115 209.444153 0.000000
v -209.444153 157.083115 0.000000
v -157.083115 -209.444153 0.000000
v 0.000000 -52.361038 0.000000
v 0.000000 157.083115 0.000000
v 52.361038 0.000000 0.000000
v -157.083115 0.000000 0.000000
v -104.722076 52.361038 0.000000
v -104.722076 157.083115 0.000000
v -52.361038 104.722076 0.000000
v -157.083115 104.722076 0.000000
v 104.722076 52.361038 0.000000
v 104.722076 157.083115 0.000000
v 157.083115 104.722076 0.000000
v 52.361038 104.722076 0.000000
v 104.722076 -157.083115 0.000000
v 104.722076 -52.361038 0.000000
v 157.083115 -104.722076 0.000000
v 52.361038 -104.722076 0.000000
v -104.722076 -157.083115 0.000000
v -104.722076 -52.361038 0.000000
v -52.361038 -104.722076 0.000000
v -157.083115 -104.722076 0.000000
v -157.083115 -52.361038 0.000000
v -52.361038 -52.361038 0.000000
v -52.361038 -157.083115 0.000000
v 52.361038 -52.361038 0.000000
v 157.083115 -52.361038 0.000000
v 157.083115 -157.083115 0.000000
v 52.361038 157.083115 0.000000
v 157.083115 157.083115 0.000000
v 157.083115 52.361038 0.000000
v -157.083115 157.083115 0.000000
v -52.361038 157.083115 0.000000
v -52.361038 52.361038 0.000000
v -157.083115 52.361038 0.000000
v 52.361038 52.361038 0.000000
v 52.361038 -157.083115 0.000000
v -157.083115 -157.083115 0.000000
v 209.444153 157.083115 0.000000
v 209.444153 209.444153 0.000000
v -157.083115 209.444153 0.000000
v -209.444153 209.444153 0.000000
v -209.444153 -157.083115 0.000000
v -209.444153 -209.444153 0.000000
v 157.083115 -209.444153 0.000000
v 209.444153 -209.444153 0.000000
v 209.444153 -52.361038 0.000000
v 209.444153 0.000000 0.000000
v 52.361038 209.444153 0.000000
v 0.000000 209.444153 0.000000
v -209.444153 52.361038 0.000000
v -209.444153 0.000000 0.000000
v -52.361038 -209.444153 0.000000
v 0.000000 -209.444153 0.000000
v 0.000000 -157.083115 0.000000
v 0.000000 52.361038 0.000000
v 0.000000 0.000000 0.000000
v 157.083115 0.000000 0.000000
v -52.361038 0.000000 0.000000
v 209.444153 52.361038 0.000000
v 209.444153 104.722076 0.000000
v -52.361038 209.444153 0.000000
v -104.722076 209.444153 0.000000
v -209.444153 -52.361038 0.000000
v -209.444153 -104.722076 0.000000
v 52.361038 -209.444153 0.000000
v 104.722076 -209.444153 0.000000
v 209.444153 -157.083115 0.000000
v 209.444153 -104.722076 0.000000
v 157.083115 209.444153 0.000000
v 104.722076 209.444153 0.000000
v -209.444153 157.083115 0.000000
v -209.444153 104.722076 0.000000
v -157.083115 -209.444153 0.000000
v -104.722076 -209.444153 0.000000
v 0.000000 -52.361038 0.000000
v 0.000000 -104.722076 0.000000
v 0.000000 157.083115 0.000000
v 0.000000 104.722076 0.000000
v 52.361038 0.000000 0.000000
v 104.722076 0.000000 0.000000
v -157.083115 0.000000 0.000000
v -104.722076 0.000000 0.000000
v -104.722076 52.361038 0.000000
v -104.722076 157.083115 0.000000
v -104.722076 104.722076 0.000000
v -52.361038 104.722076 0.000000
v -157.083115 104.722076 0.000000
v 104.722076 52.361038 0.000000
v 104.722076 157.083115 0.000000
v 104.722076 104.722076 0.000000
v 157.083115 104.722076 0.000000
v 52.361038 104.722076 0.000000
v 104.722076 -157.083115 0.000000
v 104.722076 -52.361038 0.000000
v 104.722076 -104.722076 0.000000
v 157.083115 -104.722076 0.000000
v 52.361038 -104.722076 0.000000
v -104.722076 -157.083115 0.000000
v -104.722076 -52.361038 0.000000
v -104.722076 -104.722076 0.000000
v -52.361038 -104.722076 0.000000
v -157.083115 -104.722076 0.000000
v -157.083115 -52.361038 0.000000
v -52.361038 -52.361038 0.000000
v -52.361038 -157.083115 0.000000
v 52.361038 -52.361038 0.000000
v 157.083115 -52.361038 0.000000
v 157.083115 -157.083115 0.000000
v 52.361038 157.083115 0.000000
v 157.083115 157.083115 0.000000
v 157.083115 52.361038 0.000000
v -157.083115 157.083115 0.000000
v -52.361038 157.083115 0.000000
v -52.361038 52.361038 0.000000
v -157.083115 52.361038 0.000000
v 52.361038 52.361038 0.000000
v 52.361038 -157.083115 0.000000
v -157.083115 -157.083115 0.000000
v 104.722076 157.083115 225.304596
v 104.722076 104.722076 225.304596
v 157.083115 104.722076 225.304596
v 157.083115 157.083115 225.304596
v -104.722076 -52.361038 79.338646
v -104.722076 -104.722076 79.338646
v -157.083115 -104.722076 79.338646
v -157.083115 -52.361038 79.338646
v 104.722076 -52.361038 157.692017
v 104.722076 -104.722076 157.692017
v 157.083115 -104.722076 157.692017
v 157.083115 -52.361038 157.692017
v -209.444153 209.444153 0.000000
v -209.444153 -157.083115 0.000000
v -209.444153 -209.444153 0.000000
v -209.444153 52.361038 0.000000
v -209.444153 0.000000 0.000000
v -209.444153 -52.361038 0.000000
v -209.444153 -104.722076 0.000000
v -209.444153 157.083115 0.000000
v -209.444153 104.722076 0.000000
v 209.444153 157.083115 289.585419
v 209.444153 209.444153 289.585419
v -157.083115 209.444153 289.585419
v -209.444153 209.444153 289.585419
v -209.444153 -209.444153 289.585419
v 157.083115 -209.444153 289.585419
v 209.444153 -209.444153 289.585419
v 209.444153 -52.361038 289.585419
v 209.444153 0.000000 289.585419
v 52.361038 209.444153 289.585419
v 0.000000 209.444153 289.585419
v -52.361038 -209.444153 289.585419
v 0.000000 -209.444153 289.585419
v 209.444153 52.361038 289.585419
v 209.444153 104.722076 289.585419
v -52.361038 209.444153 289.585419
v -104.722076 209.444153 289.585419
v 52.361038 -209.444153 289.585419
v 104.722076 -209.444153 289.585419
v 209.444153 -157.083115 289.585419
v 209.444153 -104.722076 289.585419
v 157.083115 209.444153 289.585419
v 104.722076 209.444153 289.585419
v -157.083115 -209.444153 289.585419
v -104.722076 -209.444153 289.585419
v -209.444153 209.444153 289.585419
v -209.444153 -157.083115 289.585419
v -209.444153 -209.444153 289.585419
v -209.444153 52.361038 289.585419
v -209.444153 0.000000 289.585419
v -209.444153 -52.361038 289.585419
v -209.444153 -104.722076 289.585419
v -209.444153 157.083115 289.585419
v -209.444153 104.722076 289.585419
vn -0.0000 -0.0000 -1.0000
vn -0.0000 -0.0000 1.0000
vn -0.0000 -1.0000 -0.0000
vn 1.0000 -0.0000 -0.0000
vn -1.0000 -0.0000 -0.0000
vn -0.0000 1.0000 -0.0000
vt 0.198849 0.978022
vt 0.224116 0.952755
vt 0.198849 0.952755
vt 0.097780 0.978022
vt 0.123047 0.952755
vt 0.097780 0.952755
vt 0.097780 0.876953
vt 0.123047 0.851686
vt 0.097780 0.851686
vt 0.198849 0.876953
vt 0.224116 0.851686
vt 0.198849 0.851686
vt 0.148314 0.876953
vt 0.173582 0.851686
vt 0.148314 0.851686
vt 0.148314 0.826418
vt 0.173582 0.801151
vt 0.148314 0.801151
vt 0.198849 0.826418
vt 0.224116 0.801151
vt 0.198849 0.801151
vt 0.047245 0.876953
vt 0.072512 0.851686
vt 0.047245 0.851686
vt 0.097780 0.826418
vt 0.123047 0.801151
vt 0.097780 0.801151
vt 0.047245 0.978022
vt 0.072512 0.952755
vt 0.047245 0.952755
vt 0.097780 0.927488
vt 0.123047 0.902220
vt 0.097780 0.902220
vt 0.148314 0.978022
vt 0.173582 0.952755
vt 0.148314 0.952755
vt 0.148314 0.927488
vt 0.173582 0.902220
vt 0.148314 0.902220
vt 0.198849 0.927488
vt 0.224116 0.902220
vt 0.198849 0.902220
vt 0.173582 0.876953
vt 0.224116 0.876953
vt 0.123047 0.927488
vt 0.123047 0.876953
vt 0.123047 0.978022
vt 0.173582 0.927488
vt 0.072512 0.927488
vt 0.072512 0.902220
vt 0.072512 0.876953
vt 0.021978 0.927488
vt 0.047245 0.902220
vt 0.021978 0.902220
vt 0.021978 0.876953
vt 0.021978 0.978022
vt 0.021978 0.952755
vt 0.047245 0.927488
vt 0.072512 0.826418
vt 0.072512 0.801151
vt 0.097780 0.775884
vt 0.072512 0.775884
vt 0.123047 0.775884
vt 0.021978 0.826418
vt 0.047245 0.801151
vt 0.021978 0.801151
vt 0.047245 0.775884
vt 0.021978 0.775884
vt 0.021978 0.851686
vt 0.047245 0.826418
vt 0.173582 0.826418
vt 0.198849 0.775884
vt 0.173582 0.775884
vt 0.224116 0.775884
vt 0.123047 0.826418
vt 0.148314 0.775884
vt 0.224116 0.826418
vt 0.072512 0.978022
vt 0.173582 0.978022
vt 0.224116 0.927488
vt 0.018248 0.390221
vt 0.097667 0.048486
vt 0.097667 0.390221
vt 0.125000 0.750000
vt 0.250000 0.750000
vt 0.750000 0.750000
vt 0.875000 0.750000
vt 0.224116 0.978022
vt 0.415346 0.048486
vt 0.335926 0.127905
vt 0.335926 0.048486
vt 0.177087 0.048486
vt 0.177087 0.390221
vt 0.256507 0.048486
vt 0.256507 0.390221
vt 0.335926 0.390221
vt 0.875000 0.625000
vt 0.750000 0.625000
vt 0.250000 0.625000
vt 0.125000 0.625000
vt 0.787372 0.291667
vt 0.714975 0.250000
vt 0.714975 0.291667
vt 0.714975 0.666667
vt 0.642578 0.625000
vt 0.642578 0.666667
vt 0.714975 0.625000
vt 0.642578 0.583333
vt 0.714975 0.750000
vt 0.642578 0.708333
vt 0.642578 0.750000
vt 0.787372 0.083333
vt 0.714975 0.041667
vt 0.714975 0.083333
vt 0.714975 0.708333
vt 0.714975 0.333333
vt 0.642578 0.291667
vt 0.642578 0.333333
vt 0.714975 0.291667
vt 0.642578 0.250000
vt 0.714975 0.583333
vt 0.642578 0.541667
vt 0.787372 0.250000
vt 0.714975 0.208333
vt 0.714975 0.541667
vt 0.642578 0.500000
vt 0.714975 0.250000
vt 0.642578 0.208333
vt 0.787372 0.166667
vt 0.714975 0.125000
vt 0.714975 0.166667
vt 0.714975 0.208333
vt 0.642578 0.166667
vt 0.714975 1.000000
vt 0.642578 0.958333
vt 0.642578 1.000000
vt 0.714975 0.958333
vt 0.642578 0.916667
vt 0.787372 0.333333
vt 0.714975 0.333333
vt 0.714975 0.916667
vt 0.642578 0.875000
vt 0.714975 0.875000
vt 0.642578 0.833333
vt 0.714975 0.500000
vt 0.642578 0.458333
vt 0.714975 0.458333
vt 0.642578 0.416667
vt 0.787372 0.041667
vt 0.714975 -0.000000
vt 0.714975 0.166667
vt 0.642578 0.125000
vt 0.714975 0.125000
vt 0.642578 0.083333
vt 0.714975 0.416667
vt 0.642578 0.375000
vt 0.714975 0.375000
vt 0.787372 0.208333
vt 0.714975 0.083333
vt 0.642578 0.041667
vt 0.787372 0.125000
vt 0.714975 0.041667
vt 0.642578 0.000000
vt 0.714975 0.833333
vt 0.642578 0.791667
vt 0.714975 0.791667
vt 0.018248 0.048486
vt 0.415346 0.127905
vt 0.787372 -0.000000
vt 0.714975 0.000000
s 0
usemtl Material.001
f 45/1/1 28/2/1 81/3/1
f 41/4/1 34/5/1 80/6/1
f 48/7/1 35/8/1 79/9/1
f 49/10/1 32/11/1 78/12/1
f 37/13/1 50/14/1 77/15/1
f 52/16/1 51/17/1 76/18/1
f 53/19/1 44/20/1 75/21/1
f 36/22/1 54/23/1 74/24/1
f 57/25/1 47/26/1 72/27/1
f 29/28/1 58/29/1 71/30/1
f 61/31/1 46/32/1 69/33/1
f 33/34/1 62/35/1 68/36/1
f 64/37/1 63/38/1 67/39/1
f 65/40/1 40/41/1 66/42/1
f 63/38/1 49/10/1 21/43/1
f 66/42/1 7/44/1 49/10/1
f 18/45/1 67/39/1 46/32/1
f 46/32/1 37/13/1 9/46/1
f 67/39/1 21/43/1 37/13/1
f 8/47/1 68/36/1 34/5/1
f 34/5/1 64/37/1 18/45/1
f 68/36/1 25/48/1 64/37/1
f 24/49/1 69/33/1 59/50/1
f 59/50/1 48/7/1 20/51/1
f 69/33/1 9/46/1 48/7/1
f 14/52/1 70/53/1 30/54/1
f 30/54/1 36/22/1 5/55/1
f 70/53/1 20/51/1 36/22/1
f 3/56/1 71/30/1 42/57/1
f 42/57/1 60/58/1 14/52/1
f 71/30/1 24/49/1 60/58/1
f 23/59/1 72/27/1 55/60/1
f 55/60/1 31/61/1 15/62/1
f 72/27/1 6/63/1 31/61/1
f 10/64/1 73/65/1 26/66/1
f 26/66/1 43/67/1 1/68/1
f 73/65/1 15/62/1 43/67/1
f 5/55/1 74/24/1 38/69/1
f 38/69/1 56/70/1 10/64/1
f 74/24/1 23/59/1 56/70/1
f 22/71/1 75/21/1 51/17/1
f 51/17/1 27/72/1 11/73/1
f 75/21/1 2/74/1 27/72/1
f 19/75/1 76/18/1 47/26/1
f 47/26/1 39/76/1 6/63/1
f 76/18/1 11/73/1 39/76/1
f 9/46/1 77/15/1 35/8/1
f 35/8/1 52/16/1 19/75/1
f 77/15/1 22/71/1 52/16/1
f 21/43/1 78/12/1 50/14/1
f 50/14/1 53/19/1 22/71/1
f 78/12/1 16/77/1 53/19/1
f 20/51/1 79/9/1 54/23/1
f 54/23/1 57/25/1 23/59/1
f 79/9/1 19/75/1 57/25/1
f 13/78/1 80/6/1 58/29/1
f 58/29/1 61/31/1 24/49/1
f 80/6/1 18/45/1 61/31/1
f 17/79/1 81/3/1 62/35/1
f 62/35/1 65/40/1 25/48/1
f 81/3/1 12/80/1 65/40/1
f 86/2/2 117/1/2 162/3/2
f 98/5/2 109/4/2 161/6/2
f 99/8/2 123/7/2 160/9/2
f 94/11/2 125/10/2 159/12/2
f 127/14/2 102/13/2 158/15/2
f 128/17/2 130/16/2 157/18/2
f 115/20/2 131/19/2 156/21/2
f 132/23/2 101/22/2 155/24/2
f 135/81/3 164/82/3 134/83/3
f 121/26/2 136/25/2 153/27/2
f 137/29/2 88/28/2 152/30/2
f 140/84/3 172/85/3 139/85/3
f 119/32/2 141/31/2 150/33/2
f 142/35/2 96/34/2 149/36/2
f 143/38/2 145/37/2 148/39/2
f 107/41/2 146/40/2 147/42/2
f 144/86/3 169/87/3 146/87/3
f 125/10/2 143/38/2 126/43/2
f 95/44/2 147/42/2 125/10/2
f 148/39/2 120/45/2 119/32/2
f 102/13/2 119/32/2 100/46/2
f 126/43/2 148/39/2 102/13/2
f 149/36/2 97/47/2 98/5/2
f 145/37/2 98/5/2 120/45/2
f 144/48/2 149/36/2 145/37/2
f 150/33/2 139/49/2 138/50/2
f 123/7/2 138/50/2 124/51/2
f 100/46/2 150/33/2 123/7/2
f 151/53/2 112/52/2 90/54/2
f 101/22/2 90/54/2 91/55/2
f 124/51/2 151/53/2 101/22/2
f 152/30/2 89/56/2 111/57/2
f 140/58/2 111/57/2 112/52/2
f 139/49/2 152/30/2 140/58/2
f 153/27/2 134/59/2 133/60/2
f 92/61/2 133/60/2 114/62/2
f 93/63/2 153/27/2 92/61/2
f 154/65/2 104/64/2 82/66/2
f 113/67/2 82/66/2 83/68/2
f 114/62/2 154/65/2 113/67/2
f 155/24/2 91/55/2 103/69/2
f 135/70/2 103/69/2 104/64/2
f 134/59/2 155/24/2 135/70/2
f 156/21/2 129/71/2 128/17/2
f 84/72/2 128/17/2 106/73/2
f 85/74/2 156/21/2 84/72/2
f 157/18/2 122/75/2 121/26/2
f 105/76/2 121/26/2 93/63/2
f 106/73/2 157/18/2 105/76/2
f 158/15/2 100/46/2 99/8/2
f 130/16/2 99/8/2 122/75/2
f 129/71/2 158/15/2 130/16/2
f 159/12/2 126/43/2 127/14/2
f 131/19/2 127/14/2 129/71/2
f 116/77/2 159/12/2 131/19/2
f 160/9/2 124/51/2 132/23/2
f 136/25/2 132/23/2 134/59/2
f 122/75/2 160/9/2 136/25/2
f 161/6/2 110/78/2 137/29/2
f 141/31/2 137/29/2 139/49/2
f 120/45/2 161/6/2 141/31/2
f 162/3/2 118/79/2 142/35/2
f 146/40/2 142/35/2 144/48/2
f 108/80/2 162/3/2 146/40/2
f 42/57/2 112/52/2 111/57/2
f 13/78/2 88/28/2 110/78/2
f 29/28/2 89/56/2 88/28/2
f 1/68/2 113/67/2 83/68/2
f 43/67/2 114/62/2 113/67/2
f 14/52/2 90/54/2 112/52/2
f 30/54/2 91/55/2 90/54/2
f 2/74/2 115/20/2 85/74/2
f 44/20/2 116/77/2 115/20/2
f 15/62/2 92/61/2 114/62/2
f 31/61/2 93/63/2 92/61/2
f 4/88/2 117/1/2 87/88/2
f 45/1/2 118/79/2 117/1/2
f 16/77/2 94/11/2 116/77/2
f 32/11/2 95/44/2 94/11/2
f 17/79/2 96/34/2 118/79/2
f 33/34/2 97/47/2 96/34/2
f 5/55/2 103/69/2 91/55/2
f 38/69/2 104/64/2 103/69/2
f 6/63/2 105/76/2 93/63/2
f 39/76/2 106/73/2 105/76/2
f 10/64/2 82/66/2 104/64/2
f 26/66/2 83/68/2 82/66/2
f 7/44/2 107/41/2 95/44/2
f 40/41/2 108/80/2 107/41/2
f 11/73/2 84/72/2 106/73/2
f 27/72/2 85/74/2 84/72/2
f 8/47/2 109/4/2 97/47/2
f 41/4/2 110/78/2 109/4/2
f 12/80/2 86/2/2 108/80/2
f 28/2/2 87/88/2 86/2/2
f 3/56/2 111/57/2 89/56/2
f 163/89/2 165/90/2 166/91/2
f 154/83/4 165/92/4 135/93/4
f 134/93/5 163/94/5 133/95/5
f 133/95/6 166/91/6 154/96/6
f 170/97/2 168/86/2 167/98/2
f 143/98/4 168/86/4 144/86/4
f 147/97/6 167/98/6 143/98/6
f 146/87/5 170/97/5 147/97/5
f 171/99/2 173/84/2 174/100/2
f 151/100/4 173/84/4 140/84/4
f 139/85/5 171/99/5 138/99/5
f 138/99/6 174/100/6 151/100/6
f 115/20/2 183/77/2 182/20/2
f 85/74/2 182/20/2 175/74/2
f 107/41/2 181/80/2 180/41/2
f 95/44/2 180/41/2 179/44/2
f 94/11/2 179/44/2 178/11/2
f 116/77/2 178/11/2 183/77/2
f 86/2/2 177/88/2 176/2/2
f 108/80/2 176/2/2 181/80/2
f 216/101/4 183/102/4 182/103/4
f 190/104/5 111/105/5 89/106/5
f 203/107/5 112/108/5 111/105/5
f 202/109/6 88/110/6 110/111/6
f 215/112/4 176/113/4 181/114/4
f 189/115/6 89/106/6 88/110/6
f 185/116/3 113/117/3 83/118/3
f 205/119/3 114/120/3 113/117/3
f 204/121/5 90/122/5 112/108/5
f 217/123/4 178/124/4 183/102/4
f 191/125/5 91/126/5 90/122/5
f 206/127/3 92/128/3 114/120/3
f 213/129/4 180/130/4 179/131/4
f 193/132/3 93/133/3 92/128/3
f 188/134/6 117/135/6 87/136/6
f 207/137/6 118/138/6 117/135/6
f 209/139/4 182/103/4 175/140/4
f 208/141/6 96/142/6 118/138/6
f 195/143/6 97/144/6 96/142/6
f 192/145/5 103/146/5 91/126/5
f 197/147/5 104/148/5 103/146/5
f 210/149/4 177/150/4 176/113/4
f 194/151/3 105/152/3 93/133/3
f 199/153/3 106/154/3 105/152/3
f 198/155/5 82/156/5 104/148/5
f 184/157/5 83/118/5 82/156/5
f 212/158/4 179/131/4 178/124/4
f 200/159/3 84/160/3 106/154/3
f 214/161/4 181/114/4 180/130/4
f 186/162/3 85/163/3 84/160/3
f 196/164/6 109/165/6 97/144/6
f 201/166/6 110/111/6 109/165/6
f 45/1/1 4/88/1 28/2/1
f 41/4/1 8/47/1 34/5/1
f 48/7/1 9/46/1 35/8/1
f 49/10/1 7/44/1 32/11/1
f 37/13/1 21/43/1 50/14/1
f 52/16/1 22/71/1 51/17/1
f 53/19/1 16/77/1 44/20/1
f 36/22/1 20/51/1 54/23/1
f 57/25/1 19/75/1 47/26/1
f 29/28/1 13/78/1 58/29/1
f 61/31/1 18/45/1 46/32/1
f 33/34/1 17/79/1 62/35/1
f 64/37/1 25/48/1 63/38/1
f 65/40/1 12/80/1 40/41/1
f 63/38/1 66/42/1 49/10/1
f 66/42/1 40/41/1 7/44/1
f 18/45/1 64/37/1 67/39/1
f 46/32/1 67/39/1 37/13/1
f 67/39/1 63/38/1 21/43/1
f 8/47/1 33/34/1 68/36/1
f 34/5/1 68/36/1 64/37/1
f 68/36/1 62/35/1 25/48/1
f 24/49/1 61/31/1 69/33/1
f 59/50/1 69/33/1 48/7/1
f 69/33/1 46/32/1 9/46/1
f 14/52/1 60/58/1 70/53/1
f 30/54/1 70/53/1 36/22/1
f 70/53/1 59/50/1 20/51/1
f 3/56/1 29/28/1 71/30/1
f 42/57/1 71/30/1 60/58/1
f 71/30/1 58/29/1 24/49/1
f 23/59/1 57/25/1 72/27/1
f 55/60/1 72/27/1 31/61/1
f 72/27/1 47/26/1 6/63/1
f 10/64/1 56/70/1 73/65/1
f 26/66/1 73/65/1 43/67/1
f 73/65/1 55/60/1 15/62/1
f 5/55/1 36/22/1 74/24/1
f 38/69/1 74/24/1 56/70/1
f 74/24/1 54/23/1 23/59/1
f 22/71/1 53/19/1 75/21/1
f 51/17/1 75/21/1 27/72/1
f 75/21/1 44/20/1 2/74/1
f 19/75/1 52/16/1 76/18/1
f 47/26/1 76/18/1 39/76/1
f 76/18/1 51/17/1 11/73/1
f 9/46/1 37/13/1 77/15/1
f 35/8/1 77/15/1 52/16/1
f 77/15/1 50/14/1 22/71/1
f 21/43/1 49/10/1 78/12/1
f 50/14/1 78/12/1 53/19/1
f 78/12/1 32/11/1 16/77/1
f 20/51/1 48/7/1 79/9/1
f 54/23/1 79/9/1 57/25/1
f 79/9/1 35/8/1 19/75/1
f 13/78/1 41/4/1 80/6/1
f 58/29/1 80/6/1 61/31/1
f 80/6/1 34/5/1 18/45/1
f 17/79/1 45/1/1 81/3/1
f 62/35/1 81/3/1 65/40/1
f 81/3/1 28/2/1 12/80/1
f 86/2/2 87/88/2 117/1/2
f 98/5/2 97/47/2 109/4/2
f 99/8/2 100/46/2 123/7/2
f 94/11/2 95/44/2 125/10/2
f 127/14/2 126/43/2 102/13/2
f 128/17/2 129/71/2 130/16/2
f 115/20/2 116/77/2 131/19/2
f 132/23/2 124/51/2 101/22/2
f 135/81/3 165/167/3 164/82/3
f 121/26/2 122/75/2 136/25/2
f 137/29/2 110/78/2 88/28/2
f 140/84/3 173/84/3 172/85/3
f 119/32/2 120/45/2 141/31/2
f 142/35/2 118/79/2 96/34/2
f 143/38/2 144/48/2 145/37/2
f 107/41/2 108/80/2 146/40/2
f 144/86/3 168/86/3 169/87/3
f 125/10/2 147/42/2 143/38/2
f 95/44/2 107/41/2 147/42/2
f 148/39/2 145/37/2 120/45/2
f 102/13/2 148/39/2 119/32/2
f 126/43/2 143/38/2 148/39/2
f 149/36/2 96/34/2 97/47/2
f 145/37/2 149/36/2 98/5/2
f 144/48/2 142/35/2 149/36/2
f 150/33/2 141/31/2 139/49/2
f 123/7/2 150/33/2 138/50/2
f 100/46/2 119/32/2 150/33/2
f 151/53/2 140/58/2 112/52/2
f 101/22/2 151/53/2 90/54/2
f 124/51/2 138/50/2 151/53/2
f 152/30/2 88/28/2 89/56/2
f 140/58/2 152/30/2 111/57/2
f 139/49/2 137/29/2 152/30/2
f 153/27/2 136/25/2 134/59/2
f 92/61/2 153/27/2 133/60/2
f 93/63/2 121/26/2 153/27/2
f 154/65/2 135/70/2 104/64/2
f 113/67/2 154/65/2 82/66/2
f 114/62/2 133/60/2 154/65/2
f 155/24/2 101/22/2 91/55/2
f 135/70/2 155/24/2 103/69/2
f 134/59/2 132/23/2 155/24/2
f 156/21/2 131/19/2 129/71/2
f 84/72/2 156/21/2 128/17/2
f 85/74/2 115/20/2 156/21/2
f 157/18/2 130/16/2 122/75/2
f 105/76/2 157/18/2 121/26/2
f 106/73/2 128/17/2 157/18/2
f 158/15/2 102/13/2 100/46/2
f 130/16/2 158/15/2 99/8/2
f 129/71/2 127/14/2 158/15/2
f 159/12/2 125/10/2 126/43/2
f 131/19/2 159/12/2 127/14/2
f 116/77/2 94/11/2 159/12/2
f 160/9/2 123/7/2 124/51/2
f 136/25/2 160/9/2 132/23/2
f 122/75/2 99/8/2 160/9/2
f 161/6/2 109/4/2 110/78/2
f 141/31/2 161/6/2 137/29/2
f 120/45/2 98/5/2 161/6/2
f 162/3/2 117/1/2 118/79/2
f 146/40/2 162/3/2 142/35/2
f 108/80/2 86/2/2 162/3/2
f 42/57/2 14/52/2 112/52/2
f 13/78/2 29/28/2 88/28/2
f 29/28/2 3/56/2 89/56/2
f 1/68/2 43/67/2 113/67/2
f 43/67/2 15/62/2 114/62/2
f 14/52/2 30/54/2 90/54/2
f 30/54/2 5/55/2 91/55/2
f 2/74/2 44/20/2 115/20/2
f 44/20/2 16/77/2 116/77/2
f 15/62/2 31/61/2 92/61/2
f 31/61/2 6/63/2 93/63/2
f 4/88/2 45/1/2 117/1/2
f 45/1/2 17/79/2 118/79/2
f 16/77/2 32/11/2 94/11/2
f 32/11/2 7/44/2 95/44/2
f 17/79/2 33/34/2 96/34/2
f 33/34/2 8/47/2 97/47/2
f 5/55/2 38/69/2 103/69/2
f 38/69/2 10/64/2 104/64/2
f 6/63/2 39/76/2 105/76/2
f 39/76/2 11/73/2 106/73/2
f 10/64/2 26/66/2 82/66/2
f 26/66/2 1/68/2 83/68/2
f 7/44/2 40/41/2 107/41/2
f 40/41/2 12/80/2 108/80/2
f 11/73/2 27/72/2 84/72/2
f 27/72/2 2/74/2 85/74/2
f 8/47/2 41/4/2 109/4/2
f 41/4/2 13/78/2 110/78/2
f 12/80/2 28/2/2 86/2/2
f 28/2/2 4/88/2 87/88/2
f 3/56/2 42/57/2 111/57/2
f 163/89/2 164/168/2 165/90/2
f 154/83/4 166/82/4 165/92/4
f 134/93/5 164/92/5 163/94/5
f 133/95/6 163/94/6 166/91/6
f 170/97/2 169/87/2 168/86/2
f 143/98/4 167/98/4 168/86/4
f 147/97/6 170/97/6 167/98/6
f 146/87/5 169/87/5 170/97/5
f 171/99/2 172/85/2 173/84/2
f 151/100/4 174/100/4 173/84/4
f 139/85/5 172/85/5 171/99/5
f 138/99/6 171/99/6 174/100/6
f 115/20/2 116/77/2 183/77/2
f 85/74/2 115/20/2 182/20/2
f 107/41/2 108/80/2 181/80/2
f 95/44/2 107/41/2 180/41/2
f 94/11/2 95/44/2 179/44/2
f 116/77/2 94/11/2 178/11/2
f 86/2/2 87/88/2 177/88/2
f 108/80/2 86/2/2 176/2/2
f 216/101/4 217/123/4 183/102/4
f 190/104/5 203/107/5 111/105/5
f 203/107/5 204/121/5 112/108/5
f 202/109/6 189/115/6 88/110/6
f 215/112/4 210/149/4 176/113/4
f 189/115/6 190/104/6 89/106/6
f 185/116/3 205/119/3 113/117/3
f 205/119/3 206/127/3 114/120/3
f 204/121/5 191/125/5 90/122/5
f 217/123/4 212/158/4 178/124/4
f 191/125/5 192/145/5 91/126/5
f 206/127/3 193/132/3 92/128/3
f 213/129/4 214/161/4 180/130/4
f 193/132/3 194/151/3 93/133/3
f 188/134/6 207/137/6 117/135/6
f 207/137/6 208/141/6 118/138/6
f 209/139/4 216/101/4 182/103/4
f 208/141/6 195/143/6 96/142/6
f 195/143/6 196/164/6 97/144/6
f 192/145/5 197/147/5 103/146/5
f 197/147/5 198/155/5 104/148/5
f 210/149/4 211/169/4 177/150/4
f 194/151/3 199/153/3 105/152/3
f 199/153/3 200/159/3 106/154/3
f 198/155/5 184/157/5 82/156/5
f 184/157/5 185/116/5 83/118/5
f 212/158/4 213/129/4 179/131/4
f 200/159/3 186/162/3 84/160/3
f 214/161/4 215/112/4 181/114/4
f 186/162/3 187/170/3 85/163/3
f 196/164/6 201/166/6 109/165/6
f 201/166/6 202/109/6 110/111/6
