# Blender 5.0.0
# www.blender.org
mtllib terrain2.mtl
o Plane
v 438.465912 732.551270 0.000006
v -421.200409 732.551270 0.000006
v 438.465912 -209.444122 0.000006
v -421.200409 -209.444122 0.000006
v 438.465912 0.000025 0.000006
v 8.632749 732.551270 0.000006
v -421.200409 0.000025 0.000006
v 8.632749 -209.444122 0.000006
v 8.632749 0.000025 0.000006
v 438.465912 627.829285 0.000006
v -206.283844 732.551270 0.000006
v -421.200409 -104.722054 0.000006
v 223.549347 -209.444122 0.000006
v 438.465912 -104.722054 0.000006
v 223.549347 732.551270 0.000006
v -421.200409 627.829285 0.000006
v -206.283844 -209.444122 0.000006
v 8.632749 -104.722054 0.000006
v 8.632749 627.829285 0.000006
v 223.549347 0.000025 0.000006
v -206.283844 0.000025 0.000006
v -206.283844 627.829285 0.000006
v 223.549347 627.829285 0.000006
v 223.549347 -104.722054 0.000006
v -206.283844 -104.722054 0.000006
v 438.465912 680.190247 0.000006
v -313.742157 732.551270 0.000006
v -421.200409 -157.083084 0.000006
v 331.007629 -209.444122 0.000006
v 438.465912 -52.361012 0.000006
v 116.091049 732.551270 0.000006
v -421.200409 575.468262 0.000006
v -98.825554 -209.444122 0.000006
v 8.632749 -157.083084 0.000006
v 8.632749 575.468262 0.000006
v 331.007629 0.000025 0.000006
v -98.825554 0.000025 0.000006
v 438.465912 575.468262 0.000006
v -98.825554 732.551270 0.000006
v -421.200409 -52.361012 0.000006
v 116.091049 -209.444122 0.000006
v 438.465912 -157.083084 0.000006
v 331.007629 732.551270 0.000006
v -421.200409 680.190247 0.000006
v -313.742157 -209.444122 0.000006
v 8.632749 -52.361012 0.000006
v 8.632749 680.190247 0.000006
v 116.091049 0.000025 0.000006
v -313.742157 0.000025 0.000006
v -206.283844 575.468262 0.000006
v -206.283844 680.190247 0.000006
v -98.825554 627.829285 0.000006
v -313.742157 627.829285 0.000006
v 223.549347 575.468262 0.000006
v 223.549347 680.190247 0.000006
v 331.007629 627.829285 0.000006
v 116.091049 627.829285 0.000006
v 223.549347 -157.083084 0.000006
v 223.549347 -52.361012 0.000006
v 331.007629 -104.722054 0.000006
v 116.091049 -104.722054 0.000006
v -206.283844 -157.083084 0.000006
v -206.283844 -52.361012 0.000006
v -98.825554 -104.722054 0.000006
v -313.742157 -104.722054 0.000006
v -313.742157 -52.361012 0.000006
v -98.825554 -52.361012 0.000006
v -98.825554 -157.083084 0.000006
v 116.091049 -52.361012 0.000006
v 331.007629 -52.361012 0.000006
v 331.007629 -157.083084 0.000006
v 116.091049 680.190247 0.000006
v 331.007629 680.190247 0.000006
v 331.007629 575.468262 0.000006
v -313.742157 680.190247 0.000006
v -98.825554 680.190247 0.000006
v -98.825554 575.468262 0.000006
v -313.742157 575.468262 0.000006
v 116.091049 575.468262 0.000006
v 116.091049 -157.083084 0.000006
v -313.742157 -157.083084 0.000006
v 438.465912 680.190247 0.000006
v 438.465912 732.551270 0.000006
v -313.742157 732.551270 0.000006
v -421.200409 732.551270 0.000006
v -421.200409 -157.083084 0.000006
v -421.200409 -209.444122 0.000006
v 331.007629 -209.444122 0.000006
v 438.465912 -209.444122 0.000006
v 438.465912 -52.361012 0.000006
v 438.465912 0.000025 0.000006
v 116.091049 732.551270 0.000006
v 8.632749 732.551270 0.000006
v -421.200409 575.468262 0.000006
v -421.200409 0.000025 0.000006
v -98.825554 -209.444122 0.000006
v 8.632749 -209.444122 0.000006
v 8.632749 -157.083084 0.000006
v 8.632749 575.468262 0.000006
v 8.632749 0.000025 0.000006
v 331.007629 0.000025 0.000006
v -98.825554 0.000025 0.000006
v 438.465912 575.468262 0.000006
v 438.465912 627.829285 0.000006
v -98.825554 732.551270 0.000006
v -206.283844 732.551270 0.000006
v -421.200409 -52.361012 0.000006
v -421.200409 -104.722054 0.000006
v 116.091049 -209.444122 0.000006
v 223.549347 -209.444122 0.000006
v 438.465912 -157.083084 0.000006
v 438.465912 -104.722054 0.000006
v 331.007629 732.551270 0.000006
v 223.549347 732.551270 0.000006
v -421.200409 680.190247 0.000006
v -421.200409 627.829285 0.000006
v -313.742157 -209.444122 0.000006
v -206.283844 -209.444122 0.000006
v 8.632749 -52.361012 0.000006
v 8.632749 -104.722054 0.000006
v 8.632749 680.190247 0.000006
v 8.632749 627.829285 0.000006
v 116.091049 0.000025 0.000006
v 223.549347 0.000025 0.000006
v -313.742157 0.000025 0.000006
v -206.283844 0.000025 0.000006
v -206.283844 575.468262 0.000006
v -206.283844 680.190247 0.000006
v -206.283844 627.829285 0.000006
v -98.825554 627.829285 0.000006
v -313.742157 627.829285 0.000006
v 223.549347 575.468262 0.000006
v 223.549347 680.190247 0.000006
v 223.549347 627.829285 0.000006
v 331.007629 627.829285 0.000006
v 116.091049 627.829285 0.000006
v 223.549347 -157.083084 0.000006
v 223.549347 -52.361012 0.000006
v 223.549347 -104.722054 0.000006
v 331.007629 -104.722054 0.000006
v 116.091049 -104.722054 0.000006
v -206.283844 -157.083084 0.000006
v -206.283844 -52.361012 0.000006
v -206.283844 -104.722054 0.000006
v -98.825554 -104.722054 0.000006
v -313.742157 -104.722054 0.000006
v -313.742157 -52.361012 0.000006
v -98.825554 -52.361012 0.000006
v -98.825554 -157.083084 0.000006
v 116.091049 -52.361012 0.000006
v 331.007629 -52.361012 0.000006
v 331.007629 -157.083084 0.000006
v 116.091049 680.190247 0.000006
v 331.007629 680.190247 0.000006
v 331.007629 575.468262 0.000006
v -313.742157 680.190247 0.000006
v -98.825554 680.190247 0.000006
v -98.825554 575.468262 0.000006
v -313.742157 575.468262 0.000006
v 116.091049 575.468262 0.000006
v 116.091049 -157.083084 0.000006
v -313.742157 -157.083084 0.000006
v 223.549347 680.190247 225.304596
v 223.549347 627.829285 225.304596
v 331.007629 627.829285 225.304596
v 331.007629 680.190247 225.304596
v -206.283844 -52.361012 79.338646
v -206.283844 -104.722054 79.338646
v -313.742157 -104.722054 79.338646
v -313.742157 -52.361012 79.338646
v 223.549347 -52.361012 157.692001
v 223.549347 -104.722054 157.692001
v 331.007629 -104.722054 157.692001
v 331.007629 -52.361012 157.692001
v -421.200409 732.551270 0.000006
v -421.200409 -157.083084 0.000006
v -421.200409 -209.444122 0.000006
v -421.200409 575.468262 0.000006
v -421.200409 0.000025 0.000006
v -421.200409 -52.361012 0.000006
v -421.200409 -104.722054 0.000006
v -421.200409 680.190247 0.000006
v -421.200409 627.829285 0.000006
v 438.465912 680.190247 289.585388
v 438.465912 732.551270 289.585388
v -313.742157 732.551270 289.585388
v -421.200409 732.551270 289.585388
v -421.200409 -209.444122 289.585388
v 331.007629 -209.444122 289.585388
v 438.465912 -209.444122 289.585388
v 438.465912 -52.361012 289.585388
v 438.465912 0.000025 289.585388
v 116.091049 732.551270 289.585388
v 8.632749 732.551270 289.585388
v -98.825554 -209.444122 289.585388
v 8.632749 -209.444122 289.585388
v 438.465912 575.468262 289.585388
v 438.465912 627.829285 289.585388
v -98.825554 732.551270 289.585388
v -206.283844 732.551270 289.585388
v 116.091049 -209.444122 289.585388
v 223.549347 -209.444122 289.585388
v 438.465912 -157.083084 289.585388
v 438.465912 -104.722054 289.585388
v 331.007629 732.551270 289.585388
v 223.549347 732.551270 289.585388
v -313.742157 -209.444122 289.585388
v -206.283844 -209.444122 289.585388
v -421.200409 732.551270 289.585388
v -421.200409 -157.083084 289.585388
v -421.200409 -209.444122 289.585388
v -421.200409 575.468262 289.585388
v -421.200409 0.000025 289.585388
v -421.200409 -52.361012 289.585388
v -421.200409 -104.722054 289.585388
v -421.200409 680.190247 289.585388
v -421.200409 627.829285 289.585388
v -313.742157 0.000025 194.255630
v -206.283844 0.000025 194.255630
v -206.283844 575.468262 194.255630
v -313.742157 575.468262 194.255630
v 8.632749 680.190247 164.613419
v 8.632749 627.829285 164.613419
v -98.825554 627.829285 164.613419
v -98.825554 680.190247 164.613419
vn -0.0000 -0.0000 -1.0000
vn 1.0000 -0.0000 -0.0000
vn -0.0000 -0.0000 1.0000
vn -0.0000 -1.0000 -0.0000
vn -1.0000 -0.0000 -0.0000
vn -0.0000 1.0000 -0.0000
vt 0.430002 0.808442
vt 0.392651 0.790957
vt 0.427760 0.780680
vt 0.591315 0.795643
vt 0.555821 0.777067
vt 0.589535 0.769206
vt 0.587378 0.684018
vt 0.561391 0.347321
vt 0.593956 0.352404
vt 0.389614 0.690515
vt 0.359545 0.351341
vt 0.389944 0.354325
vt 0.525182 0.698722
vt 0.494872 0.340196
vt 0.525963 0.346099
vt 0.512738 0.317279
vt 0.472251 0.277004
vt 0.509465 0.225012
vt 0.407863 0.325054
vt 0.378494 0.287966
vt 0.415668 0.295595
vt 0.650737 0.677647
vt 0.625850 0.358651
vt 0.657853 0.363869
vt 0.597064 0.318722
vt 0.571668 0.222531
vt 0.601614 0.283578
vt 0.654586 0.786684
vt 0.621732 0.763309
vt 0.653440 0.759424
vt 0.588388 0.741324
vt 0.555594 0.720031
vt 0.587733 0.712921
vt 0.518800 0.812002
vt 0.475425 0.784191
vt 0.518493 0.784694
vt 0.519785 0.757567
vt 0.482740 0.732327
vt 0.522653 0.730132
vt 0.421628 0.752280
vt 0.374114 0.733822
vt 0.409900 0.722924
vt 0.495684 0.708961
vt 0.359383 0.697034
vt 0.555434 0.749041
vt 0.556012 0.690020
vt 0.557378 0.805217
vt 0.477402 0.757558
vt 0.620518 0.735798
vt 0.619680 0.708038
vt 0.619005 0.679980
vt 0.684155 0.729749
vt 0.651511 0.705046
vt 0.682691 0.703137
vt 0.681907 0.676898
vt 0.685623 0.782985
vt 0.685086 0.756750
vt 0.652450 0.732258
vt 0.628023 0.330265
vt 0.631286 0.302451
vt 0.607996 0.256659
vt 0.635040 0.276705
vt 0.576564 0.197853
vt 0.691600 0.340225
vt 0.661765 0.310169
vt 0.693018 0.312440
vt 0.663269 0.282894
vt 0.693044 0.284515
vt 0.689717 0.367245
vt 0.659904 0.336885
vt 0.478405 0.309989
vt 0.416976 0.266844
vt 0.465007 0.249789
vt 0.381447 0.262235
vt 0.554602 0.266586
vt 0.571380 0.319141
vt 0.506415 0.198534
vt 0.457428 0.399285
vt 0.369987 0.315673
vt 0.623364 0.790664
vt 0.474680 0.811401
vt 0.385858 0.763799
vt 0.977589 0.781390
vt 0.944426 0.815093
vt 0.945075 0.788404
vt 0.843173 0.769218
vt 0.816974 0.809883
vt 0.813294 0.782873
vt 0.841358 0.370477
vt 0.808393 0.679218
vt 0.809152 0.365809
vt 0.966905 0.376417
vt 0.941162 0.672628
vt 0.935741 0.377070
vt 0.904424 0.376497
vt 0.873242 0.679210
vt 0.873019 0.374528
vt 0.906880 0.323042
vt 0.874760 0.347875
vt 0.876719 0.321268
vt 0.968737 0.324208
vt 0.936724 0.350357
vt 0.937534 0.323624
vt 0.775144 0.365898
vt 0.739270 0.663219
vt 0.734347 0.372524
vt 0.717140 0.354430
vt 0.766519 0.287764
vt 0.788060 0.331605
vt 0.847006 0.315031
vt 0.814835 0.333272
vt 0.818976 0.294921
vt 0.780447 0.818273
vt 0.728655 0.831224
vt 0.729618 0.804360
vt 0.725872 0.777461
vt 0.760065 0.753485
vt 0.779955 0.793502
vt 0.840929 0.710537
vt 0.811180 0.751934
vt 0.809158 0.714172
vt 0.904581 0.788489
vt 0.871679 0.800317
vt 0.872686 0.772220
vt 0.903645 0.700295
vt 0.874055 0.741465
vt 0.873079 0.709106
vt 0.977575 0.706164
vt 0.947336 0.762152
vt 0.949713 0.696544
vt 0.902406 0.763173
vt 0.934968 0.741736
vt 0.906224 0.674802
vt 0.973707 0.666948
vt 0.842136 0.740456
vt 0.840638 0.680468
vt 0.844603 0.796897
vt 0.783330 0.701923
vt 0.775453 0.673825
vt 0.726244 0.687293
vt 0.696156 0.744012
vt 0.697054 0.685946
vt 0.707161 0.659474
vt 0.693326 0.814157
vt 0.694884 0.785270
vt 0.797196 0.222801
vt 0.828470 0.267991
vt 0.801768 0.197246
vt 0.851634 0.288892
vt 0.730803 0.241461
vt 0.695070 0.333611
vt 0.696189 0.280888
vt 0.729280 0.215445
vt 0.693587 0.249843
vt 0.699324 0.383868
vt 0.905650 0.349804
vt 0.938166 0.296601
vt 0.907954 0.296112
vt 0.969058 0.297295
vt 0.878810 0.294758
vt 0.844032 0.342725
vt 0.967944 0.350740
vt 0.782331 0.844620
vt 0.904158 0.815111
vt 0.978571 0.748811
vt 0.684424 0.729710
vt 0.685625 0.756717
vt 0.654639 0.787662
vt 0.623433 0.791640
vt 0.685910 0.783942
vt 0.663287 0.281911
vt 0.693309 0.283512
vt 0.635180 0.275750
vt 0.683226 0.703044
vt 0.685408 0.676943
vt 0.377976 0.287679
vt 0.380937 0.261171
vt 0.369473 0.315322
vt 0.608294 0.255814
vt 0.576798 0.196917
vt 0.395941 0.816917
vt 0.430019 0.809427
vt 0.395835 0.818016
vt 0.474656 0.812384
vt 0.356575 0.351183
vt 0.356415 0.697290
vt 0.518842 0.812984
vt 0.557472 0.806187
vt 0.690255 0.367305
vt 0.691869 0.340257
vt 0.506228 0.197587
vt 0.464768 0.248889
vt 0.693558 0.312418
vt 0.373675 0.734375
vt 0.385376 0.764235
vt 0.416924 0.265859
vt 0.591407 0.796614
vt 0.392133 0.791236
vt 0.772347 0.275092
vt 0.749801 0.277958
vt 0.756240 0.266245
vt 0.938686 0.724896
vt 0.913018 0.735955
vt 0.916558 0.719516
vt 0.765727 0.741623
vt 0.742480 0.737950
vt 0.747978 0.726064
vt 0.007595 0.383886
vt 0.008858 0.362309
vt 0.007807 0.383978
vt 0.005537 0.405235
vt 0.005949 0.405509
vt 0.083230 0.087737
vt 0.084078 0.064976
vt 0.083633 0.087816
vt 0.082519 0.111566
vt 0.082956 0.111573
vt 0.007361 0.340172
vt 0.009853 0.340255
vt 0.008424 0.362221
vt 0.084759 0.042066
vt 0.086480 0.019890
vt 0.084972 0.042152
vt 0.083646 0.064856
vt 0.081608 0.391050
vt 0.207772 0.889248
vt 0.250083 0.961039
vt 0.230268 0.984570
vt 0.213273 0.874412
vt 0.264945 0.933518
vt 0.161494 0.881006
vt 0.194118 1.000000
vt 0.161334 0.999232
vt 0.151470 0.068057
vt 0.185185 0.889134
vt 0.268927 0.544795
vt 0.303163 0.456205
vt 0.324754 0.522611
vt 0.250445 0.523536
vt 0.274772 0.415220
vt 0.217583 0.857754
vt 0.276096 0.904828
vt 0.079114 0.368335
vt 0.221180 0.840095
vt 0.284663 0.876092
vt 0.228554 0.505835
vt 0.246338 0.387334
vt 0.150235 0.113796
vt 0.205260 0.488876
vt 0.219155 0.365722
vt 0.015468 0.809407
vt 0.025087 0.943811
vt 0.000000 0.932590
vt 0.040161 0.821441
vt 0.050502 0.955635
vt 0.084923 0.412840
vt 0.064680 0.833444
vt 0.076416 0.967818
vt 0.089046 0.845650
vt 0.103176 0.979978
vt 0.224282 0.821742
vt 0.330712 0.619086
vt 0.263531 0.600095
vt 0.330945 0.588345
vt 0.151879 0.045341
vt 0.181465 0.472655
vt 0.193424 0.347214
vt 0.157704 0.456688
vt 0.169115 0.329895
vt 0.266371 0.581654
vt 0.329346 0.556284
vt 0.268372 0.563150
vt 0.079257 0.345018
vt 0.133546 0.440539
vt 0.146322 0.311717
vt 0.152018 0.091064
vt 0.109092 0.424466
vt 0.125334 0.290238
vt 0.113349 0.857950
vt 0.131271 0.991144
vt 0.137537 0.869987
vt 0.434222 0.389992
vt 0.451501 0.659251
vt 0.428438 0.644006
vt 0.535634 0.255784
vt 0.549552 0.279704
vt 0.530550 0.268553
vt 0.977089 0.809966
vt 0.086059 0.019686
vt 0.152866 0.022614
vt 0.090414 0.403807
s 0
usemtl Material.001
f 45/1/1 28/2/1 81/3/1
f 41/4/1 34/5/1 80/6/1
f 48/7/1 35/8/1 79/9/1
f 49/10/1 32/11/1 78/12/1
f 37/13/1 50/14/1 77/15/1
f 52/16/1 51/17/1 76/18/1
f 53/19/1 44/20/1 75/21/1
f 36/22/1 54/23/1 74/24/1
f 57/25/1 47/26/1 72/27/1
f 29/28/1 58/29/1 71/30/1
f 61/31/1 46/32/1 69/33/1
f 33/34/1 62/35/1 68/36/1
f 64/37/1 63/38/1 67/39/1
f 65/40/1 40/41/1 66/42/1
f 63/38/1 49/10/1 21/43/1
f 66/42/1 7/44/1 49/10/1
f 18/45/1 67/39/1 46/32/1
f 46/32/1 37/13/1 9/46/1
f 67/39/1 21/43/1 37/13/1
f 8/47/1 68/36/1 34/5/1
f 34/5/1 64/37/1 18/45/1
f 68/36/1 25/48/1 64/37/1
f 24/49/1 69/33/1 59/50/1
f 59/50/1 48/7/1 20/51/1
f 69/33/1 9/46/1 48/7/1
f 14/52/1 70/53/1 30/54/1
f 30/54/1 36/22/1 5/55/1
f 70/53/1 20/51/1 36/22/1
f 3/56/1 71/30/1 42/57/1
f 42/57/1 60/58/1 14/52/1
f 71/30/1 24/49/1 60/58/1
f 23/59/1 72/27/1 55/60/1
f 55/60/1 31/61/1 15/62/1
f 72/27/1 6/63/1 31/61/1
f 10/64/1 73/65/1 26/66/1
f 26/66/1 43/67/1 1/68/1
f 73/65/1 15/62/1 43/67/1
f 5/55/1 74/24/1 38/69/1
f 38/69/1 56/70/1 10/64/1
f 74/24/1 23/59/1 56/70/1
f 22/71/1 75/21/1 51/17/1
f 51/17/1 27/72/1 11/73/1
f 75/21/1 2/74/1 27/72/1
f 222/75/2 19/76/2 47/26/2
f 47/26/1 39/77/1 6/63/1
f 76/18/1 11/73/1 39/77/1
f 9/46/1 77/15/1 35/8/1
f 35/8/1 52/16/1 19/76/1
f 77/15/1 22/71/1 52/16/1
f 220/78/2 21/43/2 50/14/2
f 50/14/1 53/19/1 22/71/1
f 78/12/1 16/79/1 53/19/1
f 20/51/1 79/9/1 54/23/1
f 54/23/1 57/25/1 23/59/1
f 79/9/1 19/76/1 57/25/1
f 13/80/1 80/6/1 58/29/1
f 58/29/1 61/31/1 24/49/1
f 80/6/1 18/45/1 61/31/1
f 17/81/1 81/3/1 62/35/1
f 62/35/1 65/40/1 25/48/1
f 81/3/1 12/82/1 65/40/1
f 86/83/3 117/84/3 162/85/3
f 98/86/3 109/87/3 161/88/3
f 99/89/3 123/90/3 160/91/3
f 94/92/3 125/93/3 159/94/3
f 127/95/3 102/96/3 158/97/3
f 128/98/3 130/99/3 157/100/3
f 115/101/3 131/102/3 156/103/3
f 132/104/3 101/105/3 155/106/3
f 135/107/4 164/108/4 134/109/4
f 121/110/3 136/111/3 153/112/3
f 137/113/3 88/114/3 152/115/3
f 140/116/4 172/117/4 139/118/4
f 119/119/3 141/120/3 150/121/3
f 142/122/3 96/123/3 149/124/3
f 143/125/3 145/126/3 148/127/3
f 107/128/3 146/129/3 147/130/3
f 144/131/4 169/132/4 146/129/4
f 125/93/3 143/125/3 126/133/3
f 95/134/3 147/130/3 125/93/3
f 148/127/3 120/135/3 119/119/3
f 102/96/3 119/119/3 100/136/3
f 126/133/3 148/127/3 102/96/3
f 149/124/3 97/137/3 98/86/3
f 145/126/3 98/86/3 120/135/3
f 144/131/3 149/124/3 145/126/3
f 150/121/3 139/118/3 138/138/3
f 123/90/3 138/138/3 124/139/3
f 100/136/3 150/121/3 123/90/3
f 151/140/3 112/141/3 90/142/3
f 101/105/3 90/142/3 91/143/3
f 124/139/3 151/140/3 101/105/3
f 152/115/3 89/144/3 111/145/3
f 140/116/3 111/145/3 112/141/3
f 139/118/3 152/115/3 140/116/3
f 153/112/3 134/109/3 133/146/3
f 92/147/3 133/146/3 114/148/3
f 93/149/3 153/112/3 92/147/3
f 154/150/3 104/151/3 82/152/3
f 113/153/3 82/152/3 83/154/3
f 114/148/3 154/150/3 113/153/3
f 155/106/3 91/143/3 103/155/3
f 135/107/3 103/155/3 104/151/3
f 134/109/3 155/106/3 135/107/3
f 156/103/3 129/156/3 128/98/3
f 84/157/3 128/98/3 106/158/3
f 85/159/3 156/103/3 84/157/3
f 105/160/3 121/110/3 93/149/3
f 106/158/3 157/100/3 105/160/3
f 158/97/3 100/136/3 99/89/3
f 130/99/3 99/89/3 122/161/3
f 129/156/3 158/97/3 130/99/3
f 131/102/3 127/95/3 129/156/3
f 116/162/3 159/94/3 131/102/3
f 160/91/3 124/139/3 132/104/3
f 136/111/3 132/104/3 134/109/3
f 122/161/3 160/91/3 136/111/3
f 161/88/3 110/163/3 137/113/3
f 141/120/3 137/113/3 139/118/3
f 120/135/3 161/88/3 141/120/3
f 162/85/3 118/164/3 142/122/3
f 146/129/3 142/122/3 144/131/3
f 108/165/3 162/85/3 146/129/3
f 42/57/3 112/166/3 111/167/3
f 13/80/3 88/168/3 110/169/3
f 29/28/3 89/170/3 88/168/3
f 1/68/3 113/171/3 83/172/3
f 43/67/3 114/173/3 113/171/3
f 14/52/3 90/174/3 112/166/3
f 30/54/3 91/175/3 90/174/3
f 2/74/3 115/176/3 85/177/3
f 44/20/3 116/178/3 115/176/3
f 15/62/3 92/179/3 114/173/3
f 31/61/3 93/180/3 92/179/3
f 4/181/3 117/182/3 87/183/3
f 45/1/3 118/184/3 117/182/3
f 16/79/3 94/185/3 116/178/3
f 32/11/3 95/186/3 94/185/3
f 17/81/3 96/187/3 118/184/3
f 33/34/3 97/188/3 96/187/3
f 5/55/3 103/189/3 91/175/3
f 38/69/3 104/190/3 103/189/3
f 6/63/3 105/191/3 93/180/3
f 39/77/3 106/192/3 105/191/3
f 10/64/3 82/193/3 104/190/3
f 26/66/3 83/172/3 82/193/3
f 7/44/3 107/194/3 95/186/3
f 40/41/3 108/195/3 107/194/3
f 11/73/3 84/196/3 106/192/3
f 27/72/3 85/177/3 84/196/3
f 8/47/3 109/197/3 97/188/3
f 41/4/3 110/169/3 109/197/3
f 12/82/3 86/198/3 108/195/3
f 28/2/3 87/183/3 86/198/3
f 3/56/3 111/167/3 89/170/3
f 163/199/3 165/200/3 166/201/3
f 154/150/2 165/200/2 135/107/2
f 134/109/5 163/199/5 133/146/5
f 133/146/6 166/201/6 154/150/6
f 170/202/3 168/203/3 167/204/3
f 143/125/2 168/203/2 144/131/2
f 147/130/6 167/204/6 143/125/6
f 146/129/5 170/202/5 147/130/5
f 171/205/3 173/206/3 174/207/3
f 151/140/2 173/206/2 140/116/2
f 139/118/5 171/205/5 138/138/5
f 138/138/6 174/207/6 151/140/6
f 115/208/3 183/209/3 182/210/3
f 85/211/3 182/210/3 175/212/3
f 107/213/3 181/214/3 180/215/3
f 95/216/3 180/215/3 179/217/3
f 94/218/3 179/217/3 178/219/3
f 116/220/3 178/219/3 183/209/3
f 86/221/3 177/222/3 176/223/3
f 108/224/3 176/223/3 181/214/3
f 216/225/2 183/209/2 182/210/2
f 190/226/5 111/227/5 89/228/5
f 203/229/5 112/230/5 111/227/5
f 202/231/6 88/232/6 110/233/6
f 215/234/2 176/223/2 181/214/2
f 189/235/6 89/228/6 88/232/6
f 185/236/4 113/237/4 83/238/4
f 205/239/4 114/240/4 113/237/4
f 204/241/5 90/242/5 112/230/5
f 217/243/2 178/219/2 183/209/2
f 191/244/5 91/245/5 90/242/5
f 206/246/4 92/247/4 114/240/4
f 213/248/2 180/215/2 179/217/2
f 193/249/4 93/250/4 92/247/4
f 188/251/6 117/252/6 87/253/6
f 207/254/6 118/255/6 117/252/6
f 209/256/2 182/210/2 175/212/2
f 208/257/6 96/258/6 118/255/6
f 195/259/6 97/260/6 96/258/6
f 192/261/5 103/262/5 91/245/5
f 197/263/5 104/264/5 103/262/5
f 210/265/2 177/222/2 176/223/2
f 194/266/4 105/267/4 93/250/4
f 199/268/4 106/269/4 105/267/4
f 198/270/5 82/271/5 104/264/5
f 184/272/5 83/238/5 82/271/5
f 212/273/2 179/217/2 178/219/2
f 200/274/4 84/275/4 106/269/4
f 214/276/2 181/214/2 180/215/2
f 186/277/4 85/278/4 84/275/4
f 196/279/6 109/280/6 97/260/6
f 201/281/6 110/233/6 109/280/6
f 207/254/1 209/256/1 186/277/1
f 221/282/3 219/283/3 220/78/3
f 221/282/6 50/14/6 78/12/6
f 218/284/5 78/12/5 49/10/5
f 219/283/4 49/10/4 21/43/4
f 225/285/3 223/286/3 222/75/3
f 224/287/5 76/18/5 52/16/5
f 223/286/4 52/16/4 19/76/4
f 225/285/6 47/26/6 76/18/6
f 45/1/1 4/181/1 28/2/1
f 41/4/1 8/47/1 34/5/1
f 48/7/1 9/46/1 35/8/1
f 49/10/1 7/44/1 32/11/1
f 37/13/1 21/43/1 50/14/1
f 52/16/1 22/71/1 51/17/1
f 53/19/1 16/79/1 44/20/1
f 36/22/1 20/51/1 54/23/1
f 57/25/1 19/76/1 47/26/1
f 29/28/1 13/80/1 58/29/1
f 61/31/1 18/45/1 46/32/1
f 33/34/1 17/81/1 62/35/1
f 64/37/1 25/48/1 63/38/1
f 65/40/1 12/82/1 40/41/1
f 63/38/1 66/42/1 49/10/1
f 66/42/1 40/41/1 7/44/1
f 18/45/1 64/37/1 67/39/1
f 46/32/1 67/39/1 37/13/1
f 67/39/1 63/38/1 21/43/1
f 8/47/1 33/34/1 68/36/1
f 34/5/1 68/36/1 64/37/1
f 68/36/1 62/35/1 25/48/1
f 24/49/1 61/31/1 69/33/1
f 59/50/1 69/33/1 48/7/1
f 69/33/1 46/32/1 9/46/1
f 14/52/1 60/58/1 70/53/1
f 30/54/1 70/53/1 36/22/1
f 70/53/1 59/50/1 20/51/1
f 3/56/1 29/28/1 71/30/1
f 42/57/1 71/30/1 60/58/1
f 71/30/1 58/29/1 24/49/1
f 23/59/1 57/25/1 72/27/1
f 55/60/1 72/27/1 31/61/1
f 72/27/1 47/26/1 6/63/1
f 10/64/1 56/70/1 73/65/1
f 26/66/1 73/65/1 43/67/1
f 73/65/1 55/60/1 15/62/1
f 5/55/1 36/22/1 74/24/1
f 38/69/1 74/24/1 56/70/1
f 74/24/1 54/23/1 23/59/1
f 22/71/1 53/19/1 75/21/1
f 51/17/1 75/21/1 27/72/1
f 75/21/1 44/20/1 2/74/1
f 222/75/2 223/286/2 19/76/2
f 47/26/1 76/18/1 39/77/1
f 76/18/1 51/17/1 11/73/1
f 9/46/1 37/13/1 77/15/1
f 35/8/1 77/15/1 52/16/1
f 77/15/1 50/14/1 22/71/1
f 220/78/2 219/283/2 21/43/2
f 50/14/1 78/12/1 53/19/1
f 78/12/1 32/11/1 16/79/1
f 20/51/1 48/7/1 79/9/1
f 54/23/1 79/9/1 57/25/1
f 79/9/1 35/8/1 19/76/1
f 13/80/1 41/4/1 80/6/1
f 58/29/1 80/6/1 61/31/1
f 80/6/1 34/5/1 18/45/1
f 17/81/1 45/1/1 81/3/1
f 62/35/1 81/3/1 65/40/1
f 81/3/1 28/2/1 12/82/1
f 86/83/3 87/288/3 117/84/3
f 98/86/3 97/137/3 109/87/3
f 99/89/3 100/136/3 123/90/3
f 94/92/3 95/134/3 125/93/3
f 127/95/3 126/133/3 102/96/3
f 128/98/3 129/156/3 130/99/3
f 115/101/3 116/162/3 131/102/3
f 132/104/3 124/139/3 101/105/3
f 135/107/4 165/200/4 164/108/4
f 121/110/3 122/161/3 136/111/3
f 137/113/3 110/163/3 88/114/3
f 140/116/4 173/206/4 172/117/4
f 119/119/3 120/135/3 141/120/3
f 142/122/3 118/164/3 96/123/3
f 143/125/3 144/131/3 145/126/3
f 107/128/3 108/165/3 146/129/3
f 144/131/4 168/203/4 169/132/4
f 125/93/3 147/130/3 143/125/3
f 95/134/3 107/128/3 147/130/3
f 148/127/3 145/126/3 120/135/3
f 102/96/3 148/127/3 119/119/3
f 126/133/3 143/125/3 148/127/3
f 149/124/3 96/123/3 97/137/3
f 145/126/3 149/124/3 98/86/3
f 144/131/3 142/122/3 149/124/3
f 150/121/3 141/120/3 139/118/3
f 123/90/3 150/121/3 138/138/3
f 100/136/3 119/119/3 150/121/3
f 151/140/3 140/116/3 112/141/3
f 101/105/3 151/140/3 90/142/3
f 124/139/3 138/138/3 151/140/3
f 152/115/3 88/114/3 89/144/3
f 140/116/3 152/115/3 111/145/3
f 139/118/3 137/113/3 152/115/3
f 153/112/3 136/111/3 134/109/3
f 92/147/3 153/112/3 133/146/3
f 93/149/3 121/110/3 153/112/3
f 154/150/3 135/107/3 104/151/3
f 113/153/3 154/150/3 82/152/3
f 114/148/3 133/146/3 154/150/3
f 155/106/3 101/105/3 91/143/3
f 135/107/3 155/106/3 103/155/3
f 134/109/3 132/104/3 155/106/3
f 156/103/3 131/102/3 129/156/3
f 84/157/3 156/103/3 128/98/3
f 85/159/3 115/101/3 156/103/3
f 105/160/3 157/100/3 121/110/3
f 106/158/3 128/98/3 157/100/3
f 158/97/3 102/96/3 100/136/3
f 130/99/3 158/97/3 99/89/3
f 129/156/3 127/95/3 158/97/3
f 131/102/3 159/94/3 127/95/3
f 116/162/3 94/92/3 159/94/3
f 160/91/3 123/90/3 124/139/3
f 136/111/3 160/91/3 132/104/3
f 122/161/3 99/89/3 160/91/3
f 161/88/3 109/87/3 110/163/3
f 141/120/3 161/88/3 137/113/3
f 120/135/3 98/86/3 161/88/3
f 162/85/3 117/84/3 118/164/3
f 146/129/3 162/85/3 142/122/3
f 108/165/3 86/83/3 162/85/3
f 42/57/3 14/52/3 112/166/3
f 13/80/3 29/28/3 88/168/3
f 29/28/3 3/56/3 89/170/3
f 1/68/3 43/67/3 113/171/3
f 43/67/3 15/62/3 114/173/3
f 14/52/3 30/54/3 90/174/3
f 30/54/3 5/55/3 91/175/3
f 2/74/3 44/20/3 115/176/3
f 44/20/3 16/79/3 116/178/3
f 15/62/3 31/61/3 92/179/3
f 31/61/3 6/63/3 93/180/3
f 4/181/3 45/1/3 117/182/3
f 45/1/3 17/81/3 118/184/3
f 16/79/3 32/11/3 94/185/3
f 32/11/3 7/44/3 95/186/3
f 17/81/3 33/34/3 96/187/3
f 33/34/3 8/47/3 97/188/3
f 5/55/3 38/69/3 103/189/3
f 38/69/3 10/64/3 104/190/3
f 6/63/3 39/77/3 105/191/3
f 39/77/3 11/73/3 106/192/3
f 10/64/3 26/66/3 82/193/3
f 26/66/3 1/68/3 83/172/3
f 7/44/3 40/41/3 107/194/3
f 40/41/3 12/82/3 108/195/3
f 11/73/3 27/72/3 84/196/3
f 27/72/3 2/74/3 85/177/3
f 8/47/3 41/4/3 109/197/3
f 41/4/3 13/80/3 110/169/3
f 12/82/3 28/2/3 86/198/3
f 28/2/3 4/181/3 87/183/3
f 3/56/3 42/57/3 111/167/3
f 163/199/3 164/108/3 165/200/3
f 154/150/2 166/201/2 165/200/2
f 134/109/5 164/108/5 163/199/5
f 133/146/6 163/199/6 166/201/6
f 170/202/3 169/132/3 168/203/3
f 143/125/2 167/204/2 168/203/2
f 147/130/6 170/202/6 167/204/6
f 146/129/5 169/132/5 170/202/5
f 171/205/3 172/117/3 173/206/3
f 151/140/2 174/207/2 173/206/2
f 139/118/5 172/117/5 171/205/5
f 138/138/6 171/205/6 174/207/6
f 115/208/3 116/220/3 183/209/3
f 85/211/3 115/208/3 182/210/3
f 107/213/3 108/224/3 181/214/3
f 95/216/3 107/213/3 180/215/3
f 94/218/3 95/216/3 179/217/3
f 116/220/3 94/218/3 178/219/3
f 86/221/3 87/289/3 177/222/3
f 108/224/3 86/221/3 176/223/3
f 216/225/2 217/243/2 183/209/2
f 190/226/5 203/229/5 111/227/5
f 203/229/5 204/241/5 112/230/5
f 202/231/6 189/235/6 88/232/6
f 215/234/2 210/265/2 176/223/2
f 189/235/6 190/226/6 89/228/6
f 185/236/4 205/239/4 113/237/4
f 205/239/4 206/246/4 114/240/4
f 204/241/5 191/244/5 90/242/5
f 217/243/2 212/273/2 178/219/2
f 191/244/5 192/261/5 91/245/5
f 206/246/4 193/249/4 92/247/4
f 213/248/2 214/276/2 180/215/2
f 193/249/4 194/266/4 93/250/4
f 188/251/6 207/254/6 117/252/6
f 207/254/6 208/257/6 118/255/6
f 209/256/2 216/225/2 182/210/2
f 208/257/6 195/259/6 96/258/6
f 195/259/6 196/279/6 97/260/6
f 192/261/5 197/263/5 103/262/5
f 197/263/5 198/270/5 104/264/5
f 210/265/2 211/290/2 177/222/2
f 194/266/4 199/268/4 105/267/4
f 199/268/4 200/274/4 106/269/4
f 198/270/5 184/272/5 82/271/5
f 184/272/5 185/236/5 83/238/5
f 212/273/2 213/248/2 179/217/2
f 200/274/4 186/277/4 84/275/4
f 214/276/2 215/234/2 181/214/2
f 186/277/4 187/291/4 85/278/4
f 196/279/6 201/281/6 109/280/6
f 201/281/6 202/231/6 110/233/6
f 205/239/1 185/236/1 184/272/1
f 205/239/1 184/272/1 198/270/1
f 206/246/1 205/239/1 198/270/1
f 206/246/1 198/270/1 197/263/1
f 193/249/1 206/246/1 197/263/1
f 193/249/1 197/263/1 192/261/1
f 194/266/1 193/249/1 192/261/1
f 194/266/1 192/261/1 191/244/1
f 199/268/1 194/266/1 191/244/1
f 199/268/1 191/244/1 204/241/1
f 200/274/1 199/268/1 204/241/1
f 203/229/1 190/226/1 189/235/1
f 200/274/1 204/241/1 203/229/1
f 186/277/1 200/274/1 203/229/1
f 203/229/1 189/235/1 202/231/1
f 203/229/1 202/231/1 201/281/1
f 203/229/1 201/281/1 196/279/1
f 203/229/1 196/279/1 195/259/1
f 203/229/1 195/259/1 208/257/1
f 203/229/1 208/257/1 207/254/1
f 186/277/1 203/229/1 207/254/1
f 215/234/3 210/265/3 211/290/3
f 212/273/5 213/248/5 214/276/5
f 214/276/2 215/234/2 211/290/2
f 216/225/3 217/243/3 212/273/3
f 212/273/3 214/276/3 211/290/3
f 209/256/3 216/225/3 212/273/3
f 209/256/3 212/273/3 211/290/3
f 209/256/3 211/290/3 187/291/3
f 207/254/1 188/251/1 209/256/1
f 209/256/3 187/291/3 186/277/3
f 221/282/3 218/284/3 219/283/3
f 221/282/6 220/78/6 50/14/6
f 218/284/5 221/282/5 78/12/5
f 219/283/4 218/284/4 49/10/4
f 225/285/3 224/287/3 223/286/3
f 224/287/5 225/285/5 76/18/5
f 223/286/4 224/287/4 52/16/4
f 225/285/6 222/75/6 47/26/6
