# Blender 4.5.3 LTS
# www.blender.org
mtllib enemy4.mtl
o Cube
v 0.996515 -0.697158 0.951908
v 0.996515 -0.697158 0.009490
v 0.996515 0.721740 0.951908
v 0.996515 0.721740 0.009490
v 2.232117 -0.697158 0.951908
v 2.232117 -0.697158 0.009490
v 2.232117 0.721740 0.951908
v 2.232117 0.721740 0.009490
v 2.232117 1.918430 0.009490
v 1.888683 1.918430 0.628537
v 1.339949 1.918430 0.628537
v 0.996515 1.918430 0.009490
v 0.996515 -0.878845 0.009490
v 2.232117 -0.878845 0.009490
v 1.148985 -0.878845 0.820087
v 2.079647 -0.878845 0.820087
v 0.996515 1.090089 2.416333
v 2.232117 1.090089 2.416333
v 0.996515 -0.328808 2.416333
v 2.232117 -0.328808 2.416333
v 0.996515 1.249599 2.847935
v 2.232117 1.249599 2.847935
v 0.996515 -0.447366 2.881173
v 2.232117 -0.447366 2.881173
v 0.996515 1.137208 3.285717
v 2.232117 1.137208 3.285717
v 0.996515 -0.329662 3.318954
v 2.232117 -0.329662 3.318954
v 0.996515 1.064215 4.337196
v 2.232117 1.064215 4.337196
v 0.996515 -0.402610 4.301991
v 2.232117 -0.402610 4.301991
v 0.996515 1.041943 5.280717
v 2.232117 1.041943 5.280717
v 0.996515 -0.424882 5.245512
v 2.232117 -0.424882 5.245512
v 0.000000 1.064215 4.337196
v 0.000000 -0.663072 4.301991
v 0.000000 1.415282 5.280717
v 0.000000 -1.563041 5.245512
v 0.676405 -0.424882 5.245512
v 0.676405 -0.402610 4.301991
v 0.676405 1.041943 5.280717
v 0.676405 1.064215 4.337196
v 0.573612 -0.361087 5.077168
v 0.573612 0.725941 5.099323
v 0.573612 0.739957 4.505540
v 0.573612 -0.347070 4.483385
v 0.000000 -0.685344 8.484587
v 0.000000 1.041943 8.519792
v 1.489870 -0.927944 8.461944
v 1.489870 1.292799 8.507205
v 0.000000 1.415282 5.620179
v 0.573612 0.725941 5.598595
v 0.573612 -0.361087 5.576439
v 0.000000 -1.563041 5.584974
v 2.231287 -1.902700 8.473496
v 0.000000 -2.138009 8.484587
v 2.231287 2.274480 8.495651
v 0.000000 2.487682 8.519792
v 0.000000 2.487682 5.620179
v 2.231287 -1.902700 5.576439
v 2.231287 2.274480 5.598595
v 0.000000 -2.138009 5.584974
v 0.000000 3.320690 7.069986
v 2.231287 3.030517 7.047123
v 2.231287 -2.654745 7.024968
v 0.000000 -2.975008 7.034781
v 2.519489 -0.470338 7.773258
v 2.519489 0.843031 7.784621
v 2.519489 -0.470338 6.287470
v 2.519489 0.843031 6.298833
v 2.519489 1.080740 7.039528
v 2.519489 -0.706792 7.032563
v 2.864217 0.843031 7.784621
v 2.864217 -0.470338 7.773258
v 2.864217 -0.706792 7.032563
v 2.864217 1.080740 7.039528
v 2.864217 0.843031 6.298833
v 2.864217 -0.470338 6.287470
v 2.864217 1.066660 8.039624
v 2.864217 -0.694110 8.024390
v 2.864217 -1.011113 7.031376
v 2.864217 1.385345 7.040714
v 2.864217 1.066660 6.047701
v 2.864217 -0.694110 6.032466
v 2.864217 1.066660 8.039624
v 2.864217 -0.694110 8.024390
v 2.864217 -1.011113 7.031376
v 2.864217 1.385345 7.040714
v 2.864217 1.066660 6.047701
v 2.864217 -0.694110 6.032466
v 4.072375 1.066660 8.039624
v 4.072375 -0.694110 8.024390
v 4.072375 -1.011113 7.031376
v 4.072375 1.385345 7.040714
v 4.072375 1.066660 6.047701
v 4.072375 -0.694110 6.032466
v 3.084404 0.745760 6.044924
v 3.084404 -0.373210 6.035243
v 3.852188 0.745760 6.044924
v 3.852188 -0.373210 6.035243
v 3.084404 0.745760 5.412413
v 3.084404 -0.373210 5.402732
v 3.852188 0.745760 5.412413
v 3.852188 -0.373210 5.402732
v 2.871002 1.056772 5.415104
v 2.871002 -0.684222 5.400042
v 4.065590 1.056772 5.415104
v 4.065590 -0.684222 5.400042
v 2.871002 1.056772 4.385606
v 2.871002 -0.684222 4.370543
v 4.065590 1.056772 4.385606
v 4.065590 -0.684222 4.370543
v 3.118393 1.056772 5.201903
v 3.818200 1.056772 5.201903
v 3.118393 1.056772 4.598808
v 3.818200 1.056772 4.598808
v 3.118393 2.918649 5.201903
v 3.818200 2.918649 5.201903
v 3.118393 2.918649 4.598808
v 3.818200 2.918649 4.598808
v -0.996515 -0.697158 0.951908
v -0.996515 -0.697158 0.009490
v -0.996515 0.721740 0.951908
v -0.996515 0.721740 0.009490
v -2.232117 -0.697158 0.951908
v -2.232117 -0.697158 0.009490
v -2.232117 0.721740 0.951908
v -2.232117 0.721740 0.009490
v -2.232117 1.918430 0.009490
v -1.888683 1.918430 0.628537
v -1.339949 1.918430 0.628537
v -0.996515 1.918430 0.009490
v -0.996515 -0.878845 0.009490
v -2.232117 -0.878845 0.009490
v -1.148985 -0.878845 0.820087
v -2.079647 -0.878845 0.820087
v -0.996515 1.090089 2.416333
v -2.232117 1.090089 2.416333
v -0.996515 -0.328808 2.416333
v -2.232117 -0.328808 2.416333
v -0.996515 1.249599 2.847935
v -2.232117 1.249599 2.847935
v -0.996515 -0.447366 2.881173
v -2.232117 -0.447366 2.881173
v -0.996515 1.137208 3.285717
v -2.232117 1.137208 3.285717
v -0.996515 -0.329662 3.318954
v -2.232117 -0.329662 3.318954
v -0.996515 1.064215 4.337196
v -2.232117 1.064215 4.337196
v -0.996515 -0.402610 4.301991
v -2.232117 -0.402610 4.301991
v -0.996515 1.041943 5.280717
v -2.232117 1.041943 5.280717
v -0.996515 -0.424882 5.245512
v -2.232117 -0.424882 5.245512
v -0.676405 -0.424882 5.245512
v -0.676405 -0.402610 4.301991
v -0.676405 1.041943 5.280717
v -0.676405 1.064215 4.337196
v -0.573612 -0.361087 5.077168
v -0.573612 0.725941 5.099323
v -0.573612 0.739957 4.505540
v -0.573612 -0.347070 4.483385
v -1.489870 -0.927944 8.461944
v -1.489870 1.292799 8.507205
v -0.573612 0.725941 5.598595
v -0.573612 -0.361087 5.576439
v -2.231287 -1.902700 8.473496
v -2.231287 2.274480 8.495651
v -2.231287 -1.902700 5.576439
v -2.231287 2.274480 5.598595
v -2.231287 3.030517 7.047123
v -2.231287 -2.654745 7.024968
v -2.519489 -0.470338 7.773258
v -2.519489 0.843031 7.784621
v -2.519489 -0.470338 6.287470
v -2.519489 0.843031 6.298833
v -2.519489 1.080740 7.039528
v -2.519489 -0.706792 7.032563
v -2.864217 0.843031 7.784621
v -2.864217 -0.470338 7.773258
v -2.864217 -0.706792 7.032563
v -2.864217 1.080740 7.039528
v -2.864217 0.843031 6.298833
v -2.864217 -0.470338 6.287470
v -2.864217 1.066660 8.039624
v -2.864217 -0.694110 8.024390
v -2.864217 -1.011113 7.031376
v -2.864217 1.385345 7.040714
v -2.864217 1.066660 6.047701
v -2.864217 -0.694110 6.032466
v -2.864217 1.066660 8.039624
v -2.864217 -0.694110 8.024390
v -2.864217 -1.011113 7.031376
v -2.864217 1.385345 7.040714
v -2.864217 1.066660 6.047701
v -2.864217 -0.694110 6.032466
v -4.072375 1.066660 8.039624
v -4.072375 -0.694110 8.024390
v -4.072375 -1.011113 7.031376
v -4.072375 1.385345 7.040714
v -4.072375 1.066660 6.047701
v -4.072375 -0.694110 6.032466
v -3.084404 0.745760 6.044924
v -3.084404 -0.373210 6.035243
v -3.852188 0.745760 6.044924
v -3.852188 -0.373210 6.035243
v -3.084404 0.745760 5.412413
v -3.084404 -0.373210 5.402732
v -3.852188 0.745760 5.412413
v -3.852188 -0.373210 5.402732
v -2.871002 1.056772 5.415104
v -2.871002 -0.684222 5.400042
v -4.065590 1.056772 5.415104
v -4.065590 -0.684222 5.400042
v -2.871002 1.056772 4.385606
v -2.871002 -0.684222 4.370543
v -4.065590 1.056772 4.385606
v -4.065590 -0.684222 4.370543
v -3.118393 1.056772 5.201903
v -3.818200 1.056772 5.201903
v -3.118393 1.056772 4.598808
v -3.818200 1.056772 4.598808
v -3.118393 2.918649 5.201903
v -3.818200 2.918649 5.201903
v -3.118393 2.918649 4.598808
v -3.818200 2.918649 4.598808
vn -0.0000 -0.9698 0.2439
vn -0.0000 -0.0000 -1.0000
vn 1.0000 -0.0000 -0.0000
vn -1.0000 -0.0000 -0.0000
vn -0.0000 1.0000 -0.0000
vn -0.0000 0.2609 0.9654
vn -0.8744 -0.0000 0.4851
vn 0.9612 0.2759 -0.0000
vn -0.0000 -1.0000 -0.0000
vn -0.0000 -0.5873 0.8094
vn -0.7660 -0.6428 -0.0000
vn 0.9828 -0.0000 0.1849
vn -0.0000 0.9698 -0.2439
vn -0.0000 -0.9657 0.2596
vn -0.0000 0.9380 -0.3467
vn -0.0000 -0.9690 -0.2471
vn -0.0000 0.9686 0.2487
vn -0.0000 0.9976 0.0693
vn -0.0000 -0.9973 -0.0740
vn -0.0000 -0.0240 0.9997
vn -0.0000 0.9997 0.0236
vn -0.0000 -0.9997 -0.0236
vn 0.4874 -0.8729 -0.0206
vn 0.0189 0.0204 -0.9996
vn 0.7127 0.6574 -0.2446
vn 0.2917 0.0195 -0.9563
vn -0.0000 0.0240 -0.9997
vn -0.8636 0.0121 -0.5040
vn -0.9521 0.3056 0.0072
vn -0.8552 -0.0106 0.5182
vn -0.5029 -0.8641 -0.0204
vn 0.0119 -0.0204 0.9997
vn -0.0165 0.0176 -0.9997
vn 0.9025 -0.4307 -0.0000
vn 0.7687 0.6396 -0.0000
vn 0.0894 0.8830 0.4609
vn 0.1255 -0.8592 0.4960
vn 0.9864 -0.1457 -0.0756
vn 0.0084 -0.0000 1.0000
vn -0.0038 -0.0000 -1.0000
vn 0.0226 -0.0053 0.9997
vn 0.0034 0.0145 0.9999
vn 0.0800 0.8837 -0.4612
vn 0.1212 -0.8597 -0.4963
vn -0.0000 -0.9526 0.3041
vn 0.9864 0.1455 0.0759
vn 0.9837 -0.1712 0.0547
vn 0.9253 -0.0020 0.3791
vn 0.9253 0.0020 -0.3791
vn 0.9837 0.1712 -0.0549
vn -0.0000 0.9527 0.3039
vn -0.0000 0.9522 -0.3056
vn -0.0000 -0.0087 1.0000
vn -0.0000 -0.9532 -0.3025
vn -0.0000 0.0087 -1.0000
vn -0.0000 -0.0000 1.0000
vn -0.9612 0.2759 -0.0000
vn 0.7660 -0.6428 -0.0000
vn -0.4874 -0.8729 -0.0206
vn -0.0189 0.0204 -0.9996
vn -0.4874 0.8729 0.0206
vn -0.2917 0.0195 -0.9563
vn 0.8636 0.0121 -0.5040
vn 0.9521 0.3056 0.0072
vn 0.8607 -0.0122 0.5090
vn 0.5029 -0.8641 -0.0204
vn -0.0119 -0.0204 0.9997
vn 0.0165 0.0176 -0.9997
vn -0.9025 -0.4307 -0.0000
vn -0.7687 0.6396 -0.0000
vn -0.1171 0.8611 0.4948
vn -0.1255 -0.8592 0.4960
vn -0.9864 -0.1457 -0.0756
vn -0.0084 -0.0000 1.0000
vn 0.0046 -0.0049 -1.0000
vn 0.0423 -0.0204 0.9989
vn -0.0152 -0.0000 0.9999
vn -0.0800 0.8837 -0.4612
vn -0.0914 -0.8838 -0.4588
vn -0.9864 0.1455 0.0759
vn -0.9863 -0.1462 0.0759
vn -0.9253 -0.0020 0.3791
vn -0.9253 0.0020 -0.3791
vn -0.9863 0.1461 -0.0762
vn 0.8744 -0.0000 0.4851
vn -0.9828 -0.0000 0.1849
vn 0.7957 -0.4383 -0.4181
vn -0.0050 0.0053 -1.0000
vn 0.4874 0.8729 0.0206
vn -0.8686 0.0101 -0.4953
vn -0.8607 -0.0122 0.5090
vn -0.0097 -0.0000 -1.0000
vn 0.1171 0.8611 0.4948
vn 0.0954 -0.8835 0.4587
vn 0.9838 -0.1710 -0.0543
vn 0.0111 0.0034 0.9999
vn -0.0046 -0.0049 -1.0000
vn -0.0423 -0.0204 0.9989
vn 0.0152 -0.0000 0.9999
vn 0.1070 0.8621 -0.4953
vn 0.0914 -0.8838 -0.4588
vn 0.9838 0.1710 0.0545
vn 0.9863 -0.1462 0.0759
vn 0.9271 -0.0032 0.3749
vn 0.9271 0.0032 -0.3749
vn 0.9863 0.1461 -0.0762
vn -0.7957 -0.4383 -0.4181
vn 0.0050 0.0053 -1.0000
vn -0.7127 0.6574 -0.2446
vn 0.8686 0.0101 -0.4953
vn 0.8552 -0.0106 0.5182
vn 0.0097 -0.0000 -1.0000
vn -0.0894 0.8830 0.4609
vn -0.0954 -0.8835 0.4587
vn -0.9838 -0.1710 -0.0543
vn -0.0111 0.0034 0.9999
vn 0.0038 -0.0000 -1.0000
vn -0.0226 -0.0053 0.9997
vn -0.0034 0.0145 0.9999
vn -0.1070 0.8621 -0.4953
vn -0.1212 -0.8597 -0.4963
vn -0.9838 0.1710 0.0545
vn -0.9837 -0.1712 0.0547
vn -0.9271 -0.0032 0.3749
vn -0.9271 0.0032 -0.3749
vn -0.9837 0.1712 -0.0549
vt 0.069663 0.268599
vt 0.097450 0.235706
vt 0.097335 0.268571
vt 0.291575 0.241473
vt 0.319247 0.214673
vt 0.319247 0.241477
vt 0.212473 0.790107
vt 0.233112 0.803641
vt 0.212561 0.803763
vt 0.291575 0.273255
vt 0.319247 0.273258
vt 0.197862 0.852922
vt 0.218425 0.866578
vt 0.197862 0.866578
vt 0.291575 0.277324
vt 0.052541 0.295942
vt 0.066406 0.275961
vt 0.066406 0.303636
vt 0.228550 0.327784
vt 0.201674 0.307815
vt 0.228550 0.300107
vt 0.214470 0.246429
vt 0.241294 0.232462
vt 0.241275 0.246429
vt 0.205407 0.149340
vt 0.178792 0.135519
vt 0.205270 0.128233
vt 0.176501 0.307315
vt 0.158345 0.331575
vt 0.158345 0.303903
vt 0.106858 0.172345
vt 0.110898 0.196613
vt 0.106858 0.200022
vt 0.182687 0.246429
vt 0.178626 0.228228
vt 0.182687 0.225321
vt 0.237169 0.149151
vt 0.241237 0.130921
vt 0.241237 0.149127
vt 0.207001 0.768919
vt 0.229225 0.762051
vt 0.227552 0.768797
vt 0.248429 0.128375
vt 0.276041 0.095491
vt 0.276104 0.128393
vt 0.228576 0.095295
vt 0.237033 0.128044
vt 0.214469 0.225321
vt 0.190936 0.192522
vt 0.222719 0.192522
vt 0.124771 0.852936
vt 0.142699 0.846560
vt 0.142675 0.852918
vt 0.240356 0.768912
vt 0.258242 0.762640
vt 0.258261 0.768923
vt 0.124811 0.859659
vt 0.142715 0.859641
vt 0.223762 0.831701
vt 0.201481 0.824965
vt 0.226074 0.825447
vt 0.190916 0.172305
vt 0.222138 0.149499
vt 0.223773 0.173050
vt 0.224445 0.819103
vt 0.206238 0.756326
vt 0.227479 0.755718
vt 0.240336 0.762629
vt 0.258264 0.756317
vt 0.197114 0.052460
vt 0.230317 0.031919
vt 0.229955 0.053054
vt 0.228464 0.075080
vt 0.248370 0.075987
vt 0.276082 0.052475
vt 0.276046 0.076006
vt 0.069753 0.215517
vt 0.097369 0.193482
vt 0.097425 0.215488
vt 0.052541 0.310810
vt 0.019695 0.283131
vt 0.052541 0.283133
vt 0.248406 0.052457
vt 0.276104 0.031349
vt 0.069697 0.193511
vt 0.097335 0.172353
vt 0.293188 0.070799
vt 0.276104 0.078213
vt 0.279886 0.070650
vt 0.113734 0.121238
vt 0.092330 0.074445
vt 0.113374 0.082542
vt 0.032542 0.211810
vt 0.069663 0.270693
vt 0.032535 0.236162
vt 0.109848 0.311599
vt 0.096852 0.328525
vt 0.096852 0.307294
vt 0.109771 0.275832
vt 0.096852 0.307294
vt 0.096852 0.268599
vt 0.326409 0.097060
vt 0.319240 0.064201
vt 0.326409 0.064199
vt 0.240382 0.741081
vt 0.235757 0.727410
vt 0.240396 0.727413
vt 0.092408 0.890324
vt 0.113659 0.885687
vt 0.113659 0.890326
vt 0.142640 0.818652
vt 0.147301 0.832318
vt 0.142662 0.832323
vt 0.290722 0.748678
vt 0.288190 0.732058
vt 0.290722 0.727414
vt 0.277045 0.727410
vt 0.279583 0.732055
vt 0.277045 0.748673
vt 0.279526 0.747812
vt 0.147278 0.818647
vt 0.148802 0.829681
vt 0.147108 0.185705
vt 0.113734 0.229815
vt 0.113735 0.191135
vt 0.019695 0.082007
vt 0.052730 0.031326
vt 0.084993 0.050342
vt 0.019703 0.196366
vt 0.069663 0.177126
vt 0.084727 0.074361
vt 0.020055 0.120703
vt 0.084777 0.141078
vt 0.293396 0.046461
vt 0.304369 0.070661
vt 0.297472 0.098098
vt 0.305075 0.098004
vt 0.297472 0.031420
vt 0.304577 0.046323
vt 0.738429 0.826913
vt 0.993146 0.992405
vt 0.738523 0.990962
vt 0.994017 0.431071
vt 0.730507 0.602083
vt 0.732829 0.431144
vt 0.113734 0.141951
vt 0.146107 0.114769
vt 0.146265 0.158598
vt 0.147107 0.235436
vt 0.113734 0.262197
vt 0.051957 0.172345
vt 0.019695 0.153240
vt 0.019695 0.263082
vt 0.019696 0.275961
vt 0.163715 0.163869
vt 0.163715 0.257426
vt 0.113735 0.158598
vt 0.991100 0.661885
vt 0.736479 0.660733
vt 0.731486 0.261707
vt 0.234171 0.904321
vt 0.229240 0.893560
vt 0.234235 0.893561
vt 0.178618 0.048062
vt 0.146050 0.074753
vt 0.146086 0.031326
vt 0.178618 0.141574
vt 0.162668 0.109379
vt 0.162766 0.079977
vt 0.113734 0.048439
vt 0.129391 0.109573
vt 0.129490 0.080170
vt 0.184286 0.258432
vt 0.178618 0.292815
vt 0.178618 0.253374
vt 0.285758 0.803867
vt 0.290717 0.814621
vt 0.285721 0.814621
vt 0.290754 0.825397
vt 0.285758 0.825397
vt 0.319247 0.214669
vt 0.326969 0.244083
vt 0.319247 0.244084
vt 0.234235 0.915092
vt 0.229176 0.904320
vt 0.285721 0.825398
vt 0.290716 0.844432
vt 0.285721 0.844432
vt 0.106858 0.172345
vt 0.217562 0.288138
vt 0.200796 0.300107
vt 0.200829 0.293291
vt 0.223230 0.253758
vt 0.223230 0.293200
vt 0.184286 0.287852
vt 0.201052 0.246429
vt 0.201019 0.253251
vt 0.217562 0.258719
vt 0.096852 0.313220
vt 0.069663 0.290896
vt 0.096720 0.290900
vt 0.113734 0.269535
vt 0.158345 0.269126
vt 0.136167 0.315844
vt 0.295414 0.279616
vt 0.273288 0.286805
vt 0.268356 0.279617
vt 0.069795 0.268599
vt 0.096852 0.268603
vt 0.276180 0.098101
vt 0.303164 0.120382
vt 0.276104 0.120386
vt 0.303240 0.142712
vt 0.276180 0.142716
vt 0.241294 0.279617
vt 0.268356 0.319051
vt 0.241294 0.319052
vt 0.185587 0.863707
vt 0.194753 0.874834
vt 0.185587 0.874833
vt 0.268356 0.319058
vt 0.290483 0.311870
vt 0.295414 0.319058
vt 0.273288 0.311870
vt 0.290483 0.286804
vt 0.296507 0.156466
vt 0.318484 0.149499
vt 0.313704 0.156465
vt 0.286210 0.764885
vt 0.277045 0.748762
vt 0.286210 0.748678
vt 0.244909 0.801336
vt 0.235743 0.790212
vt 0.244909 0.790211
vt 0.268409 0.845311
vt 0.277575 0.829173
vt 0.277575 0.845390
vt 0.065812 0.337563
vt 0.042753 0.310813
vt 0.065812 0.310810
vt 0.296507 0.181526
vt 0.291726 0.149500
vt 0.318484 0.188491
vt 0.291726 0.188492
vt 0.313704 0.181526
vt 0.295414 0.279617
vt 0.322167 0.318615
vt 0.295414 0.318615
vt 0.303240 0.137096
vt 0.326298 0.098296
vt 0.326298 0.137295
vt 0.042753 0.310813
vt 0.037978 0.332028
vt 0.037978 0.316353
vt 0.201674 0.339083
vt 0.178618 0.300319
vt 0.201674 0.300107
vt 0.925739 0.061419
vt 0.920611 0.077251
vt 0.920611 0.061419
vt 0.019695 0.310810
vt 0.024470 0.332026
vt 0.019695 0.337566
vt 0.042753 0.337569
vt 0.024470 0.316352
vt 0.955418 0.049953
vt 0.960546 0.055904
vt 0.955418 0.055903
vt 0.949155 0.094761
vt 0.943204 0.110592
vt 0.943204 0.094761
vt 0.920611 0.093076
vt 0.925739 0.077251
vt 0.925739 0.093073
vt 0.918573 0.116578
vt 0.924522 0.100748
vt 0.924522 0.116579
vt 0.203199 0.831701
vt 0.204651 0.762679
vt 0.195632 0.076019
vt 0.109792 0.324894
vt 0.109771 0.300183
vt 0.993146 0.828320
vt 0.992859 0.261707
vt 0.268409 0.829094
vt 0.303240 0.098098
vt 0.069778 0.235734
vt 0.291575 0.214669
vt 0.233024 0.789985
vt 0.218425 0.852922
vt 0.319247 0.277328
vt 0.052541 0.283651
vt 0.201674 0.320107
vt 0.178618 0.149499
vt 0.176501 0.328158
vt 0.110898 0.175767
vt 0.178618 0.246429
vt 0.248366 0.095473
vt 0.196813 0.095484
vt 0.124796 0.846579
vt 0.189282 0.150288
vt 0.203187 0.818621
vt 0.240359 0.756305
vt 0.197476 0.031326
vt 0.019695 0.310807
vt 0.248429 0.031331
vt 0.069663 0.172381
vt 0.092380 0.141162
vt 0.319240 0.097062
vt 0.235743 0.741078
vt 0.092408 0.885685
vt 0.288133 0.747815
vt 0.148788 0.821078
vt 0.020053 0.049625
vt 0.019700 0.172345
vt 0.305075 0.031326
vt 0.991881 0.601783
vt 0.084634 0.153956
vt 0.290754 0.803866
vt 0.326969 0.214669
vt 0.229240 0.915091
vt 0.290716 0.825397
vt 0.069795 0.313216
vt 0.113734 0.308953
vt 0.135912 0.262197
vt 0.158345 0.308544
vt 0.303240 0.098098
vt 0.268356 0.279616
vt 0.194753 0.863708
vt 0.277045 0.764969
vt 0.235743 0.801337
vt 0.042753 0.337566
vt 0.322167 0.279616
vt 0.178618 0.339294
vt 0.925739 0.077251
vt 0.960546 0.049953
vt 0.949155 0.110592
vt 0.920611 0.077253
vt 0.918573 0.100747
s 0
usemtl Material
f 5/1/1 19/2/1 1/3/1
f 4/4/2 9/5/2 8/6/2
f 7/7/3 6/8/3 8/9/3
f 2/10/2 8/6/2 6/11/2
f 1/12/4 4/13/4 2/14/4
f 6/11/2 13/15/2 2/10/2
f 11/16/5 9/17/5 12/18/5
f 7/19/6 11/20/6 3/21/6
f 4/22/7 11/23/7 12/24/7
f 8/25/8 10/26/8 7/27/8
f 16/28/9 13/29/9 14/30/9
f 1/31/10 16/32/10 5/33/10
f 2/34/11 15/35/11 1/36/11
f 6/37/12 16/38/12 14/39/12
f 18/40/3 24/41/3 20/42/3
f 3/43/13 18/44/13 7/45/13
f 7/27/3 20/46/3 5/47/3
f 3/48/4 19/49/4 17/50/4
f 24/51/14 27/52/14 23/53/14
f 17/54/15 22/55/15 18/56/15
f 20/57/16 23/53/16 19/58/16
f 17/59/4 23/60/4 21/61/4
f 27/62/4 29/63/4 25/64/4
f 23/60/4 25/65/4 21/61/4
f 24/41/3 26/66/3 28/67/3
f 21/68/17 26/69/17 22/55/17
f 30/70/3 36/71/3 32/72/3
f 28/73/3 30/70/3 32/72/3
f 25/74/18 30/75/18 26/76/18
f 28/77/19 31/78/19 27/79/19
f 36/80/20 33/81/20 35/82/20
f 29/83/21 34/84/21 30/75/21
f 32/85/22 35/86/22 31/78/22
f 45/87/23 38/88/23 48/89/23
f 38/90/4 39/91/4 37/92/4
f 54/93/24 62/94/24 55/95/24
f 46/96/25 37/97/25 39/98/25
f 47/99/26 38/100/26 37/101/26
f 31/102/27 44/103/27 29/104/27
f 29/105/21 43/106/21 33/107/21
f 33/108/20 41/109/20 35/110/20
f 35/111/22 42/112/22 31/113/22
f 42/114/28 47/115/28 44/116/28
f 43/117/29 47/115/29 46/118/29
f 41/119/30 46/118/30 45/120/30
f 41/121/31 48/122/31 42/112/31
f 51/123/32 50/124/32 49/125/32
f 50/126/4 65/127/4 61/128/4
f 53/129/33 63/130/33 54/93/33
f 53/131/4 49/132/4 50/126/4
f 39/91/4 56/133/4 53/131/4
f 46/134/3 55/135/3 45/87/3
f 40/136/34 55/135/34 56/137/34
f 39/138/35 54/139/35 46/134/35
f 66/140/36 60/141/36 59/142/36
f 67/143/37 58/144/37 68/145/37
f 62/146/38 74/147/38 67/148/38
f 52/149/39 60/150/39 50/124/39
f 56/133/4 68/151/4 58/152/4
f 56/153/40 62/94/40 64/154/40
f 52/149/41 57/155/41 59/156/41
f 51/123/42 58/157/42 57/155/42
f 61/158/43 66/140/43 63/159/43
f 64/160/44 67/143/44 68/145/44
f 74/161/45 76/162/45 69/163/45
f 59/164/46 73/165/46 66/166/46
f 57/167/47 74/147/47 69/168/47
f 57/167/48 70/169/48 59/164/48
f 63/170/49 71/171/49 62/146/49
f 63/170/50 73/165/50 72/172/50
f 75/173/4 82/174/4 81/175/4
f 70/176/51 78/177/51 73/178/51
f 73/178/52 79/179/52 72/180/52
f 69/181/53 75/182/53 70/183/53
f 71/184/54 77/185/54 74/161/54
f 72/186/55 80/187/55 71/188/55
f 84/189/56 87/189/56 90/189/56
f 80/190/4 83/191/4 77/192/4
f 80/190/4 85/193/4 86/194/4
f 76/195/4 83/191/4 82/174/4
f 75/173/4 84/196/4 78/197/4
f 79/198/4 84/196/4 85/193/4
f 92/199/54 95/200/54 89/201/54
f 85/189/56 90/189/56 91/189/56
f 81/189/56 88/189/56 87/189/56
f 83/189/56 92/189/56 89/189/56
f 86/189/56 91/189/56 92/189/56
f 82/189/56 89/189/56 88/189/56
f 97/202/3 93/203/3 95/204/3
f 97/205/55 99/206/55 91/207/55
f 89/201/45 94/208/45 88/209/45
f 87/210/51 96/211/51 90/212/51
f 90/212/52 97/213/52 91/214/52
f 88/215/53 93/216/53 87/217/53
f 101/218/5 103/219/5 99/220/5
f 92/221/55 102/222/55 98/223/55
f 91/207/55 100/224/55 92/221/55
f 98/223/55 101/225/55 97/205/55
f 104/226/53 110/227/53 106/228/53
f 102/229/3 105/230/3 101/231/3
f 100/232/9 106/233/9 102/234/9
f 100/235/4 103/236/4 104/237/4
f 108/238/9 114/239/9 110/240/9
f 103/241/53 108/242/53 104/226/53
f 103/241/53 109/243/53 107/244/53
f 106/228/53 109/243/53 105/245/53
f 111/246/55 114/247/55 112/248/55
f 108/249/4 111/250/4 112/251/4
f 113/252/5 117/253/5 118/254/5
f 110/255/3 113/256/3 109/257/3
f 115/258/4 121/259/4 117/260/4
f 109/261/5 115/262/5 107/263/5
f 107/263/5 117/253/5 111/264/5
f 109/261/5 118/254/5 116/265/5
f 120/266/5 121/267/5 119/268/5
f 116/269/56 119/270/56 115/271/56
f 118/272/3 120/273/3 116/274/3
f 117/275/2 122/276/2 118/277/2
f 141/2/1 127/1/1 123/3/1
f 131/5/2 126/4/2 130/6/2
f 128/8/4 129/7/4 130/9/4
f 130/6/2 124/10/2 128/11/2
f 126/13/3 123/12/3 124/14/3
f 135/15/2 128/11/2 124/10/2
f 131/17/5 133/16/5 134/18/5
f 133/20/6 129/19/6 125/21/6
f 126/22/8 133/23/8 125/48/8
f 132/26/57 130/25/57 129/27/57
f 135/29/9 138/28/9 136/30/9
f 138/32/10 123/31/10 127/33/10
f 137/35/58 124/34/58 123/36/58
f 128/37/11 138/38/11 127/47/11
f 146/41/4 140/40/4 142/42/4
f 140/44/13 125/43/13 129/45/13
f 142/46/4 129/27/4 127/47/4
f 125/48/3 141/49/3 123/36/3
f 149/52/14 146/51/14 145/53/14
f 144/55/15 139/54/15 140/56/15
f 145/53/16 142/57/16 141/58/16
f 139/59/3 145/60/3 141/278/3
f 151/63/3 149/62/3 147/64/3
f 147/65/3 145/60/3 143/61/3
f 146/41/4 148/66/4 144/279/4
f 148/69/17 143/68/17 144/55/17
f 158/71/4 152/70/4 154/72/4
f 150/73/4 152/70/4 148/280/4
f 152/75/18 147/74/18 148/76/18
f 153/78/19 150/77/19 149/79/19
f 155/81/20 158/80/20 157/82/20
f 156/84/21 151/83/21 152/75/21
f 157/86/22 154/85/22 153/78/22
f 38/88/59 163/87/59 166/89/59
f 173/94/60 169/93/60 170/95/60
f 164/96/61 37/97/61 165/281/61
f 165/99/62 38/100/62 166/282/62
f 162/103/27 153/102/27 151/104/27
f 161/106/21 151/105/21 155/107/21
f 159/109/20 155/108/20 157/110/20
f 160/112/22 157/111/22 153/113/22
f 165/115/63 160/114/63 162/116/63
f 161/117/64 165/115/64 162/116/64
f 159/119/65 164/118/65 161/117/65
f 166/122/66 159/121/66 160/112/66
f 167/123/67 50/124/67 168/149/67
f 174/130/68 53/129/68 169/93/68
f 170/135/4 164/134/4 163/87/4
f 40/136/69 170/135/69 163/87/69
f 169/139/70 39/138/70 164/134/70
f 175/140/71 60/141/71 65/283/71
f 58/144/72 176/143/72 68/145/72
f 182/147/73 173/146/73 176/148/73
f 60/150/74 168/149/74 50/124/74
f 56/153/75 173/94/75 170/95/75
f 168/149/76 171/155/76 167/123/76
f 167/123/77 58/157/77 49/125/77
f 175/140/78 61/158/78 174/159/78
f 64/160/79 176/143/79 173/284/79
f 184/162/45 182/161/45 177/163/45
f 181/165/80 172/164/80 175/166/80
f 171/167/81 182/147/81 176/148/81
f 178/169/82 171/167/82 172/164/82
f 179/171/83 174/170/83 173/146/83
f 174/170/84 181/165/84 175/166/84
f 183/173/3 190/174/3 184/195/3
f 186/177/51 178/176/51 181/178/51
f 187/179/52 181/178/52 180/180/52
f 183/182/53 177/181/53 178/183/53
f 185/185/54 179/184/54 182/161/54
f 188/187/55 180/186/55 179/188/55
f 192/189/56 195/189/56 189/189/56
f 191/191/3 188/190/3 185/192/3
f 188/190/3 193/193/3 187/198/3
f 184/195/3 191/191/3 185/192/3
f 192/196/3 183/173/3 186/197/3
f 187/198/3 192/196/3 186/197/3
f 203/200/54 200/199/54 197/201/54
f 193/189/56 198/189/56 192/189/56
f 189/189/56 196/189/56 190/189/56
f 191/189/56 200/189/56 194/189/56
f 194/189/56 199/189/56 193/189/56
f 190/189/56 197/189/56 191/189/56
f 203/204/4 201/203/4 205/202/4
f 199/207/55 209/225/55 205/205/55
f 202/208/45 197/201/45 196/209/45
f 204/211/51 195/210/51 198/212/51
f 205/213/52 198/212/52 199/214/52
f 201/216/53 196/215/53 195/217/53
f 211/219/5 209/218/5 207/220/5
f 210/222/55 200/221/55 206/223/55
f 208/224/55 199/207/55 200/221/55
f 209/225/55 206/223/55 205/205/55
f 218/227/53 212/226/53 214/228/53
f 213/230/4 210/229/4 209/231/4
f 214/233/9 208/232/9 210/234/9
f 208/235/3 211/236/3 207/285/3
f 222/239/9 216/238/9 218/240/9
f 216/242/53 211/241/53 212/226/53
f 215/244/53 213/245/53 211/241/53
f 217/243/53 214/228/53 213/245/53
f 222/247/55 219/246/55 220/248/55
f 216/249/3 219/250/3 215/286/3
f 221/252/5 225/253/5 219/264/5
f 221/256/4 218/255/4 217/257/4
f 229/259/3 223/258/3 225/260/3
f 223/262/5 217/261/5 215/263/5
f 225/253/5 215/263/5 219/264/5
f 217/261/5 226/254/5 221/252/5
f 229/267/5 228/266/5 227/268/5
f 227/270/56 224/269/56 223/271/56
f 228/273/4 226/272/4 224/274/4
f 230/276/2 225/275/2 226/277/2
f 5/1/1 20/287/1 19/2/1
f 4/4/2 12/288/2 9/5/2
f 7/7/3 5/289/3 6/8/3
f 2/10/2 4/4/2 8/6/2
f 1/12/4 3/290/4 4/13/4
f 6/11/2 14/291/2 13/15/2
f 11/16/5 10/292/5 9/17/5
f 7/19/6 10/293/6 11/20/6
f 4/22/57 3/48/57 11/23/57
f 8/25/85 9/294/85 10/26/85
f 16/28/9 15/295/9 13/29/9
f 1/31/10 15/296/10 16/32/10
f 2/34/86 13/297/86 15/35/86
f 6/37/58 5/47/58 16/38/58
f 18/40/3 22/279/3 24/41/3
f 3/43/13 17/298/13 18/44/13
f 7/27/3 18/299/3 20/46/3
f 3/48/4 1/36/4 19/49/4
f 24/51/14 28/300/14 27/52/14
f 17/54/15 21/68/15 22/55/15
f 20/57/16 24/51/16 23/53/16
f 17/59/4 19/278/4 23/60/4
f 27/62/4 31/301/4 29/63/4
f 23/60/4 27/302/4 25/65/4
f 24/41/3 22/279/3 26/66/3
f 21/68/17 25/303/17 26/69/17
f 30/70/3 34/304/3 36/71/3
f 28/73/3 26/280/3 30/70/3
f 25/74/18 29/83/18 30/75/18
f 28/77/19 32/85/19 31/78/19
f 36/80/20 34/305/20 33/81/20
f 29/83/21 33/306/21 34/84/21
f 32/85/22 36/307/22 35/86/22
f 45/87/87 40/136/87 38/88/87
f 38/90/4 40/308/4 39/91/4
f 54/93/88 63/130/88 62/94/88
f 46/96/89 47/281/89 37/97/89
f 47/99/26 48/282/26 38/100/26
f 31/102/27 42/309/27 44/103/27
f 29/105/21 44/310/21 43/106/21
f 33/108/20 43/311/20 41/109/20
f 35/111/22 41/121/22 42/112/22
f 42/114/90 48/312/90 47/115/90
f 43/117/29 44/116/29 47/115/29
f 41/119/91 43/117/91 46/118/91
f 41/121/31 45/313/31 48/122/31
f 51/123/32 52/149/32 50/124/32
f 61/128/4 53/131/4 50/126/4
f 50/126/4 60/314/4 65/127/4
f 53/129/92 61/315/92 63/130/92
f 53/131/4 56/133/4 49/132/4
f 39/91/4 40/308/4 56/133/4
f 46/134/3 54/139/3 55/135/3
f 40/136/34 45/87/34 55/135/34
f 39/138/35 53/316/35 54/139/35
f 66/140/93 65/283/93 60/141/93
f 67/143/94 57/317/94 58/144/94
f 62/146/95 71/171/95 74/147/95
f 52/149/96 59/156/96 60/150/96
f 58/152/4 49/132/4 56/133/4
f 56/133/4 64/318/4 68/151/4
f 56/153/97 55/95/97 62/94/97
f 52/149/98 51/123/98 57/155/98
f 51/123/99 49/125/99 58/157/99
f 61/158/100 65/283/100 66/140/100
f 64/160/101 62/284/101 67/143/101
f 74/161/45 77/185/45 76/162/45
f 59/164/102 70/169/102 73/165/102
f 57/167/103 67/148/103 74/147/103
f 57/167/104 69/168/104 70/169/104
f 63/170/105 72/172/105 71/171/105
f 63/170/106 66/166/106 73/165/106
f 75/173/4 76/195/4 82/174/4
f 70/176/51 75/319/51 78/177/51
f 73/178/52 78/177/52 79/179/52
f 69/181/53 76/320/53 75/182/53
f 71/184/54 80/321/54 77/185/54
f 72/186/55 79/322/55 80/187/55
f 84/189/56 81/189/56 87/189/56
f 80/190/4 86/194/4 83/191/4
f 80/190/4 79/198/4 85/193/4
f 76/195/4 77/192/4 83/191/4
f 75/173/4 81/175/4 84/196/4
f 79/198/4 78/197/4 84/196/4
f 92/199/54 98/323/54 95/200/54
f 85/189/56 84/189/56 90/189/56
f 81/189/56 82/189/56 88/189/56
f 83/189/56 86/189/56 92/189/56
f 86/189/56 85/189/56 91/189/56
f 82/189/56 83/189/56 89/189/56
f 95/204/3 98/324/3 97/202/3
f 97/202/3 96/325/3 93/203/3
f 93/203/3 94/326/3 95/204/3
f 97/205/55 101/225/55 99/206/55
f 89/201/45 95/200/45 94/208/45
f 87/210/51 93/327/51 96/211/51
f 90/212/52 96/211/52 97/213/52
f 88/215/53 94/328/53 93/216/53
f 101/218/5 105/329/5 103/219/5
f 92/221/55 100/224/55 102/222/55
f 91/207/55 99/206/55 100/224/55
f 98/223/55 102/222/55 101/225/55
f 104/226/53 108/242/53 110/227/53
f 102/229/3 106/330/3 105/230/3
f 100/232/9 104/331/9 106/233/9
f 100/235/4 99/285/4 103/236/4
f 108/238/9 112/332/9 114/239/9
f 103/241/53 107/244/53 108/242/53
f 103/241/53 105/245/53 109/243/53
f 106/228/53 110/227/53 109/243/53
f 111/246/55 113/333/55 114/247/55
f 108/249/4 107/286/4 111/250/4
f 113/252/5 111/264/5 117/253/5
f 110/255/3 114/334/3 113/256/3
f 115/258/4 119/335/4 121/259/4
f 109/261/5 116/265/5 115/262/5
f 107/263/5 115/262/5 117/253/5
f 109/261/5 113/252/5 118/254/5
f 120/266/5 122/336/5 121/267/5
f 116/269/56 120/337/56 119/270/56
f 118/272/3 122/338/3 120/273/3
f 117/275/2 121/339/2 122/276/2
f 141/2/1 142/287/1 127/1/1
f 131/5/2 134/288/2 126/4/2
f 128/8/4 127/289/4 129/7/4
f 130/6/2 126/4/2 124/10/2
f 126/13/3 125/290/3 123/12/3
f 135/15/2 136/291/2 128/11/2
f 131/17/5 132/292/5 133/16/5
f 133/20/6 132/293/6 129/19/6
f 126/22/85 134/24/85 133/23/85
f 132/26/7 131/294/7 130/25/7
f 135/29/9 137/295/9 138/28/9
f 138/32/10 137/296/10 123/31/10
f 137/35/12 135/297/12 124/34/12
f 128/37/86 136/39/86 138/38/86
f 146/41/4 144/279/4 140/40/4
f 140/44/13 139/298/13 125/43/13
f 142/46/4 140/299/4 129/27/4
f 125/48/3 139/50/3 141/49/3
f 149/52/14 150/300/14 146/51/14
f 144/55/15 143/68/15 139/54/15
f 145/53/16 146/51/16 142/57/16
f 139/59/3 143/61/3 145/60/3
f 151/63/3 153/301/3 149/62/3
f 147/65/3 149/302/3 145/60/3
f 146/41/4 150/67/4 148/66/4
f 148/69/17 147/303/17 143/68/17
f 158/71/4 156/304/4 152/70/4
f 150/73/4 154/72/4 152/70/4
f 152/75/18 151/83/18 147/74/18
f 153/78/19 154/85/19 150/77/19
f 155/81/20 156/305/20 158/80/20
f 156/84/21 155/306/21 151/83/21
f 157/86/22 158/307/22 154/85/22
f 38/88/107 40/136/107 163/87/107
f 173/94/108 174/130/108 169/93/108
f 164/96/109 39/98/109 37/97/109
f 165/99/62 37/101/62 38/100/62
f 162/103/27 160/309/27 153/102/27
f 161/106/21 162/310/21 151/105/21
f 159/109/20 161/311/20 155/108/20
f 160/112/22 159/121/22 157/111/22
f 165/115/110 166/312/110 160/114/110
f 161/117/64 164/118/64 165/115/64
f 159/119/111 163/120/111 164/118/111
f 166/122/66 163/313/66 159/121/66
f 167/123/67 49/125/67 50/124/67
f 174/130/112 61/315/112 53/129/112
f 170/135/4 169/139/4 164/134/4
f 40/136/69 56/137/69 170/135/69
f 169/139/70 53/316/70 39/138/70
f 175/140/113 172/142/113 60/141/113
f 58/144/114 171/317/114 176/143/114
f 182/147/115 179/171/115 173/146/115
f 60/150/116 172/156/116 168/149/116
f 56/153/117 64/154/117 173/94/117
f 168/149/118 172/156/118 171/155/118
f 167/123/119 171/155/119 58/157/119
f 175/140/120 65/283/120 61/158/120
f 64/160/121 68/145/121 176/143/121
f 184/162/45 185/185/45 182/161/45
f 181/165/122 178/169/122 172/164/122
f 171/167/123 177/168/123 182/147/123
f 178/169/124 177/168/124 171/167/124
f 179/171/125 180/172/125 174/170/125
f 174/170/126 180/172/126 181/165/126
f 183/173/3 189/175/3 190/174/3
f 186/177/51 183/319/51 178/176/51
f 187/179/52 186/177/52 181/178/52
f 183/182/53 184/320/53 177/181/53
f 185/185/54 188/321/54 179/184/54
f 188/187/55 187/322/55 180/186/55
f 192/189/56 198/189/56 195/189/56
f 191/191/3 194/194/3 188/190/3
f 188/190/3 194/194/3 193/193/3
f 184/195/3 190/174/3 191/191/3
f 192/196/3 189/175/3 183/173/3
f 187/198/3 193/193/3 192/196/3
f 203/200/54 206/323/54 200/199/54
f 193/189/56 199/189/56 198/189/56
f 189/189/56 195/189/56 196/189/56
f 191/189/56 197/189/56 200/189/56
f 194/189/56 200/189/56 199/189/56
f 190/189/56 196/189/56 197/189/56
f 205/202/4 206/324/4 203/204/4
f 203/204/4 202/326/4 201/203/4
f 201/203/4 204/325/4 205/202/4
f 199/207/55 207/206/55 209/225/55
f 202/208/45 203/200/45 197/201/45
f 204/211/51 201/327/51 195/210/51
f 205/213/52 204/211/52 198/212/52
f 201/216/53 202/328/53 196/215/53
f 211/219/5 213/329/5 209/218/5
f 210/222/55 208/224/55 200/221/55
f 208/224/55 207/206/55 199/207/55
f 209/225/55 210/222/55 206/223/55
f 218/227/53 216/242/53 212/226/53
f 213/230/4 214/330/4 210/229/4
f 214/233/9 212/331/9 208/232/9
f 208/235/3 212/237/3 211/236/3
f 222/239/9 220/332/9 216/238/9
f 216/242/53 215/244/53 211/241/53
f 215/244/53 217/243/53 213/245/53
f 217/243/53 218/227/53 214/228/53
f 222/247/55 221/333/55 219/246/55
f 216/249/3 220/251/3 219/250/3
f 221/252/5 226/254/5 225/253/5
f 221/256/4 222/334/4 218/255/4
f 229/259/3 227/335/3 223/258/3
f 223/262/5 224/265/5 217/261/5
f 225/253/5 223/262/5 215/263/5
f 217/261/5 224/265/5 226/254/5
f 229/267/5 230/336/5 228/266/5
f 227/270/56 228/337/56 224/269/56
f 228/273/4 230/338/4 226/272/4
f 230/276/2 229/339/2 225/275/2
