# Blender 5.0.0
# www.blender.org
mtllib enemy1-2.mtl
o Cube
v -1.244774 -2.001651 1.244774
v -1.244774 -2.001651 -1.244774
v -0.883661 2.867697 0.883661
v -0.883661 2.867697 -0.883661
v 1.244774 -2.001651 1.244774
v 1.244774 -2.001651 -1.244774
v 0.883661 2.867697 0.883661
v 0.883661 2.867697 -0.883661
v 1.244774 1.990084 -1.244774
v -1.244774 1.990084 1.244774
v 1.244774 1.990084 1.244774
v -1.244774 1.990084 -1.244774
v -0.188607 -4.094350 1.181726
v -0.188607 -4.094350 0.110207
v 0.188607 -4.094350 1.181726
v 0.188607 -4.094350 0.110207
v 0.000000 -2.001651 -1.244774
v -1.244774 -2.001651 0.000000
v 1.244774 -2.001651 0.000000
v 1.244774 -0.005784 1.244774
v 0.000000 -2.001651 1.244774
v -1.244774 -0.005784 -1.244774
v 1.244774 -0.005784 -1.244774
v -1.244774 -0.005784 1.244774
v -1.244774 1.990084 0.000000
v 0.000000 1.990084 -1.244774
v 1.244774 1.990084 0.000000
v 0.000000 1.990084 1.244774
v 0.000000 -0.005784 -1.455711
v -1.441328 -0.005784 -0.084238
v 1.441328 -0.005784 -0.084238
v 1.122387 2.428890 -1.122387
v 1.000000 2.867697 0.000000
v -1.000000 2.867697 0.000000
v 0.000000 2.867697 1.000000
v -1.122387 2.428890 1.122387
v 0.000000 2.867697 -1.000000
v 1.122387 2.428890 1.122387
v -1.122387 2.428890 -1.122387
v -1.244774 1.990084 -0.622387
v 1.119892 -0.005784 -1.244774
v 1.244774 1.990084 -0.622387
v -0.622387 1.990084 1.244774
v -1.244774 1.990084 0.622387
v 1.119892 -2.001651 -1.244774
v 1.244774 1.990084 0.622387
v 0.622387 1.990084 1.244774
v 0.000000 3.315954 0.000000
v 0.000000 0.221134 1.357091
v 0.000000 -0.232702 1.357091
v -0.230095 -0.005784 1.357091
v 0.230095 -0.005784 1.357091
v -0.198717 -0.005784 2.023244
v 0.000000 -0.201757 2.023244
v 0.198717 -0.005784 2.023244
v 0.000000 0.190189 2.023244
v -0.188607 -7.413729 0.401523
v 0.188607 -7.413729 0.401523
v -0.188607 -7.413729 1.473041
v 0.188607 -7.413729 1.473041
v 0.188607 -7.292829 0.392041
v -0.188607 -7.292829 0.392041
v -0.188607 -7.292829 1.463560
v 0.188607 -7.292829 1.463560
v 0.188607 -7.413729 0.937282
v 0.188607 -7.353279 0.396782
v 0.188607 -7.353279 1.468301
v 0.188607 -7.292829 0.927800
v 0.252245 -7.323053 0.930171
v 0.188607 -7.383504 0.934912
v 0.188607 -7.323053 0.930171
v 0.188607 -7.353279 0.902126
v 0.188607 -7.353279 0.962956
v 0.244290 -7.323053 0.930171
v 0.244290 -7.353279 0.962956
v 0.244290 -7.383504 0.934912
v 0.244290 -7.353279 0.902126
v 0.252245 -7.353279 0.932541
v 0.252245 -7.353279 0.962956
v 0.252245 -7.383504 0.934912
v 0.252245 -7.353279 0.902126
v 0.244290 -8.232888 0.151872
v 0.244290 -8.202663 0.119086
v 0.252245 -8.202663 0.119086
v 0.252245 -8.232888 0.151872
v 0.244290 -6.567517 0.055259
v 0.244290 -6.537292 0.083304
v 0.252245 -6.537292 0.083304
v 0.252245 -6.567517 0.055259
v 0.244290 -8.139054 1.809811
v 0.244290 -8.169279 1.781766
v 0.252245 -8.169279 1.781766
v 0.252245 -8.139054 1.809811
v 0.244290 -6.473681 1.713224
v 0.244290 -6.503907 1.746010
v 0.252245 -6.503907 1.746010
v 0.252245 -6.473681 1.713224
v 1.119892 1.990084 -1.244774
v -1.119892 -2.001651 -1.244774
v -1.119892 -0.005784 -1.244774
v -1.119892 1.990084 -1.244774
v 1.119892 -2.292724 -1.569453
v 1.244774 -2.292724 -1.569453
v -1.244774 -0.005784 -1.569453
v -1.244774 -2.292724 -1.569453
v 1.244774 -0.005784 -1.569453
v 1.244774 2.281156 -1.569453
v -1.244774 2.281156 -1.569453
v 1.119892 -0.005784 -1.569453
v 1.119892 2.281156 -1.569453
v -1.119892 -2.292724 -1.569453
v -1.119892 -0.005784 -1.569453
v -1.119892 2.281156 -1.569453
v -1.244774 -1.003718 -1.244774
v 1.244774 0.992150 -1.244774
v -1.244774 0.992150 -1.244774
v 1.244774 -1.003718 -1.244774
v 1.119892 -1.003718 -1.244774
v 1.119892 0.992150 -1.244774
v -1.119892 -2.147187 -1.407114
v -1.119892 -1.003718 -1.244774
v -1.119892 0.992150 -1.244774
v -1.244774 -1.149254 -1.569453
v 1.244774 1.137686 -1.569453
v -1.244774 1.137686 -1.569453
v 1.244774 -1.149254 -1.569453
v 1.119892 -1.149254 -1.569453
v 1.119892 1.137686 -1.569453
v -1.119892 -1.149254 -1.569453
v -1.119892 1.137686 -1.569453
v -1.244774 -2.147187 -1.407114
v 1.119892 -2.147187 -1.407114
v 1.244774 -2.147187 -1.407114
v 1.244774 2.135620 -1.407114
v 1.119892 2.135620 -1.407114
v -1.119892 2.135620 -1.407114
v -1.244774 2.135620 -1.407114
v -1.119892 1.064918 -1.407114
v -1.119892 -1.076486 -1.407114
v -1.244774 0.493183 -1.244774
v 1.244774 -0.504751 -1.244774
v -1.119892 -0.005783 -1.325944
v 1.119892 -0.504751 -1.244774
v -1.119892 -0.504751 -1.244774
v -1.244774 0.565951 -1.569453
v 1.244774 -0.577519 -1.569453
v 1.119892 -0.577519 -1.569453
v -1.119892 -0.577519 -1.569453
v -1.244774 -0.005783 -1.488283
v 1.244774 -0.005783 -1.488283
v 1.119892 -0.005783 -1.488283
v -1.244774 -0.504751 -1.244774
v 1.244774 0.493183 -1.244774
v -1.119892 -0.005783 -1.488283
v 1.119892 0.493183 -1.244774
v -1.119892 0.493183 -1.244774
v -1.244774 -0.577519 -1.569453
v 1.244774 0.565951 -1.569453
v 1.119892 0.565951 -1.569453
v -1.119892 0.565951 -1.569453
v -1.244774 -0.005783 -1.325944
v 1.244774 -0.005783 -1.325944
v 1.119892 -0.005783 -1.325944
v 1.244774 -0.921888 -1.407114
v 1.119892 0.910321 -1.407114
v -1.244774 0.910321 -1.407114
v 1.119892 -0.921888 -1.407114
v 1.244774 0.910321 -1.407114
v -1.119892 1.101302 -1.488283
v -1.119892 1.028534 -1.325944
v -1.119892 0.910321 -1.407114
v -1.119892 -1.112870 -1.488283
v -1.119892 -1.040102 -1.325944
v -1.119892 -0.921888 -1.407114
v -1.244774 -0.921888 -1.407114
v -1.244774 -0.890758 -1.325944
v -1.119892 -0.890758 -1.325944
v -1.119892 -0.953019 -1.488283
v -1.119892 0.879191 -1.325944
v 1.244774 0.879191 -1.325944
v 1.119892 -0.890758 -1.325944
v -1.244774 0.879191 -1.325944
v -1.244774 0.941452 -1.488283
v 1.119892 0.879191 -1.325944
v 1.119892 0.941452 -1.488283
v 1.244774 -0.890758 -1.325944
v 1.244774 -0.953019 -1.488283
v 1.119892 -0.953019 -1.488283
v 1.244774 0.941452 -1.488283
v -1.119892 0.941452 -1.488283
v -1.244774 -0.953019 -1.488283
v -1.244774 -2.001651 -0.622387
v -1.343051 -0.005784 -0.664506
v -1.293913 0.992150 -0.643446
v -1.293913 -1.003718 -0.643446
v -1.343051 0.992150 -0.042119
v -1.343051 -1.003718 -0.042119
v -1.318482 0.992150 -0.342783
v -1.318482 -1.003718 -0.342783
v -1.392190 -0.005784 -0.374372
v -1.392190 -0.005784 -0.374372
v -1.657825 -0.005784 -0.109720
v -1.631182 -0.005784 -0.569699
v -1.632515 0.754428 -0.569129
v -1.632515 -0.765996 -0.569129
v -1.656127 0.754428 -0.110126
v -1.656127 -0.765996 -0.110126
v -1.644321 0.754428 -0.339628
v -1.644321 -0.765996 -0.339628
v -2.058808 -0.005784 0.116110
v -2.046044 -0.005784 -0.804231
v -2.047361 0.754428 -0.803129
v -2.047361 -0.765996 -0.803129
v -2.057121 0.754428 0.115348
v -2.057121 -0.765996 0.115348
v -2.051865 2.877346 -0.344203
v -2.052241 -0.765996 -0.343891
v -2.462994 -0.005784 -0.115362
v -2.443524 -0.005784 -0.595587
v -2.444807 0.754428 -0.595111
v -2.444807 -0.765996 -0.595111
v -2.461343 0.754428 -0.115830
v -2.461343 -0.765996 -0.115830
v -2.452949 0.754428 -0.351303
v -2.452949 -0.765996 -0.351303
v -2.055974 0.836513 0.042469
v -1.708404 0.836513 -0.340613
v -1.718344 0.836513 -0.147377
v -1.698463 0.836513 -0.533850
v -2.047756 0.836513 -0.730874
v -2.389256 0.836513 -0.350444
v -2.396323 0.836513 -0.152180
v -2.382400 0.836513 -0.555726
v -2.055974 2.877346 0.042469
v -1.708404 2.877346 -0.340613
v -1.718344 2.877346 -0.147377
v -1.698463 2.877346 -0.533850
v -2.047756 2.877346 -0.730874
v -2.389256 2.877346 -0.350444
v -2.396323 2.877346 -0.152180
v -2.382400 2.877346 -0.555726
v 0.097986 -0.175501 2.057250
v -0.000000 -0.005784 2.057250
v 0.172094 0.093575 2.057250
v -0.097987 0.163934 2.057250
v -0.172094 -0.105142 2.057250
v -0.172094 -0.105142 2.023244
v 0.097986 -0.175501 2.023244
v 0.172094 0.093575 2.023244
v -0.097987 0.163934 2.023244
v 6.268723 -1.875008 2.023244
v 6.342830 -1.605932 2.023244
v 6.342830 -1.605932 2.057250
v 6.268723 -1.875008 2.057250
v -6.268724 1.863439 2.023244
v -6.342831 1.594363 2.023244
v -6.342831 1.594363 2.057250
v -6.268724 1.863439 2.057250
v -1.785646 -6.298910 2.023244
v -1.515566 -6.369269 2.023244
v -1.515566 -6.369269 2.057250
v -1.785646 -6.298910 2.057250
v 1.785647 6.287343 2.023244
v 1.515567 6.357702 2.023244
v 1.515567 6.357702 2.057250
v 1.785647 6.287343 2.057250
vn -0.0000 0.2687 0.9632
vn 0.4085 0.9112 0.0538
vn 0.9851 -0.0909 0.1457
vn -0.0000 0.2687 -0.9632
vn -0.9632 0.2687 -0.0000
vn 0.8927 -0.4506 -0.0000
vn -0.9945 0.0312 0.1002
vn -0.0000 -0.7446 0.6675
vn 0.9632 0.2687 -0.0000
vn 0.0952 0.0297 0.9950
vn -0.0000 -0.0782 -0.9969
vn -0.0000 -0.5435 -0.8394
vn -0.0000 -0.0301 0.9995
vn -0.8927 -0.4506 -0.0000
vn 1.0000 -0.0000 -0.0000
vn -1.0000 -0.0000 -0.0000
vn -0.0000 0.0782 0.9969
vn 0.1851 -0.0000 -0.9827
vn -0.0000 -0.0000 -1.0000
vn -0.9954 0.0507 -0.0813
vn -0.9967 -0.0000 -0.0814
vn -0.9952 -0.0980 -0.0000
vn 0.9860 -0.0000 -0.1670
vn 0.9881 0.0590 -0.1420
vn 0.9882 0.0456 0.1462
vn 0.0538 0.9112 -0.4085
vn -0.0538 0.9112 -0.4085
vn -0.4085 0.9112 0.0538
vn 0.0369 -0.0374 0.9986
vn -0.1098 -0.0685 0.9916
vn -0.0000 0.0562 0.9984
vn -0.0000 -1.0000 -0.0000
vn 0.7018 0.7116 0.0331
vn -0.7018 -0.7116 0.0331
vn -0.7018 0.7116 0.0331
vn 0.7018 -0.7116 0.0331
vn -0.0000 0.0878 0.9961
vn -0.0000 -0.0878 -0.9961
vn -0.0000 0.6802 -0.7331
vn -0.0000 -0.6802 0.7330
vn -0.0000 0.7352 0.6778
vn -0.0000 -0.7352 -0.6778
vn -0.1851 -0.0000 -0.9827
vn -0.0000 0.6778 -0.7352
vn -0.0000 -0.6778 0.7352
vn -0.0000 0.7331 0.6802
vn -0.0000 -0.7331 -0.6802
vn -0.0000 -0.6802 0.7331
vn -0.0000 -0.7330 -0.6802
vn -0.0000 0.7330 0.6802
vn -0.0000 0.7446 0.6675
vn -0.0000 0.9337 -0.3581
vn -0.0000 -0.0000 1.0000
vn -0.0000 -0.9337 -0.3581
vn 0.1962 0.0221 -0.9803
vn -0.7874 -0.6152 -0.0405
vn -0.5809 -0.8126 -0.0475
vn 0.5893 -0.8073 0.0303
vn -0.2357 0.0321 -0.9713
vn 0.4901 0.0006 0.8717
vn 0.5809 -0.8126 0.0475
vn 0.2357 0.0321 0.9713
vn 0.4913 0.0021 -0.8710
vn -0.1962 0.0221 0.9803
vn -0.5893 -0.8073 -0.0303
vn -0.4913 0.0021 0.8710
vn 0.3661 -0.6139 0.6994
vn -0.4901 0.0006 -0.8717
vn -0.4637 -0.0002 -0.8860
vn 0.4965 -0.0020 -0.8681
vn -0.4965 -0.0020 0.8681
vn 0.3919 -0.6139 -0.6853
vn -0.3894 -0.6096 0.6904
vn 0.4637 -0.0002 0.8860
vn 0.9993 -0.0000 0.0386
vn -0.9987 -0.0000 -0.0514
vn -0.4913 -0.0000 0.8710
vn -0.4901 -0.0000 -0.8717
vn 0.9994 -0.0000 0.0334
vn 0.7896 -0.6130 0.0281
vn -0.3889 -0.6086 -0.6916
vn 0.7896 -0.6130 0.0264
vn 0.4637 -0.0000 0.8860
vn 0.9994 -0.0000 0.0356
vn 0.4965 -0.0000 -0.8681
vn 0.9641 -0.2655 -0.0000
vn 0.2655 0.9641 -0.0000
vn -0.2655 -0.9641 -0.0000
vn -0.9641 0.2655 -0.0000
vn -0.2521 -0.9677 -0.0000
vn 0.9677 -0.2521 -0.0000
vn -0.9677 0.2521 -0.0000
vn 0.2521 0.9677 -0.0000
vn -0.1114 0.5210 0.8463
vn 0.1114 0.5210 0.8463
vn 0.0538 0.9112 0.4085
vn 0.1114 0.5210 -0.8463
vn -0.1114 0.5210 -0.8463
vn -0.8463 0.5210 -0.1114
vn -0.8463 0.5210 0.1114
vn -0.9851 0.0909 0.1457
vn -0.9952 0.0980 -0.0000
vn 0.8463 0.5210 -0.1114
vn 0.8463 0.5210 0.1114
vn 0.1093 0.1109 0.9878
vn -0.0000 0.0634 0.9980
vn -0.0000 0.1051 -0.9945
vn 0.1841 -0.1033 -0.9775
vn -0.9860 -0.0000 -0.1670
vn -0.9807 0.1036 -0.1661
vn -0.9807 -0.1036 -0.1661
vn -0.0000 -1.0000 -0.0010
vn -0.9954 -0.0507 -0.0813
vn -0.9892 -0.0000 0.1463
vn 0.9952 -0.0980 -0.0000
vn 0.9952 0.0980 -0.0000
vn 0.4085 0.9112 -0.0538
vn -0.4085 0.9112 -0.0538
vn -0.0538 0.9112 0.4085
vn -0.0000 -0.0634 0.9980
vn 0.1100 -0.0000 0.9939
vn -0.0624 -0.0632 0.9960
vn -0.1100 -0.0000 0.9939
vn -0.0624 0.0632 0.9960
vn -0.1841 0.1033 -0.9775
vn -0.0000 -0.1051 -0.9945
vn -0.0000 -0.7353 -0.6778
vn 0.1169 -0.0008 -0.9931
vn 0.5973 -0.8006 0.0488
vn -0.3126 0.0002 -0.9499
vn 0.4907 0.0002 0.8713
vn 0.3126 0.0002 0.9499
vn 0.4921 0.0015 -0.8705
vn -0.1169 -0.0008 0.9931
vn -0.5973 -0.8006 -0.0488
vn -0.4921 0.0015 0.8705
vn -0.4907 0.0002 -0.8713
vn -0.4648 0.0005 -0.8854
vn 0.4970 -0.0016 -0.8678
vn -0.4970 -0.0016 0.8678
vn 0.4648 0.0005 0.8854
vn 0.9994 -0.0021 0.0356
vn 0.9994 0.0021 0.0356
vn 0.9994 -0.0017 0.0334
vn 0.9994 0.0017 0.0334
vn 0.9991 -0.0000 0.0425
vt 0.157220 0.170455
vt 0.168393 0.181628
vt 0.123700 0.181628
vt 0.770522 0.822570
vt 0.860781 0.912829
vt 0.770522 0.912829
vt 0.123700 0.092241
vt 0.101353 0.103415
vt 0.101353 0.092241
vt 0.073420 0.170455
vt 0.079006 0.181628
vt 0.034313 0.181628
vt 0.112527 0.170455
vt 0.123700 0.103415
vt 0.079006 0.103415
vt 0.123700 0.159281
vt 0.101353 0.164868
vt 0.758103 0.273656
vt 0.715405 0.273656
vt 0.123700 0.069894
vt 0.090180 0.081068
vt 0.079006 0.069894
vt 0.168393 0.159281
vt 0.146047 0.164868
vt 0.034313 0.148108
vt 0.079006 0.148108
vt 0.045486 0.148108
vt 0.146047 0.148108
vt 0.123700 0.148108
vt 0.168393 0.148108
vt 0.090180 0.148108
vt 0.446447 0.126874
vt 0.382401 0.169571
vt 0.393076 0.148222
vt 0.446447 0.084176
vt 0.403750 0.126874
vt 0.403750 0.105525
vt 0.886195 0.316354
vt 0.886195 0.327028
vt 0.090180 0.159281
vt 0.090180 0.170455
vt 0.079006 0.164868
vt 0.101353 0.153695
vt 0.079006 0.159281
vt 0.079006 0.153695
vt 0.101353 0.159281
vt 0.079006 0.097828
vt 0.079006 0.089448
vt 0.112527 0.081068
vt 0.101353 0.215148
vt 0.079006 0.237495
vt 0.079006 0.215148
vt 0.079006 0.192801
vt 0.860781 0.732311
vt 0.770522 0.732311
vt 0.157220 0.159281
vt 0.146047 0.153695
vt 0.134873 0.159281
vt 0.146047 0.170455
vt 0.134873 0.170455
vt 0.792478 0.344978
vt 0.863133 0.309650
vt 0.792478 0.274323
vt 0.721824 0.309650
vt 0.781889 0.315791
vt 0.710390 0.315791
vt 0.853389 0.315791
vt 0.112527 0.103415
vt 0.090180 0.103415
vt 0.489145 0.126874
vt 0.489145 0.148222
vt 0.446447 0.169571
vt 0.489145 0.105525
vt 0.886195 0.273656
vt 0.843498 0.273656
vt 0.843498 0.295005
vt 0.715405 0.359051
vt 0.779452 0.359051
vt 0.843498 0.316354
vt 0.843498 0.327028
vt 0.886195 0.102866
vt 0.886195 0.070843
vt 0.886195 0.081517
vt 0.843498 0.305680
vt 0.886195 0.295005
vt 0.864847 0.359051
vt 0.886195 0.359051
vt 0.736754 0.359051
vt 0.752766 0.327028
vt 0.747428 0.337703
vt 0.886195 0.060169
vt 0.843498 0.337703
vt 0.843498 0.359051
vt 0.758103 0.316354
vt 0.715405 0.305680
vt 0.715405 0.295005
vt 0.758103 0.295005
vt 0.886195 0.305680
vt 0.886195 0.038820
vt 0.886195 0.049494
vt 0.886195 0.337703
vt 0.758103 0.305680
vt 0.095766 0.159281
vt 0.000000 0.000000
vt 0.180114 0.939396
vt 0.160422 0.935866
vt 0.173681 0.930952
vt 0.054288 0.820571
vt 0.105131 0.839326
vt 0.083450 0.797472
vt 0.054288 0.927945
vt 0.092373 0.856333
vt 0.197363 0.915826
vt 0.151869 0.855278
vt 0.158078 0.885590
vt 0.118091 0.783629
vt 0.125621 0.837463
vt 0.144491 0.888435
vt 0.143853 0.885812
vt 0.133636 0.909391
vt 0.155666 0.946840
vt 0.107850 0.856857
vt 0.113431 0.853146
vt 0.134603 0.866567
vt 0.101197 0.891602
vt 0.135862 0.892744
vt 0.119058 0.849394
vt 0.138527 0.893652
vt 0.137964 0.907996
vt 0.182496 0.918446
vt 0.156728 0.889338
vt 0.139603 0.888894
vt 0.148703 0.897857
vt 0.148221 0.897732
vt 0.148865 0.898566
vt 0.148084 0.898305
vt 0.141076 0.890513
vt 0.455418 0.805466
vt 0.459540 0.594767
vt 0.549663 0.758516
vt 0.643909 0.711566
vt 0.643909 0.493338
vt 0.276437 0.482843
vt 0.372298 0.433186
vt 0.471428 0.381554
vt 0.147991 0.898067
vt 0.148201 0.898487
vt 0.148886 0.898162
vt 0.148470 0.898672
vt 0.792478 0.309650
vt 0.123700 0.170455
vt 0.146047 0.192801
vt 0.123700 0.192801
vt 0.168393 0.192801
vt 0.168393 0.170455
vt 0.860781 0.822570
vt 0.034313 0.170455
vt 0.051073 0.170455
vt 0.067833 0.170455
vt 0.056660 0.192801
vt 0.034313 0.192801
vt 0.079006 0.170455
vt 0.101353 0.170455
vt 0.101353 0.192801
vt 0.079006 0.058721
vt 0.101353 0.058721
vt 0.123700 0.058721
vt 0.123700 0.081068
vt 0.101353 0.081068
vt 0.079006 0.081068
vt 0.067833 0.148108
vt 0.056660 0.148108
vt 0.101353 0.148108
vt 0.398413 0.137548
vt 0.403750 0.169571
vt 0.403750 0.084176
vt 0.403750 0.116199
vt 0.079006 0.162075
vt 0.079006 0.156488
vt 0.079006 0.095034
vt 0.079006 0.092241
vt 0.079006 0.086654
vt 0.101353 0.237495
vt 0.489145 0.137548
vt 0.489145 0.169571
vt 0.489145 0.084176
vt 0.489145 0.116199
vt 0.715405 0.337703
vt 0.715405 0.327028
vt 0.715405 0.316354
vt 0.886195 0.017471
vt 0.187052 0.834065
vt 0.120384 0.876961
vt 0.275172 0.696196
s 0
usemtl Material
f 47/1/1 38/2/1 36/3/1
f 48/4/2 7/5/2 33/6/2
f 20/7/3 19/8/3 31/9/3
f 101/10/4 39/11/4 32/12/4
f 44/13/5 36/3/5 39/11/5
f 19/8/6 15/14/6 16/15/6
f 24/16/7 44/13/7 196/17/7
f 132/18/8 103/19/8 133/19/8
f 38/20/9 42/21/9 32/22/9
f 20/23/10 47/1/10 49/24/10
f 61/25/11 66/25/11 57/26/11
f 45/27/12 6/25/12 14/26/12
f 21/28/13 13/29/13 15/30/13
f 192/31/14 14/26/14 13/29/14
f 67/14/15 65/8/15 70/8/15
f 63/29/16 57/26/16 59/29/16
f 63/29/17 60/30/17 67/30/17
f 29/32/18 98/33/18 119/34/18
f 17/35/19 41/36/19 118/37/19
f 22/38/16 182/39/16 161/38/16
f 193/40/20 40/41/20 116/42/20
f 197/43/21 22/44/21 114/45/21
f 1/29/22 30/46/22 197/43/22
f 31/9/23 6/15/23 117/47/23
f 42/21/24 31/9/24 153/48/24
f 46/49/25 20/7/25 31/9/25
f 48/50/26 8/51/26 37/52/26
f 4/53/27 48/50/27 37/52/27
f 3/54/28 48/4/28 34/55/28
f 5/30/29 52/56/29 50/57/29
f 21/28/30 51/58/30 24/16/30
f 51/58/31 28/59/31 43/60/31
f 65/8/32 59/29/32 57/26/32
f 49/61/33 55/62/33 52/62/33
f 50/63/34 53/64/34 51/64/34
f 49/61/35 53/64/35 56/61/35
f 50/63/36 55/62/36 54/63/36
f 13/29/37 64/30/37 15/30/37
f 13/29/16 62/26/16 63/29/16
f 15/14/15 68/8/15 61/15/15
f 16/25/38 62/26/38 14/26/38
f 71/65/39 77/66/39 72/66/39
f 70/65/40 75/67/40 73/67/40
f 73/67/41 74/65/41 71/65/41
f 64/14/15 73/68/15 71/8/15
f 68/8/15 72/69/15 66/15/15
f 72/69/15 65/8/15 58/15/15
f 72/66/42 76/65/42 70/65/42
f 100/70/19 122/71/19 26/72/19
f 121/73/43 100/70/43 29/32/43
f 131/74/8 111/75/8 120/75/8
f 120/75/15 129/76/15 172/76/15
f 81/66/15 78/65/15 80/65/15
f 81/66/15 69/65/15 78/65/15
f 69/65/15 79/67/15 78/65/15
f 78/65/15 79/67/15 80/65/15
f 83/66/42 85/65/42 82/65/42
f 83/66/16 76/65/16 77/66/16
f 84/66/44 77/66/44 81/66/44
f 80/65/15 84/66/15 81/66/15
f 82/65/45 80/65/45 76/65/45
f 87/65/39 89/66/39 86/66/39
f 87/65/16 77/66/16 74/65/16
f 88/65/46 74/65/46 69/65/46
f 89/66/15 69/65/15 81/66/15
f 86/66/47 81/66/47 77/66/47
f 91/65/48 93/67/48 90/67/48
f 91/65/16 75/67/16 76/65/16
f 92/65/49 76/65/49 80/65/49
f 93/67/15 80/65/15 79/67/15
f 90/67/50 79/67/50 75/67/50
f 95/67/41 97/65/41 94/65/41
f 95/67/16 74/65/16 75/67/16
f 96/67/45 75/67/45 79/67/45
f 97/65/15 79/67/15 69/65/15
f 94/65/44 69/65/44 74/65/44
f 134/77/51 110/78/51 135/78/51
f 154/79/15 160/80/15 190/80/15
f 133/81/15 187/82/15 117/83/15
f 148/84/19 129/76/19 123/85/19
f 136/86/51 108/87/51 137/87/51
f 101/86/51 137/87/51 12/87/51
f 135/88/16 185/89/16 119/90/16
f 23/91/15 186/82/15 162/91/15
f 138/92/15 169/92/15 113/93/15
f 122/92/15 170/92/15 136/93/15
f 9/77/51 135/78/51 98/78/51
f 41/94/16 184/89/16 163/94/16
f 99/75/15 139/76/15 173/76/15
f 2/74/8 120/75/8 99/75/8
f 45/18/8 133/19/8 6/19/8
f 144/84/15 142/79/15 100/79/15
f 146/95/19 126/96/19 127/97/19
f 154/79/15 148/84/15 112/79/15
f 156/80/15 142/79/15 179/80/15
f 150/91/15 146/82/15 106/91/15
f 151/94/16 159/89/16 109/94/16
f 179/80/15 138/92/15 122/92/15
f 123/85/16 114/85/16 191/98/16
f 177/84/15 121/76/15 139/76/15
f 124/99/15 115/99/15 189/100/15
f 137/87/16 183/39/16 116/101/16
f 127/97/16 118/97/16 188/102/16
f 161/38/19 142/79/19 176/98/19
f 175/98/52 174/84/52 191/98/52
f 154/79/53 183/39/53 149/38/53
f 171/80/54 166/39/54 190/80/54
f 168/100/54 165/89/54 189/100/54
f 151/94/53 187/82/53 150/91/53
f 167/102/52 164/82/52 188/102/52
f 162/91/19 163/94/19 180/100/19
f 149/38/16 145/39/16 104/38/16
f 30/46/53 200/103/53 201/103/53
f 198/104/53 200/104/53 201/104/53
f 199/104/53 200/104/53 201/104/53
f 200/103/53 193/40/53 201/103/53
f 30/46/55 206/17/55 196/17/55
f 208/105/56 228/106/56 227/107/56
f 207/108/32 217/109/32 209/110/32
f 199/104/57 205/104/57 195/104/57
f 198/104/58 206/104/58 208/104/58
f 193/104/59 204/104/59 194/104/59
f 202/111/60 215/112/60 207/108/60
f 198/104/61 204/104/61 194/104/61
f 193/104/62 205/104/62 195/104/62
f 204/113/63 211/114/63 212/115/63
f 30/46/64 207/43/64 197/43/64
f 199/104/65 207/104/65 209/104/65
f 205/116/66 211/114/66 213/117/66
f 205/116/32 217/109/32 213/117/32
f 212/115/67 233/118/67 220/119/67
f 202/111/68 214/120/68 206/121/68
f 217/109/32 223/122/32 225/123/32
f 212/115/69 219/124/69 220/119/69
f 210/125/70 222/126/70 214/120/70
f 210/125/71 223/122/71 215/112/71
f 217/109/32 221/127/32 213/117/32
f 214/120/72 232/128/72 226/129/72
f 212/115/73 229/130/73 230/131/73
f 213/117/74 219/124/74 221/127/74
f 225/123/75 219/124/75 224/132/75
f 227/107/76 237/133/76 229/130/76
f 229/130/77 238/134/77 230/131/77
f 226/129/78 236/135/78 228/106/78
f 233/118/79 239/136/79 231/137/79
f 224/132/80 232/128/80 222/126/80
f 206/121/81 226/129/81 228/106/81
f 208/105/56 229/130/56 204/113/56
f 224/132/82 233/118/82 231/137/82
f 236/138/32 216/139/32 235/140/32
f 237/141/32 216/139/32 238/142/32
f 216/139/32 240/143/32 239/144/32
f 216/139/32 241/145/32 238/142/32
f 230/131/83 241/146/83 233/118/83
f 231/137/84 240/147/84 232/128/84
f 228/106/76 235/148/76 227/107/76
f 232/128/85 234/149/85 226/129/85
f 246/64/53 243/150/53 245/61/53
f 246/64/53 242/63/53 243/150/53
f 242/63/53 244/62/53 243/150/53
f 243/150/53 244/62/53 245/61/53
f 252/62/86 254/63/86 251/63/86
f 252/62/19 248/63/19 249/62/19
f 253/62/87 249/62/87 244/62/87
f 254/63/53 244/62/53 242/63/53
f 251/63/88 242/63/88 248/63/88
f 256/64/89 258/61/89 255/61/89
f 247/64/19 255/61/19 250/61/19
f 257/64/88 247/64/88 246/64/88
f 258/61/53 246/64/53 245/61/53
f 255/61/87 245/61/87 250/61/87
f 260/63/90 262/64/90 259/64/90
f 260/63/19 247/64/19 248/63/19
f 261/63/91 248/63/91 242/63/91
f 262/64/53 242/63/53 246/64/53
f 259/64/92 246/64/92 247/64/92
f 264/61/93 266/62/93 263/62/93
f 264/61/19 249/62/19 250/61/19
f 265/61/92 250/61/92 245/61/92
f 244/62/53 265/61/53 245/61/53
f 263/62/91 244/62/91 249/62/91
f 36/3/1 10/151/1 43/60/1
f 36/3/1 43/60/1 28/59/1
f 35/152/94 3/153/94 36/3/94
f 38/2/95 7/154/95 35/152/95
f 47/1/1 11/155/1 38/2/1
f 36/3/1 28/59/1 47/1/1
f 38/2/1 35/152/1 36/3/1
f 48/4/96 35/156/96 7/5/96
f 20/7/15 5/14/15 19/8/15
f 32/12/4 9/157/4 98/158/4
f 32/12/4 98/158/4 26/159/4
f 37/160/97 8/161/97 32/12/97
f 39/11/98 4/53/98 37/160/98
f 101/10/4 12/162/4 39/11/4
f 32/12/4 26/159/4 101/10/4
f 39/11/4 37/160/4 32/12/4
f 39/11/5 12/162/5 40/41/5
f 39/11/5 40/41/5 25/163/5
f 34/164/99 4/53/99 39/11/99
f 36/3/100 3/153/100 34/164/100
f 44/13/5 10/151/5 36/3/5
f 39/11/5 25/163/5 44/13/5
f 36/3/5 34/164/5 39/11/5
f 16/15/6 6/15/6 19/8/6
f 19/8/6 5/14/6 15/14/6
f 196/17/101 30/46/101 24/16/101
f 24/16/16 10/151/16 44/13/16
f 44/13/102 25/163/102 196/17/102
f 132/18/8 102/18/8 103/19/8
f 32/22/103 8/165/103 33/166/103
f 33/166/104 7/167/104 38/20/104
f 38/20/9 11/168/9 46/49/9
f 38/20/9 46/49/9 27/169/9
f 32/22/9 33/166/9 38/20/9
f 42/21/9 9/170/9 32/22/9
f 38/20/9 27/169/9 42/21/9
f 49/24/105 52/56/105 20/23/105
f 20/23/53 11/155/53 47/1/53
f 47/1/106 28/59/106 49/24/106
f 57/26/11 62/26/11 61/25/11
f 66/25/11 58/25/11 57/26/11
f 14/26/12 2/26/12 99/171/12
f 14/26/12 99/171/12 17/172/12
f 6/25/12 16/25/12 14/26/12
f 14/26/12 17/172/12 45/27/12
f 15/30/13 5/30/13 21/28/13
f 21/28/13 1/29/13 13/29/13
f 13/29/14 1/29/14 18/173/14
f 192/31/14 2/26/14 14/26/14
f 13/29/14 18/173/14 192/31/14
f 70/8/15 73/68/15 67/14/15
f 67/14/15 60/14/15 65/8/15
f 63/29/16 62/26/16 57/26/16
f 67/30/17 64/30/17 63/29/17
f 63/29/17 59/29/17 60/30/17
f 155/174/18 41/36/18 29/32/18
f 29/32/107 26/175/107 98/33/107
f 119/34/18 155/174/18 29/32/18
f 118/37/19 45/176/19 17/35/19
f 17/35/108 29/32/108 41/36/108
f 41/36/16 143/177/16 118/37/16
f 176/98/16 152/98/16 22/38/16
f 22/38/16 140/39/16 182/39/16
f 161/38/16 176/98/16 22/38/16
f 140/178/109 22/44/109 193/40/109
f 193/40/53 200/103/53 30/46/53
f 196/17/102 25/163/102 40/41/102
f 193/40/110 30/46/110 196/17/110
f 116/42/109 140/178/109 193/40/109
f 40/41/16 12/162/16 116/42/16
f 193/40/20 196/17/20 40/41/20
f 114/45/16 2/26/16 192/31/16
f 192/31/22 18/173/22 197/43/22
f 197/43/111 30/46/111 200/103/111
f 200/103/112 193/40/112 22/44/112
f 22/44/16 152/179/16 114/45/16
f 114/45/113 192/31/113 197/43/113
f 197/43/111 200/103/111 22/44/111
f 197/43/22 18/173/22 1/29/22
f 1/29/114 24/16/114 30/46/114
f 141/180/23 23/181/23 31/9/23
f 31/9/115 19/8/115 6/15/115
f 117/47/23 141/180/23 31/9/23
f 115/182/15 9/170/15 42/21/15
f 42/21/116 27/169/116 31/9/116
f 31/9/23 23/181/23 153/48/23
f 153/48/15 115/182/15 42/21/15
f 31/9/116 27/169/116 46/49/116
f 46/49/15 11/168/15 20/7/15
f 48/50/117 33/183/117 8/51/117
f 4/53/118 34/164/118 48/50/118
f 3/54/119 35/156/119 48/4/119
f 50/57/120 21/28/120 5/30/120
f 5/30/121 20/23/121 52/56/121
f 24/16/53 1/29/53 21/28/53
f 21/28/122 50/57/122 51/58/122
f 10/151/123 24/16/123 51/58/123
f 51/58/124 49/24/124 28/59/124
f 43/60/31 10/151/31 51/58/31
f 57/26/32 58/15/32 65/8/32
f 65/8/32 60/14/32 59/29/32
f 49/61/33 56/61/33 55/62/33
f 50/63/34 54/63/34 53/64/34
f 49/61/35 51/64/35 53/64/35
f 50/63/36 52/62/36 55/62/36
f 13/29/37 63/29/37 64/30/37
f 13/29/16 14/26/16 62/26/16
f 61/15/15 16/15/15 15/14/15
f 15/14/15 64/14/15 68/8/15
f 16/25/38 61/25/38 62/26/38
f 71/65/39 74/65/39 77/66/39
f 70/65/48 76/65/48 75/67/48
f 73/67/41 75/67/41 74/65/41
f 71/8/15 68/8/15 64/14/15
f 64/14/15 67/14/15 73/68/15
f 66/15/15 61/15/15 68/8/15
f 68/8/15 71/8/15 72/69/15
f 58/15/15 66/15/15 72/69/15
f 72/69/15 70/8/15 65/8/15
f 72/66/42 77/66/42 76/65/42
f 26/72/125 29/32/125 100/70/125
f 100/70/53 156/184/53 122/71/53
f 122/71/19 101/185/19 26/72/19
f 29/32/126 17/35/126 99/186/126
f 121/73/15 144/187/15 100/70/15
f 29/32/43 99/186/43 121/73/43
f 131/74/8 105/74/8 111/75/8
f 172/76/15 139/76/15 120/75/15
f 120/75/15 111/75/15 129/76/15
f 83/66/127 84/66/127 85/65/127
f 83/66/16 82/65/16 76/65/16
f 84/66/44 83/66/44 77/66/44
f 80/65/15 85/65/15 84/66/15
f 82/65/45 85/65/45 80/65/45
f 87/65/39 88/65/39 89/66/39
f 87/65/16 86/66/16 77/66/16
f 88/65/46 87/65/46 74/65/46
f 89/66/15 88/65/15 69/65/15
f 86/66/47 89/66/47 81/66/47
f 91/65/40 92/65/40 93/67/40
f 91/65/16 90/67/16 75/67/16
f 92/65/49 91/65/49 76/65/49
f 93/67/15 92/65/15 80/65/15
f 90/67/50 93/67/50 79/67/50
f 95/67/41 96/67/41 97/65/41
f 95/67/16 94/65/16 74/65/16
f 96/67/45 95/67/45 75/67/45
f 97/65/15 96/67/15 79/67/15
f 94/65/44 97/65/44 69/65/44
f 134/77/51 107/77/51 110/78/51
f 154/79/15 112/79/15 160/80/15
f 133/81/15 103/81/15 126/83/15
f 126/83/15 146/82/15 187/82/15
f 187/82/15 164/82/15 186/82/15
f 186/82/15 141/82/15 117/83/15
f 117/83/15 6/81/15 133/81/15
f 133/81/15 126/83/15 187/82/15
f 187/82/15 186/82/15 117/83/15
f 125/101/19 108/87/19 113/93/19
f 125/101/19 113/93/19 130/92/19
f 145/39/19 125/101/19 130/92/19
f 145/39/19 130/92/19 160/80/19
f 104/38/19 145/39/19 160/80/19
f 104/38/19 160/80/19 112/79/19
f 157/98/19 104/38/19 112/79/19
f 157/98/19 112/79/19 148/84/19
f 111/75/19 105/74/19 123/85/19
f 123/85/19 157/98/19 148/84/19
f 129/76/19 111/75/19 123/85/19
f 136/86/51 113/86/51 108/87/51
f 101/86/51 136/86/51 137/87/51
f 135/88/16 110/88/16 128/90/16
f 128/90/16 159/89/16 185/89/16
f 185/89/15 165/89/15 184/89/15
f 184/89/16 155/89/16 119/90/16
f 119/90/16 98/88/16 135/88/16
f 135/88/16 128/90/16 185/89/16
f 185/89/16 184/89/16 119/90/16
f 180/100/15 153/100/15 23/91/15
f 23/91/15 141/82/15 186/82/15
f 162/91/15 180/100/15 23/91/15
f 113/93/15 136/93/15 138/92/15
f 169/92/15 130/92/15 113/93/15
f 136/93/15 101/93/15 122/92/15
f 170/92/15 138/92/15 136/93/15
f 9/77/51 134/77/51 135/78/51
f 181/102/16 143/102/16 41/94/16
f 41/94/16 155/89/16 184/89/16
f 163/94/16 181/102/16 41/94/16
f 173/76/15 121/76/15 99/75/15
f 99/75/15 120/75/15 139/76/15
f 2/74/8 131/74/8 120/75/8
f 45/18/8 132/18/8 133/19/8
f 144/84/15 177/84/15 142/79/15
f 128/90/19 110/88/19 107/77/19
f 128/90/19 107/77/19 124/188/19
f 159/89/19 128/90/19 124/188/19
f 159/89/19 124/188/19 158/189/19
f 109/94/19 159/89/19 158/189/19
f 109/94/19 158/189/19 106/190/19
f 147/102/19 109/94/19 106/190/19
f 147/102/19 106/190/19 146/95/19
f 103/19/19 102/18/19 127/97/19
f 127/97/19 147/102/19 146/95/19
f 126/96/19 103/19/19 127/97/19
f 154/79/15 178/84/15 148/84/15
f 156/80/15 100/79/15 142/79/15
f 158/100/15 189/100/15 150/91/15
f 150/91/15 187/82/15 146/82/15
f 106/91/15 158/100/15 150/91/15
f 147/102/16 188/102/16 151/94/16
f 151/94/16 185/89/16 159/89/16
f 109/94/16 147/102/16 151/94/16
f 179/80/16 171/80/16 190/80/16
f 190/80/15 160/80/15 130/92/15
f 190/80/15 130/92/15 169/92/15
f 122/92/15 156/80/15 179/80/15
f 179/80/15 190/80/15 169/92/15
f 138/92/53 170/92/53 122/92/53
f 179/80/15 169/92/15 138/92/15
f 123/85/16 105/74/16 131/74/16
f 131/74/16 2/74/16 114/85/16
f 114/85/16 152/98/16 176/98/16
f 176/98/16 175/98/16 191/98/16
f 191/98/16 157/98/16 123/85/16
f 123/85/16 131/74/16 114/85/16
f 114/85/16 176/98/16 191/98/16
f 172/76/15 129/76/15 148/84/15
f 178/84/15 174/84/15 177/84/15
f 172/76/15 148/84/15 178/84/15
f 121/76/16 173/76/16 139/76/16
f 139/76/15 172/76/15 178/84/15
f 177/84/15 144/84/15 121/76/15
f 139/76/15 178/84/15 177/84/15
f 124/99/15 107/191/15 134/191/15
f 134/191/15 9/191/15 115/99/15
f 115/99/15 153/100/15 180/100/15
f 180/100/16 168/100/16 189/100/16
f 189/100/15 158/100/15 124/99/15
f 124/99/15 134/191/15 115/99/15
f 115/99/15 180/100/15 189/100/15
f 137/87/16 108/87/16 125/101/16
f 125/101/16 145/39/16 183/39/16
f 183/39/15 166/39/15 182/39/15
f 182/39/16 140/39/16 116/101/16
f 116/101/16 12/87/16 137/87/16
f 137/87/16 125/101/16 183/39/16
f 183/39/16 182/39/16 116/101/16
f 127/97/16 102/18/16 132/18/16
f 132/18/16 45/18/16 118/97/16
f 118/97/16 143/102/16 181/102/16
f 181/102/16 167/102/16 188/102/16
f 188/102/16 147/102/16 127/97/16
f 127/97/16 132/18/16 118/97/16
f 118/97/16 181/102/16 188/102/16
f 161/38/19 182/39/19 179/80/19
f 142/79/19 177/84/19 176/98/19
f 161/38/19 179/80/19 142/79/19
f 175/98/52 176/98/52 177/84/52
f 174/84/52 178/84/52 191/98/52
f 175/98/52 177/84/52 174/84/52
f 191/98/53 178/84/53 154/79/53
f 154/79/53 190/80/53 183/39/53
f 149/38/53 191/98/53 154/79/53
f 171/80/54 179/80/54 182/39/54
f 166/39/54 183/39/54 190/80/54
f 171/80/54 182/39/54 166/39/54
f 168/100/54 180/100/54 184/89/54
f 165/89/54 185/89/54 189/100/54
f 168/100/54 184/89/54 165/89/54
f 189/100/53 185/89/53 151/94/53
f 151/94/53 188/102/53 187/82/53
f 150/91/53 189/100/53 151/94/53
f 167/102/52 181/102/52 186/82/52
f 164/82/52 187/82/52 188/102/52
f 167/102/52 186/82/52 164/82/52
f 162/91/19 186/82/19 181/102/19
f 163/94/19 184/89/19 180/100/19
f 162/91/19 181/102/19 163/94/19
f 157/98/16 191/98/16 149/38/16
f 149/38/16 183/39/16 145/39/16
f 104/38/16 157/98/16 149/38/16
f 30/46/128 202/46/128 206/17/128
f 208/105/56 206/121/56 228/106/56
f 207/108/32 215/112/32 217/109/32
f 199/104/65 209/104/65 205/104/65
f 198/104/129 196/104/129 206/104/129
f 193/104/130 203/104/130 204/104/130
f 202/111/131 210/125/131 215/112/131
f 198/104/58 208/104/58 204/104/58
f 193/104/132 203/104/132 205/104/132
f 204/113/133 203/192/133 211/114/133
f 30/46/134 202/46/134 207/43/134
f 199/104/135 197/104/135 207/104/135
f 205/116/136 203/192/136 211/114/136
f 205/116/32 209/110/32 217/109/32
f 212/115/67 230/131/67 233/118/67
f 202/111/137 210/125/137 214/120/137
f 217/109/32 215/112/32 223/122/32
f 212/115/138 211/114/138 219/124/138
f 210/125/139 218/193/139 222/126/139
f 210/125/140 218/193/140 223/122/140
f 217/109/32 225/123/32 221/127/32
f 214/120/72 222/126/72 232/128/72
f 212/115/73 204/113/73 229/130/73
f 213/117/141 211/114/141 219/124/141
f 224/132/142 222/126/142 218/193/142
f 218/193/143 223/122/143 225/123/143
f 225/123/144 221/127/144 219/124/144
f 219/124/145 220/119/145 224/132/145
f 224/132/146 218/193/146 225/123/146
f 227/107/76 235/148/76 237/133/76
f 229/130/77 237/133/77 238/134/77
f 226/129/78 234/149/78 236/135/78
f 233/118/79 241/146/79 239/136/79
f 224/132/80 231/137/80 232/128/80
f 206/121/81 214/120/81 226/129/81
f 208/105/56 227/107/56 229/130/56
f 224/132/82 220/119/82 233/118/82
f 236/138/32 234/194/32 216/139/32
f 237/141/32 235/140/32 216/139/32
f 216/139/32 234/194/32 240/143/32
f 216/139/32 239/144/32 241/145/32
f 230/131/83 238/134/83 241/146/83
f 231/137/84 239/136/84 240/147/84
f 228/106/76 236/135/76 235/148/76
f 232/128/85 240/147/85 234/149/85
f 252/62/86 253/62/86 254/63/86
f 252/62/19 251/63/19 248/63/19
f 253/62/87 252/62/87 249/62/87
f 254/63/53 253/62/53 244/62/53
f 251/63/88 254/63/88 242/63/88
f 256/64/89 257/64/89 258/61/89
f 247/64/19 256/64/19 255/61/19
f 257/64/88 256/64/88 247/64/88
f 258/61/53 257/64/53 246/64/53
f 255/61/87 258/61/87 245/61/87
f 260/63/90 261/63/90 262/64/90
f 260/63/19 259/64/19 247/64/19
f 261/63/91 260/63/91 248/63/91
f 262/64/53 261/63/53 242/63/53
f 259/64/92 262/64/92 246/64/92
f 264/61/93 265/61/93 266/62/93
f 264/61/19 263/62/19 249/62/19
f 265/61/92 264/61/92 250/61/92
f 244/62/53 266/62/53 265/61/53
f 263/62/91 266/62/91 244/62/91
