# Blender 4.5.3 LTS
# www.blender.org
mtllib enemy1.mtl
o Cube
v -1.244774 -2.001651 1.244774
v -1.244774 -2.001651 -1.244774
v -0.883661 2.867697 0.883661
v -0.883661 2.867697 -0.883661
v 1.244774 -2.001651 1.244774
v 1.244774 -2.001651 -1.244774
v 0.883661 2.867697 0.883661
v 0.883661 2.867697 -0.883661
v 1.244774 1.990084 -1.244774
v -1.244774 1.990084 1.244774
v 1.244774 1.990084 1.244774
v -1.244774 1.990084 -1.244774
v -0.188607 -4.094350 1.181726
v -0.188607 -4.094350 0.110207
v 0.188607 -4.094350 1.181726
v 0.188607 -4.094350 0.110207
v 0.000000 -2.001651 -1.244774
v -1.244774 -2.001651 0.000000
v 1.244774 -2.001651 0.000000
v 1.244774 -0.005784 1.244774
v 0.000000 -2.001651 1.244774
v -1.244774 -0.005784 -1.244774
v 1.244774 -0.005784 -1.244774
v -1.244774 -0.005784 1.244774
v -1.244774 1.990084 0.000000
v 0.000000 1.990084 -1.244774
v 1.244774 1.990084 0.000000
v 0.000000 1.990084 1.244774
v 0.000000 -0.005784 -1.455711
v -1.441328 -0.005784 -0.084238
v 1.441328 -0.005784 -0.084238
v 1.122387 2.428890 -1.122387
v 1.000000 2.867697 0.000000
v -1.000000 2.867697 0.000000
v 0.000000 2.867697 1.000000
v -1.122387 2.428890 1.122387
v 0.000000 2.867697 -1.000000
v 1.122387 2.428890 1.122387
v -1.122387 2.428890 -1.122387
v -1.244774 1.990084 -0.622387
v 1.119892 -0.005784 -1.244774
v 1.244774 1.990084 -0.622387
v -0.622387 1.990084 1.244774
v -1.244774 1.990084 0.622387
v 1.119892 -2.001651 -1.244774
v 1.244774 1.990084 0.622387
v 0.622387 1.990084 1.244774
v 0.000000 3.315954 0.000000
v 0.000000 0.221134 1.357091
v 0.000000 -0.232702 1.357091
v -0.230095 -0.005784 1.357091
v 0.230095 -0.005784 1.357091
v 0.000000 -0.201757 2.057250
v 0.000000 -0.005784 2.057250
v 0.198717 -0.005784 2.057250
v 0.000000 0.190189 2.057250
v -0.198717 -0.005784 2.057250
v -0.198717 -0.005784 2.023244
v 0.000000 -0.201757 2.023244
v 0.198717 -0.005784 2.023244
v 0.000000 0.190189 2.023244
v 4.494261 -4.758941 2.023244
v 4.692978 -4.562968 2.023244
v 4.692978 -4.562968 2.057250
v 4.494261 -4.758941 2.057250
v -4.494263 4.747373 2.023244
v -4.692979 4.551400 2.023244
v -4.692979 4.551400 2.057250
v -4.494263 4.747373 2.057250
v -4.692978 -4.562968 2.023244
v -4.494261 -4.758941 2.023244
v -4.494261 -4.758941 2.057250
v -4.692978 -4.562968 2.057250
v 4.692979 4.551400 2.023244
v 4.494263 4.747373 2.023244
v 4.494263 4.747373 2.057250
v 4.692979 4.551400 2.057250
v -0.188607 -7.413729 0.401523
v 0.188607 -7.413729 0.401523
v -0.188607 -7.413729 1.473041
v 0.188607 -7.413729 1.473041
v 0.188607 -7.292829 0.392041
v -0.188607 -7.292829 0.392041
v -0.188607 -7.292829 1.463560
v 0.188607 -7.292829 1.463560
v 0.188607 -7.413729 0.937282
v 0.188607 -7.353279 0.396782
v 0.188607 -7.353279 1.468301
v 0.188607 -7.292829 0.927800
v 0.252245 -7.323053 0.930171
v 0.188607 -7.383504 0.934912
v 0.188607 -7.323053 0.930171
v 0.188607 -7.353279 0.902126
v 0.188607 -7.353279 0.962956
v 0.244290 -7.323053 0.930171
v 0.244290 -7.353279 0.962956
v 0.244290 -7.383504 0.934912
v 0.244290 -7.353279 0.902126
v 0.252245 -7.353279 0.932541
v 0.252245 -7.353279 0.962956
v 0.252245 -7.383504 0.934912
v 0.252245 -7.353279 0.902126
v 0.244290 -8.232888 0.151872
v 0.244290 -8.202663 0.119086
v 0.252245 -8.202663 0.119086
v 0.252245 -8.232888 0.151872
v 0.244290 -6.567517 0.055259
v 0.244290 -6.537292 0.083304
v 0.252245 -6.537292 0.083304
v 0.252245 -6.567517 0.055259
v 0.244290 -8.139054 1.809811
v 0.244290 -8.169279 1.781766
v 0.252245 -8.169279 1.781766
v 0.252245 -8.139054 1.809811
v 0.244290 -6.473681 1.713224
v 0.244290 -6.503907 1.746010
v 0.252245 -6.503907 1.746010
v 0.252245 -6.473681 1.713224
v 1.119892 1.990084 -1.244774
v -1.119892 -2.001651 -1.244774
v -1.119892 -0.005784 -1.244774
v -1.119892 1.990084 -1.244774
v 1.119892 -2.292724 -1.569453
v 1.244774 -2.292724 -1.569453
v -1.244774 -0.005784 -1.569453
v -1.244774 -2.292724 -1.569453
v 1.244774 -0.005784 -1.569453
v 1.244774 2.281156 -1.569453
v -1.244774 2.281156 -1.569453
v 1.119892 -0.005784 -1.569453
v 1.119892 2.281156 -1.569453
v -1.119892 -2.292724 -1.569453
v -1.119892 -0.005784 -1.569453
v -1.119892 2.281156 -1.569453
v -1.244774 -1.003718 -1.244774
v 1.244774 0.992150 -1.244774
v -1.244774 0.992150 -1.244774
v 1.244774 -1.003718 -1.244774
v 1.119892 -1.003718 -1.244774
v 1.119892 0.992150 -1.244774
v -1.119892 -2.147187 -1.407114
v -1.119892 -1.003718 -1.244774
v -1.119892 0.992150 -1.244774
v -1.244774 -1.149254 -1.569453
v 1.244774 1.137686 -1.569453
v -1.244774 1.137686 -1.569453
v 1.244774 -1.149254 -1.569453
v 1.119892 -1.149254 -1.569453
v 1.119892 1.137686 -1.569453
v -1.119892 -1.149254 -1.569453
v -1.119892 1.137686 -1.569453
v -1.244774 -2.147187 -1.407114
v 1.119892 -2.147187 -1.407114
v 1.244774 -2.147187 -1.407114
v 1.244774 2.135620 -1.407114
v 1.119892 2.135620 -1.407114
v -1.119892 2.135620 -1.407114
v -1.244774 2.135620 -1.407114
v -1.119892 1.064918 -1.407114
v -1.119892 -1.076486 -1.407114
v -1.244774 0.493183 -1.244774
v 1.244774 -0.504751 -1.244774
v -1.119892 -0.005783 -1.325944
v 1.119892 -0.504751 -1.244774
v -1.119892 -0.504751 -1.244774
v -1.244774 0.565951 -1.569453
v 1.244774 -0.577519 -1.569453
v 1.119892 -0.577519 -1.569453
v -1.119892 -0.577519 -1.569453
v -1.244774 -0.005783 -1.488283
v 1.244774 -0.005783 -1.488283
v 1.119892 -0.005783 -1.488283
v -1.244774 -0.504751 -1.244774
v 1.244774 0.493183 -1.244774
v -1.119892 -0.005783 -1.488283
v 1.119892 0.493183 -1.244774
v -1.119892 0.493183 -1.244774
v -1.244774 -0.577519 -1.569453
v 1.244774 0.565951 -1.569453
v 1.119892 0.565951 -1.569453
v -1.119892 0.565951 -1.569453
v -1.244774 -0.005783 -1.325944
v 1.244774 -0.005783 -1.325944
v 1.119892 -0.005783 -1.325944
v 1.244774 -0.921888 -1.407114
v 1.119892 0.910321 -1.407114
v -1.244774 0.910321 -1.407114
v 1.119892 -0.921888 -1.407114
v 1.244774 0.910321 -1.407114
v -1.119892 1.101302 -1.488283
v -1.119892 1.028534 -1.325944
v -1.119892 0.910321 -1.407114
v -1.119892 -1.112870 -1.488283
v -1.119892 -1.040102 -1.325944
v -1.119892 -0.921888 -1.407114
v -1.244774 -0.921888 -1.407114
v -1.244774 -0.890758 -1.325944
v -1.119892 -0.890758 -1.325944
v -1.119892 -0.953019 -1.488283
v -1.119892 0.879191 -1.325944
v 1.244774 0.879191 -1.325944
v 1.119892 -0.890758 -1.325944
v -1.244774 0.879191 -1.325944
v -1.244774 0.941452 -1.488283
v 1.119892 0.879191 -1.325944
v 1.119892 0.941452 -1.488283
v 1.244774 -0.890758 -1.325944
v 1.244774 -0.953019 -1.488283
v 1.119892 -0.953019 -1.488283
v 1.244774 0.941452 -1.488283
v -1.119892 0.941452 -1.488283
v -1.244774 -0.953019 -1.488283
v -1.244774 -2.001651 -0.622387
v -1.343051 -0.005784 -0.664506
v -1.293913 0.992150 -0.643446
v -1.293913 -1.003718 -0.643446
v -1.343051 0.992150 -0.042119
v -1.343051 -1.003718 -0.042119
v -1.318482 0.992150 -0.342783
v -1.318482 -1.003718 -0.342783
v -1.392190 -0.005784 -0.374372
v -1.392190 -0.005784 -0.374372
v -1.657825 -0.005784 -0.109720
v -1.631182 -0.005784 -0.569699
v -1.632515 0.754428 -0.569129
v -1.632515 -0.765996 -0.569129
v -1.656127 0.754428 -0.110126
v -1.656127 -0.765996 -0.110126
v -1.644321 0.754428 -0.339628
v -1.644321 -0.765996 -0.339628
v -2.058808 -0.005784 0.116110
v -2.046044 -0.005784 -0.804231
v -2.047361 0.754428 -0.803129
v -2.047361 -0.765996 -0.803129
v -2.057121 0.754428 0.115348
v -2.057121 -0.765996 0.115348
v -2.051865 2.877346 -0.344203
v -2.052241 -0.765996 -0.343891
v -2.462994 -0.005784 -0.115362
v -2.443524 -0.005784 -0.595587
v -2.444807 0.754428 -0.595111
v -2.444807 -0.765996 -0.595111
v -2.461343 0.754428 -0.115830
v -2.461343 -0.765996 -0.115830
v -2.452949 0.754428 -0.351303
v -2.452949 -0.765996 -0.351303
v -2.055974 0.836513 0.042469
v -1.708404 0.836513 -0.340613
v -1.718344 0.836513 -0.147377
v -1.698463 0.836513 -0.533850
v -2.047756 0.836513 -0.730874
v -2.389256 0.836513 -0.350444
v -2.396323 0.836513 -0.152180
v -2.382400 0.836513 -0.555726
v -2.055974 2.877346 0.042469
v -1.708404 2.877346 -0.340613
v -1.718344 2.877346 -0.147377
v -1.698463 2.877346 -0.533850
v -2.047756 2.877346 -0.730874
v -2.389256 2.877346 -0.350444
v -2.396323 2.877346 -0.152180
v -2.382400 2.877346 -0.555726
vn -0.0000 0.2687 0.9632
vn 0.4085 0.9112 0.0538
vn 0.9851 -0.0909 0.1457
vn -0.0000 0.2687 -0.9632
vn -0.9632 0.2687 -0.0000
vn 0.8927 -0.4506 -0.0000
vn -0.9945 0.0312 0.1002
vn -0.0000 -0.7446 0.6675
vn 0.9632 0.2687 -0.0000
vn 0.0952 0.0297 0.9950
vn -0.0000 -0.0782 -0.9969
vn -0.0000 -0.5435 -0.8394
vn -0.0000 -0.0301 0.9995
vn -0.8927 -0.4506 -0.0000
vn 1.0000 -0.0000 -0.0000
vn -1.0000 -0.0000 -0.0000
vn -0.0000 0.0782 0.9969
vn 0.1851 -0.0000 -0.9827
vn -0.0000 -0.0000 -1.0000
vn -0.9954 0.0507 -0.0813
vn -0.9967 -0.0000 -0.0814
vn -0.9952 -0.0980 -0.0000
vn 0.9860 -0.0000 -0.1670
vn 0.9881 0.0590 -0.1420
vn 0.9882 0.0456 0.1462
vn 0.0538 0.9112 -0.4085
vn -0.0538 0.9112 -0.4085
vn -0.4085 0.9112 0.0538
vn 0.0369 -0.0374 0.9986
vn -0.1098 -0.0685 0.9916
vn -0.0000 0.0562 0.9984
vn -0.0000 -1.0000 -0.0000
vn -0.0000 -0.0000 1.0000
vn 0.7018 0.7116 0.0331
vn -0.7018 -0.7116 0.0331
vn -0.7018 0.7116 0.0331
vn 0.7018 -0.7116 0.0331
vn 0.7022 -0.7120 -0.0000
vn 0.7120 0.7022 -0.0000
vn -0.7120 -0.7022 -0.0000
vn -0.7022 0.7120 -0.0000
vn -0.7022 -0.7120 -0.0000
vn 0.7120 -0.7022 -0.0000
vn -0.7120 0.7022 -0.0000
vn 0.7022 0.7120 -0.0000
vn -0.0000 0.0878 0.9961
vn -0.0000 -0.0878 -0.9961
vn -0.0000 0.6802 -0.7331
vn -0.0000 -0.6802 0.7330
vn -0.0000 0.7352 0.6778
vn -0.0000 -0.7352 -0.6778
vn -0.1851 -0.0000 -0.9827
vn -0.0000 0.6778 -0.7352
vn -0.0000 -0.6778 0.7352
vn -0.0000 0.7331 0.6802
vn -0.0000 -0.7331 -0.6802
vn -0.0000 -0.6802 0.7331
vn -0.0000 -0.7330 -0.6802
vn -0.0000 0.7330 0.6802
vn -0.0000 0.7446 0.6675
vn -0.0000 0.9337 -0.3581
vn -0.0000 -0.9337 -0.3581
vn 0.1962 0.0221 -0.9803
vn -0.7874 -0.6152 -0.0405
vn -0.5809 -0.8126 -0.0475
vn 0.5893 -0.8073 0.0303
vn -0.2357 0.0321 -0.9713
vn 0.4901 0.0006 0.8717
vn 0.5809 -0.8126 0.0475
vn 0.2357 0.0321 0.9713
vn 0.4913 0.0021 -0.8710
vn -0.1962 0.0221 0.9803
vn -0.5893 -0.8073 -0.0303
vn -0.4913 0.0021 0.8710
vn 0.3661 -0.6139 0.6994
vn -0.4901 0.0006 -0.8717
vn -0.4637 -0.0002 -0.8860
vn 0.4965 -0.0020 -0.8681
vn -0.4965 -0.0020 0.8681
vn 0.3919 -0.6139 -0.6853
vn -0.3894 -0.6096 0.6904
vn 0.4637 -0.0002 0.8860
vn 0.9993 -0.0000 0.0386
vn -0.9987 -0.0000 -0.0514
vn -0.4913 -0.0000 0.8710
vn -0.4901 -0.0000 -0.8717
vn 0.9994 -0.0000 0.0334
vn 0.7896 -0.6130 0.0281
vn -0.3889 -0.6086 -0.6916
vn 0.7896 -0.6130 0.0264
vn 0.4637 -0.0000 0.8860
vn 0.9994 -0.0000 0.0356
vn 0.4965 -0.0000 -0.8681
vn -0.1114 0.5210 0.8463
vn 0.1114 0.5210 0.8463
vn 0.0538 0.9112 0.4085
vn 0.1114 0.5210 -0.8463
vn -0.1114 0.5210 -0.8463
vn -0.8463 0.5210 -0.1114
vn -0.8463 0.5210 0.1114
vn -0.9851 0.0909 0.1457
vn -0.9952 0.0980 -0.0000
vn 0.8463 0.5210 -0.1114
vn 0.8463 0.5210 0.1114
vn 0.1093 0.1109 0.9878
vn -0.0000 0.0634 0.9980
vn -0.0000 0.1051 -0.9945
vn 0.1841 -0.1033 -0.9775
vn -0.9860 -0.0000 -0.1670
vn -0.9807 0.1036 -0.1661
vn -0.9807 -0.1036 -0.1661
vn -0.0000 -1.0000 -0.0010
vn -0.9954 -0.0507 -0.0813
vn -0.9892 -0.0000 0.1463
vn 0.9952 -0.0980 -0.0000
vn 0.9952 0.0980 -0.0000
vn 0.4085 0.9112 -0.0538
vn -0.4085 0.9112 -0.0538
vn -0.0538 0.9112 0.4085
vn -0.0000 -0.0634 0.9980
vn 0.1100 -0.0000 0.9939
vn -0.0624 -0.0632 0.9960
vn -0.1100 -0.0000 0.9939
vn -0.0624 0.0632 0.9960
vn -0.1841 0.1033 -0.9775
vn -0.0000 -0.1051 -0.9945
vn -0.0000 -0.7353 -0.6778
vn 0.1169 -0.0008 -0.9931
vn 0.5973 -0.8006 0.0488
vn -0.3126 0.0002 -0.9499
vn 0.4907 0.0002 0.8713
vn 0.3126 0.0002 0.9499
vn 0.4921 0.0015 -0.8705
vn -0.1169 -0.0008 0.9931
vn -0.5973 -0.8006 -0.0488
vn -0.4921 0.0015 0.8705
vn -0.4907 0.0002 -0.8713
vn -0.4648 0.0005 -0.8854
vn 0.4970 -0.0016 -0.8678
vn -0.4970 -0.0016 0.8678
vn 0.4648 0.0005 0.8854
vn 0.9994 -0.0021 0.0356
vn 0.9994 0.0021 0.0356
vn 0.9994 -0.0017 0.0334
vn 0.9994 0.0017 0.0334
vn 0.9991 -0.0000 0.0425
vt 0.157220 0.170455
vt 0.168393 0.181628
vt 0.123700 0.181628
vt 0.770522 0.822570
vt 0.860781 0.912829
vt 0.770522 0.912829
vt 0.123700 0.092241
vt 0.101353 0.103415
vt 0.101353 0.092241
vt 0.073420 0.170455
vt 0.079006 0.181628
vt 0.034313 0.181628
vt 0.112527 0.170455
vt 0.123700 0.103415
vt 0.079006 0.103415
vt 0.123700 0.159281
vt 0.101353 0.164868
vt 0.758103 0.273656
vt 0.715405 0.273656
vt 0.123700 0.069894
vt 0.090180 0.081068
vt 0.079006 0.069894
vt 0.168393 0.159281
vt 0.146047 0.164868
vt 0.034313 0.148108
vt 0.079006 0.148108
vt 0.045486 0.148108
vt 0.146047 0.148108
vt 0.123700 0.148108
vt 0.168393 0.148108
vt 0.090180 0.148108
vt 0.446447 0.126874
vt 0.382401 0.169571
vt 0.393076 0.148222
vt 0.446447 0.084176
vt 0.403750 0.126874
vt 0.403750 0.105525
vt 0.886195 0.316354
vt 0.886195 0.327028
vt 0.090180 0.159281
vt 0.090180 0.170455
vt 0.079006 0.164868
vt 0.101353 0.153695
vt 0.079006 0.159281
vt 0.079006 0.153695
vt 0.101353 0.159281
vt 0.079006 0.097828
vt 0.079006 0.089448
vt 0.112527 0.081068
vt 0.101353 0.215148
vt 0.079006 0.237495
vt 0.079006 0.215148
vt 0.079006 0.192801
vt 0.860781 0.732311
vt 0.770522 0.732311
vt 0.157220 0.159281
vt 0.146047 0.153695
vt 0.134873 0.159281
vt 0.146047 0.170455
vt 0.134873 0.170455
vt 0.721824 0.309650
vt 0.792478 0.309650
vt 0.792478 0.344978
vt 0.792478 0.274323
vt 0.863133 0.309650
vt 0.781889 0.315791
vt 0.710390 0.315791
vt 0.853389 0.315791
vt 0.112527 0.103415
vt 0.090180 0.103415
vt 0.489145 0.126874
vt 0.489145 0.148222
vt 0.446447 0.169571
vt 0.489145 0.105525
vt 0.886195 0.273656
vt 0.843498 0.273656
vt 0.843498 0.295005
vt 0.715405 0.359051
vt 0.779452 0.359051
vt 0.843498 0.316354
vt 0.843498 0.327028
vt 0.886195 0.102866
vt 0.886195 0.070843
vt 0.886195 0.081517
vt 0.843498 0.305680
vt 0.886195 0.295005
vt 0.864847 0.359051
vt 0.886195 0.359051
vt 0.736754 0.359051
vt 0.752766 0.327028
vt 0.747428 0.337703
vt 0.886195 0.060169
vt 0.843498 0.337703
vt 0.843498 0.359051
vt 0.758103 0.316354
vt 0.715405 0.305680
vt 0.715405 0.295005
vt 0.758103 0.295005
vt 0.886195 0.305680
vt 0.886195 0.038820
vt 0.886195 0.049494
vt 0.886195 0.337703
vt 0.758103 0.305680
vt 0.095766 0.159281
vt 0.000000 0.000000
vt 0.180114 0.939396
vt 0.160422 0.935866
vt 0.173681 0.930952
vt 0.054288 0.820571
vt 0.105131 0.839326
vt 0.083450 0.797472
vt 0.054288 0.927945
vt 0.092373 0.856333
vt 0.197363 0.915826
vt 0.151869 0.855278
vt 0.158078 0.885590
vt 0.118091 0.783629
vt 0.125621 0.837463
vt 0.144491 0.888435
vt 0.143853 0.885812
vt 0.133636 0.909391
vt 0.155666 0.946840
vt 0.107850 0.856857
vt 0.113431 0.853146
vt 0.134603 0.866567
vt 0.101197 0.891602
vt 0.135862 0.892744
vt 0.119058 0.849394
vt 0.138527 0.893652
vt 0.137964 0.907996
vt 0.182496 0.918446
vt 0.156728 0.889338
vt 0.139603 0.888894
vt 0.148703 0.897857
vt 0.148221 0.897732
vt 0.148865 0.898566
vt 0.148084 0.898305
vt 0.141076 0.890513
vt 0.455418 0.805466
vt 0.459540 0.594767
vt 0.549663 0.758516
vt 0.643909 0.711566
vt 0.643909 0.493338
vt 0.276437 0.482843
vt 0.372298 0.433186
vt 0.471428 0.381554
vt 0.147991 0.898067
vt 0.148201 0.898487
vt 0.148886 0.898162
vt 0.148470 0.898672
vt 0.123700 0.170455
vt 0.146047 0.192801
vt 0.123700 0.192801
vt 0.168393 0.192801
vt 0.168393 0.170455
vt 0.860781 0.822570
vt 0.034313 0.170455
vt 0.051073 0.170455
vt 0.067833 0.170455
vt 0.056660 0.192801
vt 0.034313 0.192801
vt 0.079006 0.170455
vt 0.101353 0.170455
vt 0.101353 0.192801
vt 0.079006 0.058721
vt 0.101353 0.058721
vt 0.123700 0.058721
vt 0.123700 0.081068
vt 0.101353 0.081068
vt 0.079006 0.081068
vt 0.067833 0.148108
vt 0.056660 0.148108
vt 0.101353 0.148108
vt 0.398413 0.137548
vt 0.403750 0.169571
vt 0.403750 0.084176
vt 0.403750 0.116199
vt 0.079006 0.162075
vt 0.079006 0.156488
vt 0.079006 0.095034
vt 0.079006 0.092241
vt 0.079006 0.086654
vt 0.101353 0.237495
vt 0.489145 0.137548
vt 0.489145 0.169571
vt 0.489145 0.084176
vt 0.489145 0.116199
vt 0.715405 0.337703
vt 0.715405 0.327028
vt 0.715405 0.316354
vt 0.886195 0.017471
vt 0.187052 0.834065
vt 0.120384 0.876961
vt 0.275172 0.696196
s 0
usemtl Material
f 47/1/1 38/2/1 36/3/1
f 48/4/2 7/5/2 33/6/2
f 20/7/3 19/8/3 31/9/3
f 122/10/4 39/11/4 32/12/4
f 44/13/5 36/3/5 39/11/5
f 19/8/6 15/14/6 16/15/6
f 24/16/7 44/13/7 217/17/7
f 153/18/8 124/19/8 154/19/8
f 38/20/9 42/21/9 32/22/9
f 20/23/10 47/1/10 49/24/10
f 82/25/11 87/25/11 78/26/11
f 45/27/12 6/25/12 14/26/12
f 21/28/13 13/29/13 15/30/13
f 213/31/14 14/26/14 13/29/14
f 88/14/15 86/8/15 91/8/15
f 84/29/16 78/26/16 80/29/16
f 84/29/17 81/30/17 88/30/17
f 29/32/18 119/33/18 140/34/18
f 17/35/19 41/36/19 139/37/19
f 22/38/16 203/39/16 182/38/16
f 214/40/20 40/41/20 137/42/20
f 218/43/21 22/44/21 135/45/21
f 1/29/22 30/46/22 218/43/22
f 31/9/23 6/15/23 138/47/23
f 42/21/24 31/9/24 174/48/24
f 46/49/25 20/7/25 31/9/25
f 48/50/26 8/51/26 37/52/26
f 4/53/27 48/50/27 37/52/27
f 3/54/28 48/4/28 34/55/28
f 5/30/29 52/56/29 50/57/29
f 21/28/30 51/58/30 24/16/30
f 51/58/31 28/59/31 43/60/31
f 86/8/32 80/29/32 78/26/32
f 57/61/33 54/62/33 56/63/33
f 57/61/33 53/64/33 54/62/33
f 53/64/33 55/65/33 54/62/33
f 54/62/33 55/65/33 56/63/33
f 49/63/34 60/65/34 52/65/34
f 50/64/35 58/61/35 51/61/35
f 49/63/36 58/61/36 61/63/36
f 50/64/37 60/65/37 59/64/37
f 63/65/38 65/64/38 62/64/38
f 63/65/19 59/64/19 60/65/19
f 64/65/39 60/65/39 55/65/39
f 53/64/33 64/65/33 55/65/33
f 62/64/40 53/64/40 59/64/40
f 67/61/41 69/63/41 66/63/41
f 58/61/19 66/63/19 61/63/19
f 68/61/40 58/61/40 57/61/40
f 69/63/33 57/61/33 56/63/33
f 66/63/39 56/63/39 61/63/39
f 71/64/42 73/61/42 70/61/42
f 59/64/19 70/61/19 58/61/19
f 72/64/43 59/64/43 53/64/43
f 73/61/33 53/64/33 57/61/33
f 70/61/44 57/61/44 58/61/44
f 75/63/45 77/65/45 74/65/45
f 75/63/19 60/65/19 61/63/19
f 76/63/44 61/63/44 56/63/44
f 55/65/33 76/63/33 56/63/33
f 74/65/43 55/65/43 60/65/43
f 13/29/46 85/30/46 15/30/46
f 13/29/16 83/26/16 84/29/16
f 15/14/15 89/8/15 82/15/15
f 16/25/47 83/26/47 14/26/47
f 92/66/48 98/67/48 93/67/48
f 91/66/49 96/68/49 94/68/49
f 94/68/50 95/66/50 92/66/50
f 85/14/15 94/69/15 92/8/15
f 89/8/15 93/70/15 87/15/15
f 93/70/15 86/8/15 79/15/15
f 93/67/51 97/66/51 91/66/51
f 121/71/19 143/72/19 26/73/19
f 142/74/52 121/71/52 29/32/52
f 152/75/8 132/76/8 141/76/8
f 141/76/15 150/77/15 193/77/15
f 102/67/15 99/66/15 101/66/15
f 102/67/15 90/66/15 99/66/15
f 90/66/15 100/68/15 99/66/15
f 99/66/15 100/68/15 101/66/15
f 104/67/51 106/66/51 103/66/51
f 104/67/16 97/66/16 98/67/16
f 105/67/53 98/67/53 102/67/53
f 101/66/15 105/67/15 102/67/15
f 103/66/54 101/66/54 97/66/54
f 108/66/48 110/67/48 107/67/48
f 108/66/16 98/67/16 95/66/16
f 109/66/55 95/66/55 90/66/55
f 110/67/15 90/66/15 102/67/15
f 107/67/56 102/67/56 98/67/56
f 112/66/57 114/68/57 111/68/57
f 112/66/16 96/68/16 97/66/16
f 113/66/58 97/66/58 101/66/58
f 114/68/15 101/66/15 100/68/15
f 111/68/59 100/68/59 96/68/59
f 116/68/50 118/66/50 115/66/50
f 116/68/16 95/66/16 96/68/16
f 117/68/54 96/68/54 100/68/54
f 118/66/15 100/68/15 90/66/15
f 115/66/53 90/66/53 95/66/53
f 155/78/60 131/79/60 156/79/60
f 175/80/15 181/81/15 211/81/15
f 154/82/15 208/83/15 138/84/15
f 169/85/19 150/77/19 144/86/19
f 157/87/60 129/88/60 158/88/60
f 122/87/60 158/88/60 12/88/60
f 156/89/16 206/90/16 140/91/16
f 23/92/15 207/83/15 183/92/15
f 159/93/15 190/93/15 134/94/15
f 143/93/15 191/93/15 157/94/15
f 9/78/60 156/79/60 119/79/60
f 41/95/16 205/90/16 184/95/16
f 120/76/15 160/77/15 194/77/15
f 2/75/8 141/76/8 120/76/8
f 45/18/8 154/19/8 6/19/8
f 165/85/15 163/80/15 121/80/15
f 167/96/19 147/97/19 148/98/19
f 175/80/15 169/85/15 133/80/15
f 177/81/15 163/80/15 200/81/15
f 171/92/15 167/83/15 127/92/15
f 172/95/16 180/90/16 130/95/16
f 200/81/15 159/93/15 143/93/15
f 144/86/16 135/86/16 212/99/16
f 198/85/15 142/77/15 160/77/15
f 145/100/15 136/100/15 210/101/15
f 158/88/16 204/39/16 137/102/16
f 148/98/16 139/98/16 209/103/16
f 182/38/19 163/80/19 197/99/19
f 196/99/61 195/85/61 212/99/61
f 175/80/33 204/39/33 170/38/33
f 192/81/62 187/39/62 211/81/62
f 189/101/62 186/90/62 210/101/62
f 172/95/33 208/83/33 171/92/33
f 188/103/61 185/83/61 209/103/61
f 183/92/19 184/95/19 201/101/19
f 170/38/16 166/39/16 125/38/16
f 30/46/33 221/104/33 222/104/33
f 219/105/33 221/105/33 222/105/33
f 220/105/33 221/105/33 222/105/33
f 221/104/33 214/40/33 222/104/33
f 30/46/63 227/17/63 217/17/63
f 229/106/64 249/107/64 248/108/64
f 228/109/32 238/110/32 230/111/32
f 220/105/65 226/105/65 216/105/65
f 219/105/66 227/105/66 229/105/66
f 214/105/67 225/105/67 215/105/67
f 223/112/68 236/113/68 228/109/68
f 219/105/69 225/105/69 215/105/69
f 214/105/70 226/105/70 216/105/70
f 225/114/71 232/115/71 233/116/71
f 30/46/72 228/43/72 218/43/72
f 220/105/73 228/105/73 230/105/73
f 226/117/74 232/115/74 234/118/74
f 226/117/32 238/110/32 234/118/32
f 233/116/75 254/119/75 241/120/75
f 223/112/76 235/121/76 227/122/76
f 238/110/32 244/123/32 246/124/32
f 233/116/77 240/125/77 241/120/77
f 231/126/78 243/127/78 235/121/78
f 231/126/79 244/123/79 236/113/79
f 238/110/32 242/128/32 234/118/32
f 235/121/80 253/129/80 247/130/80
f 233/116/81 250/131/81 251/132/81
f 234/118/82 240/125/82 242/128/82
f 246/124/83 240/125/83 245/133/83
f 248/108/84 258/134/84 250/131/84
f 250/131/85 259/135/85 251/132/85
f 247/130/86 257/136/86 249/107/86
f 254/119/87 260/137/87 252/138/87
f 245/133/88 253/129/88 243/127/88
f 227/122/89 247/130/89 249/107/89
f 229/106/64 250/131/64 225/114/64
f 245/133/90 254/119/90 252/138/90
f 257/139/32 237/140/32 256/141/32
f 258/142/32 237/140/32 259/143/32
f 237/140/32 261/144/32 260/145/32
f 237/140/32 262/146/32 259/143/32
f 251/132/91 262/147/91 254/119/91
f 252/138/92 261/148/92 253/129/92
f 249/107/84 256/149/84 248/108/84
f 253/129/93 255/150/93 247/130/93
f 36/3/1 10/151/1 43/60/1
f 36/3/1 43/60/1 28/59/1
f 35/152/94 3/153/94 36/3/94
f 38/2/95 7/154/95 35/152/95
f 47/1/1 11/155/1 38/2/1
f 36/3/1 28/59/1 47/1/1
f 38/2/1 35/152/1 36/3/1
f 48/4/96 35/156/96 7/5/96
f 20/7/15 5/14/15 19/8/15
f 32/12/4 9/157/4 119/158/4
f 32/12/4 119/158/4 26/159/4
f 37/160/97 8/161/97 32/12/97
f 39/11/98 4/53/98 37/160/98
f 122/10/4 12/162/4 39/11/4
f 32/12/4 26/159/4 122/10/4
f 39/11/4 37/160/4 32/12/4
f 39/11/5 12/162/5 40/41/5
f 39/11/5 40/41/5 25/163/5
f 34/164/99 4/53/99 39/11/99
f 36/3/100 3/153/100 34/164/100
f 44/13/5 10/151/5 36/3/5
f 39/11/5 25/163/5 44/13/5
f 36/3/5 34/164/5 39/11/5
f 16/15/6 6/15/6 19/8/6
f 19/8/6 5/14/6 15/14/6
f 217/17/101 30/46/101 24/16/101
f 24/16/16 10/151/16 44/13/16
f 44/13/102 25/163/102 217/17/102
f 153/18/8 123/18/8 124/19/8
f 32/22/103 8/165/103 33/166/103
f 33/166/104 7/167/104 38/20/104
f 38/20/9 11/168/9 46/49/9
f 38/20/9 46/49/9 27/169/9
f 32/22/9 33/166/9 38/20/9
f 42/21/9 9/170/9 32/22/9
f 38/20/9 27/169/9 42/21/9
f 49/24/105 52/56/105 20/23/105
f 20/23/33 11/155/33 47/1/33
f 47/1/106 28/59/106 49/24/106
f 78/26/11 83/26/11 82/25/11
f 87/25/11 79/25/11 78/26/11
f 14/26/12 2/26/12 120/171/12
f 14/26/12 120/171/12 17/172/12
f 6/25/12 16/25/12 14/26/12
f 14/26/12 17/172/12 45/27/12
f 15/30/13 5/30/13 21/28/13
f 21/28/13 1/29/13 13/29/13
f 13/29/14 1/29/14 18/173/14
f 213/31/14 2/26/14 14/26/14
f 13/29/14 18/173/14 213/31/14
f 91/8/15 94/69/15 88/14/15
f 88/14/15 81/14/15 86/8/15
f 84/29/16 83/26/16 78/26/16
f 88/30/17 85/30/17 84/29/17
f 84/29/17 80/29/17 81/30/17
f 176/174/18 41/36/18 29/32/18
f 29/32/107 26/175/107 119/33/107
f 140/34/18 176/174/18 29/32/18
f 139/37/19 45/176/19 17/35/19
f 17/35/108 29/32/108 41/36/108
f 41/36/16 164/177/16 139/37/16
f 197/99/16 173/99/16 22/38/16
f 22/38/16 161/39/16 203/39/16
f 182/38/16 197/99/16 22/38/16
f 161/178/109 22/44/109 214/40/109
f 214/40/33 221/104/33 30/46/33
f 217/17/102 25/163/102 40/41/102
f 214/40/110 30/46/110 217/17/110
f 137/42/109 161/178/109 214/40/109
f 40/41/16 12/162/16 137/42/16
f 214/40/20 217/17/20 40/41/20
f 135/45/16 2/26/16 213/31/16
f 213/31/22 18/173/22 218/43/22
f 218/43/111 30/46/111 221/104/111
f 221/104/112 214/40/112 22/44/112
f 22/44/16 173/179/16 135/45/16
f 135/45/113 213/31/113 218/43/113
f 218/43/111 221/104/111 22/44/111
f 218/43/22 18/173/22 1/29/22
f 1/29/114 24/16/114 30/46/114
f 162/180/23 23/181/23 31/9/23
f 31/9/115 19/8/115 6/15/115
f 138/47/23 162/180/23 31/9/23
f 136/182/15 9/170/15 42/21/15
f 42/21/116 27/169/116 31/9/116
f 31/9/23 23/181/23 174/48/23
f 174/48/15 136/182/15 42/21/15
f 31/9/116 27/169/116 46/49/116
f 46/49/15 11/168/15 20/7/15
f 48/50/117 33/183/117 8/51/117
f 4/53/118 34/164/118 48/50/118
f 3/54/119 35/156/119 48/4/119
f 50/57/120 21/28/120 5/30/120
f 5/30/121 20/23/121 52/56/121
f 24/16/33 1/29/33 21/28/33
f 21/28/122 50/57/122 51/58/122
f 10/151/123 24/16/123 51/58/123
f 51/58/124 49/24/124 28/59/124
f 43/60/31 10/151/31 51/58/31
f 78/26/32 79/15/32 86/8/32
f 86/8/32 81/14/32 80/29/32
f 49/63/34 61/63/34 60/65/34
f 50/64/35 59/64/35 58/61/35
f 49/63/36 51/61/36 58/61/36
f 50/64/37 52/65/37 60/65/37
f 63/65/38 64/65/38 65/64/38
f 63/65/19 62/64/19 59/64/19
f 64/65/39 63/65/39 60/65/39
f 53/64/33 65/64/33 64/65/33
f 62/64/40 65/64/40 53/64/40
f 67/61/41 68/61/41 69/63/41
f 58/61/19 67/61/19 66/63/19
f 68/61/40 67/61/40 58/61/40
f 69/63/33 68/61/33 57/61/33
f 66/63/39 69/63/39 56/63/39
f 71/64/42 72/64/42 73/61/42
f 59/64/19 71/64/19 70/61/19
f 72/64/43 71/64/43 59/64/43
f 73/61/33 72/64/33 53/64/33
f 70/61/44 73/61/44 57/61/44
f 75/63/45 76/63/45 77/65/45
f 75/63/19 74/65/19 60/65/19
f 76/63/44 75/63/44 61/63/44
f 55/65/33 77/65/33 76/63/33
f 74/65/43 77/65/43 55/65/43
f 13/29/46 84/29/46 85/30/46
f 13/29/16 14/26/16 83/26/16
f 82/15/15 16/15/15 15/14/15
f 15/14/15 85/14/15 89/8/15
f 16/25/47 82/25/47 83/26/47
f 92/66/48 95/66/48 98/67/48
f 91/66/57 97/66/57 96/68/57
f 94/68/50 96/68/50 95/66/50
f 92/8/15 89/8/15 85/14/15
f 85/14/15 88/14/15 94/69/15
f 87/15/15 82/15/15 89/8/15
f 89/8/15 92/8/15 93/70/15
f 79/15/15 87/15/15 93/70/15
f 93/70/15 91/8/15 86/8/15
f 93/67/51 98/67/51 97/66/51
f 26/73/125 29/32/125 121/71/125
f 121/71/33 177/184/33 143/72/33
f 143/72/19 122/185/19 26/73/19
f 29/32/126 17/35/126 120/186/126
f 142/74/15 165/187/15 121/71/15
f 29/32/52 120/186/52 142/74/52
f 152/75/8 126/75/8 132/76/8
f 193/77/15 160/77/15 141/76/15
f 141/76/15 132/76/15 150/77/15
f 104/67/127 105/67/127 106/66/127
f 104/67/16 103/66/16 97/66/16
f 105/67/53 104/67/53 98/67/53
f 101/66/15 106/66/15 105/67/15
f 103/66/54 106/66/54 101/66/54
f 108/66/48 109/66/48 110/67/48
f 108/66/16 107/67/16 98/67/16
f 109/66/55 108/66/55 95/66/55
f 110/67/15 109/66/15 90/66/15
f 107/67/56 110/67/56 102/67/56
f 112/66/49 113/66/49 114/68/49
f 112/66/16 111/68/16 96/68/16
f 113/66/58 112/66/58 97/66/58
f 114/68/15 113/66/15 101/66/15
f 111/68/59 114/68/59 100/68/59
f 116/68/50 117/68/50 118/66/50
f 116/68/16 115/66/16 95/66/16
f 117/68/54 116/68/54 96/68/54
f 118/66/15 117/68/15 100/68/15
f 115/66/53 118/66/53 90/66/53
f 155/78/60 128/78/60 131/79/60
f 175/80/15 133/80/15 181/81/15
f 154/82/15 124/82/15 147/84/15
f 147/84/15 167/83/15 208/83/15
f 208/83/15 185/83/15 207/83/15
f 207/83/15 162/83/15 138/84/15
f 138/84/15 6/82/15 154/82/15
f 154/82/15 147/84/15 208/83/15
f 208/83/15 207/83/15 138/84/15
f 146/102/19 129/88/19 134/94/19
f 146/102/19 134/94/19 151/93/19
f 166/39/19 146/102/19 151/93/19
f 166/39/19 151/93/19 181/81/19
f 125/38/19 166/39/19 181/81/19
f 125/38/19 181/81/19 133/80/19
f 178/99/19 125/38/19 133/80/19
f 178/99/19 133/80/19 169/85/19
f 132/76/19 126/75/19 144/86/19
f 144/86/19 178/99/19 169/85/19
f 150/77/19 132/76/19 144/86/19
f 157/87/60 134/87/60 129/88/60
f 122/87/60 157/87/60 158/88/60
f 156/89/16 131/89/16 149/91/16
f 149/91/16 180/90/16 206/90/16
f 206/90/15 186/90/15 205/90/15
f 205/90/16 176/90/16 140/91/16
f 140/91/16 119/89/16 156/89/16
f 156/89/16 149/91/16 206/90/16
f 206/90/16 205/90/16 140/91/16
f 201/101/15 174/101/15 23/92/15
f 23/92/15 162/83/15 207/83/15
f 183/92/15 201/101/15 23/92/15
f 134/94/15 157/94/15 159/93/15
f 190/93/15 151/93/15 134/94/15
f 157/94/15 122/94/15 143/93/15
f 191/93/15 159/93/15 157/94/15
f 9/78/60 155/78/60 156/79/60
f 202/103/16 164/103/16 41/95/16
f 41/95/16 176/90/16 205/90/16
f 184/95/16 202/103/16 41/95/16
f 194/77/15 142/77/15 120/76/15
f 120/76/15 141/76/15 160/77/15
f 2/75/8 152/75/8 141/76/8
f 45/18/8 153/18/8 154/19/8
f 165/85/15 198/85/15 163/80/15
f 149/91/19 131/89/19 128/78/19
f 149/91/19 128/78/19 145/188/19
f 180/90/19 149/91/19 145/188/19
f 180/90/19 145/188/19 179/189/19
f 130/95/19 180/90/19 179/189/19
f 130/95/19 179/189/19 127/190/19
f 168/103/19 130/95/19 127/190/19
f 168/103/19 127/190/19 167/96/19
f 124/19/19 123/18/19 148/98/19
f 148/98/19 168/103/19 167/96/19
f 147/97/19 124/19/19 148/98/19
f 175/80/15 199/85/15 169/85/15
f 177/81/15 121/80/15 163/80/15
f 179/101/15 210/101/15 171/92/15
f 171/92/15 208/83/15 167/83/15
f 127/92/15 179/101/15 171/92/15
f 168/103/16 209/103/16 172/95/16
f 172/95/16 206/90/16 180/90/16
f 130/95/16 168/103/16 172/95/16
f 200/81/16 192/81/16 211/81/16
f 211/81/15 181/81/15 151/93/15
f 211/81/15 151/93/15 190/93/15
f 143/93/15 177/81/15 200/81/15
f 200/81/15 211/81/15 190/93/15
f 159/93/33 191/93/33 143/93/33
f 200/81/15 190/93/15 159/93/15
f 144/86/16 126/75/16 152/75/16
f 152/75/16 2/75/16 135/86/16
f 135/86/16 173/99/16 197/99/16
f 197/99/16 196/99/16 212/99/16
f 212/99/16 178/99/16 144/86/16
f 144/86/16 152/75/16 135/86/16
f 135/86/16 197/99/16 212/99/16
f 193/77/15 150/77/15 169/85/15
f 199/85/15 195/85/15 198/85/15
f 193/77/15 169/85/15 199/85/15
f 142/77/16 194/77/16 160/77/16
f 160/77/15 193/77/15 199/85/15
f 198/85/15 165/85/15 142/77/15
f 160/77/15 199/85/15 198/85/15
f 145/100/15 128/191/15 155/191/15
f 155/191/15 9/191/15 136/100/15
f 136/100/15 174/101/15 201/101/15
f 201/101/16 189/101/16 210/101/16
f 210/101/15 179/101/15 145/100/15
f 145/100/15 155/191/15 136/100/15
f 136/100/15 201/101/15 210/101/15
f 158/88/16 129/88/16 146/102/16
f 146/102/16 166/39/16 204/39/16
f 204/39/15 187/39/15 203/39/15
f 203/39/16 161/39/16 137/102/16
f 137/102/16 12/88/16 158/88/16
f 158/88/16 146/102/16 204/39/16
f 204/39/16 203/39/16 137/102/16
f 148/98/16 123/18/16 153/18/16
f 153/18/16 45/18/16 139/98/16
f 139/98/16 164/103/16 202/103/16
f 202/103/16 188/103/16 209/103/16
f 209/103/16 168/103/16 148/98/16
f 148/98/16 153/18/16 139/98/16
f 139/98/16 202/103/16 209/103/16
f 182/38/19 203/39/19 200/81/19
f 163/80/19 198/85/19 197/99/19
f 182/38/19 200/81/19 163/80/19
f 196/99/61 197/99/61 198/85/61
f 195/85/61 199/85/61 212/99/61
f 196/99/61 198/85/61 195/85/61
f 212/99/33 199/85/33 175/80/33
f 175/80/33 211/81/33 204/39/33
f 170/38/33 212/99/33 175/80/33
f 192/81/62 200/81/62 203/39/62
f 187/39/62 204/39/62 211/81/62
f 192/81/62 203/39/62 187/39/62
f 189/101/62 201/101/62 205/90/62
f 186/90/62 206/90/62 210/101/62
f 189/101/62 205/90/62 186/90/62
f 210/101/33 206/90/33 172/95/33
f 172/95/33 209/103/33 208/83/33
f 171/92/33 210/101/33 172/95/33
f 188/103/61 202/103/61 207/83/61
f 185/83/61 208/83/61 209/103/61
f 188/103/61 207/83/61 185/83/61
f 183/92/19 207/83/19 202/103/19
f 184/95/19 205/90/19 201/101/19
f 183/92/19 202/103/19 184/95/19
f 178/99/16 212/99/16 170/38/16
f 170/38/16 204/39/16 166/39/16
f 125/38/16 178/99/16 170/38/16
f 30/46/128 223/46/128 227/17/128
f 229/106/64 227/122/64 249/107/64
f 228/109/32 236/113/32 238/110/32
f 220/105/73 230/105/73 226/105/73
f 219/105/129 217/105/129 227/105/129
f 214/105/130 224/105/130 225/105/130
f 223/112/131 231/126/131 236/113/131
f 219/105/66 229/105/66 225/105/66
f 214/105/132 224/105/132 226/105/132
f 225/114/133 224/192/133 232/115/133
f 30/46/134 223/46/134 228/43/134
f 220/105/135 218/105/135 228/105/135
f 226/117/136 224/192/136 232/115/136
f 226/117/32 230/111/32 238/110/32
f 233/116/75 251/132/75 254/119/75
f 223/112/137 231/126/137 235/121/137
f 238/110/32 236/113/32 244/123/32
f 233/116/138 232/115/138 240/125/138
f 231/126/139 239/193/139 243/127/139
f 231/126/140 239/193/140 244/123/140
f 238/110/32 246/124/32 242/128/32
f 235/121/80 243/127/80 253/129/80
f 233/116/81 225/114/81 250/131/81
f 234/118/141 232/115/141 240/125/141
f 245/133/142 243/127/142 239/193/142
f 239/193/143 244/123/143 246/124/143
f 246/124/144 242/128/144 240/125/144
f 240/125/145 241/120/145 245/133/145
f 245/133/146 239/193/146 246/124/146
f 248/108/84 256/149/84 258/134/84
f 250/131/85 258/134/85 259/135/85
f 247/130/86 255/150/86 257/136/86
f 254/119/87 262/147/87 260/137/87
f 245/133/88 252/138/88 253/129/88
f 227/122/89 235/121/89 247/130/89
f 229/106/64 248/108/64 250/131/64
f 245/133/90 241/120/90 254/119/90
f 257/139/32 255/194/32 237/140/32
f 258/142/32 256/141/32 237/140/32
f 237/140/32 255/194/32 261/144/32
f 237/140/32 260/145/32 262/146/32
f 251/132/91 259/135/91 262/147/91
f 252/138/92 260/137/92 261/148/92
f 249/107/84 257/136/84 256/149/84
f 253/129/93 261/148/93 255/150/93
